mtllib material.mtl
v -251.08648594166667 -137.50015519242442 0.3047590972222222
v -250.78241134722222 140.7477372429875 -12.782184625
v -248.04378427499998 140.7477372429875 39.565590263888886
v -247.434657225 -137.50015519242442 43.826546944444445
v -247.434657225 -137.50015519242442 -43.21702875
v -242.56555135555553 140.7477372429875 -64.52181123888889
v -235.86906433611114 -137.50015519242442 86.13008069166666
v -235.86906433611114 -137.50015519242442 -85.52154035833334
v -234.34771258888887 140.7477372429875 90.39103737222221
v -231.30403306111108 -127.74696332170352 -36.21744499722222
v -230.0867568222222 -133.59470171820817 0.3047590972222222
v -230.0867568222222 -137.82386902078815 0.3047590972222222
v -230.0867568222222 -137.82386902078815 0.3047590972222222
v -228.8694805833333 125.14680892786791 -35.91337040277778
v -228.8694805833333 125.14680892786791 -35.91337040277778
v -227.956278025 -133.59470171820817 26.478646541666667
v -227.956278025 -133.59470171820817 26.478646541666667
v -227.956278025 -133.59470171820817 -25.869128347222222
v -227.956278025 -133.59470171820817 -25.869128347222222
v -227.956278025 -137.82386902078815 26.478646541666667
v -227.956278025 -137.82386902078815 26.478646541666667
v -227.956278025 -137.82386902078815 -25.869128347222222
v -227.956278025 -137.82386902078815 -25.869128347222222
v -227.04307638055556 -120.27021299250747 0.3047590972222222
v -227.04307638055556 -137.82386902078815 37.130059925
v -227.04307638055556 -137.82386902078815 37.130059925
v -227.04307638055556 -137.82386902078815 -36.52151959166667
v -227.04307638055556 -137.82386902078815 -36.52151959166667
v -226.13085259722223 -127.74696332170352 60.869394891666666
v -224.60852390277776 -120.27021299250747 27.695923694444442
v -224.60852390277776 -120.27021299250747 27.695923694444442
v -224.60852390277776 -120.27021299250747 -27.08738244722222
v -224.60852390277776 -120.27021299250747 -27.08738244722222
v -223.69532225833333 140.7477372429875 -113.52183200555555
v -223.69532225833333 125.14680892786791 60.26124570277778
v -223.69532225833333 125.14680892786791 60.26124570277778
v -223.69532225833333 -120.27021299250747 37.43511238055555
v -223.69532225833333 -120.27021299250747 -36.825594186111104
v -217.60894015 -137.50015519242442 126.00003982222223
v -217.60894015 -137.50015519242442 -125.39149948888888
v -216.3916629972222 -137.82386902078815 79.13049693888888
v -216.3916629972222 -137.82386902078815 79.13049693888888
v -216.3916629972222 -137.82386902078815 -78.52195660555556
v -216.3916629972222 -137.82386902078815 -78.52195660555556
v -214.8693343027778 -133.59470171820817 17.956734094444446
v -214.8693343027778 -133.59470171820817 17.956734094444446
v -214.8693343027778 -133.59470171820817 -17.34819376111111
v -214.8693343027778 -133.59470171820817 -17.34819376111111
v -213.6520580638889 -120.27021299250747 20.695361166666665
v -213.6520580638889 -120.27021299250747 -20.086820833333334
v -213.34798346944444 -120.27021299250747 78.21729529444445
v -213.34798346944444 -120.27021299250747 -77.60875496111112
v -212.13070723055554 -137.82386902078815 87.6524093861111
v -212.13070723055554 -137.82386902078815 87.6524093861111
v -212.13070723055554 -137.82386902078815 87.6524093861111
v -212.13070723055554 -137.82386902078815 -87.04386905277778
v -212.13070723055554 -137.82386902078815 -87.04386905277778
v -212.13070723055554 -137.82386902078815 -87.04386905277778
v -210.6083785361111 140.7477372429875 136.95650474722223
v -209.3911013833333 -120.27021299250747 85.82600609722222
v -209.3911013833333 -120.27021299250747 -85.21746576388888
v -199.34783810277776 -137.82386902078815 115.34764857777778
v -199.34783810277776 -137.82386902078815 -114.73910824444444
v -198.73871105277777 -120.27021299250747 89.78288818333333
v -198.73871105277777 -120.27021299250747 89.78288818333333
v -198.73871105277777 -120.27021299250747 -89.17434785
v -198.73871105277777 -120.27021299250747 -89.17434785
v -197.5214339 -137.82386902078815 91.91336606666667
v -197.5214339 -137.82386902078815 91.91336606666667
v -197.5214339 -137.82386902078815 91.91336606666667
v -197.5214339 -137.82386902078815 -91.30384787222222
v -197.5214339 -137.82386902078815 -91.30384787222222
v -196.3041576611111 -127.74696332170352 -127.21692491666667
v -195.08688142222223 140.7477372429875 -157.65176904166665
v -194.17367977777778 125.14680892786791 -125.69557408333333
v -194.17367977777778 125.14680892786791 -125.69557408333333
v -192.34825435 -137.50015519242442 161.6086511277778
v -192.34825435 -137.50015519242442 -160.99952316388888
v -181.99993769999998 -127.74696332170352 147.60870041944446
v -181.69586310555556 -137.82386902078815 140.30425978333332
v -181.69586310555556 -137.82386902078815 140.30425978333332
v -181.69586310555556 -137.82386902078815 140.30425978333332
v -181.69586310555556 -137.82386902078815 -139.69571945
v -181.69586310555556 -137.82386902078815 -139.69571945
v -181.69586310555556 -137.82386902078815 -139.69571945
v -179.86945981666665 125.14680892786791 146.08695844166667
v -179.86945981666665 125.14680892786791 146.08695844166667
v -178.95625725833332 -120.27021299250747 138.78290894999998
v -178.95625725833332 -120.27021299250747 138.78290894999998
v -178.95625725833332 -120.27021299250747 -138.17339075555554
v -178.95625725833332 -120.27021299250747 -138.17339075555554
v -178.0430556138889 -137.82386902078815 125.39091277222221
v -178.0430556138889 -137.82386902078815 125.39091277222221
v -178.0430556138889 -137.82386902078815 125.39091277222221
v -178.0430556138889 -137.82386902078815 -124.7823724388889
v -178.0430556138889 -137.82386902078815 -124.7823724388889
v -178.0430556138889 -137.82386902078815 -124.7823724388889
v -177.43490642499998 140.7477372429875 177.73907880555555
v -176.825779375 -120.27021299250747 127.52139065555555
v -176.825779375 -120.27021299250747 127.52139065555555
v -176.825779375 -120.27021299250747 -126.91285032222223
v -176.825779375 -120.27021299250747 -126.91285032222223
v -176.2176301861111 -137.82386902078815 148.2173385388889
v -176.2176301861111 -137.82386902078815 148.2173385388889
v -176.2176301861111 -137.82386902078815 -147.60850484722224
v -176.2176301861111 -137.82386902078815 -147.60850484722224
v -174.08715230277778 -120.27021299250747 146.08695844166667
v -174.08715230277778 -120.27021299250747 -145.4780269638889
v -161.3042822611111 -137.50015519242442 192.6521333722222
v -161.3042822611111 -137.50015519242442 -192.04349525277777
v -157.95652813888887 140.7477372429875 -194.78212232500002
v -145.47871146666665 -137.82386902078815 178.3478147111111
v -145.47871146666665 -137.82386902078815 178.3478147111111
v -145.47871146666665 -137.82386902078815 -177.73927437777775
v -145.47871146666665 -137.82386902078815 -177.73927437777775
v -144.26045736666666 -120.27021299250747 175.30433075555555
v -144.26045736666666 -120.27021299250747 -174.69559485
v -136.65174565 140.7477372429875 210.91303984722222
v -136.65174565 -133.59470171820817 184.43478353611113
v -136.65174565 -133.59470171820817 184.43478353611113
v -136.65174565 -133.59470171820817 -183.82565648611111
v -136.65174565 -133.59470171820817 -183.82565648611111
v -136.65174565 -137.82386902078815 184.43478353611113
v -136.65174565 -137.82386902078815 184.43478353611113
v -136.65174565 -137.82386902078815 -183.82565648611111
v -136.65174565 -137.82386902078815 -183.82565648611111
v -136.0435964611111 -120.27021299250747 181.08693162777777
v -136.0435964611111 -120.27021299250747 181.08693162777777
v -136.0435964611111 -120.27021299250747 -180.4779023638889
v -136.0435964611111 -120.27021299250747 -180.4779023638889
v -127.52168401388889 -127.74696332170352 -196.000376425
v -126.00033318055554 125.14680892786791 -193.86989854166666
v -126.00033318055554 125.14680892786791 -193.86989854166666
v -125.69528072499999 -137.50015519242442 217.91301474444444
v -125.69528072499999 -137.50015519242442 -217.30418105277778
v -124.4780035722222 -120.27021299250747 174.99996280277776
v -124.4780035722222 -120.27021299250747 -174.39152025555555
v -122.65257814444443 -133.59470171820817 177.43471085277776
v -122.65257814444443 -133.59470171820817 177.43471085277776
v -122.65257814444443 -133.59470171820817 -176.82607273333332
v -122.65257814444443 -133.59470171820817 -176.82607273333332
v -122.04345109444445 -118.9649148881798 19.17401033333333
v -122.04345109444445 -118.9649148881798 -18.56547
v -121.43432404444444 -136.1948561120438 16.130330805555555
v -121.43432404444444 -136.1948561120438 16.130330805555555
v -121.43432404444444 -136.1948561120438 -15.521790472222222
v -121.43432404444444 -136.1948561120438 -15.521790472222222
v -116.26114358055555 -116.04104568992749 40.78286741666667
v -116.26114358055555 -116.04104568992749 -40.17432708333333
v -115.04386734166665 -133.27098691379143 43.21741989444444
v -115.04386734166665 -133.27098691379143 43.21741989444444
v -115.04386734166665 -133.27098691379143 -42.60887956111111
v -115.04386734166665 -133.27098691379143 -42.60887956111111
v -115.04386734166665 -133.59470171820817 199.65210826944445
v -115.04386734166665 -133.59470171820817 -199.04307900555554
v -115.04386734166665 -137.82386902078815 199.65210826944445
v -115.04386734166665 -137.82386902078815 199.65210826944445
v -115.04386734166665 -137.82386902078815 -199.04307900555554
v -115.04386734166665 -137.82386902078815 -199.04307900555554
v -113.82561324166666 140.7477372429875 -223.3915410222222
v -113.52153864722221 -120.27021299250747 196.91299135277777
v -113.52153864722221 -120.27021299250747 -196.30445101944443
v -106.2169024388889 -127.74696332170352 209.08692900277777
v -104.99962528611111 125.14680892786791 206.65218095277777
v -104.99962528611111 125.14680892786791 206.65218095277777
v -100.13051941666666 -110.51702209783954 25.56544489722222
v -100.13051941666666 -110.51702209783954 -24.956904563888887
v -99.52139236666666 -128.0706781261202 22.521765369444445
v -99.52139236666666 -128.0706781261202 22.521765369444445
v -99.52139236666666 -128.0706781261202 -21.913225036111108
v -99.52139236666666 -128.0706781261202 -21.913225036111108
v -99.21731777222222 -106.94572524285974 30.434550766666668
v -99.21731777222222 -106.94572524285974 -29.826010433333334
v -97.69596693888889 -124.16522465190401 32.565028649999995
v -97.69596693888889 -124.16522465190401 32.565028649999995
v -97.69596693888889 -124.16522465190401 -31.956488316666665
v -97.69596693888889 -124.16522465190401 -31.956488316666665
v -96.4786907 -101.41125885989912 27.695923694444442
v -96.4786907 -101.41125885989912 27.695923694444442
v -96.4786907 -101.41125885989912 -27.08738244722222
v -96.4786907 -101.41125885989912 -27.08738244722222
v -94.6522874111111 -133.27098691379143 78.52136988888888
v -94.6522874111111 -133.27098691379143 78.52136988888888
v -94.6522874111111 -133.27098691379143 -77.91282955555555
v -94.6522874111111 -133.27098691379143 -77.91282955555555
v -93.12995780277777 -116.04104568992749 80.65184777222221
v -93.12995780277777 -116.04104568992749 -80.04330743888889
v -92.82588320833334 -99.79268874202742 0.3047590972222222
v -92.21773401944444 -133.59470171820817 195.391249375
v -92.21773401944444 -133.59470171820817 195.391249375
v -92.21773401944444 -133.59470171820817 -194.78212232500002
v -92.21773401944444 -133.59470171820817 -194.78212232500002
v -91.9126815638889 -117.9937724270356 0.3047590972222222
v -91.30453237500001 -133.59470171820817 210.91303984722222
v -91.30453237500001 -133.59470171820817 210.91303984722222
v -91.30453237500001 -133.59470171820817 -210.30459638611111
v -91.30453237500001 -133.59470171820817 -210.30459638611111
v -91.30453237500001 -137.82386902078815 210.91303984722222
v -91.30453237500001 -137.82386902078815 210.91303984722222
v -91.30453237500001 -137.82386902078815 -210.30459638611111
v -91.30453237500001 -137.82386902078815 -210.30459638611111
v -91.00045778055555 -118.64120105981607 27.390871238888888
v -91.00045778055555 -118.64120105981607 27.390871238888888
v -91.00045778055555 -118.64120105981607 27.390871238888888
v -91.00045778055555 -118.64120105981607 -26.782329991666668
v -91.00045778055555 -118.64120105981607 -26.782329991666668
v -91.00045778055555 -118.64120105981607 -26.782329991666668
v -90.39133073055555 -117.9937724270356 16.130330805555555
v -90.39133073055555 -117.9937724270356 -15.521790472222222
v -90.39133073055555 -122.54665355797933 27.086795730555558
v -90.39133073055555 -122.54665355797933 27.086795730555558
v -90.39133073055555 -122.54665355797933 -26.47825539722222
v -90.39133073055555 -122.54665355797933 -26.47825539722222
v -90.08725613611111 140.7477372429875 234.65213994444446
v -89.17405449166665 -120.27021299250747 195.391249375
v -89.17405449166665 -120.27021299250747 -194.78212232500002
v -88.56492744166667 -120.27021299250747 208.47819309722223
v -88.56492744166667 -120.27021299250747 208.47819309722223
v -88.56492744166667 -120.27021299250747 -207.86906604722222
v -88.56492744166667 -120.27021299250747 -207.86906604722222
v -85.82629945555556 -137.50015519242442 236.17387186944447
v -85.82629945555556 -137.50015519242442 -235.56528310000002
v -84.30397076111112 -104.34556987297114 0.3047590972222222
v -82.17349287777778 -110.51702209783954 34.391432852777776
v -82.17349287777778 -110.51702209783954 34.391432852777776
v -82.17349287777778 -110.51702209783954 -33.78289251944444
v -82.17349287777778 -110.51702209783954 -33.78289251944444
v -81.565342775 -96.86881954377509 0.3047590972222222
v -81.565342775 -114.08831895281936 34.08735825833333
v -81.565342775 -114.08831895281936 34.08735825833333
v -81.565342775 -114.08831895281936 -33.477840063888884
v -81.565342775 -114.08831895281936 -33.477840063888884
v -81.565342775 -137.82386902078815 215.17389782777778
v -81.565342775 -137.82386902078815 215.17389782777778
v -81.565342775 -137.82386902078815 -214.56555306666664
v -81.565342775 -137.82386902078815 -214.56555306666664
v -81.26126818055555 -104.34556987297114 22.217690774999998
v -81.26126818055555 -104.34556987297114 -21.609149527777777
v -79.43486489166666 -120.27021299250747 212.73905199166666
v -79.43486489166666 -120.27021299250747 -212.13002272777777
v -78.52166324722222 -96.86881954377509 21.304488216666666
v -78.52166324722222 -96.86881954377509 -20.695947883333332
v -77.30438700833332 -92.96336606955886 0.3047590972222222
v -77.30438700833332 -104.99299850575161 0.3047590972222222
v -77.30438700833332 -104.99299850575161 0.3047590972222222
v -77.30438700833332 -118.9649148881798 96.78247193611111
v -77.30438700833332 -118.9649148881798 -96.17393160277777
v -77.00031241388889 -124.16522465190401 68.78218028888888
v -77.00031241388889 -124.16522465190401 68.78218028888888
v -77.00031241388889 -124.16522465190401 -68.17363995555556
v -77.00031241388889 -124.16522465190401 -68.17363995555556
v -76.08710985555555 -92.96336606955886 13.695777413888889
v -76.08710985555555 -92.96336606955886 -13.087237080555555
v -76.08710985555555 -104.99299850575161 13.695777413888889
v -76.08710985555555 -104.99299850575161 13.695777413888889
v -76.08710985555555 -104.99299850575161 -13.087237080555555
v -76.08710985555555 -104.99299850575161 -13.087237080555555
v -75.78303526111111 -112.79346266331142 44.13062153888889
v -75.78303526111111 -112.79346266331142 44.13062153888889
v -75.78303526111111 -112.79346266331142 -43.52208120555555
v -75.78303526111111 -112.79346266331142 -43.52208120555555
v -75.47798280555556 -106.94572524285974 71.21771154166667
v -75.47798280555556 -106.94572524285974 -70.60819334722223
v -74.56478116111111 -136.1948561120438 97.69567358055556
v -74.56478116111111 -136.1948561120438 97.69567358055556
v -74.56478116111111 -136.1948561120438 -97.08713324722223
v -74.56478116111111 -136.1948561120438 -97.08713324722223
v -73.34750492222221 -92.96336606955886 24.652243252777776
v -73.34750492222221 -92.96336606955886 24.652243252777776
v -73.34750492222221 -92.96336606955886 -24.043702919444442
v -73.34750492222221 -92.96336606955886 -24.043702919444442
v -73.34750492222221 -104.99299850575161 24.652243252777776
v -73.34750492222221 -104.99299850575161 24.652243252777776
v -73.34750492222221 -104.99299850575161 24.652243252777776
v -73.34750492222221 -104.99299850575161 -24.043702919444442
v -73.34750492222221 -104.99299850575161 -24.043702919444442
v -73.34750492222221 -104.99299850575161 -24.043702919444442
v -73.04343032777778 -104.34556987297114 42.60829284444444
v -73.04343032777778 -104.34556987297114 -41.999752511111105
v -72.13022868333333 -101.41125885989912 70.30450989722222
v -72.13022868333333 -101.41125885989912 70.30450989722222
v -72.13022868333333 -101.41125885989912 -69.69596865
v -72.13022868333333 -101.41125885989912 -69.69596865
v -71.82615408888888 -110.51702209783954 74.56546566388889
v -71.82615408888888 -110.51702209783954 -73.95692533055555
v -70.60887785 -96.86881954377509 41.08694201111111
v -70.60887785 -96.86881954377509 -40.478401677777775
v -70.60887785 -110.51702209783954 54.47796032777778
v -70.60887785 -110.51702209783954 54.47796032777778
v -70.60887785 -110.51702209783954 -53.86941999444444
v -70.60887785 -110.51702209783954 -53.86941999444444
v -69.9997508 -114.08831895281936 54.17388573333333
v -69.9997508 -114.08831895281936 54.17388573333333
v -69.9997508 -114.08831895281936 -53.5653454
v -69.9997508 -114.08831895281936 -53.5653454
v -69.08654824166666 -118.64120105981607 65.73947862222222
v -69.08654824166666 -118.64120105981607 65.73947862222222
v -69.08654824166666 -118.64120105981607 65.73947862222222
v -69.08654824166666 -118.64120105981607 -65.12996042777777
v -69.08654824166666 -118.64120105981607 -65.12996042777777
v -69.08654824166666 -118.64120105981607 -65.12996042777777
v -69.08654824166666 -125.47052275623166 -222.17426386944445
v -69.08654824166666 -125.47052275623166 -222.17426386944445
v -69.08654824166666 -128.0706781261202 75.17361485277777
v -69.08654824166666 -128.0706781261202 75.17361485277777
v -69.08654824166666 -128.0706781261202 -74.56507451944445
v -69.08654824166666 -128.0706781261202 -74.56507451944445
v -68.47839905277777 -122.54665355797933 65.13035157222221
v -68.47839905277777 -122.54665355797933 65.13035157222221
v -68.47839905277777 -122.54665355797933 -64.52181123888889
v -68.47839905277777 -122.54665355797933 -64.52181123888889
v -68.17432445833333 -122.22293972961558 -218.82553188611112
v -68.17432445833333 -122.22293972961558 -218.82553188611112
v -66.043846575 -137.82386902078815 -211.52187353888888
v -66.043846575 -137.82386902078815 -211.52187353888888
v -66.043846575 -137.82386902078815 -211.52187353888888
v -65.73879411944444 -99.79268874202742 66.04355321666667
v -65.73879411944444 -99.79268874202742 -65.43501288333333
v -65.434719525 -134.57628599417205 -208.47819309722223
v -65.434719525 -134.57628599417205 -208.47819309722223
v -65.434719525 -134.57628599417205 -208.47819309722223
v -65.13064493055555 -126.7653790457396 -223.9996902111111
v -65.13064493055555 -126.7653790457396 -223.9996902111111
v -64.825592475 140.7477372429875 -242.26079225833334
v -63.91336777777777 -121.24135545365168 -219.13058434166666
v -63.91336777777777 -121.24135545365168 -219.13058434166666
v -62.39103908333333 -138.7950114819324 -213.34729896666664
v -62.39103908333333 -138.7950114819324 -213.34729896666664
v -62.39103908333333 -138.7950114819324 -213.34729896666664
v -62.08696448888889 -123.84150984748727 -222.17426386944445
v -62.08696448888889 -123.84150984748727 -222.17426386944445
v -60.86968825 -133.59470171820817 -208.47819309722223
v -60.86968825 -133.59470171820817 -208.47819309722223
v -60.86968825 -133.59470171820817 -208.47819309722223
v -59.34735955555555 -104.34556987297114 59.65211865277778
v -59.34735955555555 -104.34556987297114 -59.04357831944444
v -59.04328496111111 -117.9937724270356 70.60858449166666
v -59.04328496111111 -117.9937724270356 -70.00004324444444
v -59.04328496111111 -136.1948561120438 -211.82594813333333
v -59.04328496111111 -136.1948561120438 -211.82594813333333
v -59.04328496111111 -136.1948561120438 -211.82594813333333
v -57.521933213888886 -96.86881954377509 57.82571536388888
v -57.521933213888886 -96.86881954377509 -57.21717411666666
v -56.91280616388889 -93.94495132157574 0.3047590972222222
v -51.434573244444444 -93.94495132157574 24.956317847222223
v -51.434573244444444 -93.94495132157574 -24.34777751388889
v -50.21729700555556 -103.68769942537098 0.3047590972222222
v -50.21729700555556 -103.68769942537098 0.3047590972222222
v -49.000020766666665 -101.41125885989912 0.3047590972222222
v -46.86954288333334 -136.1948561120438 113.52124528888889
v -46.86954288333334 -136.1948561120438 113.52124528888889
v -46.86954288333334 -136.1948561120438 -112.91270495555555
v -46.86954288333334 -136.1948561120438 -112.91270495555555
v -45.95634123888889 -117.9937724270356 80.04369858333332
v -45.95634123888889 -117.9937724270356 -79.43515824999999
v -45.34819113611111 -103.68769942537098 22.217690774999998
v -45.34819113611111 -103.68769942537098 22.217690774999998
v -45.34819113611111 -103.68769942537098 -21.609149527777777
v -45.34819113611111 -103.68769942537098 -21.609149527777777
v -44.739064086111114 -118.9649148881798 115.34764857777778
v -44.739064086111114 -118.9649148881798 -114.73910824444444
v -43.825862441666665 -90.36321167572325 24.652243252777776
v -43.825862441666665 -91.01063933245074 -24.043702919444442
v -43.825862441666665 -101.41125885989912 24.652243252777776
v -43.825862441666665 -101.41125885989912 24.652243252777776
v -43.825862441666665 -101.41125885989912 -24.043702919444442
v -43.825862441666665 -101.41125885989912 -24.043702919444442
v -43.52178784722222 -137.50015519242442 247.73909371944444
v -43.52178784722222 -137.50015519242442 -247.12989812777775
v -42.30451160833333 -104.34556987297114 73.348189425
v -42.30451160833333 -104.34556987297114 -72.73867123055555
v -40.78218291388889 -96.86881954377509 70.9126590861111
v -40.78218291388889 -96.86881954377509 -70.30411875277777
v -39.86995821666667 -137.82386902078815 227.04346752499998
v -39.86995821666667 -137.82386902078815 227.04346752499998
v -39.86995821666667 -137.82386902078815 -226.43424268888887
v -39.86995821666667 -137.82386902078815 -226.43424268888887
v -39.26083116666667 140.7477372429875 248.347780275
v -39.26083116666667 -120.27021299250747 223.99998356944445
v -39.26083116666667 -120.27021299250747 -223.3915410222222
v -36.52220409444445 -127.74696332170352 -231.000251825
v -36.21715163888889 125.14680892786791 -228.5647214861111
v -36.21715163888889 125.14680892786791 -228.5647214861111
v -35.60900245 -93.94495132157574 44.738770727777776
v -35.60900245 -93.94495132157574 -44.130230394444446
v -31.348045769444447 -103.68769942537098 39.565590263888886
v -31.348045769444447 -103.68769942537098 39.565590263888886
v -31.348045769444447 -103.68769942537098 -38.956072069444446
v -31.348045769444447 -103.68769942537098 -38.956072069444446
v -31.348045769444447 -117.9937724270356 86.73920774166668
v -31.348045769444447 -117.9937724270356 -86.13066740833334
v -30.738918719444445 -120.27021299250747 224.6086216888889
v -30.738918719444445 -120.27021299250747 224.6086216888889
v -30.738918719444445 -120.27021299250747 -223.9996902111111
v -30.434844125 -128.0706781261202 97.69567358055556
v -30.434844125 -128.0706781261202 97.69567358055556
v -30.434844125 -128.0706781261202 -97.08713324722223
v -30.434844125 -128.0706781261202 -97.08713324722223
v -30.434844125 -137.82386902078815 227.9564735972222
v -30.434844125 -137.82386902078815 227.9564735972222
v -30.434844125 -137.82386902078815 227.9564735972222
v -30.434844125 -137.82386902078815 -227.34744433333333
v -30.434844125 -137.82386902078815 -227.34744433333333
v -30.434844125 -137.82386902078815 -227.34744433333333
v -28.304366241666667 -110.51702209783954 99.52207686944443
v -28.304366241666667 -110.51702209783954 -98.912558675
v -24.65253661111111 -101.41125885989912 97.69567358055556
v -24.65253661111111 -101.41125885989912 97.69567358055556
v -24.65253661111111 -101.41125885989912 -97.08713324722223
v -24.65253661111111 -101.41125885989912 -97.08713324722223
v -23.43526037222222 -106.94572524285974 101.04342861666666
v -23.43526037222222 -106.94572524285974 -100.43488736944444
v -23.130207916666667 -116.04104568992749 121.12995609166667
v -23.130207916666667 -116.04104568992749 -120.52141575833332
v -21.912931677777777 -104.34556987297114 81.56504941666667
v -21.912931677777777 -104.34556987297114 -80.95650908333333
v -21.912931677777777 -118.64120105981607 92.82656771111111
v -21.912931677777777 -118.64120105981607 92.82656771111111
v -21.912931677777777 -118.64120105981607 92.82656771111111
v -21.912931677777777 -118.64120105981607 -92.21704951666666
v -21.912931677777777 -118.64120105981607 -92.21704951666666
v -21.912931677777777 -118.64120105981607 -92.21704951666666
v -21.912931677777777 -120.27021299250747 217.30427883888888
v -21.912931677777777 -120.27021299250747 217.30427883888888
v -21.912931677777777 -120.27021299250747 -216.6960318638889
v -21.912931677777777 -120.27021299250747 -216.6960318638889
v -21.912931677777777 -122.54665355797933 91.91336606666667
v -21.912931677777777 -122.54665355797933 91.91336606666667
v -21.912931677777777 -122.54665355797933 -91.30384787222222
v -21.912931677777777 -122.54665355797933 -91.30384787222222
v -20.999729119444442 -96.86881954377509 78.82642234444445
v -20.999729119444442 -96.86881954377509 -78.21690415
v -20.999729119444442 -124.16522465190401 101.04342861666666
v -20.999729119444442 -124.16522465190401 101.04342861666666
v -20.999729119444442 -124.16522465190401 -100.43488736944444
v -20.999729119444442 -124.16522465190401 -100.43488736944444
v -20.391579930555558 -133.27098691379143 121.12995609166667
v -20.391579930555558 -133.27098691379143 121.12995609166667
v -20.391579930555558 -133.27098691379143 -120.52141575833332
v -20.391579930555558 -133.27098691379143 -120.52141575833332
v -19.174303691666665 -137.82386902078815 217.30427883888888
v -19.174303691666665 -137.82386902078815 217.30427883888888
v -19.174303691666665 -137.82386902078815 217.30427883888888
v -19.174303691666665 -137.82386902078815 -216.6960318638889
v -19.174303691666665 -137.82386902078815 -216.6960318638889
v -19.174303691666665 -137.82386902078815 -216.6960318638889
v -13.086943722222221 140.7477372429875 -250.47863011111113
v -12.782869127777778 -93.94495132157574 56.000289022222226
v -12.782869127777778 -93.94495132157574 -55.39174868888889
v -12.173742077777778 125.14680892786791 231.6086943722222
v -12.173742077777778 125.14680892786791 231.6086943722222
v -12.173742077777778 -127.74696332170352 234.0434424222222
v -11.565592888888888 -110.51702209783954 88.56561103055554
v -11.565592888888888 -110.51702209783954 88.56561103055554
v -11.565592888888888 -110.51702209783954 -87.9560928361111
v -11.565592888888888 -110.51702209783954 -87.9560928361111
v -11.565592888888888 -114.08831895281936 87.95648398055555
v -11.565592888888888 -114.08831895281936 87.95648398055555
v -11.565592888888888 -114.08831895281936 -87.34794364722222
v -11.565592888888888 -114.08831895281936 -87.34794364722222
v -11.260540433333333 -103.68769942537098 49.30477986388889
v -11.260540433333333 -103.68769942537098 49.30477986388889
v -11.260540433333333 -103.68769942537098 -48.69526166944444
v -11.260540433333333 -103.68769942537098 -48.69526166944444
v 0.0 -80.61002078105534 0.3047590972222222
v 0.0 -96.86881954377509 81.869124925
v 0.0 -96.86881954377509 -81.26058367777777
v 0.0 -99.79268874202742 93.13064230555554
v 0.0 -99.79268874202742 -92.52210197222223
v 0.0 -104.34556987297114 84.60872985833332
v 0.0 -104.34556987297114 -84.00018952500001
v 0.0 -109.22216580833158 0.3047590972222222
v 0.0 -112.79346266331142 87.95648398055555
v 0.0 -112.79346266331142 87.95648398055555
v 0.0 -112.79346266331142 -87.34794364722222
v 0.0 -112.79346266331142 -87.34794364722222
v 0.0 -137.50015519242442 251.39126514444445
v 0.0 -137.50015519242442 -250.78270470555555
v 0.0 -137.82386902078815 230.3912225611111
v 0.0 -137.82386902078815 -229.7829755861111
v 11.260540433333333 -104.02185604460739 49.30477986388889
v 11.260540433333333 -104.02185604460739 49.30477986388889
v 11.260540433333333 -104.02185604460739 -48.69526166944444
v 11.260540433333333 -104.02185604460739 -48.69526166944444
v 11.565592888888888 -110.8407359262033 88.56561103055554
v 11.565592888888888 -110.8407359262033 88.56561103055554
v 11.565592888888888 -110.8407359262033 -87.9560928361111
v 11.565592888888888 -110.8407359262033 -87.9560928361111
v 11.565592888888888 -114.42247557205577 87.95648398055555
v 11.565592888888888 -114.42247557205577 87.95648398055555
v 11.565592888888888 -114.42247557205577 -87.34794364722222
v 11.565592888888888 -114.42247557205577 -87.34794364722222
v 12.782869127777778 -94.26866514993948 56.000289022222226
v 12.782869127777778 -94.26866514993948 -55.39174868888889
v 13.086943722222221 140.42402341462375 251.08691638333335
v 19.174303691666665 -138.1475828491519 217.30427883888888
v 19.174303691666665 -138.1475828491519 217.30427883888888
v 19.174303691666665 -138.1475828491519 217.30427883888888
v 19.174303691666665 -138.1475828491519 -216.6960318638889
v 19.174303691666665 -138.1475828491519 -216.6960318638889
v 19.174303691666665 -138.1475828491519 -216.6960318638889
v 20.391579930555558 -133.59470171820817 121.12995609166667
v 20.391579930555558 -133.59470171820817 121.12995609166667
v 20.391579930555558 -133.59470171820817 -120.52141575833332
v 20.391579930555558 -133.59470171820817 -120.52141575833332
v 20.999729119444442 -97.19253434819181 78.82642234444445
v 20.999729119444442 -97.19253434819181 -78.21690415
v 20.999729119444442 -124.49938029508743 101.04342861666666
v 20.999729119444442 -124.49938029508743 101.04342861666666
v 20.999729119444442 -124.49938029508743 -100.43488736944444
v 20.999729119444442 -124.49938029508743 -100.43488736944444
v 21.912931677777777 -104.66928467738786 81.56504941666667
v 21.912931677777777 -104.66928467738786 -80.95650908333333
v 21.912931677777777 -118.9649148881798 92.82656771111111
v 21.912931677777777 -118.9649148881798 92.82656771111111
v 21.912931677777777 -118.9649148881798 92.82656771111111
v 21.912931677777777 -118.9649148881798 -92.21704951666666
v 21.912931677777777 -118.9649148881798 -92.21704951666666
v 21.912931677777777 -118.9649148881798 -92.21704951666666
v 21.912931677777777 -120.5939268208712 217.30427883888888
v 21.912931677777777 -120.5939268208712 217.30427883888888
v 21.912931677777777 -120.5939268208712 -216.6960318638889
v 21.912931677777777 -120.5939268208712 -216.6960318638889
v 21.912931677777777 -122.87036836239604 91.91336606666667
v 21.912931677777777 -122.87036836239604 91.91336606666667
v 21.912931677777777 -122.87036836239604 -91.30384787222222
v 21.912931677777777 -122.87036836239604 -91.30384787222222
v 23.130207916666667 -116.36475951829124 121.12995609166667
v 23.130207916666667 -116.36475951829124 -120.52141575833332
v 23.43428251111111 -107.26943907122347 101.04342861666666
v 23.43428251111111 -107.26943907122347 -100.43488736944444
v 24.65253661111111 -101.74541547913553 97.69567358055556
v 24.65253661111111 -101.74541547913553 97.69567358055556
v 24.65253661111111 -101.74541547913553 -97.08713324722223
v 24.65253661111111 -101.74541547913553 -97.08713324722223
v 28.304366241666667 -110.8407359262033 99.52207686944443
v 28.304366241666667 -110.8407359262033 -98.912558675
v 30.434844125 -128.39439195448398 97.69567358055556
v 30.434844125 -128.39439195448398 97.69567358055556
v 30.434844125 -128.39439195448398 -97.08713324722223
v 30.434844125 -128.39439195448398 -97.08713324722223
v 30.434844125 -138.1475828491519 227.9564735972222
v 30.434844125 -138.1475828491519 227.9564735972222
v 30.434844125 -138.1475828491519 227.9564735972222
v 30.434844125 -138.1475828491519 -227.34744433333333
v 30.434844125 -138.1475828491519 -227.34744433333333
v 30.434844125 -138.1475828491519 -227.34744433333333
v 30.738918719444445 -120.5939268208712 224.6086216888889
v 30.738918719444445 -120.5939268208712 224.6086216888889
v 30.738918719444445 -120.5939268208712 -223.9996902111111
v 30.738918719444445 -120.5939268208712 -223.9996902111111
v 31.348045769444447 -104.02185604460739 39.565590263888886
v 31.348045769444447 -104.02185604460739 39.565590263888886
v 31.348045769444447 -104.02185604460739 -38.956072069444446
v 31.348045769444447 -104.02185604460739 -38.956072069444446
v 31.348045769444447 -118.31748625539934 86.73920774166668
v 31.348045769444447 -118.31748625539934 -86.13066740833334
v 35.60900245 -94.26866514993948 44.738770727777776
v 35.60900245 -94.26866514993948 -44.130230394444446
v 39.26083116666667 140.42402341462375 -247.7390251777778
v 39.26083116666667 -120.5939268208712 223.99998356944445
v 39.26083116666667 -120.5939268208712 -223.3915410222222
v 39.86995821666667 -138.1475828491519 227.04346752499998
v 39.86995821666667 -138.1475828491519 227.04346752499998
v 39.86995821666667 -138.1475828491519 -226.43424268888887
v 39.86995821666667 -138.1475828491519 -226.43424268888887
v 40.78218291388889 -97.19253434819181 70.9126590861111
v 40.78218291388889 -97.19253434819181 -70.30411875277777
v 42.30451160833333 -104.66928467738786 73.348189425
v 42.30451160833333 -104.66928467738786 -72.73867123055555
v 43.52178784722222 -137.82386902078815 247.73909371944444
v 43.52178784722222 -137.82386902078815 -247.12989812777775
v 43.825862441666665 -91.01063933245074 24.652243252777776
v 43.825862441666665 -91.01063933245074 -24.043702919444442
v 43.825862441666665 -101.74541547913553 24.652243252777776
v 43.825862441666665 -101.74541547913553 24.652243252777776
v 43.825862441666665 -101.74541547913553 -24.043702919444442
v 43.825862441666665 -101.74541547913553 -24.043702919444442
v 44.739064086111114 -119.29907150741623 115.34764857777778
v 44.739064086111114 -119.29907150741623 -114.73910824444444
v 45.34819113611111 -104.02185604460739 22.217690774999998
v 45.34819113611111 -104.02185604460739 22.217690774999998
v 45.34819113611111 -104.02185604460739 -21.609149527777777
v 45.34819113611111 -104.02185604460739 -21.609149527777777
v 45.95634123888889 -118.31748625539934 80.04369858333332
v 45.95634123888889 -118.31748625539934 -79.43515824999999
v 46.86954288333334 -136.5185699404075 113.52124528888889
v 46.86954288333334 -136.5185699404075 113.52124528888889
v 46.86954288333334 -136.5185699404075 -112.91270495555555
v 46.86954288333334 -136.5185699404075 -112.91270495555555
v 49.000020766666665 -101.74541547913553 0.3047590972222222
v 50.21729700555556 -104.02185604460739 0.3047590972222222
v 50.21729700555556 -104.02185604460739 0.3047590972222222
v 51.434573244444444 -94.26866514993948 24.956317847222223
v 51.434573244444444 -94.26866514993948 -24.34777751388889
v 56.91280616388889 -94.26866514993948 0.3047590972222222
v 57.521933213888886 -97.19253434819181 57.82571536388888
v 57.521933213888886 -97.19253434819181 -57.21717411666666
v 59.04328496111111 -118.31748625539934 70.60858449166666
v 59.04328496111111 -118.31748625539934 -70.00004324444444
v 59.34735955555555 -104.66928467738786 59.65211865277778
v 59.34735955555555 -104.66928467738786 -59.04357831944444
v 59.95648660555555 124.82309509950416 -223.3915410222222
v 59.95648660555555 124.82309509950416 -223.3915410222222
v 60.56561365555555 -128.0706781261202 -225.82609349999998
v 64.825592475 140.42402341462375 242.8695281638889
v 65.73879411944444 -100.11640257039116 66.04355321666667
v 65.73879411944444 -100.11640257039116 -65.43501288333333
v 68.47839905277777 -122.87036836239604 65.13035157222221
v 68.47839905277777 -122.87036836239604 65.13035157222221
v 68.47839905277777 -122.87036836239604 -64.52181123888889
v 68.47839905277777 -122.87036836239604 -64.52181123888889
v 69.08654824166666 -118.9649148881798 65.73947862222222
v 69.08654824166666 -118.9649148881798 65.73947862222222
v 69.08654824166666 -118.9649148881798 65.73947862222222
v 69.08654824166666 -118.9649148881798 -65.12996042777777
v 69.08654824166666 -118.9649148881798 -65.12996042777777
v 69.08654824166666 -118.9649148881798 -65.12996042777777
v 69.08654824166666 -128.39439195448398 75.17361485277777
v 69.08654824166666 -128.39439195448398 75.17361485277777
v 69.08654824166666 -128.39439195448398 -74.56507451944445
v 69.08654824166666 -128.39439195448398 -74.56507451944445
v 69.9997508 -114.42247557205577 54.17388573333333
v 69.9997508 -114.42247557205577 54.17388573333333
v 69.9997508 -114.42247557205577 -53.5653454
v 69.9997508 -114.42247557205577 -53.5653454
v 70.60887785 -97.19253434819181 41.08694201111111
v 70.60887785 -97.19253434819181 -40.478401677777775
v 70.60887785 -110.8407359262033 54.47796032777778
v 70.60887785 -110.8407359262033 54.47796032777778
v 70.60887785 -110.8407359262033 -53.86941999444444
v 70.60887785 -110.8407359262033 -53.86941999444444
v 71.82615408888888 -110.8407359262033 74.56546566388889
v 71.82615408888888 -110.8407359262033 -73.95692533055555
v 72.13022868333333 -101.74541547913553 70.30450989722222
v 72.13022868333333 -101.74541547913553 70.30450989722222
v 72.13022868333333 -101.74541547913553 -69.69596865
v 72.13022868333333 -101.74541547913553 -69.69596865
v 73.04343032777778 -104.66928467738786 42.60829284444444
v 73.04343032777778 -104.66928467738786 -41.999752511111105
v 73.34750492222221 -93.2870808739756 24.652243252777776
v 73.34750492222221 -93.2870808739756 24.652243252777776
v 73.34750492222221 -93.2870808739756 -24.043702919444442
v 73.34750492222221 -93.2870808739756 -24.043702919444442
v 73.34750492222221 -105.31671233411535 24.652243252777776
v 73.34750492222221 -105.31671233411535 24.652243252777776
v 73.34750492222221 -105.31671233411535 24.652243252777776
v 73.34750492222221 -105.31671233411535 -24.043702919444442
v 73.34750492222221 -105.31671233411535 -24.043702919444442
v 73.34750492222221 -105.31671233411535 -24.043702919444442
v 74.56478116111111 -136.5185699404075 97.69567358055556
v 74.56478116111111 -136.5185699404075 97.69567358055556
v 74.56478116111111 -136.5185699404075 -97.08713324722223
v 74.56478116111111 -136.5185699404075 -97.08713324722223
v 75.47798280555556 -107.26943907122347 71.21771154166667
v 75.47798280555556 -107.26943907122347 -70.60819334722223
v 75.78303526111111 -113.11717649167515 44.13062153888889
v 75.78303526111111 -113.11717649167515 44.13062153888889
v 75.78303526111111 -113.11717649167515 -43.52208120555555
v 75.78303526111111 -113.11717649167515 -43.52208120555555
v 76.08710985555555 -93.2870808739756 13.695777413888889
v 76.08710985555555 -93.2870808739756 -13.087237080555555
v 76.08710985555555 -105.31671233411535 13.695777413888889
v 76.08710985555555 -105.31671233411535 13.695777413888889
v 76.08710985555555 -105.31671233411535 -13.087237080555555
v 76.08710985555555 -105.31671233411535 -13.087237080555555
v 77.00031241388889 -124.49938029508743 68.78218028888888
v 77.00031241388889 -124.49938029508743 68.78218028888888
v 77.00031241388889 -124.49938029508743 -68.17363995555556
v 77.00031241388889 -124.49938029508743 -68.17363995555556
v 77.30438700833332 -93.2870808739756 0.3047590972222222
v 77.30438700833332 -105.31671233411535 0.3047590972222222
v 77.30438700833332 -105.31671233411535 0.3047590972222222
v 77.30438700833332 -119.29907150741623 96.78247193611111
v 77.30438700833332 -119.29907150741623 -96.17393160277777
v 78.52166324722222 -97.19253434819181 21.304488216666666
v 78.52166324722222 -97.19253434819181 -20.695947883333332
v 79.43486489166666 -120.5939268208712 212.73905199166666
v 79.43486489166666 -120.5939268208712 -212.13002272777777
v 81.26126818055555 -104.66928467738786 22.217690774999998
v 81.26126818055555 -104.66928467738786 -21.609149527777777
v 81.565342775 -97.19253434819181 0.3047590972222222
v 81.565342775 -114.42247557205577 34.08735825833333
v 81.565342775 -114.42247557205577 34.08735825833333
v 81.565342775 -114.42247557205577 -33.477840063888884
v 81.565342775 -114.42247557205577 -33.477840063888884
v 81.565342775 -138.1475828491519 215.17389782777778
v 81.565342775 -138.1475828491519 215.17389782777778
v 81.565342775 -138.1475828491519 -214.56555306666664
v 81.565342775 -138.1475828491519 -214.56555306666664
v 82.17349287777778 -110.8407359262033 34.391432852777776
v 82.17349287777778 -110.8407359262033 34.391432852777776
v 82.17349287777778 -110.8407359262033 -33.78289251944444
v 82.17349287777778 -110.8407359262033 -33.78289251944444
v 83.08669452222222 124.82309509950416 216.39127276666665
v 83.08669452222222 124.82309509950416 216.39127276666665
v 83.99989616666666 -128.0706781261202 218.82602081666667
v 84.30397076111112 -104.66928467738786 0.3047590972222222
v 85.82629945555556 -137.82386902078815 236.17387186944447
v 85.82629945555556 -137.82386902078815 -235.56528310000002
v 88.56492744166667 -120.5939268208712 208.47819309722223
v 88.56492744166667 -120.5939268208712 208.47819309722223
v 88.56492744166667 -120.5939268208712 -207.86906604722222
v 88.56492744166667 -120.5939268208712 -207.86906604722222
v 89.17405449166665 -120.5939268208712 195.391249375
v 89.17405449166665 -120.5939268208712 -194.78212232500002
v 90.08725613611111 140.42402341462375 -234.04295349166668
v 90.39133073055555 -118.31748625539934 16.130330805555555
v 90.39133073055555 -118.31748625539934 -15.521790472222222
v 90.39133073055555 -122.87036836239604 27.086795730555558
v 90.39133073055555 -122.87036836239604 27.086795730555558
v 90.39133073055555 -122.87036836239604 -26.47825539722222
v 90.39133073055555 -122.87036836239604 -26.47825539722222
v 91.00045778055555 -118.9649148881798 27.390871238888888
v 91.00045778055555 -118.9649148881798 27.390871238888888
v 91.00045778055555 -118.9649148881798 27.390871238888888
v 91.00045778055555 -118.9649148881798 -26.782329991666668
v 91.00045778055555 -118.9649148881798 -26.782329991666668
v 91.00045778055555 -118.9649148881798 -26.782329991666668
v 91.30453237500001 -133.91841554657194 210.91303984722222
v 91.30453237500001 -133.91841554657194 210.91303984722222
v 91.30453237500001 -133.91841554657194 -210.30459638611111
v 91.30453237500001 -133.91841554657194 -210.30459638611111
v 91.30453237500001 -138.1475828491519 210.91303984722222
v 91.30453237500001 -138.1475828491519 210.91303984722222
v 91.30453237500001 -138.1475828491519 -210.30459638611111
v 91.30453237500001 -138.1475828491519 -210.30459638611111
v 91.9126815638889 -118.31748625539934 0.3047590972222222
v 92.21773401944444 -133.91841554657194 195.391249375
v 92.21773401944444 -133.91841554657194 195.391249375
v 92.21773401944444 -133.91841554657194 -194.78212232500002
v 92.21773401944444 -133.91841554657194 -194.78212232500002
v 92.82588320833334 -100.11640257039116 0.3047590972222222
v 93.12995780277777 -116.36475951829124 80.65184777222221
v 93.12995780277777 -116.36475951829124 -80.04330743888889
v 94.6522874111111 -133.59470171820817 78.52136988888888
v 94.6522874111111 -133.59470171820817 78.52136988888888
v 94.6522874111111 -133.59470171820817 -77.91282955555555
v 94.6522874111111 -133.59470171820817 -77.91282955555555
v 96.4786907 -101.74541547913553 27.695923694444442
v 96.4786907 -101.74541547913553 27.695923694444442
v 96.4786907 -101.74541547913553 -27.08738244722222
v 96.4786907 -101.74541547913553 -27.08738244722222
v 97.69596693888889 -124.49938029508743 32.565028649999995
v 97.69596693888889 -124.49938029508743 32.565028649999995
v 97.69596693888889 -124.49938029508743 -31.956488316666665
v 97.69596693888889 -124.49938029508743 -31.956488316666665
v 99.21731777222222 -107.26943907122347 30.434550766666668
v 99.21731777222222 -107.26943907122347 -29.826010433333334
v 99.52139236666666 -128.39439195448398 22.521765369444445
v 99.52139236666666 -128.39439195448398 22.521765369444445
v 99.52139236666666 -128.39439195448398 -21.913225036111108
v 99.52139236666666 -128.39439195448398 -21.913225036111108
v 100.13051941666666 -110.8407359262033 25.56544489722222
v 100.13051941666666 -110.8407359262033 -24.956904563888887
v 113.52153864722221 -120.5939268208712 196.91299135277777
v 113.52153864722221 -120.5939268208712 -196.30445101944443
v 113.82561324166666 140.42402341462375 223.99998356944445
v 115.04386734166665 -133.59470171820817 43.21741989444444
v 115.04386734166665 -133.59470171820817 43.21741989444444
v 115.04386734166665 -133.59470171820817 -42.60887956111111
v 115.04386734166665 -133.59470171820817 -42.60887956111111
v 115.04386734166665 -133.91841554657194 199.65210826944445
v 115.04386734166665 -133.91841554657194 -199.04307900555554
v 115.04386734166665 -138.1475828491519 199.65210826944445
v 115.04386734166665 -138.1475828491519 199.65210826944445
v 115.04386734166665 -138.1475828491519 -199.04307900555554
v 115.04386734166665 -138.1475828491519 -199.04307900555554
v 116.26114358055555 -116.36475951829124 40.78286741666667
v 116.26114358055555 -116.36475951829124 -40.17432708333333
v 121.43432404444444 -136.5185699404075 16.130330805555555
v 121.43432404444444 -136.5185699404075 16.130330805555555
v 121.43432404444444 -136.5185699404075 -15.521790472222222
v 121.43432404444444 -136.5185699404075 -15.521790472222222
v 122.04345109444445 -119.29907150741623 19.17401033333333
v 122.04345109444445 -119.29907150741623 -18.56547
v 122.65257814444443 -133.91841554657194 177.43471085277776
v 122.65257814444443 -133.91841554657194 177.43471085277776
v 122.65257814444443 -133.91841554657194 -176.82607273333332
v 122.65257814444443 -133.91841554657194 -176.82607273333332
v 124.4780035722222 -120.5939268208712 174.99996280277776
v 124.4780035722222 -120.5939268208712 -174.39152025555555
v 125.69528072499999 -137.82386902078815 217.91301474444444
v 125.69528072499999 -137.82386902078815 -217.30418105277778
v 136.0435964611111 -120.5939268208712 181.08693162777777
v 136.0435964611111 -120.5939268208712 181.08693162777777
v 136.0435964611111 -120.5939268208712 -180.4779023638889
v 136.0435964611111 -120.5939268208712 -180.4779023638889
v 136.65174565 140.42402341462375 -210.30459638611111
v 136.65174565 -133.91841554657194 184.43478353611113
v 136.65174565 -133.91841554657194 184.43478353611113
v 136.65174565 -133.91841554657194 -183.82565648611111
v 136.65174565 -133.91841554657194 -183.82565648611111
v 136.65174565 -138.1475828491519 184.43478353611113
v 136.65174565 -138.1475828491519 184.43478353611113
v 136.65174565 -138.1475828491519 -183.82565648611111
v 136.65174565 -138.1475828491519 -183.82565648611111
v 144.26045736666666 -120.5939268208712 175.30433075555555
v 144.26045736666666 -120.5939268208712 -174.69559485
v 145.47773360555556 -138.1475828491519 178.3478147111111
v 145.47773360555556 -138.1475828491519 178.3478147111111
v 145.47773360555556 -138.1475828491519 -177.73927437777775
v 145.47773360555556 -138.1475828491519 -177.73927437777775
v 145.78278606111112 124.82309509950416 -179.56470071944443
v 145.78278606111112 124.82309509950416 -179.56470071944443
v 147.30413689444444 -128.0706781261202 -181.69517860277776
v 157.95652813888887 140.42402341462375 195.391249375
v 161.3042822611111 -137.82386902078815 192.6521333722222
v 161.3042822611111 -137.82386902078815 -192.04349525277777
v 163.73883565277777 124.82309509950416 164.04349696388888
v 163.73883565277777 124.82309509950416 164.04349696388888
v 165.56523894166668 -128.0706781261202 165.86950910833332
v 174.08715230277778 -120.5939268208712 146.08695844166667
v 174.08715230277778 -120.5939268208712 -145.4780269638889
v 176.2176301861111 -138.1475828491519 148.2173385388889
v 176.2176301861111 -138.1475828491519 148.2173385388889
v 176.2176301861111 -138.1475828491519 -147.60850484722224
v 176.2176301861111 -138.1475828491519 -147.60850484722224
v 176.825779375 -120.5939268208712 127.52139065555555
v 176.825779375 -120.5939268208712 127.52139065555555
v 176.825779375 -120.5939268208712 -126.91285032222223
v 176.825779375 -120.5939268208712 -126.91285032222223
v 177.43490642499998 140.42402341462375 -177.13014732777776
v 178.0430556138889 -138.1475828491519 125.39091277222221
v 178.0430556138889 -138.1475828491519 125.39091277222221
v 178.0430556138889 -138.1475828491519 125.39091277222221
v 178.0430556138889 -138.1475828491519 -124.7823724388889
v 178.0430556138889 -138.1475828491519 -124.7823724388889
v 178.0430556138889 -138.1475828491519 -124.7823724388889
v 178.95625725833332 -120.5939268208712 138.78290894999998
v 178.95625725833332 -120.5939268208712 138.78290894999998
v 178.95625725833332 -120.5939268208712 -138.17339075555554
v 178.95625725833332 -120.5939268208712 -138.17339075555554
v 181.69586310555556 -138.1475828491519 140.30425978333332
v 181.69586310555556 -138.1475828491519 140.30425978333332
v 181.69586310555556 -138.1475828491519 140.30425978333332
v 181.69586310555556 -138.1475828491519 -139.69571945
v 181.69586310555556 -138.1475828491519 -139.69571945
v 181.69586310555556 -138.1475828491519 -139.69571945
v 192.34825435 -137.82386902078815 161.6086511277778
v 192.34825435 -137.82386902078815 -160.99952316388888
v 195.08688142222223 140.42402341462375 158.26089609166664
v 197.5214339 -138.1475828491519 91.91336606666667
v 197.5214339 -138.1475828491519 91.91336606666667
v 197.5214339 -138.1475828491519 91.91336606666667
v 197.5214339 -138.1475828491519 -91.30384787222222
v 197.5214339 -138.1475828491519 -91.30384787222222
v 198.73871105277777 -120.5939268208712 89.78288818333333
v 198.73871105277777 -120.5939268208712 89.78288818333333
v 198.73871105277777 -120.5939268208712 -89.17434785
v 198.73871105277777 -120.5939268208712 -89.17434785
v 199.34783810277776 -138.1475828491519 115.34764857777778
v 199.34783810277776 -138.1475828491519 -114.73910824444444
v 206.34742185555555 124.82309509950416 -104.69584404999999
v 206.34742185555555 124.82309509950416 -104.69584404999999
v 208.78295219444445 -128.0706781261202 -105.91312028888889
v 209.3911013833333 -120.5939268208712 85.82600609722222
v 209.3911013833333 -120.5939268208712 -85.21746576388888
v 210.6083785361111 140.42402341462375 -136.3479644138889
v 212.13070723055554 -138.1475828491519 87.6524093861111
v 212.13070723055554 -138.1475828491519 87.6524093861111
v 212.13070723055554 -138.1475828491519 87.6524093861111
v 212.13070723055554 -138.1475828491519 -87.04386905277778
v 212.13070723055554 -138.1475828491519 -87.04386905277778
v 212.13070723055554 -138.1475828491519 -87.04386905277778
v 213.34798346944444 -120.5939268208712 78.21729529444445
v 213.34798346944444 -120.5939268208712 -77.60875496111112
v 213.6520580638889 -120.5939268208712 20.695361166666665
v 213.6520580638889 -120.5939268208712 -20.086820833333334
v 214.8693343027778 -133.91841554657194 17.956734094444446
v 214.8693343027778 -133.91841554657194 17.956734094444446
v 214.8693343027778 -133.91841554657194 -17.34819376111111
v 214.8693343027778 -133.91841554657194 -17.34819376111111
v 216.08661145555556 124.82309509950416 83.39145361944445
v 216.08661145555556 124.82309509950416 83.39145361944445
v 216.3916629972222 -138.1475828491519 79.13049693888888
v 216.3916629972222 -138.1475828491519 79.13049693888888
v 216.3916629972222 -138.1475828491519 -78.52195660555556
v 216.3916629972222 -138.1475828491519 -78.52195660555556
v 217.60894015 -137.82386902078815 126.00003982222223
v 217.60894015 -137.82386902078815 -125.39149948888888
v 218.52214179444442 -128.0706781261202 84.30465526388889
v 223.69532225833333 140.42402341462375 114.13037233888889
v 223.69532225833333 -120.5939268208712 37.43511238055555
v 223.69532225833333 -120.5939268208712 -36.825594186111104
v 224.60852390277776 -120.5939268208712 27.695923694444442
v 224.60852390277776 -120.5939268208712 27.695923694444442
v 224.60852390277776 -120.5939268208712 -27.08738244722222
v 224.60852390277776 -120.5939268208712 -27.08738244722222
v 227.04307638055556 -120.5939268208712 0.3047590972222222
v 227.04307638055556 -138.1475828491519 37.130059925
v 227.04307638055556 -138.1475828491519 37.130059925
v 227.04307638055556 -138.1475828491519 -36.52151959166667
v 227.04307638055556 -138.1475828491519 -36.52151959166667
v 227.956278025 -133.91841554657194 26.478646541666667
v 227.956278025 -133.91841554657194 26.478646541666667
v 227.956278025 -133.91841554657194 -25.869128347222222
v 227.956278025 -133.91841554657194 -25.869128347222222
v 227.956278025 -138.1475828491519 26.478646541666667
v 227.956278025 -138.1475828491519 26.478646541666667
v 227.956278025 -138.1475828491519 -25.869128347222222
v 227.956278025 -138.1475828491519 -25.869128347222222
v 230.0867568222222 -133.91841554657194 0.3047590972222222
v 230.0867568222222 -138.1475828491519 0.3047590972222222
v 230.0867568222222 -138.1475828491519 0.3047590972222222
v 231.30403306111108 124.82309509950416 -11.869960841666666
v 231.30403306111108 124.82309509950416 -11.869960841666666
v 233.73858553888888 -128.0706781261202 -11.869960841666666
v 234.34771258888887 140.42402341462375 -89.78249703888888
v 235.86906433611114 -137.82386902078815 86.13008069166666
v 235.86906433611114 -137.82386902078815 -85.52154035833334
v 242.56555135555553 140.42402341462375 65.13035157222221
v 247.434657225 -137.82386902078815 43.826546944444445
v 247.434657225 -137.82386902078815 -43.21702875
v 248.04378427499998 140.42402341462375 -38.956072069444446
v 250.78241134722222 140.42402341462375 13.391702819444443
v 251.08648594166667 -137.82386902078815 0.3047590972222222
v -329.0 114.08831895281936 -0.00029335833333333334
v -329.0 -113.76460512445563 -0.00029335833333333334
v -322.00041624722223 114.08831895281936 68.47810569444444
v -322.00041624722223 114.08831895281936 -68.47869241111111
v -322.00041624722223 -113.76460512445563 68.47810569444444
v -322.00041624722223 -113.76460512445563 -68.47869241111111
v -317.73945956666665 134.5658432032994 -33.17376455555556
v -317.73945956666665 134.5658432032994 -33.17376455555556
v -317.13033251666667 -137.50015519242442 -0.30436795277777773
v -317.13033251666667 -137.50015519242442 -0.30436795277777773
v -310.1307487638889 -137.50015519242442 66.04355321666667
v -310.1307487638889 -137.50015519242442 66.04355321666667
v -310.1307487638889 -137.50015519242442 -66.04316207222222
v -310.1307487638889 -137.50015519242442 -66.04316207222222
v -303.73931419999997 134.5658432032994 98.91294981944444
v -303.73931419999997 134.5658432032994 98.91294981944444
v -300.6956337583333 114.08831895281936 133.91282521944444
v -300.6956337583333 114.08831895281936 -133.91341193611112
v -300.6956337583333 -113.76460512445563 133.91282521944444
v -300.6956337583333 -113.76460512445563 -133.91341193611112
v -289.73916883333334 -137.50015519242442 129.04371935
v -289.73916883333334 -137.50015519242442 129.04371935
v -289.73916883333334 -137.50015519242442 -129.04332820555555
v -289.73916883333334 -137.50015519242442 -129.04332820555555
v -276.6522241972222 134.5658432032994 -159.47817233055554
v -276.6522241972222 134.5658432032994 -159.47817233055554
v -266.30390846111106 114.08831895281936 193.26086927777777
v -266.30390846111106 114.08831895281936 -193.56484608611112
v -266.30390846111106 -113.76460512445563 193.26086927777777
v -266.30390846111106 -113.76460512445563 -193.56484608611112
v -256.5647188611111 -137.50015519242442 186.26079659444443
v -256.5647188611111 -137.50015519242442 186.26079659444443
v -256.5647188611111 -137.50015519242442 -186.56526233333332
v -256.5647188611111 -137.50015519242442 -186.56526233333332
v -256.5647188611111 -139.77659575789627 -0.30436795277777773
v -251.08648594166667 -139.77659575789627 -53.261270805555554
v -251.08648594166667 -140.10030958626 53.26068408888889
v -245.91330547777778 133.59470171820817 -25.565053752777775
v -245.91330547777778 -129.69969005881163 -0.30436795277777773
v -240.43507255833336 -130.02340486322836 51.13020529166666
v -240.43507255833336 -130.02340486322836 -51.13079200833334
v -237.39139303055552 134.5658432032994 213.95652380277775
v -237.39139303055552 134.5658432032994 213.95652380277775
v -235.26091514722222 133.59470171820817 76.69594446111111
v -234.34771258888887 -139.77659575789627 104.39118273888889
v -234.34771258888887 -140.10030958626 -104.39079159444445
v -224.60852390277776 -129.69969005881163 99.82615146388889
v -224.60852390277776 -130.02340486322836 -100.130812775
v -220.3475672222222 114.08831895281936 244.3912600888889
v -220.3475672222222 -113.76460512445563 244.3912600888889
v -220.04349262777777 114.08831895281936 -244.69534473611114
v -220.04349262777777 -113.76460512445563 -244.69534473611114
v -214.26118511388887 133.59470171820817 -123.26102069166666
v -212.13070723055554 -137.50015519242442 235.56517526111108
v -212.13070723055554 -137.50015519242442 235.56517526111108
v -212.13070723055554 -137.50015519242442 -235.56528310000002
v -212.13070723055554 -137.50015519242442 -235.56528310000002
v -207.56469809444445 -139.77659575789627 150.95645545555556
v -207.56469809444445 -139.77659575789627 -150.95625988333333
v -198.73871105277777 -129.69969005881163 144.56521646388887
v -198.73871105277777 -129.69969005881163 -144.56482531944442
v -187.78224521388887 134.5658432032994 -258.08734091388885
v -187.78224521388887 134.5658432032994 -258.08734091388885
v -183.8263409888889 133.59470171820817 165.86950910833332
v -171.6525989111111 -139.77659575789627 -190.8262181
v -171.6525989111111 -140.10030958626 190.82602252777778
v -164.65203729722222 114.08831895281936 284.8694762472222
v -164.65203729722222 -113.76460512445563 284.8694762472222
v -164.34796270277778 114.08831895281936 -285.17345305555557
v -164.34796270277778 -113.76460512445563 -285.17345305555557
v -164.34796270277778 -129.69969005881163 -182.60838024722221
v -164.34796270277778 -130.02340486322836 182.60867360555557
v -158.56565518888888 -137.50015519242442 274.5216485277778
v -158.56565518888888 -137.50015519242442 274.5216485277778
v -158.56565518888888 -137.50015519242442 -274.52203967222226
v -158.56565518888888 -137.50015519242442 -274.52203967222226
v -145.47871146666665 133.59470171820817 -199.95628065
v -129.9562364916667 134.5658432032994 292.1738190972222
v -129.9562364916667 134.5658432032994 292.1738190972222
v -128.43488565833334 -139.77659575789627 222.173872725
v -128.13081106388887 -140.10030958626 -222.47833937777776
v -122.95665273888889 -129.69969005881163 213.04341994444445
v -122.65257814444443 -130.3471186915921 -213.04322437222223
v -101.65187116388888 114.08831895281936 312.86947362222224
v -101.65187116388888 114.08831895281936 -312.86966919444444
v -101.65187116388888 -113.76460512445563 312.86947362222224
v -101.65187116388888 -113.76460512445563 -312.86966919444444
v -100.73866951944444 133.59470171820817 226.43473161944442
v -98.00004153333333 -137.50015519242442 301.6086407444444
v -98.00004153333333 -137.50015519242442 301.6086407444444
v -98.00004153333333 -137.50015519242442 -301.60815181388887
v -98.00004153333333 -137.50015519242442 -301.60815181388887
v -79.43486489166666 -139.77659575789627 244.08691224166665
v -79.13079029722222 -139.77659575789627 -244.08719554722222
v -76.08710985555555 -129.69969005881163 233.739094575
v -76.08710985555555 -130.02340486322836 -233.73887889722224
v -66.34792116944443 134.5658432032994 -312.26054214444446
v -66.34792116944443 134.5658432032994 -312.26054214444446
v -51.434573244444444 133.59470171820817 -241.6516652083333
v -34.391726211111106 114.08831895281936 327.17389006944444
v -34.391726211111106 114.08831895281936 -327.17389006944444
v -34.391726211111106 -113.76460512445563 327.17389006944444
v -34.391726211111106 -113.76460512445563 -327.17389006944444
v -33.17347211111111 -137.50015519242442 315.3043203722222
v -33.17347211111111 -137.50015519242442 315.3043203722222
v -33.17347211111111 -137.50015519242442 -315.3042225861111
v -33.17347211111111 -137.50015519242442 -315.3042225861111
v -26.783014494444444 -139.77659575789627 -255.34773598055554
v -26.783014494444444 -140.10030958626 255.34773598055554
v -25.56476039444444 -130.02340486322836 244.3912600888889
v -25.56476039444444 -130.02340486322836 -244.69534473611114
v 0.0 134.5658432032994 319.8695472194444
v 0.0 134.5658432032994 319.8695472194444
v 0.0 133.59470171820817 247.73909371944444
v 25.56476039444444 -130.02340486322836 244.3912600888889
v 25.86981285 -130.67083251995584 -244.69534473611114
v 26.783014494444444 -140.10030958626 255.34773598055554
v 26.783014494444444 -140.42402341462375 -255.34773598055554
v 33.17347211111111 -137.82386902078815 315.3043203722222
v 33.17347211111111 -137.82386902078815 315.3043203722222
v 33.17347211111111 -137.82386902078815 -315.3042225861111
v 33.17347211111111 -137.82386902078815 -315.3042225861111
v 34.391726211111106 113.76460512445563 327.17389006944444
v 34.391726211111106 113.76460512445563 -327.17389006944444
v 34.391726211111106 -114.08831895281936 327.17389006944444
v 34.391726211111106 -114.08831895281936 -327.17389006944444
v 51.434573244444444 133.27098691379143 -241.6516652083333
v 66.34792116944443 134.24212937493567 -312.26054214444446
v 66.34792116944443 134.24212937493567 -312.26054214444446
v 76.08710985555555 -130.02340486322836 233.739094575
v 76.08710985555555 -130.02340486322836 -233.73887889722224
v 79.43486489166666 -140.10030958626 244.08691224166665
v 79.43486489166666 -140.10030958626 -244.08719554722222
v 98.00004153333333 -137.82386902078815 301.6086407444444
v 98.00004153333333 -137.82386902078815 301.6086407444444
v 98.00004153333333 -137.82386902078815 -301.60815181388887
v 98.00004153333333 -137.82386902078815 -301.60815181388887
v 100.73866951944444 133.27098691379143 226.43473161944442
v 101.65187116388888 113.76460512445563 312.86947362222224
v 101.65187116388888 113.76460512445563 -312.86966919444444
v 101.65187116388888 -114.08831895281936 312.86947362222224
v 101.65187116388888 -114.08831895281936 -312.86966919444444
v 122.95665273888889 -130.02340486322836 -213.04322437222223
v 123.26072733333332 -130.3471186915921 212.73905199166666
v 128.43488565833334 -140.10030958626 -222.17426386944445
v 128.43488565833334 -140.42402341462375 222.173872725
v 129.9562364916667 134.24212937493567 292.1738190972222
v 129.9562364916667 134.24212937493567 292.1738190972222
v 145.47773360555556 133.27098691379143 -199.95628065
v 158.56565518888888 -137.82386902078815 274.5216485277778
v 158.56565518888888 -137.82386902078815 274.5216485277778
v 158.56565518888888 -137.82386902078815 -274.52203967222226
v 158.56565518888888 -137.82386902078815 -274.52203967222226
v 164.34796270277778 113.76460512445563 284.8694762472222
v 164.34796270277778 -114.08831895281936 284.8694762472222
v 164.65203729722222 113.76460512445563 -284.8693784611111
v 164.65203729722222 -114.08831895281936 -284.8693784611111
v 164.65203729722222 -130.02340486322836 182.60867360555557
v 164.65203729722222 -130.67083251995584 -182.60838024722221
v 171.6525989111111 -140.10030958626 190.82602252777778
v 171.6525989111111 -140.42402341462375 -190.8262181
v 183.8263409888889 133.27098691379143 165.86950910833332
v 187.78224521388887 134.24212937493567 -258.08734091388885
v 187.78224521388887 134.24212937493567 -258.08734091388885
v 199.0437635083333 -130.02340486322836 144.56521646388887
v 199.0437635083333 -130.3471186915921 -144.56482531944442
v 207.56469809444445 -140.10030958626 150.95645545555556
v 207.56469809444445 -140.10030958626 -150.95625988333333
v 212.13070723055554 -137.82386902078815 235.56517526111108
v 212.13070723055554 -137.82386902078815 235.56517526111108
v 212.13070723055554 -137.82386902078815 -235.56528310000002
v 212.13070723055554 -137.82386902078815 -235.56528310000002
v 214.26118511388887 133.27098691379143 -123.26102069166666
v 220.04349262777777 113.76460512445563 244.69560884999999
v 220.04349262777777 -114.08831895281936 244.69560884999999
v 220.3475672222222 113.76460512445563 -244.39127014166664
v 220.3475672222222 -114.08831895281936 -244.39127014166664
v 224.60852390277776 -130.3471186915921 99.82615146388889
v 224.60852390277776 -130.3471186915921 -100.130812775
v 234.65178809722224 -140.10030958626 -104.39079159444445
v 234.65178809722224 -140.42402341462375 104.39118273888889
v 235.26091514722222 133.27098691379143 76.69594446111111
v 237.39139303055552 134.24212937493567 213.95652380277775
v 237.39139303055552 134.24212937493567 213.95652380277775
v 240.43507255833336 -130.02340486322836 51.13020529166666
v 240.43507255833336 -130.3471186915921 -51.13079200833334
v 245.91330547777778 133.27098691379143 -25.565053752777775
v 245.91330547777778 -130.02340486322836 -0.30436795277777773
v 251.08648594166667 -140.10030958626 53.26068408888889
v 251.08648594166667 -140.42402341462375 -53.261270805555554
v 256.5647188611111 -137.82386902078815 186.5651645472222
v 256.5647188611111 -137.82386902078815 186.5651645472222
v 256.5647188611111 -137.82386902078815 -186.26118773888888
v 256.5647188611111 -137.82386902078815 -186.26118773888888
v 256.5647188611111 -140.10030958626 -0.30436795277777773
v 266.30390846111106 113.76460512445563 193.56523723055557
v 266.30390846111106 113.76460512445563 -193.26077149166667
v 266.30390846111106 -114.08831895281936 193.56523723055557
v 266.30390846111106 -114.08831895281936 -193.26077149166667
v 276.65613564166665 134.24212937493567 -159.47817233055554
v 276.65613564166665 134.24212937493567 -159.47817233055554
v 289.7381909722222 -137.82386902078815 129.04371935
v 289.7381909722222 -137.82386902078815 129.04371935
v 289.7381909722222 -137.82386902078815 -129.04332820555555
v 289.7381909722222 -137.82386902078815 -129.04332820555555
v 300.69856734166666 113.76460512445563 133.91282521944444
v 300.69856734166666 113.76460512445563 -133.91341193611112
v 300.69856734166666 -114.08831895281936 133.91282521944444
v 300.69856734166666 -114.08831895281936 -133.91341193611112
v 303.73931419999997 134.24212937493567 98.91294981944444
v 303.73931419999997 134.24212937493567 98.91294981944444
v 310.1336814333333 -137.82386902078815 66.04355321666667
v 310.1336814333333 -137.82386902078815 66.04355321666667
v 310.1336814333333 -137.82386902078815 -66.04316207222222
v 310.1336814333333 -137.82386902078815 -66.04316207222222
v 317.1342439611111 -137.82386902078815 -0.30436795277777773
v 317.1342439611111 -137.82386902078815 -0.30436795277777773
v 317.74043742777775 134.24212937493567 -33.17376455555556
v 317.74043742777775 134.24212937493567 -33.17376455555556
v 322.00334891666665 113.76460512445563 68.47810569444444
v 322.00334891666665 113.76460512445563 -68.47869241111111
v 322.00334891666665 -114.08831895281936 68.47810569444444
v 322.00334891666665 -114.08831895281936 -68.47869241111111
v 329.0039105305555 113.76460512445563 -0.00029335833333333334
v 329.0039105305555 -114.08831895281936 -0.00029335833333333334



g Rim
usemtl DARK_GRAY
f  2  3 36
f  9 36  3
f 36  9 86
f 59 86  9
f 86 59 98
f 86 98 165
f 98 118 165
f 214 165 118
f 165 214 451
f 378 451 214
f 451 378 495
f 451 495 695
f 495 606 695
f 758 695 606
f 695 758 811
f 807 811 758
f 811 807 842
f 811 842 874
f 842 883 874
f 912 874 883
f 874 912 906
f 916 906 912
f 906 916 915
f 906 915 854
f 915 909 854
f 859 854 909
f 854 859 804
f 823 804 859
f 804 823 789
f 804 789 603
f 789 707 603
f 560 603 707
f 603 560 383
f 447 383 560
f 383 447 324
f 383 324 133
f 324 160 133
f 111 133 160
f 133 111 76
f 74 76 111
f 76 74 34
f 14 76 34
f 35 29 15
f 10 15 29
f 15 10 75
f 73 75 10
f 75 73 132
f 131 132 73
f 132 131 382
f 381 382 131
f 382 381 604
f 605 604 381
f 604 605 805
f 806 805 605
f 805 806 855
f 856 855 806
f 855 856 907
f 908 907 856
f 907 908 875
f 882 875 908
f 875 882 810
f 812 810 882
f 810 812 696
f 697 696 812
f 696 697 450
f 452 450 697
f 450 452 164
f 163 164 452
f 164 163 87
f 79 87 163
f 87 79 35
f 29 35 79
f 34  6 14
f  2 14  6
f 14  2 36
f 176 153 185
f 71 185 153
f 185 71 95
f 63 95 71
f 95 63 83
f 40 83 63
f 83 40 78
f 159 126 110
f 115 110 126
f 110 115 78
f 106 78 115
f 78 106 83
f 403 377 369
f 236 369 377
f 369 236 222
f 201 222 236
f 222 201 159
f 369 478 403
f 480 403 478
f 403 480 445
f 501 445 480
f 445 501 504
f 501 480 545
f 550 522 500
f 500 546 550
f 551 547 562
f 565 562 547
f 562 565 679
f 690 679 565
f 679 690 703
f 727 703 690
f 703 727 757
f 767 757 727
f 757 767 796
f 768 726 700
f 689 700 726
f 700 689 572
f 566 572 689
f 572 566 545
f 837 818 841
f 803 841 818
f 841 803 809
f 797 809 803
f 809 797 768
f 841 881 837
f 853 837 881
f 837 853 827
f 847 827 853
f 827 847 761
f 847 853 863
f 858 850 846
f 846 864 858
f 858 864 867
f 867 878 885
f 894 885 878
f 885 894 888
f 901 888 894
f 888 901 890
f 878 867 865
f 904 902 914
f 893 914 902
f 914 893 911
f 879 911 893
f 911 879 863
f 901 905 890
f 899 890 905
f 890 899 886
f 891 886 899
f 886 891 884
f 877 884 891
f 884 877 866
f 862 866 877
f 861 876 910
f 892 910 876
f 910 892 913
f 900 913 892
f 913 900 904
f 910 880 861
f 852 861 880
f 861 852 843
f 824 843 852
f 843 824 737
f 824 852 834
f 830 820 825
f 825 835 830
f 831 836 813
f 816 813 836
f 813 816 798
f 800 798 816
f 798 800 785
f 794 785 800
f 785 794 756
f 766 756 794
f 756 766 724
f 765 795 808
f 801 808 795
f 808 801 840
f 815 840 801
f 840 815 834
f 543 563 571
f 688 571 563
f 571 688 699
f 725 699 688
f 699 725 765
f 571 477 543
f 479 543 477
f 543 479 496
f 442 496 479
f 496 442 438
f 442 479 400
f 392 423 443
f 443 401 393
f 392 399 379
f 375 379 399
f 379 375 239
f 233 239 375
f 239 233 217
f 198 217 233
f 217 198 161
f 157 161 198
f 161 157 123
f 156 199 221
f 234 221 199
f 221 234 368
f 374 368 234
f 368 374 400
f 81 104 77
f 113 77 104
f 77 113 109
f 124 109 113
f 109 124 156
f 77 39 81
f 62 81 39
f 81 62 92
f 68 92 62
f 92 68 150
f 68 62 53
f 60 64 69
f 69 55 60
f 60 54 51
f 41 51 54
f 51 41 37
f 25 37 41
f 37 25 30
f 20 30 25
f 30 20 24
f 12 24 20
f 24 12 23
f 13 21  4
f 26  4 21
f  4 26  7
f 42  7 26
f  7 42 53
f 58 52 43
f 38 43 52
f 43 38 28
f 32 28 38
f 28 32 23
f 24 23 32
f 57 44  8
f 27  8 44
f  8 27  5
f 22  5 27
f  5 22 13
f 57  8 40
f 40 63 57
f 90 102 97
f 96 85 91
f 90 84 108
f 105 108 84
f 108 105 117
f 114 117 105
f 117 114 129
f 125 129 114
f 129 125 162
f 158 162 125
f 162 158 200
f 96 101 184
f 187 184 101
f 184 187 251
f 263 251 187
f 251 263 300
f 282 300 263
f 185 250 176
f 207 176 250
f 206 173 177
f 149 177 173
f 177 149 152
f 66 152 149
f 152 66 72
f 72 67 61
f 61 56 72
f 56 61 52
f 71 57 63
f 206 181 173
f 205 212 180
f 171 180 212
f 180 171 167
f 146 167 171
f 167 146 143
f 47 143 146
f 143 47 50
f 19 50 47
f 50 19 33
f 259 229 237
f 208 237 229
f 237 208 223
f 193 223 208
f 223 193 209
f 170 209 193
f 209 170 213
f 11 48 45
f 147 45 48
f 45 147 145
f 170 145 147
f 145 170 169
f 193 169 170
f 169 193 208
f 305 309 337
f 292 337 309
f 337 292 335
f 259 335 292
f 335 259 278
f 237 278 259
f 278 237 241
f 228 241 237
f 211 208 229
f 208 211 169
f 210 230 225
f 258 225 230
f 225 258 288
f 293 288 258
f 288 293 308
f 310 338 294
f 336 294 338
f 294 336 260
f 279 260 336
f 260 279 238
f 242 238 279
f 238 242 228
f 213 231 209
f 238 209 231
f 209 238 223
f 228 223 238
f 223 228 237
f 260 238 231
f 430 459 391
f 507 467 471
f 432 471 467
f 471 432 416
f 373 416 432
f 416 373 371
f 336 371 373
f 371 336 338
f 343 336 373
f 336 343 279
f 287 279 343
f 279 287 242
f 311 295 291
f 261 291 295
f 291 261 226
f 232 226 261
f 226 232 212
f 290 227 207
f 212 205 226
f 207 301 290
f 250 301 207
f 130 121 137
f 141 137 121
f 137 141 247
f 267 247 141
f 247 267 285
f 307 285 267
f 285 307 283
f 311 283 307
f 283 311 299
f 291 299 311
f 306 266 352
f 140 352 266
f 352 140 191
f 155 191 140
f 191 155 197
f 122 155 140
f 196 216 192
f 361 192 216
f 192 361 353
f 406 353 361
f 353 406 397
f 410 397 406
f 397 410 429
f 421 429 410
f 429 421 455
f 425 439 414
f 436 414 439
f 414 436 412
f 422 412 436
f 412 422 409
f 425 446 439
f 444 426 394
f 394 402 444
f 162 200 220
f 235 220 200
f 220 235 240
f 376 240 235
f 240 376 380
f 404 380 376
f 380 404 394
f 518 420 510
f 435 510 420
f 510 435 504
f 440 504 435
f 504 440 445
f 499 523 505
f 529 505 523
f 505 529 511
f 531 511 529
f 511 531 517
f 535 517 531
f 420 518 488
f 487 519 527
f 534 527 519
f 527 534 541
f 537 541 534
f 541 537 589
f 580 589 537
f 589 580 732
f 706 732 580
f 732 706 722
f 704 722 706
f 527 491 487
f 476 487 491
f 487 476 455
f 460 455 476
f 455 460 429
f 600 621 612
f 600 586 621
f 540 621 586
f 621 540 653
f 590 653 540
f 653 590 731
f 653 731 779
f 764 779 731
f 779 764 792
f 793 782 780
f 675 780 782
f 780 675 654
f 634 654 675
f 654 634 622
f 637 622 634
f 622 637 611
f 617 611 637
f 611 617 631
f 822 739 735
f 669 735 739
f 735 669 656
f 618 656 669
f 656 618 638
f 822 828 739
f 829 821 832
f 832 839 828
f 757 796 788
f 802 788 796
f 788 802 799
f 817 799 802
f 799 817 814
f 838 814 817
f 814 838 833
f 719 616 747
f 670 747 616
f 747 670 761
f 738 761 670
f 761 738 827
f 846 851 762
f 770 762 851
f 762 770 746
f 749 746 770
f 746 749 717
f 743 717 749
f 616 719 694
f 693 718 712
f 742 712 718
f 712 742 753
f 755 753 742
f 753 755 773
f 776 773 755
f 773 776 873
f 869 873 776
f 873 869 897
f 889 897 869
f 712 685 693
f 660 693 685
f 693 660 631
f 626 631 660
f 631 626 611
f 713 752 709
f 728 709 752
f 709 728 698
f 708 698 728
f 698 708 680
f 684 680 708
f 680 684 658
f 708 750 711
f 708 728 750
f 752 750 728
f 750 752 771
f 774 771 752
f 771 774 872
f 771 872 871
f 903 871 872
f 871 903 896
f 895 868 870
f 775 870 868
f 870 775 772
f 754 772 775
f 772 754 751
f 740 751 754
f 751 740 710
f 716 710 740
f 710 716 691
f 849 759 769
f 744 769 759
f 769 744 748
f 715 748 744
f 748 715 741
f 849 844 759
f 845 848 857
f 857 860 844
f 860 857 866
f 613 714 668
f 745 668 714
f 668 745 737
f 760 737 745
f 737 760 843
f 826 819 736
f 734 736 819
f 736 734 667
f 655 667 734
f 667 655 615
f 636 615 655
f 714 613 630
f 629 614 609
f 635 609 614
f 609 635 619
f 633 619 635
f 619 633 652
f 674 652 633
f 652 674 778
f 781 778 674
f 778 781 791
f 786 791 781
f 431 466 470
f 506 470 466
f 470 506 512
f 567 512 506
f 512 567 569
f 601 569 567
f 569 601 599
f 623 599 601
f 599 623 610
f 569 599 585
f 620 585 599
f 585 620 538
f 651 538 620
f 538 651 587
f 777 587 651
f 587 777 730
f 763 730 777
f 730 763 721
f 609 624 629
f 657 629 624
f 629 657 691
f 683 691 657
f 691 683 710
f 538 556 585
f 556 569 585
f 720 705 729
f 579 729 705
f 729 579 588
f 536 588 579
f 588 536 539
f 532 539 536
f 539 532 525
f 514 525 532
f 525 514 485
f 520 502 528
f 509 528 502
f 528 509 530
f 516 530 509
f 530 516 533
f 520 498 502
f 497 521 548
f 548 544 497
f 756 724 701
f 687 701 724
f 701 687 678
f 564 678 687
f 678 564 561
f 542 561 564
f 561 542 549
f 417 515 433
f 508 433 515
f 433 508 438
f 503 438 508
f 438 503 496
f 441 424 437
f 413 437 424
f 437 413 434
f 411 434 413
f 434 411 419
f 408 419 411
f 515 417 454
f 453 418 428
f 407 428 418
f 428 407 396
f 405 396 407
f 396 405 351
f 360 351 405
f 351 360 190
f 215 190 360
f 190 215 194
f 218 194 215
f 428 458 453
f 473 453 458
f 453 473 485
f 490 485 473
f 485 490 525
f 335 370 337
f 154 139 189
f 265 189 139
f 189 265 350
f 305 350 265
f 350 305 395
f 139 154 119
f 120 136 138
f 246 138 136
f 138 246 264
f 284 264 246
f 264 284 304
f 280 304 284
f 304 280 308
f 298 308 280
f 308 298 288
f 99 183 186
f 249 186 183
f 186 249 262
f 297 262 249
f 262 297 281
f 99 93 183
f 94 100 88
f 89 80 93
f 161 123 128
f 112 128 123
f 128 112 116
f 103 116 112
f 116 103 107
f 82 107 103
f 107 82 88
f 202 296 175
f 248 175 296
f 175 248 150
f 182 150 248
f 150 182 92
f 70 65 151
f 148 151 65
f 151 148 174
f 172 174 148
f 174 172 204
f 178 204 172
f 296 202 224
f 225 203 210
f 179 210 203
f 210 179 168
f 166 168 179
f 168 166 144
f 142 144 166
f 144 142 46
f 49 46 142
f 46 49 16
f 31 16 49
f 48 11 18
f 17 11 45
f 224 289 296
f 241 286 278
f 342 278 286
f 278 342 335
f 372 335 342
f 335 372 370
f 415 370 372
f 474 457 415
f 390 415 457
f 415 390 370
f 354 370 390
f 370 354 337
f 305 337 354
f 305 354 395
f 390 395 354
f 395 390 427
f 457 427 390
f 120 127 136
f 195 154 189
f 454 486 515
f 720 702 705
f 790 763 777
f 597 627 639
f 676 639 627
f 639 676 680
f 682 680 676
f 680 682 698
f 681 698 682
f 698 681 709
f 686 709 681
f 709 686 713
f 680 658 639
f 601 639 658
f 639 601 597
f 567 597 601
f 623 601 658
f 599 610 620
f 538 524 556
f 489 556 524
f 556 489 512
f 474 512 489
f 512 474 470
f 415 470 474
f 470 415 431
f 372 431 415
f 556 512 569
f 630 692 714
f 895 887 868
f 898 903 872
f 711 684 708
f 682 677 681
f 640 681 677
f 681 640 659
f 602 659 640
f 677 628 640
f 598 640 628
f 640 598 602
f 568 602 598
f 602 568 570
f 513 570 568
f 570 513 557
f 492 557 513
f 557 492 526
f 686 681 659
f 694 632 616
f 793 787 782
f 723 764 731
f 612 625 600
f 568 507 513
f 471 513 507
f 513 471 475
f 416 475 471
f 492 513 475
f 526 540 557
f 586 557 540
f 557 586 570
f 600 570 586
f 570 600 602
f 625 602 600
f 602 625 659
f 310 306 338
f 355 338 306
f 338 355 371
f 391 371 355
f 371 391 416
f 459 416 391
f 416 459 475
f 398 391 355
f 391 398 430
f 398 355 306
f 488 456 420
f 352 398 306
f 196 219 216
f 13  1  5
f  4  1 13
f 62 39 53
f  7 53 39
f 156 134 109
f 221 134 156
f 479 477 400
f 368 400 477
f 765 783 699
f 808 783 765
f 852 880 834
f 840 834 880
f 904 917 913
f 914 917 904
f 853 881 863
f 911 863 881
f 768 784 809
f 700 784 768
f 480 478 545
f 572 545 478
f 159 135 222
f 110 135 159
f 188 318 465
f 318 469 465
f 469 608 465
f 608 733 465
f 733 607 465
f 607 468 465
f 468 317 465
f 317 188 465
f 665 591 578
f 665 672 591
f 578 650 665
f 649 577 574
f 574 643 649
f 648 644 666
f 662 666 644
f 666 662 673
f 671 673 662
f 673 671 663
f 661 663 671
f 663 661 647
f 642 647 661
f 672 664 591
f 591 664 645
f 646 641 573
f 573 575 646
f 645 576 591
f 274 252 254
f 243 254 252
f 254 243 245
f 253 245 243
f 245 253 256
f 271 256 253
f 256 271 275
f 276 270 363
f 363 366 276
f 273 255 349
f 274 268 252
f 362 269 272
f 272 365 362
f 349 364 273
f 277 367 257
f 349 257 367
f 257 349 244
f 255 244 349
f 359 388 472
f 388 463 472
f 463 484 472
f 484 554 472
f 554 583 472
f 583 593 472
f 593 582 472
f 582 552 472
f 552 481 472
f 481 462 472
f 462 387 472
f 387 357 472
f 357 347 472
f 347 359 472
f 346 358 344
f 348 344 358
f 344 348 345
f 356 345 348
f 345 356 384
f 386 384 356
f 384 386 448
f 461 448 386
f 448 461 493
f 482 493 461
f 493 482 558
f 553 558 482
f 558 553 594
f 581 594 553
f 594 581 596
f 592 596 581
f 596 592 595
f 584 595 592
f 595 584 559
f 555 559 584
f 559 555 494
f 483 494 555
f 494 483 449
f 464 449 483
f 449 464 385
f 389 385 464
f 385 389 346
f 358 346 389
f 333 321 314
f 320 332 325
f 331 326 334
f 334 341 331
f 333 327 340
f 333 314 327
f 328 315 302
f 313 303 316
f 316 319 313
f 325 312 320
f 302 322 328
f 339 329 323
f 323 330 339
g Tire
usemtl BLACK
f 954 926 952
f 930 952 926
f 952 930 953
f 940 953 930
f 953 940 963
f 950 963 940
f 963 950 976
f 973 976 950
f 976 973 982
f 992 982 973
f 982 992 998
f 1008 998 992
f 998 1008 1011
f 1023 1011 1008
f 1011 1023 1025
f 1039 1025 1023
f 1025 1039 1035
f 1053 1035 1039
f 1035 1053 1050
f 1070 1050 1053
f 1050 1070 1062
f 1089 1062 1070
f 1062 1089 1078
f 1111 1078 1089
f 1078 1111 1085
f 1122 1085 1111
f 1085 1122 1097
f 1132 1097 1122
f 1097 1132 1107
f 1133 1107 1132
f 1107 1133 1112
f 1130 1112 1133
f 1112 1130 1106
f 1119 1106 1130
f 1106 1119 1098
f 1108 1098 1119
f 1098 1108 1084
f 1086 1084 1108
f 1084 1086 1077
f 1067 1077 1086
f 1077 1067 1063
f 1051 1063 1067
f 1063 1051 1049
f 1036 1049 1051
f 1049 1036 1034
f 1022 1034 1036
f 1034 1022 1026
f 1006 1026 1022
f 1026 1006 1010
f 991 1010 1006
f 1010 991 997
f 972 997 991
f 997 972 983
f 948 983 972
f 983 948 975
f 938 975 948
f 975 938 962
f 929 962 938
f 962 929 954
f 926 954 929
f 935 921 924
f 918 924 921
f 924 918 933
f 920 933 918
f 933 920 934
f 937 935 947
f 945 947 935
f 947 945 969
f 968 969 945
f 969 968 987
f 986 987 968
f 987 986 1004
f 1002 1004 986
f 1004 1002 1020
f 1018 1020 1002
f 1020 1018 1043
f 1041 1043 1018
f 1043 1041 1059
f 1057 1059 1041
f 1059 1057 1074
f 1073 1074 1057
f 1074 1073 1094
f 1093 1094 1073
f 1094 1093 1116
f 1114 1116 1093
f 1116 1114 1126
f 1124 1126 1114
f 1126 1124 1140
f 1138 1140 1124
f 1140 1138 1142
f 1141 1142 1138
f 1142 1141 1139
f 1137 1139 1141
f 1139 1137 1125
f 1123 1125 1137
f 1125 1123 1115
f 1113 1115 1123
f 1115 1113 1092
f 1091 1092 1113
f 1092 1091 1072
f 1071 1072 1091
f 1072 1071 1058
f 1056 1058 1071
f 1058 1056 1042
f 1040 1042 1056
f 1042 1040 1019
f 1017 1019 1040
f 1019 1017 1003
f 1001 1003 1017
f 1003 1001 985
f 984 985 1001
f 985 984 967
f 966 967 984
f 967 966 946
f 944 946 966
f 946 944 936
f 934 936 944
f 936 934 922
f 920 922 934
f 922 920 919
f 918 919 920
f 919 918 923
f 921 923 918
f 923 921 937
f 935 937 921
f 951 947 974
f 969 974 947
f 974 969 993
f 987 993 969
f 993 987 1009
f 1004 1009 987
f 1009 1004 1024
f 1020 1024 1004
f 1024 1020 1038
f 1043 1038 1020
f 1038 1043 1054
f 1059 1054 1043
f 1054 1059 1069
f 1074 1069 1059
f 1069 1074 1088
f 1094 1088 1074
f 1088 1094 1110
f 1116 1110 1094
f 1110 1116 1121
f 1126 1121 1116
f 1121 1126 1131
f 1140 1131 1126
f 1131 1140 1134
f 1142 1134 1140
f 1134 1142 1129
f 1139 1129 1142
f 1129 1139 1120
f 1125 1120 1139
f 1120 1125 1109
f 1115 1109 1125
f 1109 1115 1087
f 1092 1087 1115
f 1087 1092 1068
f 1072 1068 1092
f 1068 1072 1052
f 1058 1052 1072
f 1052 1058 1037
f 1042 1037 1058
f 1037 1042 1021
f 1019 1021 1042
f 1021 1019 1007
f 1003 1007 1019
f 1007 1003 990
f 985 990 1003
f 990 985 971
f 967 971 985
f 971 967 949
f 946 949 967
f 949 946 939
f 936 939 946
f 939 936 928
f 922 928 936
f 928 922 927
f 919 927 922
f 927 919 931
f 923 931 919
f 931 923 941
f 937 941 923
f 941 937 951
f 947 951 937
f 1002 986 980
f 968 980 986
f 980 968 942
f 945 942 968
f 942 945 935
f 1073 1057 1045
f 1041 1045 1057
f 1045 1041 1014
f 1018 1014 1041
f 1014 1018 1002
f 1138 1124 1118
f 1114 1118 1124
f 1118 1114 1080
f 1093 1080 1114
f 1080 1093 1073
f 1113 1123 1127
f 1137 1127 1123
f 1127 1137 1135
f 1141 1135 1137
f 1135 1141 1138
f 1040 1056 1065
f 1071 1065 1056
f 1065 1071 1100
f 1091 1100 1071
f 1100 1091 1113
f 966 984 995
f 1001 995 984
f 995 1001 1030
f 1017 1030 1001
f 1030 1017 1040
f 960 944 966
f 934 944 960
f 953 958 952
f 956 952 958
f 952 956 954
f 957 954 956
f 954 957 962
f 964 962 957
f 962 964 975
f 977 975 964
f 975 977 983
f 989 983 977
f 983 989 997
f 999 997 989
f 997 999 1010
f 1012 1010 999
f 1010 1012 1026
f 1027 1026 1012
f 1026 1027 1034
f 1032 1034 1027
f 1034 1032 1049
f 1047 1049 1032
f 1049 1047 1063
f 1061 1063 1047
f 1063 1061 1077
f 1075 1077 1061
f 1077 1075 1084
f 1082 1084 1075
f 1084 1082 1098
f 1095 1098 1082
f 1098 1095 1106
f 1102 1106 1095
f 1106 1102 1112
f 1105 1112 1102
f 1112 1105 1107
f 1103 1107 1105
f 1107 1103 1097
f 1096 1097 1103
f 1097 1096 1085
f 1083 1085 1096
f 1085 1083 1078
f 1076 1078 1083
f 1078 1076 1062
f 1060 1062 1076
f 1062 1060 1050
f 1048 1050 1060
f 1050 1048 1035
f 1033 1035 1048
f 1035 1033 1025
f 1028 1025 1033
f 1025 1028 1011
f 1013 1011 1028
f 1011 1013 998
f 1000 998 1013
f 998 1000 982
f 988 982 1000
f 982 988 976
f 978 976 988
f 976 978 963
f 965 963 978
f 963 965 953
f 958 953 965
f 960 933 934
f 1005 981 959
f 961 959 981
f 959 961 932
f 925 932 961
f 961 955 925
f 970 925 955
f 925 970 943
f 979 943 970
f 970 994 979
f 1016 979 994
f 979 1016 1015
f 1044 1015 1016
f 1015 1044 1046
f 1081 1046 1044
f 1045 1080 1073
f 1044 1066 1081
f 1090 1081 1066
f 1081 1090 1117
f 1136 1117 1090
f 1118 1135 1138
f 1090 1104 1136
f 1099 1136 1104
f 1136 1099 1128
f 1101 1128 1099
f 1127 1100 1113
f 1099 1079 1101
f 1055 1101 1079
f 1101 1055 1064
f 1031 1064 1055
f 1064 1031 1029
f 1005 1029 1031
f 1029 1005 996
f 959 996 1005
f 995 960 966
f 1065 1030 1040
f 980 1014 1002
f 924 942 935



