# Blender v2.68 (sub 0) OBJ File: 'FSAE_wheels.blend'
# www.blender.org
mtllib wheel.mtl
o Mesh.011_object__43.001
v 43.171734 -49.182510 48.230637
v 78.937378 -57.124599 67.540016
v 82.016594 -35.611088 70.073540
v 45.206352 -26.746563 50.514740
v 79.966393 -61.505985 74.376640
v 83.373016 -40.758869 77.541618
v 37.286152 -49.128220 52.931374
v 39.071304 -26.705894 55.410358
v 48.145275 -56.778675 92.025612
v 49.961628 -34.851448 95.673920
v 54.607723 -60.854889 94.637100
v 56.938580 -39.985683 98.659630
v 64.663803 -48.850170 -3.632665
v 102.011909 -55.211975 -19.551018
v 106.026573 -33.257622 -20.392962
v 67.688446 -26.312511 -3.796315
v 108.131348 -58.820179 -16.105391
v 112.746292 -37.598297 -16.799202
v 64.663803 -48.850170 3.897768
v 67.688446 -26.312511 4.053701
v 102.011940 -55.205185 19.816153
v 106.026604 -33.257622 20.650284
v 108.131378 -58.820179 16.370516
v 112.746323 -37.598297 17.064323
v 37.488747 -49.080757 -52.767521
v 48.308823 -56.934681 -91.822830
v 50.148567 -34.878574 -95.494469
v 39.250523 -26.739813 -55.230888
v 54.794659 -60.882015 -94.457664
v 57.125507 -40.012810 -98.487915
v 43.366528 -49.128220 -48.066788
v 45.393360 -26.773689 -50.335289
v 79.100967 -57.280602 -67.329475
v 82.195770 -35.604298 -69.901955
v 80.153358 -61.505985 -74.205040
v 83.559982 -40.758869 -77.370033
v -17.851326 -48.972256 -62.160954
v -41.713322 -56.222538 -95.018875
v -43.389351 -34.525898 -98.706123
v -18.701052 -26.529558 -65.060905
v -39.678688 -60.068123 -101.715179
v -41.385918 -39.056496 -106.049500
v -10.515791 -48.856960 -63.844841
v -11.045886 -26.448139 -66.807053
v -3.320611 -55.483273 -103.710869
v -3.390776 -33.081284 -107.897057
v -8.029087 -58.840511 -108.988411
v -8.387681 -37.598297 -113.642311
v -59.736397 -48.911213 -24.727049
v -100.187119 -55.971615 -26.582350
v -104.248558 -33.569588 -27.580221
v -62.511597 -26.543100 -25.904182
v -104.271942 -59.518734 -32.343220
v -108.723167 -38.418941 -33.715225
v -56.454514 -49.060425 -31.501318
v -59.104977 -26.651644 -32.974712
v -83.193016 -56.941471 -62.098545
v -86.381363 -35.448296 -64.507362
v -90.130989 -61.119396 -61.568470
v -93.974152 -40.304440 -64.179970
v -56.555805 -49.046841 31.306805
v -83.294258 -56.961803 61.904076
v -86.482597 -35.441502 64.320610
v -59.206261 -26.651644 32.787910
v -90.232231 -61.112602 61.373917
v -94.075386 -40.297649 63.993229
v -59.837700 -48.897629 24.532539
v -62.612892 -26.543100 25.717390
v -100.288414 -55.964825 26.395712
v -104.349854 -33.549252 27.385691
v -104.373245 -59.498402 32.148781
v -108.832253 -38.398609 33.528507
v -10.749546 -48.918003 63.806091
v -3.562107 -55.354397 103.711128
v -3.624459 -33.081284 107.866089
v -11.279634 -26.421015 66.783920
v -8.270552 -58.840511 108.957458
v -8.613549 -37.598297 113.611359
v -18.085106 -49.026508 62.122219
v -18.926998 -26.495640 65.037781
v -41.962616 -56.032658 95.027016
v -43.615242 -34.519108 98.683037
v -39.920189 -60.061329 101.684273
v -41.611797 -39.049706 106.026398
v 19.099363 -91.510979 120.066017
v 0.101784 -91.510979 121.562752
v 0.101784 -72.879944 121.562752
v 19.099363 -72.879944 120.066017
v 37.629204 -91.510979 115.622589
v 37.629204 -72.879944 115.622589
v 55.239166 -91.510979 108.325951
v 55.239166 -72.879944 108.325951
v 71.484940 -91.510979 98.371162
v 71.484940 -72.879944 98.371162
v 85.976692 -91.510979 85.991959
v 85.976692 -72.879944 85.991959
v 98.348099 -91.510979 71.500092
v 98.348099 -72.879944 71.500092
v 108.310715 -91.510979 55.254364
v 108.310715 -72.879944 55.254364
v 115.599472 -91.510979 37.644352
v 115.599472 -72.879944 37.644352
v 120.050674 -91.510979 19.122328
v 120.050674 -72.879944 19.122328
v 121.547379 -91.510979 0.124700
v 121.547379 -72.879944 0.124700
v 120.050644 -91.510979 -18.880640
v 120.050644 -72.879944 -18.880640
v 115.599411 -91.510979 -37.410458
v 115.599411 -72.879944 -37.410458
v 108.310623 -91.510979 -55.012657
v 108.310623 -72.879944 -55.012657
v 98.347984 -91.510979 -71.258362
v 98.347984 -72.879944 -71.258362
v 85.976555 -91.510979 -85.750206
v 85.976555 -72.879944 -85.750206
v 71.484787 -91.510979 -98.129410
v 71.484787 -72.879944 -98.129410
v 55.238991 -91.510979 -108.084167
v 55.238991 -72.879944 -108.084167
v 37.629017 -91.510979 -115.380775
v 37.629017 -72.879944 -115.380775
v 19.099171 -91.510979 -119.824173
v 19.099171 -72.879944 -119.824173
v 0.101589 -91.510979 -121.320877
v 0.101589 -72.879944 -121.320877
v -18.895775 -72.879944 120.066048
v -18.895775 -91.510979 120.066048
v -37.425629 -72.879944 115.622650
v -37.425629 -91.510979 115.622650
v -55.035625 -72.879944 108.326042
v -55.035625 -91.510979 108.326042
v -71.281395 -72.879944 98.371277
v -71.281395 -91.510979 98.371277
v -85.773193 -72.879944 85.992096
v -85.773193 -91.510979 85.992096
v -98.144630 -72.879944 71.500244
v -98.144630 -91.510979 71.500244
v -108.107254 -72.879944 55.254539
v -108.107254 -91.510979 55.254539
v -115.396034 -72.879944 37.644535
v -115.396034 -91.510979 37.644535
v -119.847260 -72.879944 19.122520
v -119.847260 -91.510979 19.122520
v -121.344009 -72.879944 0.124895
v -121.344009 -91.510979 0.124895
v -119.847290 -72.879944 -18.880447
v -119.847290 -91.510979 -18.880447
v -115.396095 -72.879944 -37.410275
v -115.396095 -91.510979 -37.410275
v -108.107346 -72.879944 -55.012482
v -108.107346 -91.510979 -55.012482
v -98.144745 -72.879944 -71.258209
v -98.144745 -91.510979 -71.258209
v -85.773331 -72.879944 -85.750069
v -85.773331 -91.510979 -85.750069
v -71.281548 -72.879944 -98.129295
v -71.281548 -91.510979 -98.129295
v -55.035801 -72.879944 -108.084076
v -55.035801 -91.510979 -108.084076
v -37.425816 -72.879944 -115.380714
v -37.425816 -91.510979 -115.380714
v -18.895967 -72.879944 -119.824142
v -18.895967 -91.510979 -119.824142
v 0.101773 -60.909142 107.749184
v -16.736460 -60.909142 106.423935
v -19.192007 102.877136 121.936897
v 0.101787 102.877136 123.457024
v 16.939999 -60.909142 106.423904
v 19.395578 102.877136 121.936867
v 33.357258 -60.909142 102.479408
v 38.213848 102.877136 117.423279
v 48.963802 -60.909142 96.016922
v 56.096672 102.877136 110.017632
v 63.362026 -60.909142 87.192429
v 72.599678 102.877136 99.899010
v 76.208961 -60.909142 76.224167
v 87.317528 102.877136 87.332748
v 87.177185 -60.909142 63.385044
v 99.883835 102.877136 72.614861
v 96.001648 -60.909142 48.979046
v 109.994530 102.877136 56.111824
v 102.464096 -60.909142 33.380299
v 117.400230 102.877136 38.236866
v 106.408585 -60.909142 16.955229
v 121.921577 102.877136 19.418587
v 123.441673 102.877136 0.116985
v 107.733810 -60.909142 0.124711
v 106.408554 -60.909142 -16.713425
v 121.921547 102.877136 -19.176807
v 102.464043 -60.909142 -33.138489
v 117.400169 102.877136 -37.995079
v 96.001572 -60.909142 -48.745029
v 109.994438 102.877136 -55.870113
v 87.177078 -60.909142 -63.143299
v 99.883720 102.877136 -72.373146
v 76.208839 -60.909142 -75.982407
v 87.317390 102.877136 -87.090996
v 63.361889 -60.909142 -86.950653
v 72.599518 102.877136 -99.665070
v 48.963650 -60.909142 -95.775116
v 56.096497 102.877136 -109.775757
v 33.357094 -60.909142 -102.237602
v 38.213661 102.877136 -117.181465
v 16.939829 -60.909142 -106.182060
v 19.395382 102.877136 -121.695030
v -38.010288 102.877136 117.423340
v -33.153725 -60.909142 102.479462
v -55.893120 102.877136 110.017723
v -48.760273 -60.909142 96.016998
v -72.396149 102.877136 99.899132
v -63.158524 -60.909142 87.192535
v -87.114014 102.877136 87.332886
v -76.005470 -60.909142 76.224289
v -99.680328 102.877136 72.615021
v -86.973717 -60.909142 63.385181
v -109.791069 102.877136 56.112000
v -95.798203 -60.909142 48.979198
v -117.196785 102.877136 38.237057
v -102.260674 -60.909142 33.380466
v -121.718185 102.877136 19.418781
v -106.205185 -60.909142 16.955400
v -123.238312 102.877136 0.117183
v -107.530426 -60.909142 0.124884
v -121.718216 102.877136 -19.176613
v -106.205215 -60.909142 -16.713253
v -117.196846 102.877136 -37.994888
v -102.260727 -60.909142 -33.138321
v -109.791161 102.877136 -55.869938
v -95.798279 -60.909142 -48.744877
v -99.680443 102.877136 -72.372986
v -86.973824 -60.909142 -63.143162
v -87.114151 102.877136 -87.090858
v -76.005592 -60.909142 -75.982285
v -72.396309 102.877136 -99.664948
v -63.158661 -60.909142 -86.950546
v -55.893295 102.877136 -109.775665
v -48.760426 -60.909142 -95.775040
v -38.010475 102.877136 -117.181404
v -33.153889 -60.909142 -102.237549
v -19.192204 102.877136 -121.695000
v -16.736629 -60.909142 -106.182030
v 0.101589 102.877136 -123.215149
v 0.101600 -60.909142 -107.507309
v -12.924523 -78.122643 18.085623
v 0.101704 -78.122643 22.318542
v 0.101710 -64.571594 29.646297
v -17.235415 -64.571594 24.017954
v 0.101713 -28.984737 33.130867
v -19.285643 -28.984737 26.832134
v -27.946411 -64.571594 9.268970
v -20.977274 -78.122643 7.000468
v -31.267284 -28.984737 10.344722
v -27.946424 -64.571594 -8.964686
v -20.977283 -78.122643 -6.696196
v -31.267300 -28.984737 -10.040435
v -17.235453 -64.571594 -23.713690
v -12.924552 -78.122643 -17.781366
v -19.285685 -28.984737 -26.535671
v 0.101660 -28.984737 -32.834435
v 0.101663 -64.571594 -29.342058
v 0.101669 -78.122643 -22.014305
v 81.634605 -56.927887 63.868374
v 90.248611 -61.112602 61.514095
v 47.630733 -49.006172 43.070084
v 35.547729 -47.866730 31.384697
v 22.583870 -47.839607 41.729225
v 31.283619 -48.850170 56.135303
v 43.966896 -56.507420 93.834198
v 39.788521 -60.047787 101.809021
v 23.363398 -48.083778 29.451406
v 35.500957 -48.321156 24.197266
v 15.583530 -48.293991 40.084476
v 8.201225 -48.056610 36.233490
v 3.258901 -48.266865 42.797276
v -8.426521 -48.049858 36.584312
v -2.338250 -47.751438 47.318661
v 33.450745 -48.056610 16.238060
v 41.066929 -48.253323 12.862583
v 37.605717 -48.015942 0.155992
v 46.718628 -47.717518 8.419166
v 46.718613 -47.724312 -8.169551
v 41.066906 -48.260113 -12.612961
v 33.559841 -48.056610 -15.972813
v 35.672421 -48.314365 -24.025602
v 23.581640 -48.090527 -29.240692
v 35.719181 -47.866730 -31.220747
v 22.755304 -47.846397 -41.557541
v 15.754968 -48.307575 -39.912685
v 8.450613 -48.056610 -36.139751
v 3.469294 -48.266865 -42.812630
v -8.153740 -48.056610 -36.615257
v -2.127841 -47.751438 -47.334007
v -18.295654 -47.826023 -43.646744
v -21.374861 -48.334702 -37.145317
v -22.980742 -48.083778 -29.084812
v -31.298494 -48.341492 -29.349840
v -33.699501 -48.063404 -16.393728
v -38.322231 -47.853149 -27.798473
v -45.517433 -47.758186 -12.854600
v -42.352463 -48.239738 -6.392114
v -37.051540 -48.022736 -0.108983
v -42.453796 -48.232990 6.228707
v -33.816402 -48.056610 16.175756
v -45.610966 -47.751438 12.691198
v -38.415718 -47.853149 27.627346
v -31.392004 -48.341492 29.186415
v -23.175568 -48.083778 28.960312
v -21.585285 -48.321156 37.130005
v -18.506067 -47.819229 43.631428
v -3.944102 -48.639915 64.071121
v 0.974864 -55.110264 103.547386
v 8.209066 -58.840511 108.957443
v -24.344872 -48.945129 59.370495
v -45.992870 -55.924114 92.922173
v -54.739403 -60.868431 94.512482
v -61.607273 -48.633121 17.960951
v -101.122543 -55.679943 21.921074
v -108.068306 -58.820179 16.097849
v -52.478745 -49.040051 36.802547
v -80.324173 -56.873638 65.349609
v -79.957779 -61.512737 74.236435
v 84.791786 -35.543255 66.222641
v 94.091774 -40.297649 64.133400
v 37.060062 -25.797043 32.717674
v 37.013290 -26.285385 25.218466
v 42.805309 -26.204008 13.408263
v 48.698696 -25.627497 8.769972
v 63.385361 -48.687374 10.601875
v 104.732567 -33.501751 25.234024
v 100.850418 -55.049221 24.212734
v 108.895363 -38.391815 33.808979
v 104.436333 -59.498402 32.429169
v 41.487946 -39.029373 106.143242
v 45.588352 -34.668320 97.529243
v 23.542715 -25.763124 43.498878
v 16.246161 -26.251469 41.776070
v 3.399203 -26.210760 44.613579
v -2.431805 -25.661413 49.329842
v 1.130779 -33.135536 107.632187
v 8.567661 -37.598297 113.611343
v 100.850380 -55.049221 -23.947687
v 104.436287 -59.498402 -32.164127
v 63.385345 -48.694164 -10.336768
v 104.732521 -33.501751 -24.968889
v 108.895309 -38.398609 -33.543850
v 48.698681 -25.627497 -8.520361
v 42.805286 -26.210760 -13.158643
v 37.176945 -26.278595 -25.046804
v 37.223705 -25.797043 -32.546013
v 47.817753 -49.006172 -42.890629
v 84.978767 -35.536461 -66.043251
v 81.790413 -57.097473 -63.657753
v 94.278763 -40.277317 -63.961830
v 90.435600 -61.099022 -61.342522
v 44.122658 -56.676964 -93.631325
v 39.975449 -60.081665 -101.629562
v 31.470642 -48.870502 -55.963634
v 45.767502 -34.702236 -97.357605
v 41.667088 -39.063290 -105.971588
v 23.714148 -25.769917 -43.327194
v 16.409790 -26.265051 -41.612175
v 3.609616 -26.210760 -44.629025
v -2.221399 -25.661413 -49.345276
v -3.710348 -48.646706 -64.094269
v 1.364463 -33.135536 -107.655350
v 1.216360 -55.259434 -103.547127
v 8.793552 -37.598297 -113.642326
v 8.442772 -58.840511 -108.980621
v -45.743572 -56.147953 -92.898506
v -54.505688 -60.875221 -94.535538
v -24.111088 -48.945129 -59.401413
v -47.559921 -34.803989 -96.429909
v -56.836544 -40.006020 -98.565796
v -19.082996 -25.742790 -45.494270
v -22.286938 -26.292177 -38.720001
v -32.631523 -26.305719 -30.589329
v -39.951492 -25.783499 -28.967800
v -52.377468 -49.040051 -36.989353
v -83.231987 -35.604298 -68.077705
v -80.222939 -56.853302 -65.544182
v -83.255379 -40.758869 -77.588188
v -79.848770 -61.512737 -74.423210
v -101.021217 -55.686737 -22.115608
v -107.959198 -58.847305 -16.284571
v -61.505966 -48.639915 -18.155460
v -105.082672 -33.427166 -22.887293
v -112.581917 -37.625423 -16.978376
v -47.458519 -25.668205 -13.392473
v -44.161007 -26.190426 -6.657147
v -44.254555 -26.183634 6.493743
v -47.552029 -25.661413 13.229075
v -105.183983 -33.406834 22.700659
v -112.683228 -37.598297 16.791662
v -83.333221 -35.604298 67.883148
v -83.356613 -40.765617 77.401428
v -40.044979 -25.783499 28.804390
v -32.725029 -26.305719 30.425909
v -22.497362 -26.285385 38.704693
v -19.293409 -25.736000 45.478954
v -47.793625 -34.797195 96.399025
v -57.070251 -39.999226 98.534920
v 13.127949 -78.122643 18.085602
v 17.438848 -64.571594 24.017927
v 19.489058 -28.984737 26.832104
v 31.470695 -28.984737 10.344672
v 21.180655 -78.122643 7.000434
v 28.149820 -64.571594 9.268925
v 31.470680 -28.984737 -10.040484
v 21.180645 -78.122643 -6.696230
v 28.149807 -64.571594 -8.964732
v 19.489016 -28.984737 -26.535702
v 13.127920 -78.122643 -17.781387
v 17.438810 -64.571594 -23.713717
v 0.062703 -42.305233 0.015699
v 135.259644 105.793533 21.531137
v 136.943436 105.793533 0.116975
v 130.247177 105.793533 42.407433
v 122.030762 105.793533 62.246910
v 110.813095 105.793533 80.550644
v 96.859192 105.793533 96.882240
v 80.535500 105.793533 110.828331
v 62.223930 105.793533 122.046021
v 42.384457 105.793533 130.262482
v 21.508175 105.793533 135.274918
v 0.101798 105.793533 136.958817
v -21.304558 105.793533 135.274948
v -42.180851 105.793533 130.262543
v -62.020355 105.793533 122.046127
v -80.331932 105.793533 110.828453
v -96.655670 105.793533 96.882393
v -110.601776 105.793533 80.550827
v -121.827278 105.793533 62.247108
v -130.043732 105.793533 42.407639
v -135.056229 105.793533 21.531355
v -136.740082 105.793533 0.117194
v -135.056259 105.793533 -21.289255
v -130.043793 105.793533 -42.165546
v -121.827377 105.793533 -62.005028
v -110.601906 105.793533 -80.308762
v -96.655823 105.793533 -96.640259
v -80.332108 105.793533 -110.586464
v -62.020550 105.793533 -121.804153
v -42.181061 105.793533 -130.020615
v -21.304775 105.793533 -135.033051
v 0.101579 105.793533 -136.724747
v 21.507957 105.793533 -135.033081
v 42.384247 105.793533 -130.020676
v 62.223736 105.793533 -121.804260
v 80.535324 105.793533 -110.586586
v 96.859039 105.793533 -96.640411
v 110.812965 105.793533 -80.308945
v 122.030663 105.793533 -62.005226
v 130.247116 105.793533 -42.165752
v 135.259613 105.793533 -21.289473
v 136.686203 104.348915 21.757139
v 131.626968 104.348915 42.851723
v 123.317017 104.348915 62.901691
v 111.982399 104.348915 81.408195
v 97.888191 104.348915 97.903435
v 81.385201 104.348915 111.997658
v 62.886539 104.348915 123.340065
v 42.836582 104.348915 131.642288
v 21.734249 104.348915 136.709274
v 0.101799 104.348915 138.408783
v -21.530632 104.348915 136.709305
v -42.632999 104.348915 131.642349
v -62.682964 104.348915 123.340172
v -81.181641 104.348915 111.997795
v -97.684669 104.348915 97.903587
v -111.778900 104.348915 81.408379
v -123.113533 104.348915 62.901890
v -131.423523 104.348915 42.851936
v -136.482819 104.348915 21.757359
v -138.190033 104.348915 0.117195
v -136.482849 104.348915 -21.515259
v -131.423584 104.348915 -42.617645
v -123.113632 104.348915 -62.659805
v -111.779030 104.348915 -81.166313
v -97.684822 104.348915 -97.661560
v -81.181824 104.348915 -111.755783
v -62.683163 104.348915 -123.098190
v -42.633209 104.348915 -131.400330
v -21.530851 104.348915 -136.467407
v 0.101577 104.348915 -138.166916
v 21.734030 104.348915 -136.467438
v 42.836372 104.348915 -131.400391
v 62.886341 104.348915 -123.098297
v 81.385017 104.348915 -111.755920
v 97.888039 104.348915 -97.661713
v 111.982269 104.348915 -81.166496
v 123.316917 104.348915 -62.660004
v 131.626907 104.348915 -42.617859
v 136.686172 104.348915 -21.515478
v 138.393402 104.348915 0.116973
v -6.111303 -88.045197 8.707660
v -9.954469 -88.045197 3.422309
v -9.954474 -88.045197 -3.118055
v -6.111317 -88.045197 -8.403412
v 0.101678 -88.045197 -10.422399
v 6.314678 -88.045197 -8.403421
v 10.157843 -88.045197 -3.118071
v 10.157848 -88.045197 3.422293
v 6.314692 -88.045197 8.707650
v 0.101695 -88.045197 10.726729
v 0.101686 -92.541878 0.148216
v 136.662827 -93.301521 0.124688
v 134.979004 -93.301521 21.484301
v 122.864830 -93.301521 19.566622
v 118.312286 -93.301521 38.525227
v 129.982117 -93.301521 42.321659
v 110.844254 -93.301521 56.548405
v 121.781311 -93.301521 62.122105
v 100.655563 -93.301521 73.176155
v 110.579208 -93.301521 80.386993
v 87.987938 -93.301521 88.010941
v 96.664314 -93.301521 96.687271
v 73.160965 -93.301521 100.670792
v 80.371773 -93.301521 110.602234
v 56.533230 -93.301521 110.867287
v 62.099190 -93.301521 121.796509
v 38.510086 -93.301521 118.327576
v 42.298702 -93.301521 129.997452
v 19.543705 -93.301521 122.880196
v 21.461405 -93.301521 135.002075
v 0.101786 -93.301521 124.408058
v 0.101796 -93.301521 136.685974
v -19.340115 -93.301521 122.880226
v -21.257795 -93.301521 135.002106
v -38.306526 -93.301521 118.327637
v -42.095104 -93.301521 129.997513
v -56.321873 -93.301521 110.867378
v -61.895634 -93.301521 121.796616
v -72.957420 -93.301521 100.670914
v -80.168228 -93.301521 110.602356
v -87.784431 -93.301521 88.011078
v -96.460785 -93.301521 96.687424
v -100.452080 -93.301521 73.176323
v -110.375725 -93.301521 80.387177
v -110.640785 -93.301521 56.548580
v -121.577827 -93.301521 62.122303
v -118.108864 -93.301521 38.525417
v -129.778687 -93.301521 42.321865
v -122.661423 -93.301521 19.566820
v -134.775589 -93.301521 21.484518
v -124.189362 -93.301521 0.124897
v -136.459427 -93.301521 0.124907
v -122.661453 -93.301521 -19.324739
v -134.775620 -93.301521 -21.242418
v -118.108925 -93.301521 -38.283340
v -129.778748 -93.301521 -42.079773
v -110.640877 -93.301521 -56.306522
v -121.577927 -93.301521 -61.880222
v -100.452202 -93.301521 -72.934273
v -110.375854 -93.301521 -80.145020
v -87.784569 -93.301521 -87.769051
v -96.460938 -93.301521 -96.445389
v -72.957581 -93.301521 -100.428917
v -80.168404 -93.301521 -110.360367
v -56.322052 -93.301521 -110.625412
v -61.895828 -93.301521 -121.554634
v -38.306717 -93.301521 -118.085701
v -42.095314 -93.301521 -129.755478
v -19.340311 -93.301521 -122.638321
v -21.258011 -93.301521 -134.760208
v 0.101586 -93.301521 -124.166191
v 0.101577 -93.301521 -136.444092
v 19.543509 -93.301521 -122.638351
v 21.461189 -93.301521 -134.760239
v 38.509895 -93.301521 -118.085762
v 42.298492 -93.301521 -129.755539
v 56.533051 -93.301521 -110.625504
v 62.098995 -93.301521 -121.554741
v 73.160805 -93.301521 -100.429039
v 80.371597 -93.301521 -110.360489
v 87.987801 -93.301521 -87.769188
v 96.664162 -93.301521 -96.445541
v 100.655441 -93.301521 -72.934441
v 110.579079 -93.301521 -80.145203
v 110.844162 -93.301521 -56.306698
v 121.781212 -93.301521 -61.880421
v 118.312225 -93.301521 -38.283531
v 129.982056 -93.301521 -42.079979
v 122.864799 -93.301521 -19.324938
v 134.978973 -93.301521 -21.242636
v 124.392738 -93.301521 0.124698
v -0.264486 66.896935 248.317108
v 0.094094 88.125603 235.563766
v -36.731747 88.118813 232.656052
v -39.078175 66.896935 245.230209
v -0.209933 40.608654 253.836365
v -72.653297 88.118813 224.034286
v -76.933014 66.896935 236.117325
v -106.789696 88.118813 209.893356
v -112.901329 66.896935 221.189011
v -138.291214 88.118813 190.583954
v -146.086685 66.896935 200.819489
v -166.378342 88.112022 166.589554
v -175.686127 66.896935 175.515320
v -190.372818 88.112022 138.502426
v -200.951279 66.903725 145.884750
v -209.666641 88.112022 107.000992
v -221.274109 66.903725 112.668289
v -223.807663 88.112022 72.864548
v -236.155701 66.903725 76.684418
v -232.429489 88.105225 36.943012
v -245.214050 66.903725 38.813972
v -235.321640 88.105225 0.117273
v -248.246536 66.903725 -0.007520
v -232.421753 88.105225 -36.708565
v -245.167343 66.903725 -38.821114
v -223.799988 88.105225 -72.630104
v -236.046677 66.903725 -76.683769
v -209.659042 88.105225 -106.758781
v -221.118378 66.903725 -112.652069
v -190.357452 88.105225 -138.260254
v -200.756622 66.903725 -145.837418
v -175.444748 66.903725 -175.429108
v -166.370804 88.105225 -166.347397
v -145.814178 66.903725 -200.702057
v -138.275940 88.105225 -190.341873
v -112.597664 66.903725 -221.024887
v -106.782234 88.105225 -209.643478
v -76.613770 66.903725 -235.898636
v -72.653656 88.105225 -223.776749
v -38.743351 66.903725 -244.964844
v -36.732121 88.105225 -232.406281
v 0.078117 66.903725 -247.989532
v 0.093717 88.105225 -235.306274
v 38.899563 66.903725 -244.910355
v 36.927334 88.105225 -232.406342
v 76.754410 66.903725 -235.797455
v 72.848885 88.105225 -223.784576
v 112.714928 66.903725 -220.869141
v 106.977478 88.105225 -209.651459
v 145.908112 66.896935 -200.499634
v 138.478989 88.112022 -190.349884
v 166.573929 88.112022 -166.363281
v 175.499741 66.896935 -175.187759
v 190.568390 88.112022 -138.268356
v 200.764862 66.896935 -145.564911
v 209.877823 88.112022 -106.766830
v 221.087692 66.896935 -112.348450
v 224.018845 88.118813 -72.638283
v 235.969284 66.896935 -76.364563
v 232.640671 88.118813 -36.716743
v 245.035446 66.890144 -38.494122
v 235.540619 88.118813 0.116895
v 248.060135 66.890144 0.327370
v 244.980957 66.890144 39.148769
v 232.648499 88.118813 36.950447
v 224.018967 88.125603 72.871986
v 235.860306 66.890144 77.003616
v 209.885803 88.125603 107.008461
v 220.939789 66.890144 112.971909
v 190.576416 88.125603 138.509933
v 200.570236 66.890144 146.157257
v 166.581955 88.125603 166.604889
v 175.258347 66.890144 175.748947
v 138.494904 88.125603 190.599350
v 145.635590 66.890144 201.021927
v 106.985596 88.125603 209.900986
v 112.419067 66.890144 221.344757
v 72.857025 88.125603 224.041962
v 76.427383 66.890144 236.218491
v 36.927708 88.125603 232.663788
v 38.556953 66.890144 245.284698
v 39.484627 40.608654 250.741516
v -0.022821 -44.448448 253.649307
v 39.671715 -44.455200 250.554443
v 0.039529 -64.917480 246.804871
v 38.673901 -64.924271 243.795792
v 0.094091 -81.310333 233.326508
v 36.576897 -81.310333 230.457657
v 76.364998 -64.931061 234.768524
v 72.163231 -81.310333 221.913788
v 112.169601 -64.931061 219.964935
v 105.972206 -81.310333 207.905319
v 137.177475 -81.310333 188.783035
v 145.230164 -64.931061 199.743408
v 164.999512 -81.310333 165.022385
v 174.712677 -64.931061 174.595230
v 188.767868 -81.310333 137.192474
v 199.899841 -64.931061 145.143860
v 207.890152 -81.310333 105.987167
v 220.168015 -64.931061 112.122261
v 221.890793 -81.310333 72.178284
v 235.018356 -64.931061 76.333229
v 230.434601 -81.310333 36.599644
v 244.092270 -64.931061 38.657642
v 233.311096 -81.310333 0.116897
v 247.155838 -64.924271 0.023306
v 230.442337 -81.310333 -36.365932
v 244.146759 -64.924271 -38.603310
v 221.898483 -81.317131 -71.952271
v 235.127380 -64.917480 -76.294403
v 220.323761 -64.910690 -112.106743
v 207.897766 -81.317131 -105.761246
v 200.094467 -64.910690 -145.159546
v 188.783218 -81.317131 -136.966507
v 174.946259 -64.903938 -174.642075
v 165.014801 -81.317131 -164.796310
v 145.502686 -64.897141 -199.829147
v 137.184952 -81.317131 -188.572525
v 112.473289 -64.890350 -220.097366
v 105.979652 -81.317131 -207.694839
v 76.684250 -64.883560 -234.947708
v 72.170670 -81.317131 -221.703247
v 39.008705 -64.883560 -244.021667
v 36.584332 -81.317131 -230.247040
v 0.382135 -64.876770 -247.085236
v 0.093716 -81.317131 -233.123550
v -38.252247 -64.870018 -244.076157
v -36.389118 -81.317131 -230.254791
v -75.935562 -64.870018 -235.056778
v -71.975449 -81.317131 -221.710922
v -111.747955 -64.870018 -220.245316
v -105.792213 -81.317131 -207.702362
v -144.800766 -64.863228 -200.023865
v -136.997467 -81.317131 -188.580109
v -174.283218 -64.863228 -174.875610
v -164.827301 -81.317131 -164.811646
v -199.470398 -64.863228 -145.432068
v -188.603485 -81.317131 -136.981827
v -219.746368 -64.863228 -112.402649
v -207.725754 -81.317131 -105.776520
v -234.596725 -64.863228 -76.613609
v -221.726379 -81.317131 -71.959724
v -243.670624 -64.870018 -38.938114
v -230.270203 -81.317131 -36.365566
v -246.734222 -64.870018 -0.311493
v -233.138901 -81.317131 0.117272
v -243.725113 -64.876770 38.322834
v -230.262329 -81.317131 36.600010
v -234.705750 -64.876770 76.006218
v -221.718475 -81.317131 72.186348
v -219.894287 -64.883560 111.818542
v -207.709991 -81.317131 106.003113
v -199.672821 -64.890350 144.871353
v -188.587662 -81.317131 137.200577
v -174.524597 -64.890350 174.353790
v -164.819229 -81.317131 165.030472
v -145.081070 -64.897141 199.540970
v -136.989365 -81.310333 188.798767
v -112.051636 -64.903938 219.817001
v -105.784081 -81.310333 207.913315
v -76.262596 -64.910690 234.667343
v -71.967300 -81.310333 221.921722
v -38.587048 -64.917480 243.741211
v -36.380943 -81.310333 230.457718
v -39.709602 -44.441658 250.499954
v -39.896694 40.608654 250.687027
v -78.609039 40.615448 241.363647
v -115.380295 40.615448 226.100128
v -149.314011 40.615448 205.278427
v -179.576065 40.615452 179.397522
v -205.410278 40.615452 149.104279
v -226.193039 40.615452 115.139473
v -241.402039 40.622242 78.344788
v -250.670883 40.622242 39.624691
v -253.773529 40.622242 -0.069871
v -250.616394 40.622242 -39.764435
v -241.300827 40.622242 -78.476746
v -226.037308 40.622242 -115.248047
v -205.207840 40.622242 -149.181747
v -179.326889 40.622242 -179.443741
v -149.033707 40.622238 -205.278000
v -115.076630 40.622238 -226.060730
v -78.274208 40.622238 -241.269760
v -39.554096 40.622238 -250.538559
v 0.140468 40.622238 -253.633408
v 39.827225 40.615448 -250.484070
v 78.539558 40.615448 -241.160690
v 115.310829 40.615448 -225.904984
v 149.252335 40.615448 -205.075562
v 179.506622 40.615444 -179.194595
v 205.340836 40.615444 -148.901443
v 226.123581 40.608650 -114.936539
v 241.340363 40.608650 -78.141930
v 250.609207 40.608650 -39.421837
v 253.704056 40.608650 0.272723
v 250.546906 40.608650 39.967289
v 241.231384 40.608650 78.671883
v 225.967865 40.608650 115.450890
v 205.138351 40.608650 149.384598
v 179.265228 40.608650 179.638870
v 148.964218 40.608654 205.480865
v 115.007156 40.608654 226.263687
v 78.212532 40.608654 241.472717
v 78.399620 -44.455200 241.285553
v 115.194267 -44.455200 226.076630
v 149.151337 -44.461990 205.293793
v 179.444489 -44.461994 179.451797
v 205.325470 -44.461994 149.197525
v 226.154938 -44.461994 115.263817
v 241.418457 -44.461994 78.484726
v 250.734024 -44.455204 39.780220
v 253.891174 -44.455204 0.085656
v 250.788513 -44.448452 -39.608902
v 241.519669 -44.448452 -78.328995
v 226.310684 -44.441662 -115.123604
v 205.527908 -44.434868 -149.088501
v 179.693680 -44.428078 -179.381653
v 149.431641 -44.428074 -205.262634
v 115.497917 -44.421322 -226.092133
v 78.726646 -44.414532 -241.347855
v 40.014313 -44.407738 -250.671127
v 0.327557 -44.407738 -253.820480
v -39.367004 -44.400948 -250.725708
v -78.094917 -44.400948 -241.456818
v -114.889542 -44.394157 -226.247803
v -148.846603 -44.394157 -205.465057
v -179.139801 -44.394154 -179.630905
v -205.020752 -44.394154 -149.368820
v -225.850220 -44.394154 -115.435112
v -241.113739 -44.394154 -78.656006
v -250.437088 -44.394154 -39.951500
v -253.586441 -44.400944 -0.256938
v -250.483795 -44.400944 39.437622
v -241.222763 -44.407734 78.157715
v -226.005951 -44.414528 114.952316
v -205.223190 -44.414528 148.917221
v -179.388977 -44.421318 179.210373
v -149.134705 -44.428074 205.091354
v -115.193207 -44.434864 225.920868
v -78.421936 -44.434864 241.176575
v 123.480705 -96.034782 62.979656
v 112.130524 -96.034782 81.509491
v 110.579208 -93.301521 80.386993
v 98.020714 -96.034782 98.035950
v 96.664314 -93.301521 96.687271
v 81.494324 -96.034782 112.145691
v 80.371773 -93.301521 110.602234
v 62.964504 -96.034782 123.495995
v 62.099190 -93.301521 121.796509
v 42.891151 -96.034782 131.813751
v 42.298702 -93.301521 129.997452
v 21.765425 -96.034782 136.888641
v 21.461405 -93.301521 135.002075
v 0.101797 -96.034782 138.588043
v 0.101796 -93.301521 136.685974
v -21.561811 -96.034782 136.888672
v -21.257795 -93.301521 135.002106
v -42.687576 -96.034782 131.813812
v -42.095104 -93.301521 129.997513
v -62.768715 -96.034782 123.496101
v -61.895634 -93.301521 121.796616
v -81.290771 -96.034782 112.145828
v -80.168228 -93.301521 110.602356
v -97.817192 -96.034782 98.036102
v -96.460785 -93.301521 96.687424
v -111.927010 -96.034782 81.509674
v -110.375725 -93.301521 80.387177
v -123.285042 -96.034782 62.979855
v -121.577827 -93.301521 62.122303
v -131.602829 -96.034782 42.906487
v -129.778687 -93.301521 42.321865
v -136.669907 -96.034782 21.780779
v -134.775589 -93.301521 21.484518
v -138.377121 -96.034782 0.117196
v -136.459427 -93.301521 0.124907
v -136.669937 -96.034782 -21.546482
v -134.775620 -93.301521 -21.242418
v -131.602890 -96.034782 -42.672195
v -129.778748 -93.301521 -42.079773
v -123.285141 -96.034782 -62.753387
v -121.577927 -93.301521 -61.880222
v -111.934952 -96.034782 -81.283218
v -110.375854 -93.301521 -80.145020
v -97.817345 -96.034782 -97.801788
v -96.460938 -93.301521 -96.445389
v -81.298752 -96.034782 -111.919434
v -80.168404 -93.301521 -110.360367
v -62.768913 -96.034782 -123.269646
v -61.895828 -93.301521 -121.554634
v -42.695568 -96.034782 -131.587494
v -42.095314 -93.301521 -129.755478
v -21.562031 -96.034782 -136.662369
v -21.258011 -93.301521 -134.760208
v 0.101575 -96.034782 -138.361786
v 0.101577 -93.301521 -136.444092
v 21.765205 -96.034782 -136.662399
v 21.461189 -93.301521 -134.760239
v 42.890942 -96.034782 -131.587555
v 42.298492 -93.301521 -129.755539
v 62.964306 -96.034782 -123.269753
v 62.098995 -93.301521 -121.554741
v 81.494141 -96.034782 -111.911766
v 80.371597 -93.301521 -110.360489
v 96.664162 -93.301521 -96.445541
v 98.020561 -96.034782 -97.801941
v 110.579079 -93.301521 -80.145203
v 112.130394 -96.034782 -81.283401
v 121.781212 -93.301521 -61.880421
v 123.488411 -96.034782 -62.753586
v 129.982056 -93.301521 -42.079979
v 131.798401 -96.034782 -42.672409
v 134.978973 -93.301521 -21.242636
v 136.873260 -96.034782 -21.546703
v 136.662827 -93.301521 0.116975
v 138.580505 -96.034782 0.116973
v 134.979004 -93.301521 21.484301
v 136.873291 -96.034782 21.780558
v 129.982117 -93.301521 42.321659
v 131.798462 -96.034782 42.906273
v 121.781311 -93.301521 62.122105
v 233.311096 -81.310333 0.116897
v 230.434601 -81.310333 36.599644
v 208.529297 -94.705421 33.130699
v 200.796204 -94.705421 65.326065
v 221.890793 -81.310333 72.178284
v 188.120819 -94.705421 95.923317
v 207.890152 -81.310333 105.987167
v 170.822647 -94.705421 124.158501
v 188.767868 -81.310333 137.192474
v 149.314987 -94.705421 149.337891
v 164.999512 -81.310333 165.022385
v 124.135620 -94.705421 170.837845
v 137.177475 -81.310333 188.783035
v 95.900421 -94.705421 188.143814
v 105.972206 -81.310333 207.905319
v 65.310982 -94.705421 200.819321
v 72.163231 -81.310333 221.913788
v 33.107899 -94.705421 208.544647
v 36.576897 -81.310333 230.457657
v 0.094073 -94.705421 211.148361
v 0.094091 -81.310333 233.326508
v -32.911976 -94.705421 208.552505
v -36.380943 -81.310333 230.457718
v -65.115097 -94.705421 200.819412
v -71.967300 -81.310333 221.921722
v -95.704544 -94.705421 188.151764
v -105.784081 -81.310333 207.913315
v -123.947563 -94.705421 170.845871
v -136.989365 -81.310333 188.798767
v -149.126953 -94.705421 149.345947
v -164.819229 -81.317131 165.030472
v -170.634705 -94.705421 124.166580
v -188.587662 -81.317131 137.200577
v -187.940659 -94.705421 95.931335
v -207.709991 -81.317131 106.003113
v -200.616150 -94.705421 65.334190
v -221.718475 -81.317131 72.186348
v -208.349258 -94.705421 33.131035
v -230.262329 -81.317131 36.600010
v -210.945175 -94.705421 0.117254
v -233.138901 -81.317131 0.117272
v -208.349319 -94.705421 -32.896622
v -230.270203 -81.317131 -36.365566
v -200.624039 -94.705421 -65.099701
v -221.726379 -81.317131 -71.959724
v -187.948624 -94.705421 -95.696953
v -207.725754 -81.317131 -105.776520
v -170.642700 -94.705421 -123.932243
v -188.603485 -81.317131 -136.981827
v -149.134995 -94.705421 -149.119446
v -164.827301 -81.317131 -164.811646
v -123.955627 -94.705421 -170.627106
v -136.997467 -81.317131 -188.580109
v -95.720436 -94.705421 -187.933075
v -105.792213 -81.317131 -207.702362
v -65.123207 -94.705421 -200.600754
v -71.975449 -81.317131 -221.710922
v -32.920116 -94.705421 -208.333878
v -36.389118 -81.317131 -230.254791
v 0.093734 -94.705421 -210.929794
v 0.093716 -81.317131 -233.123550
v 33.115345 -94.705421 -208.333939
v 36.584332 -81.317131 -230.247040
v 65.310661 -94.705421 -200.600845
v 72.170670 -81.317131 -221.703247
v 95.907921 -94.705421 -187.925430
v 105.979652 -81.317131 -207.694839
v 124.143135 -94.705421 -170.619507
v 137.184952 -81.317131 -188.572525
v 149.322556 -94.705421 -149.111877
v 165.014801 -81.317131 -164.796310
v 170.830261 -94.705421 -123.924706
v 188.783218 -81.317131 -136.966507
v 188.128479 -94.705421 -95.689453
v 207.897766 -81.317131 -105.761246
v 200.803925 -94.705421 -65.092209
v 221.898483 -81.317131 -71.952271
v 208.529236 -94.705421 -32.896957
v 230.442337 -81.310333 -36.365932
v 211.125153 -94.705421 0.116915
v 182.289703 -101.555573 0.116938
v 180.044647 -101.555573 28.617147
v 173.371750 -101.555573 56.415836
v 162.426926 -101.555573 82.826912
v 147.490799 -101.555573 107.203377
v 128.922012 -101.555573 128.944946
v 107.188248 -101.555573 147.513809
v 82.811790 -101.555573 162.449905
v 56.400738 -101.555573 173.386963
v 28.602081 -101.555573 180.059952
v 0.101832 -101.555573 182.305054
v -28.406204 -101.555573 180.067795
v -56.204895 -101.555573 173.394852
v -82.615967 -101.555573 162.450027
v -106.992424 -101.555573 147.513992
v -128.734024 -101.555573 128.952972
v -147.302856 -101.555573 107.211418
v -162.239014 -101.555573 82.834976
v -173.183868 -101.555573 56.423920
v -179.856827 -101.555573 28.617437
v -182.101944 -101.555573 0.117231
v -179.864670 -101.555573 -28.383070
v -173.191757 -101.555573 -56.189568
v -162.246918 -101.555573 -82.600639
v -147.310837 -101.555573 -106.977036
v -128.742035 -101.555573 -128.718689
v -107.000458 -101.555573 -147.287460
v -82.624016 -101.555573 -162.231445
v -56.205173 -101.555573 -173.168503
v -28.406492 -101.555573 -179.841507
v 0.101540 -101.555573 -182.086594
v 28.601793 -101.555573 -179.841553
v 56.400459 -101.555573 -173.168594
v 82.811531 -101.555573 -162.223770
v 107.195793 -101.555573 -147.287643
v 128.929596 -101.555573 -128.718903
v 147.498428 -101.555573 -106.977272
v 162.434601 -101.555573 -82.600899
v 173.371658 -101.555573 -56.182034
v 180.044601 -101.555573 -28.383360
v 157.897675 -100.857018 0.116958
v 155.956635 -100.857018 24.805206
v 150.172394 -100.857018 48.877613
v 140.700943 -100.857018 71.757370
v 127.760452 -100.857018 92.867485
v 111.678406 -100.857018 111.693565
v 92.852356 -100.857018 127.775650
v 71.734421 -100.857018 140.716156
v 48.862503 -100.857018 150.187714
v 24.782297 -100.857018 155.971939
v 0.101813 -100.857018 157.913071
v -24.586458 -100.857018 155.971970
v -48.666676 -100.857018 150.187805
v -71.538612 -100.857018 140.716278
v -92.656563 -100.857018 127.783607
v -111.482643 -100.857018 111.701553
v -127.564720 -100.857018 92.867683
v -140.505219 -100.857018 71.757599
v -149.976761 -100.857018 48.877857
v -155.761017 -100.857018 24.805458
v -157.702103 -100.857018 0.117211
v -155.761047 -100.857018 -24.571129
v -149.984634 -100.857018 -48.643536
v -140.505341 -100.857018 -71.523201
v -127.564873 -100.857018 -92.641212
v -111.490616 -100.857018 -111.467308
v -92.656769 -100.857018 -127.549385
v -71.546631 -100.857018 -140.489899
v -48.666916 -100.857018 -149.961365
v -24.586708 -100.857018 -155.745682
v 0.101559 -100.857018 -157.686707
v 24.782047 -100.857018 -155.745712
v 48.862263 -100.857018 -149.961456
v 71.741997 -100.857018 -140.490021
v 92.852150 -100.857018 -127.549538
v 111.686028 -100.857018 -111.467491
v 127.760300 -100.857018 -92.633606
v 140.700821 -100.857018 -71.523430
v 150.172318 -100.857018 -48.643780
v 155.956604 -100.857018 -24.571381
v 232.648499 88.118813 36.950447
v 235.540619 88.118813 0.116895
v 216.122055 100.978088 0.116911
v 213.463791 100.978088 -33.676544
v 232.640671 88.118813 -36.716743
v 205.551346 100.978088 -66.635773
v 224.018845 88.118813 -72.638283
v 192.571884 100.978088 -97.957954
v 209.877823 88.112022 -106.766830
v 174.860504 100.978088 -126.855789
v 190.568390 88.112022 -138.268356
v 152.846100 100.978088 -152.627579
v 166.573929 88.112022 -166.363281
v 127.066452 100.978088 -174.642044
v 138.478989 88.112022 -190.349884
v 98.168610 100.978088 -192.353317
v 106.977478 88.105225 -209.651459
v 66.846390 100.978088 -205.324921
v 72.848885 88.105225 -223.784576
v 33.887096 100.978088 -213.237350
v 36.927334 88.105225 -232.406342
v 0.093732 100.978088 -215.895569
v 0.093717 88.105225 -235.306274
v -33.691853 100.978088 -213.237289
v -36.732121 88.105225 -232.406281
v -66.651131 100.978088 -205.316986
v -72.653656 88.105225 -223.776749
v -97.965538 100.978088 -192.345367
v -106.782234 88.105225 -209.643478
v -126.871140 100.978088 -174.634033
v -138.275940 88.105225 -190.341873
v -152.642975 100.978088 -152.619522
v -166.370804 88.105225 -166.347397
v -174.657364 100.978088 -126.847710
v -190.357452 88.105225 -138.260254
v -192.368652 100.978088 -97.949844
v -209.659042 88.105225 -106.758781
v -205.340286 100.978088 -66.635437
v -223.799988 88.105225 -72.630104
v -213.252686 100.978088 -33.676201
v -232.421753 88.105225 -36.708565
v -215.910904 100.978088 0.117258
v -235.321640 88.105225 0.117273
v -213.252625 100.978088 33.910622
v -232.429489 88.105225 36.943012
v -205.340179 100.978088 66.869850
v -223.807663 88.112022 72.864548
v -192.368500 100.978088 98.184212
v -209.666641 88.112022 107.000992
v -174.664948 100.978088 127.089859
v -190.372818 88.112022 138.502426
v -152.650513 100.978088 152.861649
v -166.378342 88.112022 166.589554
v -126.878647 100.978088 174.883926
v -138.291214 88.118813 190.583954
v -97.973030 100.978088 192.595184
v -106.789696 88.118813 209.893356
v -66.658592 100.978088 205.566818
v -72.653297 88.118813 224.034286
v -33.691509 100.978088 213.479248
v -36.731747 88.118813 232.656052
v 0.094079 100.978088 216.145264
v 0.094094 88.125603 235.563766
v 33.895245 100.978088 213.486908
v 36.927708 88.125603 232.663788
v 66.854500 100.978088 205.574493
v 72.857025 88.125603 224.041962
v 98.176697 100.978088 192.602844
v 106.985596 88.125603 209.900986
v 127.074516 100.978088 174.891510
v 138.494904 88.125603 190.599350
v 152.854156 100.978088 152.869202
v 166.581955 88.125603 166.604889
v 174.868530 100.978088 127.097389
v 190.576416 88.125603 138.509933
v 192.579849 100.978088 98.191719
v 209.885803 88.125603 107.008461
v 205.551453 100.978088 66.869514
v 224.018967 88.125603 72.871986
v 213.463852 100.978088 33.910278
v 190.724442 109.354271 0.116931
v 188.370193 109.354271 -29.700823
v 181.393173 109.354271 -58.785736
v 169.941620 109.354271 -86.420670
v 154.311676 109.354271 -111.927429
v 134.885345 109.354271 -134.666840
v 112.138123 109.354271 -154.093140
v 86.639122 109.354271 -169.722992
v 59.004150 109.354271 -181.166733
v 29.919224 109.354271 -188.151474
v 0.093753 109.354271 -190.497910
v -29.723932 109.354271 -188.151413
v -58.801064 109.354271 -181.166641
v -86.436020 109.354271 -169.715134
v -111.942795 109.354271 -154.092957
v -134.682175 109.354271 -134.666626
v -154.108475 109.354271 -111.919380
v -169.738373 109.354271 -86.420395
v -181.182114 109.354271 -58.785446
v -188.166824 109.354271 -29.700521
v -190.513260 109.354271 0.117237
v -188.166779 109.354271 29.934900
v -181.189819 109.354271 59.019814
v -169.746033 109.354271 86.654747
v -154.116089 109.354271 112.161491
v -134.689758 109.354271 134.908707
v -111.942551 109.354271 154.335007
v -86.443542 109.354271 169.964951
v -58.808563 109.354271 181.408615
v -29.723631 109.354271 188.393341
v 0.094059 109.354271 190.739777
v 29.919525 109.354271 188.393280
v 59.004444 109.354271 181.408524
v 86.639397 109.354271 169.964798
v 112.146172 109.354271 154.334824
v 134.893341 109.354271 134.908493
v 154.319656 109.354271 112.161247
v 169.949570 109.354271 86.662277
v 181.393265 109.354271 59.027328
v 188.378006 109.354271 29.934599
v 165.584045 110.398758 0.116952
v 163.541580 110.398758 -25.771847
v 157.484467 110.398758 -51.021381
v 147.545242 110.398758 -75.008102
v 133.973297 110.398758 -97.154999
v 117.111656 110.398758 -116.893074
v 97.365723 110.398758 -133.762512
v 75.226570 110.398758 -147.326645
v 51.232075 110.398758 -157.265793
v 25.982527 110.398758 -163.322891
v 0.101556 110.398758 -165.365280
v -25.787195 110.398758 -163.322861
v -51.036755 110.398758 -157.265701
v -75.031212 110.398758 -147.326523
v -97.170357 110.398758 -133.762360
v -116.916275 110.398758 -116.892891
v -133.777878 110.398758 -97.146973
v -147.341980 110.398758 -75.007858
v -157.281189 110.398758 -51.021130
v -163.346039 110.398758 -25.771584
v -165.380646 110.398758 0.117217
v -163.346008 110.398758 26.005924
v -157.281097 110.398758 51.255459
v -147.349655 110.398758 75.242180
v -133.777725 110.398758 97.381264
v -116.916092 110.398758 117.127235
v -97.170143 110.398758 133.996582
v -75.030975 110.398758 147.560715
v -51.036503 110.398758 157.499954
v -25.786932 110.398758 163.564758
v 0.101821 110.398758 165.599335
v 25.982790 110.398758 163.564728
v 51.232327 110.398758 157.499863
v 75.226807 110.398758 147.568390
v 97.365936 110.398758 133.996429
v 117.111839 110.398758 117.134857
v 133.981232 110.398758 97.388863
v 147.545364 110.398758 75.241936
v 157.484558 110.398758 51.255207
v 163.541611 110.398758 26.005661
v 138.393402 104.348915 0.116973
v 136.686172 104.348915 -21.515478
v 131.626907 104.348915 -42.617859
v 123.316917 104.348915 -62.660004
v 111.982269 104.348915 -81.166496
v 97.888039 104.348915 -97.661713
v 81.385017 104.348915 -111.755920
v 62.886341 104.348915 -123.098297
v 42.836372 104.348915 -131.400391
v 21.734030 104.348915 -136.467438
v 0.101577 104.348915 -138.166916
v -21.530851 104.348915 -136.467407
v -42.633209 104.348915 -131.400330
v -62.683163 104.348915 -123.098190
v -81.181824 104.348915 -111.755783
v -97.684822 104.348915 -97.661560
v -111.779030 104.348915 -81.166313
v -123.113632 104.348915 -62.659805
v -131.423584 104.348915 -42.617645
v -136.482849 104.348915 -21.515259
v -138.190033 104.348915 0.117195
v -136.482819 104.348915 21.757359
v -131.423523 104.348915 42.851936
v -123.113533 104.348915 62.901890
v -111.778900 104.348915 81.408379
v -97.684669 104.348915 97.903587
v -81.181641 104.348915 111.997795
v -62.682964 104.348915 123.340172
v -42.632999 104.348915 131.642349
v -21.530632 104.348915 136.709305
v 0.101799 104.348915 138.408783
v 21.734249 104.348915 136.709274
v 42.836582 104.348915 131.642288
v 62.886539 104.348915 123.340065
v 81.385201 104.348915 111.997658
v 97.888191 104.348915 97.903435
v 111.982399 104.348915 81.408195
v 123.317017 104.348915 62.901691
v 131.626968 104.348915 42.851723
v 136.686203 104.348915 21.757139
vt 0.000000 1.000000
vt 0.000010 0.999990
vt 0.000020 0.999980
vt 0.000030 0.999970
vt 0.000040 0.999960
vt 0.000060 0.999940
vt 0.000070 0.999930
vt 0.000100 0.999900
vt 0.000120 0.999880
vt 0.000170 0.999830
vt 0.000220 0.999780
vt 0.000290 0.999710
vt 0.000380 0.999620
vt 0.000480 0.999520
vt 0.000660 0.999340
vt 0.000850 0.999140
vt 0.000860 0.999140
vt 0.001120 0.998880
vt 0.001510 0.998490
vt 0.001890 0.998110
vt 0.001900 0.998100
vt 0.002610 0.997390
vt 0.002630 0.997370
vt 0.003390 0.996610
vt 0.004400 0.995600
vt 0.004430 0.995570
vt 0.005960 0.994040
vt 0.005990 0.994010
vt 0.007510 0.992490
vt 0.000660 0.999330
vt 0.000010 0.999980
vt 0.000000 0.999990
vt 0.002990 0.997010
vt 0.001450 0.998550
vt 0.001260 0.998740
vt 0.003380 0.996630
vt 0.006930 0.993070
vt 0.007660 0.992340
vt 0.007120 0.992880
vt 0.007760 0.992240
vt 0.006510 0.993490
vt 0.005870 0.994130
vt 0.005260 0.994740
vt 0.004610 0.995380
vt 0.004000 0.995990
vt 0.003650 0.996350
vt 0.003330 0.996670
vt 0.003020 0.996980
vt 0.002700 0.997300
vt 0.002400 0.997600
vt 0.002080 0.997920
vt 0.001860 0.998140
vt 0.001710 0.998290
vt 0.001550 0.998450
vt 0.001400 0.998600
vt 0.001240 0.998760
vt 0.001080 0.998920
vt 0.000950 0.999050
vt 0.000870 0.999130
vt 0.000880 0.999120
vt 0.001250 0.998750
vt 0.001560 0.998440
vt 0.001870 0.998130
vt 0.002090 0.997910
vt 0.002410 0.997590
vt 0.002720 0.997280
vt 0.003350 0.996650
vt 0.004040 0.995970
vt 0.004650 0.995350
vt 0.005290 0.994710
vt 0.005900 0.994100
vt 0.006540 0.993460
vt 0.007150 0.992850
vt 0.007790 0.992210
vt 0.005930 0.994070
vt 0.004680 0.995320
vt 0.004070 0.995930
vt 0.003670 0.996330
vt 0.003360 0.996640
vt 0.003040 0.996960
vt 0.002740 0.997260
vt 0.002430 0.997570
vt 0.002110 0.997890
vt 0.001880 0.998120
vt 0.001730 0.998270
vt 0.001570 0.998430
vt 0.001410 0.998590
vt 0.001100 0.998900
vt 0.000960 0.999040
vt 0.001720 0.998280
vt 0.000050 0.999950
vt 0.000090 0.999910
vt 0.000080 0.999920
vt 0.000530 0.999460
vt 0.000450 0.999550
vt 0.001690 0.998310
vt 0.002470 0.997530
vt 0.002500 0.997500
vt 0.003220 0.996780
vt 0.006660 0.993340
vt 0.007540 0.992460
vt 0.000280 0.999720
vt 0.000350 0.999650
vt 0.000270 0.999730
vt 0.000110 0.999890
vt 0.000150 0.999850
vt 0.000140 0.999860
vt 0.000180 0.999820
vt 0.000130 0.999870
vt 0.000360 0.999640
vt 0.000410 0.999590
vt 0.000210 0.999790
vt 0.000370 0.999630
vt 0.000590 0.999410
vt 0.000430 0.999570
vt 0.000890 0.999110
vt 0.000650 0.999350
vt 0.001280 0.998720
vt 0.001630 0.998370
vt 0.001840 0.998160
vt 0.001270 0.998730
vt 0.001910 0.998090
vt 0.001340 0.998660
vt 0.000610 0.999390
vt 0.000910 0.999090
vt 0.001330 0.998670
vt 0.001680 0.998320
vt 0.001990 0.998010
vt 0.000400 0.999600
vt 0.000760 0.999240
vt 0.000680 0.999320
vt 0.001440 0.998560
vt 0.002490 0.997510
vt 0.001010 0.998990
vt 0.003730 0.996270
vt 0.005380 0.994620
vt 0.002260 0.997740
vt 0.006870 0.993130
vt 0.000210 0.999800
vt 0.000280 0.999710
vt 0.000440 0.999560
vt 0.000580 0.999410
vt 0.000670 0.999330
vt 0.001610 0.998390
vt 0.001310 0.998690
vt 0.001830 0.998180
vt 0.001370 0.998620
vt 0.000580 0.999420
vt 0.000420 0.999580
vt 0.000620 0.999380
vt 0.000830 0.999170
vt 0.001000 0.999000
vt 0.001190 0.998810
vt 0.754061 0.629462
vt 0.730692 0.667614
vt 0.727498 0.665302
vt 0.701641 0.701640
vt 0.698848 0.698864
vt 0.667614 0.730691
vt 0.665303 0.727514
vt 0.629462 0.754061
vt 0.627681 0.750562
vt 0.588133 0.771187
vt 0.586913 0.767447
vt 0.544636 0.781635
vt 0.544010 0.777751
vt 0.500032 0.785134
vt 0.500032 0.781218
vt 0.455428 0.781635
vt 0.456054 0.777751
vt 0.411932 0.771187
vt 0.413152 0.767447
vt 0.370586 0.754061
vt 0.372384 0.750562
vt 0.332450 0.730692
vt 0.334762 0.727514
vt 0.298424 0.701640
vt 0.301216 0.698864
vt 0.269372 0.667614
vt 0.272566 0.665303
vt 0.245987 0.629462
vt 0.249502 0.627696
vt 0.228861 0.588132
vt 0.232617 0.586929
vt 0.218429 0.544636
vt 0.222329 0.544026
vt 0.214914 0.500032
vt 0.218862 0.500048
vt 0.218429 0.455428
vt 0.222329 0.456054
vt 0.228861 0.411932
vt 0.232617 0.413152
vt 0.245987 0.370586
vt 0.249502 0.372384
vt 0.269356 0.332434
vt 0.272566 0.334778
vt 0.298423 0.298424
vt 0.301216 0.301216
vt 0.332434 0.269356
vt 0.334761 0.272566
vt 0.370586 0.245987
vt 0.372383 0.249518
vt 0.411916 0.228861
vt 0.413151 0.232633
vt 0.455428 0.218412
vt 0.456054 0.222329
vt 0.500032 0.214913
vt 0.500032 0.218862
vt 0.544636 0.218412
vt 0.544010 0.222329
vt 0.588133 0.228861
vt 0.586913 0.232633
vt 0.629462 0.245987
vt 0.627680 0.249518
vt 0.667614 0.269372
vt 0.665303 0.272566
vt 0.698848 0.301216
vt 0.701641 0.298424
vt 0.727498 0.334778
vt 0.730692 0.332434
vt 0.750562 0.372384
vt 0.754077 0.370586
vt 0.767447 0.413151
vt 0.771187 0.411932
vt 0.777735 0.456054
vt 0.781636 0.455428
vt 0.781202 0.500032
vt 0.785151 0.500032
vt 0.777735 0.544026
vt 0.781636 0.544636
vt 0.767447 0.586929
vt 0.771187 0.588132
vt 0.750562 0.627696
vt 0.980195 0.500032
vt 0.974272 0.575147
vt 0.929170 0.568005
vt 0.913249 0.634293
vt 0.956681 0.648401
vt 0.887151 0.697291
vt 0.927854 0.718012
vt 0.851535 0.755425
vt 0.888483 0.782261
vt 0.807252 0.807268
vt 0.839545 0.839561
vt 0.755409 0.851535
vt 0.782261 0.888483
vt 0.697275 0.887167
vt 0.718012 0.927854
vt 0.634293 0.913264
vt 0.648402 0.956697
vt 0.567989 0.929170
vt 0.575132 0.974288
vt 0.500016 0.934531
vt 0.500016 0.980195
vt 0.432059 0.929186
vt 0.424916 0.974288
vt 0.365755 0.913264
vt 0.351647 0.956713
vt 0.302773 0.887183
vt 0.282020 0.927870
vt 0.244623 0.851551
vt 0.217771 0.888515
vt 0.192780 0.807284
vt 0.160471 0.839577
vt 0.148497 0.755441
vt 0.111533 0.782277
vt 0.112865 0.697307
vt 0.072162 0.718044
vt 0.086767 0.634309
vt 0.043319 0.648418
vt 0.070846 0.568005
vt 0.025728 0.575148
vt 0.065501 0.500032
vt 0.019805 0.500032
vt 0.070846 0.432059
vt 0.025712 0.424916
vt 0.086751 0.365755
vt 0.043303 0.351631
vt 0.112849 0.302757
vt 0.072130 0.282004
vt 0.148481 0.244623
vt 0.111501 0.217754
vt 0.192764 0.192764
vt 0.160455 0.160455
vt 0.244607 0.148481
vt 0.217754 0.111517
vt 0.302741 0.112849
vt 0.282004 0.072146
vt 0.365739 0.086768
vt 0.351630 0.043303
vt 0.432043 0.070846
vt 0.424900 0.025712
vt 0.500016 0.065501
vt 0.500016 0.019805
vt 0.568005 0.070846
vt 0.575148 0.025728
vt 0.634293 0.086768
vt 0.648418 0.043319
vt 0.697291 0.112865
vt 0.718028 0.072161
vt 0.755425 0.148497
vt 0.782278 0.111533
vt 0.807268 0.192780
vt 0.839577 0.160487
vt 0.851551 0.244639
vt 0.888515 0.217786
vt 0.887167 0.302773
vt 0.927870 0.282036
vt 0.913265 0.365771
vt 0.956697 0.351646
vt 0.929170 0.432059
vt 0.974288 0.424916
vt 0.934515 0.500032
vt 0.875145 0.500032
vt 0.870522 0.558712
vt 0.856783 0.615948
vt 0.834249 0.670326
vt 0.803496 0.720516
vt 0.765264 0.765280
vt 0.720516 0.803512
vt 0.670326 0.834264
vt 0.615948 0.856783
vt 0.558712 0.870522
vt 0.500032 0.875145
vt 0.441336 0.870538
vt 0.384100 0.856799
vt 0.329722 0.834265
vt 0.279532 0.803512
vt 0.234768 0.765296
vt 0.196536 0.720532
vt 0.165783 0.670342
vt 0.143249 0.615964
vt 0.129510 0.558712
vt 0.124887 0.500032
vt 0.129493 0.441352
vt 0.143233 0.384100
vt 0.165767 0.329722
vt 0.196520 0.279532
vt 0.234752 0.234768
vt 0.279516 0.196536
vt 0.329706 0.165767
vt 0.384100 0.143249
vt 0.441336 0.129509
vt 0.500032 0.124887
vt 0.558712 0.129509
vt 0.615948 0.143249
vt 0.670326 0.165783
vt 0.720532 0.196536
vt 0.765280 0.234768
vt 0.803512 0.279532
vt 0.834265 0.329722
vt 0.856783 0.384116
vt 0.870522 0.441352
vt 0.824923 0.500032
vt 0.820927 0.550863
vt 0.809018 0.600427
vt 0.789516 0.647535
vt 0.762873 0.690999
vt 0.729761 0.729761
vt 0.690999 0.762872
vt 0.647519 0.789516
vt 0.600427 0.809017
vt 0.550848 0.820927
vt 0.500032 0.824923
vt 0.449201 0.820927
vt 0.399621 0.809017
vt 0.352529 0.789516
vt 0.309049 0.762889
vt 0.270287 0.729777
vt 0.237175 0.690999
vt 0.210532 0.647535
vt 0.191031 0.600427
vt 0.179121 0.550864
vt 0.175125 0.500032
vt 0.179121 0.449200
vt 0.191015 0.399637
vt 0.210532 0.352529
vt 0.237175 0.309049
vt 0.270271 0.270287
vt 0.309049 0.237175
vt 0.352513 0.210532
vt 0.399621 0.191031
vt 0.449201 0.179121
vt 0.500032 0.175125
vt 0.550847 0.179121
vt 0.600427 0.191031
vt 0.647535 0.210532
vt 0.690999 0.237175
vt 0.729777 0.270287
vt 0.762873 0.309065
vt 0.789516 0.352529
vt 0.809018 0.399637
vt 0.820927 0.449200
usemtl Material.003
s off
f 587/1 588/1 589/1
f 590/1 587/1 589/1
f 591/1 587/1 590/1
f 590/1 589/1 592/1
f 592/1 593/1 590/1
f 593/1 592/1 594/1
f 594/1 595/1 593/1
f 595/1 594/1 596/1
f 596/1 597/1 595/1
f 597/1 596/1 598/1
f 598/1 599/1 597/1
f 599/1 598/1 600/1
f 600/1 601/1 599/1
f 601/1 600/1 602/1
f 602/1 603/1 601/1
f 603/1 602/1 604/1
f 604/1 605/1 603/1
f 605/1 604/1 606/1
f 606/1 607/1 605/1
f 607/1 606/1 608/1
f 608/1 609/1 607/1
f 609/1 608/1 610/1
f 610/1 611/1 609/1
f 611/1 610/1 612/1
f 612/1 613/1 611/1
f 613/1 612/1 614/1
f 614/1 615/1 613/1
f 615/1 614/1 616/1
f 616/1 617/1 615/1
f 618/1 617/1 616/1
f 616/1 619/1 618/1
f 620/1 618/1 619/1
f 619/1 621/1 620/1
f 622/2 620/1 621/1
f 621/1 623/2 622/2
f 624/2 622/2 623/2
f 623/2 625/2 624/2
f 626/3 624/2 625/2
f 625/2 627/3 626/3
f 628/4 626/3 627/3
f 627/3 629/4 628/4
f 630/5 628/4 629/4
f 629/4 631/5 630/5
f 632/6 630/5 631/5
f 631/5 633/6 632/6
f 634/7 632/6 633/6
f 633/6 635/7 634/7
f 636/8 634/7 635/7
f 635/7 637/8 636/8
f 636/8 637/8 638/9
f 638/9 639/9 636/8
f 639/9 638/9 640/10
f 640/10 641/10 639/9
f 641/10 640/10 642/11
f 642/11 643/11 641/10
f 643/11 642/11 644/12
f 644/12 645/12 643/11
f 645/12 644/12 646/13
f 646/13 647/13 645/12
f 647/13 646/13 648/14
f 648/14 649/14 647/13
f 650/15 649/14 648/14
f 648/14 651/15 650/15
f 650/15 651/15 652/16
f 652/16 653/17 650/15
f 653/17 652/16 654/18
f 654/18 655/18 653/17
f 655/18 654/18 656/19
f 656/19 657/19 655/18
f 657/19 656/19 658/20
f 658/20 659/21 657/19
f 659/21 658/20 660/22
f 660/22 661/23 659/21
f 661/23 660/22 662/24
f 662/24 663/24 661/23
f 663/24 662/24 664/25
f 664/25 665/26 663/24
f 665/26 664/25 666/27
f 666/27 667/28 665/26
f 667/28 666/27 588/29
f 588/29 587/29 667/28
f 667/28 587/29 668/28
f 587/29 591/29 668/28
f 668/28 591/29 669/29
f 669/29 670/27 668/28
f 670/27 669/29 671/29
f 671/29 672/27 670/27
f 672/27 671/29 673/29
f 673/29 674/27 672/27
f 675/25 672/27 674/27
f 674/27 676/25 675/25
f 677/24 675/25 676/25
f 676/25 678/24 677/24
f 677/24 678/24 679/22
f 679/22 680/22 677/24
f 680/22 679/22 681/20
f 681/20 682/20 680/22
f 682/20 681/20 683/19
f 683/19 684/19 682/20
f 684/19 683/19 685/18
f 685/18 686/18 684/19
f 686/18 685/18 687/16
f 687/16 688/16 686/18
f 688/16 687/16 689/30
f 689/30 690/30 688/16
f 690/30 689/30 691/14
f 691/14 692/14 690/30
f 692/14 691/14 693/13
f 693/13 694/13 692/14
f 694/13 693/13 695/12
f 695/12 696/12 694/13
f 697/11 696/12 695/12
f 695/12 698/11 697/11
f 699/10 697/11 698/11
f 698/11 700/10 699/10
f 701/9 699/10 700/10
f 700/10 702/9 701/9
f 703/8 701/9 702/9
f 702/9 704/8 703/8
f 705/7 703/8 704/8
f 704/8 706/7 705/7
f 707/6 705/7 706/7
f 706/7 708/6 707/6
f 709/5 707/6 708/6
f 708/6 710/5 709/5
f 711/4 709/5 710/5
f 710/5 712/4 711/4
f 713/3 711/4 712/4
f 712/4 714/3 713/3
f 715/2 713/3 714/3
f 714/3 716/2 715/2
f 717/2 715/2 716/2
f 716/2 718/2 717/2
f 719/1 717/2 718/2
f 718/2 720/1 719/1
f 721/1 719/1 720/1
f 720/1 722/1 721/1
f 723/1 721/1 722/1
f 722/1 724/1 723/1
f 725/1 723/1 724/1
f 724/1 726/1 725/1
f 727/1 725/1 726/1
f 726/1 728/1 727/1
f 729/1 727/1 728/1
f 728/1 730/1 729/1
f 731/1 729/1 730/1
f 730/1 732/1 731/1
f 733/1 731/1 732/1
f 732/1 734/1 733/1
f 735/1 733/1 734/1
f 734/1 736/1 735/1
f 737/1 735/1 736/1
f 736/1 738/1 737/1
f 739/1 737/1 738/1
f 738/1 740/1 739/1
f 741/1 739/1 740/1
f 740/1 742/1 741/1
f 743/1 741/1 742/1
f 742/1 744/1 743/1
f 745/1 743/1 744/1
f 744/1 746/1 745/1
f 747/1 745/1 746/1
f 746/1 748/1 747/1
f 749/1 747/1 748/1
f 748/1 750/1 749/1
f 750/1 673/1 671/1
f 671/1 749/1 750/1
f 749/1 671/1 669/1
f 669/1 751/1 749/1
f 747/1 749/1 751/1
f 751/1 669/1 591/1
f 591/1 752/1 751/1
f 590/1 752/1 591/1
f 752/1 590/1 593/1
f 593/1 753/1 752/1
f 753/1 593/1 595/1
f 595/1 754/1 753/1
f 754/1 595/1 597/1
f 597/1 755/1 754/1
f 755/1 597/1 599/1
f 599/1 756/1 755/1
f 756/1 599/1 601/1
f 601/1 757/1 756/1
f 757/1 601/1 603/1
f 603/1 758/1 757/1
f 758/1 603/1 605/1
f 605/1 759/1 758/1
f 759/1 605/1 607/1
f 607/1 760/1 759/1
f 760/1 607/1 609/1
f 609/1 761/1 760/1
f 761/1 609/1 611/1
f 611/1 762/1 761/1
f 762/1 611/1 613/1
f 613/1 763/1 762/1
f 763/1 613/1 615/1
f 615/1 764/1 763/1
f 764/1 615/1 617/1
f 617/1 765/1 764/1
f 765/1 617/1 618/1
f 618/1 766/1 765/1
f 766/1 618/1 620/1
f 620/1 767/1 766/1
f 767/1 620/1 622/2
f 622/2 768/2 767/1
f 768/2 622/2 624/2
f 624/2 769/2 768/2
f 769/2 624/2 626/3
f 626/3 770/3 769/2
f 770/3 626/3 628/4
f 628/4 771/4 770/3
f 771/4 628/4 630/5
f 630/5 772/5 771/4
f 772/5 630/5 632/6
f 632/6 773/6 772/5
f 773/6 632/6 634/7
f 634/7 774/7 773/6
f 774/7 634/7 636/8
f 636/8 775/8 774/7
f 775/8 636/8 639/9
f 639/9 776/9 775/8
f 776/9 639/9 641/10
f 641/10 777/10 776/9
f 777/10 641/10 643/11
f 643/11 778/11 777/10
f 778/11 643/11 645/12
f 645/12 779/12 778/11
f 779/12 645/12 647/13
f 647/13 780/13 779/12
f 780/13 647/13 649/14
f 649/14 781/14 780/13
f 781/14 649/14 650/15
f 650/15 782/30 781/14
f 782/30 650/15 653/17
f 653/17 783/17 782/30
f 783/17 653/17 655/18
f 655/18 784/18 783/17
f 784/18 655/18 657/19
f 657/19 785/19 784/18
f 785/19 657/19 659/21
f 659/21 786/21 785/19
f 786/21 659/21 661/23
f 661/23 787/22 786/21
f 787/22 661/23 663/24
f 663/24 788/24 787/22
f 788/24 663/24 665/26
f 665/26 789/26 788/24
f 789/26 665/26 667/28
f 667/28 668/28 789/26
f 789/26 668/28 670/27
f 670/27 790/26 789/26
f 788/24 789/26 790/26
f 790/26 670/27 672/27
f 672/27 675/25 790/26
f 791/24 790/26 675/25
f 790/26 791/24 788/24
f 787/22 788/24 791/24
f 675/25 677/24 791/24
f 792/22 791/24 677/24
f 791/24 792/22 787/22
f 786/21 787/22 792/22
f 677/24 680/22 792/22
f 793/20 792/22 680/22
f 792/22 793/20 786/21
f 785/19 786/21 793/20
f 680/22 682/20 793/20
f 794/19 793/20 682/20
f 793/20 794/19 785/19
f 784/18 785/19 794/19
f 682/20 684/19 794/19
f 795/18 794/19 684/19
f 794/19 795/18 784/18
f 783/17 784/18 795/18
f 684/19 686/18 795/18
f 796/16 795/18 686/18
f 795/18 796/16 783/17
f 782/30 783/17 796/16
f 686/18 688/16 796/16
f 797/30 796/16 688/16
f 796/16 797/30 782/30
f 781/14 782/30 797/30
f 688/16 690/30 797/30
f 798/14 797/30 690/30
f 797/30 798/14 781/14
f 780/13 781/14 798/14
f 690/30 692/14 798/14
f 799/13 798/14 692/14
f 798/14 799/13 780/13
f 779/12 780/13 799/13
f 692/14 694/13 799/13
f 800/12 799/13 694/13
f 799/13 800/12 779/12
f 778/11 779/12 800/12
f 694/13 696/12 800/12
f 801/11 800/12 696/12
f 800/12 801/11 778/11
f 777/10 778/11 801/11
f 696/12 697/11 801/11
f 802/10 801/11 697/11
f 801/11 802/10 777/10
f 776/9 777/10 802/10
f 697/11 699/10 802/10
f 803/9 802/10 699/10
f 802/10 803/9 776/9
f 775/8 776/9 803/9
f 699/10 701/9 803/9
f 804/8 803/9 701/9
f 803/9 804/8 775/8
f 774/7 775/8 804/8
f 701/9 703/8 804/8
f 805/7 804/8 703/8
f 804/8 805/7 774/7
f 773/6 774/7 805/7
f 703/8 705/7 805/7
f 806/6 805/7 705/7
f 805/7 806/6 773/6
f 772/5 773/6 806/6
f 705/7 707/6 806/6
f 807/5 806/6 707/6
f 806/6 807/5 772/5
f 771/4 772/5 807/5
f 707/6 709/5 807/5
f 808/4 807/5 709/5
f 807/5 808/4 771/4
f 770/3 771/4 808/4
f 709/5 711/4 808/4
f 809/3 808/4 711/4
f 808/4 809/3 770/3
f 769/2 770/3 809/3
f 711/4 713/3 809/3
f 810/2 809/3 713/3
f 809/3 810/2 769/2
f 768/2 769/2 810/2
f 713/3 715/2 810/2
f 811/2 810/2 715/2
f 810/2 811/2 768/2
f 767/1 768/2 811/2
f 715/2 717/2 811/2
f 812/1 811/2 717/2
f 811/2 812/1 767/1
f 766/1 767/1 812/1
f 717/2 719/1 812/1
f 813/1 812/1 719/1
f 812/1 813/1 766/1
f 765/1 766/1 813/1
f 719/1 721/1 813/1
f 814/1 813/1 721/1
f 813/1 814/1 765/1
f 764/1 765/1 814/1
f 721/1 723/1 814/1
f 815/1 814/1 723/1
f 814/1 815/1 764/1
f 763/1 764/1 815/1
f 723/1 725/1 815/1
f 816/1 815/1 725/1
f 815/1 816/1 763/1
f 762/1 763/1 816/1
f 725/1 727/1 816/1
f 817/1 816/1 727/1
f 816/1 817/1 762/1
f 761/1 762/1 817/1
f 727/1 729/1 817/1
f 818/1 817/1 729/1
f 817/1 818/1 761/1
f 760/1 761/1 818/1
f 729/1 731/1 818/1
f 819/1 818/1 731/1
f 818/1 819/1 760/1
f 759/1 760/1 819/1
f 731/1 733/1 819/1
f 820/1 819/1 733/1
f 819/1 820/1 759/1
f 758/1 759/1 820/1
f 733/1 735/1 820/1
f 821/1 820/1 735/1
f 820/1 821/1 758/1
f 757/1 758/1 821/1
f 735/1 737/1 821/1
f 822/1 821/1 737/1
f 821/1 822/1 757/1
f 756/1 757/1 822/1
f 737/1 739/1 822/1
f 823/1 822/1 739/1
f 822/1 823/1 756/1
f 755/1 756/1 823/1
f 739/1 741/1 823/1
f 824/1 823/1 741/1
f 823/1 824/1 755/1
f 754/1 755/1 824/1
f 741/1 743/1 824/1
f 825/1 824/1 743/1
f 824/1 825/1 754/1
f 753/1 754/1 825/1
f 743/1 745/1 825/1
f 826/1 825/1 745/1
f 825/1 826/1 753/1
f 752/1 753/1 826/1
f 826/1 751/1 752/1
f 751/1 826/1 747/1
f 745/1 747/1 826/1
usemtl Material.003_tyre.tga
f 1067/1 1068/1 1069/1
f 1070/1 1069/1 1068/1
f 1068/1 1071/1 1070/1
f 1072/1 1070/1 1071/1
f 1071/1 1073/1 1072/1
f 1074/1 1072/1 1073/1
f 1073/1 1075/1 1074/1
f 1076/1 1074/1 1075/1
f 1075/1 1077/1 1076/1
f 1078/1 1076/1 1077/1
f 1077/1 1079/1 1078/1
f 1080/1 1078/1 1079/1
f 1079/1 1081/1 1080/1
f 1082/1 1080/1 1081/1
f 1081/1 1083/1 1082/1
f 1084/1 1082/1 1083/1
f 1083/1 1085/1 1084/1
f 1086/1 1084/1 1085/1
f 1085/1 1087/1 1086/1
f 1088/1 1086/1 1087/1
f 1087/1 1089/1 1088/1
f 1090/1 1088/1 1089/1
f 1089/1 1091/1 1090/1
f 1092/1 1090/1 1091/1
f 1091/1 1093/1 1092/1
f 1094/1 1092/1 1093/1
f 1093/1 1095/1 1094/1
f 1096/1 1094/1 1095/1
f 1095/1 1097/1 1096/1
f 1098/1 1096/1 1097/1
f 1097/1 1099/1 1098/1
f 1100/1 1098/1 1099/1
f 1099/1 1101/1 1100/1
f 1102/1 1100/1 1101/1
f 1101/1 1103/1 1102/1
f 1104/1 1102/1 1103/1
f 1103/1 1105/1 1104/1
f 1106/1 1104/1 1105/1
f 1105/1 1107/1 1106/1
f 1108/1 1106/1 1107/1
f 1107/1 1109/1 1108/1
f 1110/1 1108/1 1109/1
f 1109/1 1111/1 1110/1
f 1112/1 1110/1 1111/1
f 1111/1 1113/1 1112/1
f 1114/1 1112/1 1113/1
f 1113/1 1115/1 1114/1
f 1116/1 1114/1 1115/1
f 1115/1 1117/1 1116/1
f 1118/1 1116/1 1117/1
f 1117/1 1119/2 1118/1
f 1120/2 1118/1 1119/2
f 1119/2 1121/2 1120/2
f 1122/2 1120/2 1121/2
f 1121/2 1123/3 1122/2
f 1124/31 1122/2 1123/3
f 1123/3 1125/3 1124/31
f 1126/3 1124/31 1125/3
f 1125/3 1127/4 1126/3
f 1128/3 1126/3 1127/4
f 1127/4 1129/4 1128/3
f 1130/3 1128/3 1129/4
f 1129/4 1131/4 1130/3
f 1132/31 1130/3 1131/4
f 1131/4 1133/3 1132/31
f 1134/2 1132/31 1133/3
f 1133/3 1135/3 1134/2
f 1136/2 1134/2 1135/3
f 1135/3 1137/2 1136/2
f 1138/1 1136/2 1137/2
f 1137/2 1139/2 1138/1
f 1140/1 1138/1 1139/2
f 1139/2 1141/1 1140/1
f 1142/1 1140/1 1141/1
f 1141/1 1143/1 1142/1
f 1144/1 1142/1 1143/1
f 1143/1 1145/1 1144/1
f 1146/1 1144/1 1145/1
f 1145/1 1067/1 1146/1
f 1069/1 1146/1 1067/1
f 1146/1 1069/1 1147/1
f 1148/1 1147/1 1069/1
f 1069/1 1070/1 1148/1
f 1149/1 1148/1 1070/1
f 1070/1 1072/1 1149/1
f 1150/1 1149/1 1072/1
f 1072/1 1074/1 1150/1
f 1151/1 1150/1 1074/1
f 1074/1 1076/1 1151/1
f 1152/1 1151/1 1076/1
f 1076/1 1078/1 1152/1
f 1153/1 1152/1 1078/1
f 1078/1 1080/1 1153/1
f 1154/1 1153/1 1080/1
f 1080/1 1082/1 1154/1
f 1155/1 1154/1 1082/1
f 1082/1 1084/1 1155/1
f 1156/1 1155/1 1084/1
f 1084/1 1086/1 1156/1
f 1157/1 1156/1 1086/1
f 1086/1 1088/1 1157/1
f 1158/1 1157/1 1088/1
f 1088/1 1090/1 1158/1
f 1159/1 1158/1 1090/1
f 1090/1 1092/1 1159/1
f 1160/1 1159/1 1092/1
f 1092/1 1094/1 1160/1
f 1161/1 1160/1 1094/1
f 1094/1 1096/1 1161/1
f 1162/1 1161/1 1096/1
f 1096/1 1098/1 1162/1
f 1163/1 1162/1 1098/1
f 1098/1 1100/1 1163/1
f 1164/1 1163/1 1100/1
f 1100/1 1102/1 1164/1
f 1165/1 1164/1 1102/1
f 1102/1 1104/1 1165/1
f 1166/1 1165/1 1104/1
f 1104/1 1106/1 1166/1
f 1167/1 1166/1 1106/1
f 1106/1 1108/1 1167/1
f 1168/1 1167/1 1108/1
f 1108/1 1110/1 1168/1
f 1169/1 1168/1 1110/1
f 1110/1 1112/1 1169/1
f 1170/1 1169/1 1112/1
f 1112/1 1114/1 1170/1
f 1171/1 1170/1 1114/1
f 1114/1 1116/1 1171/1
f 1172/1 1171/1 1116/1
f 1116/1 1118/1 1172/1
f 1173/32 1172/1 1118/1
f 1118/1 1120/2 1173/32
f 1174/2 1173/32 1120/2
f 1120/2 1122/2 1174/2
f 1175/2 1174/2 1122/2
f 1122/2 1124/31 1175/2
f 1176/2 1175/2 1124/31
f 1124/31 1126/3 1176/2
f 1177/2 1176/2 1126/3
f 1126/3 1128/3 1177/2
f 1178/2 1177/2 1128/3
f 1128/3 1130/3 1178/2
f 1179/2 1178/2 1130/3
f 1130/3 1132/31 1179/2
f 1180/2 1179/2 1132/31
f 1132/31 1134/2 1180/2
f 1181/32 1180/2 1134/2
f 1134/2 1136/2 1181/32
f 1182/1 1181/32 1136/2
f 1136/2 1138/1 1182/1
f 1183/1 1182/1 1138/1
f 1138/1 1140/1 1183/1
f 1184/1 1183/1 1140/1
f 1140/1 1142/1 1184/1
f 1185/1 1184/1 1142/1
f 1142/1 1144/1 1185/1
f 1186/1 1185/1 1144/1
f 1144/1 1146/1 1186/1
f 1147/1 1186/1 1146/1
f 1186/1 1147/1 1187/1
f 1188/1 1187/1 1147/1
f 1147/1 1148/1 1188/1
f 1189/1 1188/1 1148/1
f 1148/1 1149/1 1189/1
f 1190/1 1189/1 1149/1
f 1149/1 1150/1 1190/1
f 1191/1 1190/1 1150/1
f 1150/1 1151/1 1191/1
f 1192/1 1191/1 1151/1
f 1151/1 1152/1 1192/1
f 1193/1 1192/1 1152/1
f 1152/1 1153/1 1193/1
f 1194/1 1193/1 1153/1
f 1153/1 1154/1 1194/1
f 1195/1 1194/1 1154/1
f 1154/1 1155/1 1195/1
f 1196/1 1195/1 1155/1
f 1155/1 1156/1 1196/1
f 1197/1 1196/1 1156/1
f 1156/1 1157/1 1197/1
f 1198/1 1197/1 1157/1
f 1157/1 1158/1 1198/1
f 1199/1 1198/1 1158/1
f 1158/1 1159/1 1199/1
f 1200/1 1199/1 1159/1
f 1159/1 1160/1 1200/1
f 1201/1 1200/1 1160/1
f 1160/1 1161/1 1201/1
f 1202/1 1201/1 1161/1
f 1161/1 1162/1 1202/1
f 1203/1 1202/1 1162/1
f 1162/1 1163/1 1203/1
f 1204/1 1203/1 1163/1
f 1163/1 1164/1 1204/1
f 1205/1 1204/1 1164/1
f 1164/1 1165/1 1205/1
f 1206/1 1205/1 1165/1
f 1165/1 1166/1 1206/1
f 1207/1 1206/1 1166/1
f 1166/1 1167/1 1207/1
f 1208/1 1207/1 1167/1
f 1167/1 1168/1 1208/1
f 1209/1 1208/1 1168/1
f 1168/1 1169/1 1209/1
f 1210/1 1209/1 1169/1
f 1169/1 1170/1 1210/1
f 1211/1 1210/1 1170/1
f 1170/1 1171/1 1211/1
f 1212/1 1211/1 1171/1
f 1171/1 1172/1 1212/1
f 1213/1 1212/1 1172/1
f 1172/1 1173/32 1213/1
f 1214/1 1213/1 1173/32
f 1173/32 1174/2 1214/1
f 1215/32 1214/1 1174/2
f 1174/2 1175/2 1215/32
f 1216/2 1215/32 1175/2
f 1175/2 1176/2 1216/2
f 1217/2 1216/2 1176/2
f 1176/2 1177/2 1217/2
f 1218/2 1217/2 1177/2
f 1177/2 1178/2 1218/2
f 1219/32 1218/2 1178/2
f 1178/2 1179/2 1219/32
f 1220/1 1219/32 1179/2
f 1179/2 1180/2 1220/1
f 1221/1 1220/1 1180/2
f 1180/2 1181/32 1221/1
f 1222/1 1221/1 1181/32
f 1181/32 1182/1 1222/1
f 1223/1 1222/1 1182/1
f 1182/1 1183/1 1223/1
f 1224/1 1223/1 1183/1
f 1183/1 1184/1 1224/1
f 1225/1 1224/1 1184/1
f 1184/1 1185/1 1225/1
f 1226/1 1225/1 1185/1
f 1185/1 1186/1 1226/1
f 1187/1 1226/1 1186/1
f 1226/1 1187/1 1227/1
f 1228/1 1227/1 1187/1
f 1187/1 1188/1 1228/1
f 1229/1 1228/1 1188/1
f 1188/1 1189/1 1229/1
f 1230/1 1229/1 1189/1
f 1189/1 1190/1 1230/1
f 1231/1 1230/1 1190/1
f 1190/1 1191/1 1231/1
f 1232/1 1231/1 1191/1
f 1191/1 1192/1 1232/1
f 1233/1 1232/1 1192/1
f 1192/1 1193/1 1233/1
f 1234/1 1233/1 1193/1
f 1193/1 1194/1 1234/1
f 1235/1 1234/1 1194/1
f 1194/1 1195/1 1235/1
f 1236/1 1235/1 1195/1
f 1195/1 1196/1 1236/1
f 1237/1 1236/1 1196/1
f 1196/1 1197/1 1237/1
f 1238/1 1237/1 1197/1
f 1197/1 1198/1 1238/1
f 1239/1 1238/1 1198/1
f 1198/1 1199/1 1239/1
f 1240/1 1239/1 1199/1
f 1199/1 1200/1 1240/1
f 1241/1 1240/1 1200/1
f 1200/1 1201/1 1241/1
f 1242/1 1241/1 1201/1
f 1201/1 1202/1 1242/1
f 1243/1 1242/1 1202/1
f 1202/1 1203/1 1243/1
f 1244/1 1243/1 1203/1
f 1203/1 1204/1 1244/1
f 1245/1 1244/1 1204/1
f 1204/1 1205/1 1245/1
f 1246/1 1245/1 1205/1
f 1205/1 1206/1 1246/1
f 1247/1 1246/1 1206/1
f 1206/1 1207/1 1247/1
f 1248/1 1247/1 1207/1
f 1207/1 1208/1 1248/1
f 1249/1 1248/1 1208/1
f 1208/1 1209/1 1249/1
f 1250/1 1249/1 1209/1
f 1209/1 1210/1 1250/1
f 1251/1 1250/1 1210/1
f 1210/1 1211/1 1251/1
f 1252/1 1251/1 1211/1
f 1211/1 1212/1 1252/1
f 1253/1 1252/1 1212/1
f 1212/1 1213/1 1253/1
f 1254/1 1253/1 1213/1
f 1213/1 1214/1 1254/1
f 1255/1 1254/1 1214/1
f 1214/1 1215/32 1255/1
f 1256/1 1255/1 1215/32
f 1215/32 1216/2 1256/1
f 1257/1 1256/1 1216/2
f 1216/2 1217/2 1257/1
f 1258/1 1257/1 1217/2
f 1217/2 1218/2 1258/1
f 1259/1 1258/1 1218/2
f 1218/2 1219/32 1259/1
f 1260/1 1259/1 1219/32
f 1219/32 1220/1 1260/1
f 1261/1 1260/1 1220/1
f 1220/1 1221/1 1261/1
f 1262/1 1261/1 1221/1
f 1221/1 1222/1 1262/1
f 1263/1 1262/1 1222/1
f 1222/1 1223/1 1263/1
f 1264/1 1263/1 1223/1
f 1223/1 1224/1 1264/1
f 1265/1 1264/1 1224/1
f 1224/1 1225/1 1265/1
f 1266/1 1265/1 1225/1
f 1225/1 1226/1 1266/1
f 1227/1 1266/1 1226/1
usemtl Material.001
f 1/33 2/34 3/34
f 4/33 1/33 3/34
f 2/34 5/35 6/35
f 6/35 3/34 2/34
f 7/36 1/33 4/33
f 4/33 8/36 7/36
f 9/37 7/36 8/36
f 8/36 10/37 9/37
f 11/38 9/37 10/37
f 10/37 12/38 11/38
f 13/33 14/34 15/34
f 15/34 16/33 13/33
f 14/34 17/35 18/35
f 18/35 15/34 14/34
f 19/36 13/33 16/33
f 16/33 20/36 19/36
f 21/37 19/36 20/36
f 20/36 22/37 21/37
f 23/38 21/37 22/37
f 22/37 24/38 23/38
f 25/33 26/34 27/34
f 27/34 28/33 25/33
f 26/34 29/35 30/35
f 30/35 27/34 26/34
f 31/36 25/33 28/33
f 28/33 32/36 31/36
f 33/37 31/36 32/36
f 32/36 34/37 33/37
f 35/38 33/37 34/37
f 34/37 36/38 35/38
f 37/33 38/34 39/34
f 39/34 40/33 37/33
f 38/34 41/35 42/35
f 42/35 39/34 38/34
f 43/36 37/33 40/33
f 40/33 44/36 43/36
f 45/37 43/36 44/36
f 44/36 46/37 45/37
f 47/38 45/37 46/37
f 46/37 48/38 47/38
f 49/33 50/34 51/34
f 51/34 52/33 49/33
f 50/34 53/35 54/35
f 54/35 51/34 50/34
f 55/36 49/33 52/33
f 52/33 56/36 55/36
f 57/37 55/36 56/36
f 56/36 58/37 57/37
f 59/38 57/37 58/37
f 58/37 60/38 59/38
f 61/33 62/34 63/34
f 63/34 64/33 61/33
f 62/34 65/35 66/35
f 66/35 63/34 62/34
f 67/36 61/33 64/33
f 64/33 68/36 67/36
f 69/37 67/36 68/36
f 68/36 70/37 69/37
f 71/38 69/37 70/37
f 70/37 72/38 71/38
f 73/33 74/34 75/34
f 75/34 76/33 73/33
f 74/34 77/35 78/35
f 78/35 75/34 74/34
f 79/36 73/33 76/33
f 76/33 80/36 79/36
f 81/37 79/36 80/36
f 80/36 82/37 81/37
f 83/38 81/37 82/37
f 82/37 84/38 83/38
f 85/39 86/40 87/40
f 87/40 88/39 85/39
f 89/41 85/39 88/39
f 88/39 90/41 89/41
f 91/42 89/41 90/41
f 90/41 92/42 91/42
f 93/43 91/42 92/42
f 92/42 94/43 93/43
f 95/44 93/43 94/43
f 94/43 96/44 95/44
f 97/45 95/44 96/44
f 96/44 98/45 97/45
f 99/46 97/45 98/45
f 98/45 100/46 99/46
f 101/47 99/46 100/46
f 100/46 102/47 101/47
f 103/48 101/47 102/47
f 102/47 104/48 103/48
f 105/49 103/48 104/48
f 104/48 106/49 105/49
f 107/50 105/49 106/49
f 106/49 108/50 107/50
f 109/51 107/50 108/50
f 108/50 110/51 109/51
f 111/52 109/51 110/51
f 110/51 112/52 111/52
f 113/53 111/52 112/52
f 112/52 114/53 113/53
f 115/54 113/53 114/53
f 114/53 116/54 115/54
f 117/55 115/54 116/54
f 116/54 118/55 117/55
f 119/56 117/55 118/55
f 118/55 120/56 119/56
f 121/57 119/56 120/56
f 120/56 122/57 121/57
f 123/58 121/57 122/57
f 122/57 124/58 123/58
f 125/59 123/58 124/58
f 124/58 126/59 125/59
f 127/58 87/60 86/60
f 86/60 128/58 127/58
f 129/57 127/58 128/58
f 128/58 130/57 129/57
f 131/61 129/57 130/57
f 130/57 132/61 131/61
f 133/55 131/61 132/61
f 132/61 134/55 133/55
f 135/62 133/55 134/55
f 134/55 136/62 135/62
f 137/53 135/62 136/62
f 136/62 138/53 137/53
f 139/63 137/53 138/53
f 138/53 140/63 139/63
f 141/64 139/63 140/63
f 140/63 142/64 141/64
f 143/65 141/64 142/64
f 142/64 144/65 143/65
f 145/66 143/65 144/65
f 144/65 146/66 145/66
f 147/48 145/66 146/66
f 146/66 148/48 147/48
f 149/67 147/48 148/48
f 148/48 150/67 149/67
f 151/46 149/67 150/67
f 150/67 152/46 151/46
f 153/68 151/46 152/46
f 152/46 154/68 153/68
f 155/69 153/68 154/68
f 154/68 156/69 155/69
f 157/70 155/69 156/69
f 156/69 158/70 157/70
f 159/71 157/70 158/70
f 158/70 160/71 159/71
f 161/72 159/71 160/71
f 160/71 162/72 161/72
f 163/73 161/72 162/72
f 162/72 164/73 163/73
f 126/40 163/73 164/73
f 164/73 125/40 126/40
f 165/73 166/74 167/74
f 167/74 168/73 165/73
f 169/72 165/73 168/73
f 168/73 170/72 169/72
f 171/75 169/72 170/72
f 170/72 172/75 171/75
f 173/70 171/75 172/75
f 172/75 174/70 173/70
f 175/76 173/70 174/70
f 174/70 176/76 175/76
f 177/77 175/76 176/76
f 176/76 178/77 177/77
f 179/78 177/77 178/77
f 178/77 180/78 179/78
f 181/79 179/78 180/78
f 180/78 182/79 181/79
f 183/80 181/79 182/79
f 182/79 184/80 183/80
f 185/81 183/80 184/80
f 184/80 186/81 185/81
f 185/81 186/81 187/82
f 187/82 188/82 185/81
f 189/83 188/82 187/82
f 187/82 190/83 189/83
f 191/84 189/83 190/83
f 190/83 192/84 191/84
f 193/85 191/84 192/84
f 192/84 194/85 193/85
f 195/86 193/85 194/85
f 194/85 196/86 195/86
f 197/87 195/86 196/86
f 196/86 198/87 197/87
f 199/61 197/87 198/87
f 198/87 200/61 199/61
f 201/88 199/61 200/61
f 200/61 202/88 201/88
f 203/89 201/88 202/88
f 202/88 204/89 203/89
f 205/60 203/89 204/89
f 204/89 206/60 205/60
f 207/89 167/60 166/60
f 166/60 208/89 207/89
f 209/88 207/89 208/89
f 208/89 210/88 209/88
f 211/61 209/88 210/88
f 210/88 212/61 211/61
f 213/87 211/61 212/61
f 212/61 214/87 213/87
f 215/86 213/87 214/87
f 214/87 216/86 215/86
f 217/90 215/86 216/86
f 216/86 218/90 217/90
f 219/84 217/90 218/90
f 218/90 220/84 219/84
f 221/83 219/84 220/84
f 220/84 222/83 221/83
f 223/65 221/83 222/83
f 222/83 224/65 223/65
f 225/81 223/65 224/65
f 224/65 226/81 225/81
f 227/80 225/81 226/81
f 226/81 228/80 227/80
f 229/67 227/80 228/80
f 228/80 230/67 229/67
f 231/78 229/67 230/67
f 230/67 232/78 231/78
f 233/68 231/78 232/78
f 232/78 234/68 233/68
f 235/76 233/68 234/68
f 234/68 236/76 235/76
f 237/70 235/76 236/76
f 236/76 238/70 237/70
f 239/71 237/70 238/70
f 238/70 240/71 239/71
f 241/72 239/71 240/71
f 240/71 242/72 241/72
f 243/73 241/72 242/72
f 242/72 244/73 243/73
f 206/40 243/73 244/73
f 244/73 205/40 206/40
f 263/1 264/1 5/1
f 5/1 2/1 263/1
f 265/1 263/1 2/1
f 2/1 1/1 265/1
f 1/1 266/2 265/1
f 266/2 1/1 267/1
f 1/1 7/1 267/1
f 267/1 7/1 268/1
f 268/1 7/1 9/1
f 9/1 269/1 268/1
f 269/1 9/1 11/1
f 11/1 270/1 269/1
f 267/1 271/2 266/2
f 266/2 271/2 272/2
f 267/1 273/1 271/2
f 273/1 274/32 271/2
f 275/1 274/32 273/1
f 276/32 274/32 275/1
f 277/1 276/32 275/1
f 271/2 278/2 272/2
f 272/2 278/2 279/3
f 279/3 278/2 280/4
f 281/3 279/3 280/4
f 281/3 280/4 282/5
f 282/5 280/4 283/5
f 280/4 284/91 283/5
f 285/6 283/5 284/91
f 285/6 284/91 286/6
f 287/7 285/6 286/6
f 287/7 286/6 288/92
f 288/92 286/6 289/92
f 286/6 290/93 289/92
f 291/92 289/92 290/93
f 291/92 290/93 292/93
f 293/8 291/92 292/93
f 293/8 292/93 294/8
f 294/8 292/93 295/93
f 292/93 296/6 295/93
f 297/6 295/93 296/6
f 297/6 296/6 298/91
f 299/6 297/6 298/91
f 299/6 298/91 300/5
f 300/5 298/91 301/5
f 298/91 302/4 301/5
f 301/5 302/4 303/3
f 303/3 302/4 304/2
f 305/3 303/3 304/2
f 305/3 304/2 306/2
f 306/2 304/2 307/2
f 304/2 308/2 307/2
f 307/2 308/2 309/32
f 309/32 308/2 276/32
f 310/1 309/32 276/32
f 310/1 276/32 277/1
f 310/1 277/1 73/1
f 73/1 277/1 311/1
f 74/1 73/1 311/1
f 311/1 312/1 74/1
f 77/1 74/1 312/1
f 312/1 313/1 77/1
f 73/1 79/1 310/1
f 310/1 79/1 314/1
f 314/1 79/1 81/1
f 81/1 315/1 314/1
f 315/1 81/1 83/1
f 83/1 316/1 315/1
f 67/2 305/3 306/2
f 305/3 67/2 317/2
f 317/2 67/2 69/2
f 69/2 318/2 317/2
f 318/2 69/2 71/2
f 71/2 319/2 318/2
f 306/2 61/2 67/2
f 61/2 306/2 320/2
f 62/1 61/2 320/2
f 320/2 321/1 62/1
f 65/1 62/1 321/1
f 321/1 322/1 65/1
f 323/94 324/95 264/95
f 264/95 263/94 323/94
f 325/19 323/94 263/94
f 263/94 265/18 325/19
f 265/18 266/19 325/19
f 326/96 325/19 266/19
f 266/19 272/96 326/96
f 326/96 272/96 279/51
f 279/51 327/51 326/96
f 328/97 327/51 279/51
f 279/51 281/98 328/97
f 281/98 329/99 328/97
f 330/100 328/97 329/99
f 329/99 331/100 330/100
f 332/101 330/100 331/100
f 331/100 333/101 332/101
f 269/100 270/101 334/101
f 334/101 335/100 269/100
f 268/99 269/100 335/100
f 335/100 336/97 268/99
f 267/98 268/99 336/97
f 273/51 267/98 336/97
f 336/97 337/51 273/51
f 273/51 337/51 338/96
f 338/96 275/96 273/51
f 277/19 275/96 338/96
f 338/96 339/19 277/19
f 311/18 277/19 339/19
f 312/94 311/18 339/19
f 339/19 340/94 312/94
f 313/95 312/94 340/94
f 340/94 341/95 313/95
f 342/6 343/7 17/91
f 17/91 14/91 342/6
f 344/5 342/6 14/91
f 14/91 13/4 344/5
f 13/4 282/5 344/5
f 19/4 282/5 13/4
f 281/3 282/5 19/4
f 281/3 19/4 329/3
f 329/3 19/4 21/2
f 21/2 331/2 329/3
f 331/2 21/2 23/2
f 23/2 333/2 331/2
f 345/94 346/95 343/95
f 343/95 342/94 345/94
f 347/19 345/94 342/94
f 342/94 344/18 347/19
f 344/18 282/19 347/19
f 348/96 347/19 282/19
f 282/19 283/96 348/96
f 349/51 348/96 283/96
f 283/96 285/51 349/51
f 350/97 349/51 285/51
f 285/51 287/98 350/97
f 287/98 351/99 350/97
f 352/100 350/97 351/99
f 351/99 353/100 352/100
f 354/101 352/100 353/100
f 353/100 355/101 354/101
f 356/102 357/103 29/12
f 29/12 26/104 356/102
f 358/105 356/102 26/104
f 26/104 25/105 358/105
f 25/105 288/92 358/105
f 287/7 288/92 25/105
f 25/105 31/8 287/7
f 287/7 31/8 351/92
f 351/92 31/8 33/106
f 33/106 353/107 351/92
f 353/107 33/106 35/108
f 35/108 355/109 353/107
f 359/94 360/95 357/95
f 357/95 356/94 359/94
f 361/19 359/94 356/94
f 356/94 358/18 361/19
f 358/18 288/19 361/19
f 362/96 361/19 288/19
f 288/19 289/96 362/96
f 363/51 362/96 289/96
f 289/96 291/51 363/51
f 364/97 363/51 291/51
f 291/51 293/98 364/97
f 293/98 365/98 364/97
f 366/100 364/97 365/98
f 365/98 367/100 366/100
f 368/101 366/100 367/100
f 367/100 369/101 368/101
f 370/104 371/12 41/103
f 41/103 38/12 370/104
f 372/9 370/104 38/12
f 38/12 37/107 372/9
f 37/107 294/8 372/9
f 293/8 294/8 37/107
f 37/107 43/107 293/8
f 293/8 43/107 365/107
f 365/107 43/107 45/110
f 45/110 367/110 365/107
f 367/110 45/110 47/111
f 47/111 369/111 367/110
f 373/94 374/95 371/95
f 371/95 370/94 373/94
f 375/19 373/94 370/94
f 370/94 372/18 375/19
f 372/18 294/19 375/19
f 376/96 375/19 294/19
f 294/19 295/96 376/96
f 377/51 376/96 295/96
f 295/96 297/51 377/51
f 378/97 377/51 297/51
f 297/51 299/98 378/97
f 299/98 379/99 378/97
f 380/100 378/97 379/99
f 379/99 381/100 380/100
f 382/101 380/100 381/100
f 381/100 383/101 382/101
f 384/91 385/91 53/7
f 53/7 50/6 384/91
f 386/91 384/91 50/6
f 50/6 49/6 386/91
f 49/6 300/5 386/91
f 300/5 49/6 55/6
f 55/6 299/6 300/5
f 299/6 55/6 379/7
f 379/7 55/6 57/109
f 57/109 381/106 379/7
f 381/106 57/109 59/109
f 59/109 383/108 381/106
f 387/94 388/95 385/95
f 385/95 384/94 387/94
f 389/19 387/94 384/94
f 384/94 386/18 389/19
f 386/18 300/19 389/19
f 390/96 389/19 300/19
f 300/19 301/96 390/96
f 390/96 301/96 303/51
f 303/51 391/51 390/96
f 392/97 391/51 303/51
f 303/51 305/98 392/97
f 305/98 317/99 392/97
f 393/100 392/97 317/99
f 317/99 318/100 393/100
f 394/101 393/100 318/100
f 318/100 319/101 394/101
f 395/94 396/95 322/95
f 322/95 321/94 395/94
f 397/19 395/94 321/94
f 321/94 320/18 397/19
f 320/18 306/19 397/19
f 398/96 397/19 306/19
f 306/19 307/96 398/96
f 398/96 307/96 309/51
f 309/51 399/51 398/96
f 400/97 399/51 309/51
f 309/51 310/98 400/97
f 310/98 314/99 400/97
f 401/100 400/97 314/99
f 314/99 315/100 401/100
f 402/101 401/100 315/100
f 315/100 316/101 402/101
f 278/2 271/2 415/4
f 271/2 274/32 415/4
f 274/32 276/32 415/4
f 276/32 308/2 415/4
f 308/2 304/2 415/4
f 304/2 302/4 415/4
f 302/4 298/91 415/4
f 298/91 296/6 415/4
f 296/6 292/93 415/4
f 292/93 290/93 415/4
f 290/93 286/6 415/4
f 286/6 284/91 415/4
f 284/91 280/4 415/4
f 280/4 278/2 415/4
f 186/2 416/2 417/4
f 418/1 416/2 186/2
f 186/2 184/1 418/1
f 419/1 418/1 184/1
f 184/1 182/1 419/1
f 420/1 419/1 182/1
f 182/1 180/1 420/1
f 421/1 420/1 180/1
f 180/1 178/1 421/1
f 422/1 421/1 178/1
f 178/1 176/1 422/1
f 423/1 422/1 176/1
f 176/1 174/1 423/1
f 424/1 423/1 174/1
f 174/1 172/1 424/1
f 425/1 424/1 172/1
f 172/1 170/1 425/1
f 426/1 425/1 170/1
f 170/1 168/1 426/1
f 427/1 426/1 168/1
f 168/1 167/1 427/1
f 428/1 427/1 167/1
f 167/1 207/1 428/1
f 429/1 428/1 207/1
f 207/1 209/1 429/1
f 430/1 429/1 209/1
f 209/1 211/1 430/1
f 431/1 430/1 211/1
f 211/1 213/1 431/1
f 432/1 431/1 213/1
f 213/1 215/1 432/1
f 433/1 432/1 215/1
f 215/1 217/1 433/1
f 434/1 433/1 217/1
f 217/1 219/1 434/1
f 435/2 434/1 219/1
f 219/1 221/2 435/2
f 436/4 435/2 221/2
f 221/2 223/4 436/4
f 437/6 436/4 223/4
f 223/4 225/6 437/6
f 438/105 437/6 225/6
f 225/6 227/8 438/105
f 439/112 438/105 227/8
f 227/8 229/10 439/112
f 440/113 439/112 229/10
f 229/10 231/102 440/113
f 441/114 440/113 231/102
f 231/102 233/115 441/114
f 442/116 441/114 233/115
f 233/115 235/117 442/116
f 443/118 442/116 235/117
f 235/117 237/59 443/118
f 444/119 443/118 237/59
f 237/59 239/57 444/119
f 445/120 444/119 239/57
f 239/57 241/121 445/120
f 446/122 445/120 241/121
f 241/121 243/123 446/122
f 447/120 446/122 243/123
f 243/123 206/121 447/120
f 448/119 447/120 206/121
f 206/121 204/57 448/119
f 449/118 448/119 204/57
f 204/57 202/59 449/118
f 450/116 449/118 202/59
f 202/59 200/117 450/116
f 451/114 450/116 200/117
f 200/117 198/115 451/114
f 452/113 451/114 198/115
f 198/115 196/102 452/113
f 453/112 452/113 196/102
f 196/102 194/10 453/112
f 454/105 453/112 194/10
f 194/10 192/8 454/105
f 455/6 454/105 192/8
f 192/8 190/6 455/6
f 455/6 190/6 187/4
f 187/4 417/4 455/6
f 417/4 187/4 186/2
f 417/4 416/2 456/2
f 456/2 416/2 418/1
f 418/1 457/1 456/2
f 457/1 418/1 419/1
f 419/1 458/1 457/1
f 458/1 419/1 420/1
f 420/1 459/1 458/1
f 459/1 420/1 421/1
f 421/1 460/1 459/1
f 460/1 421/1 422/1
f 422/1 461/1 460/1
f 461/1 422/1 423/1
f 423/1 462/1 461/1
f 462/1 423/1 424/1
f 424/1 463/1 462/1
f 463/1 424/1 425/1
f 425/1 464/1 463/1
f 464/1 425/1 426/1
f 426/1 465/1 464/1
f 465/1 426/1 427/1
f 427/1 466/1 465/1
f 466/1 427/1 428/1
f 428/1 467/1 466/1
f 467/1 428/1 429/1
f 429/1 468/1 467/1
f 468/1 429/1 430/1
f 430/1 469/1 468/1
f 469/1 430/1 431/1
f 431/1 470/1 469/1
f 470/1 431/1 432/1
f 432/1 471/1 470/1
f 471/1 432/1 433/1
f 433/1 472/1 471/1
f 472/1 433/1 434/1
f 434/1 473/1 472/1
f 473/1 434/1 435/2
f 435/2 474/2 473/1
f 474/2 435/2 436/4
f 436/4 475/4 474/2
f 475/4 436/4 437/6
f 437/6 476/6 475/4
f 476/6 437/6 438/105
f 438/105 477/105 476/6
f 477/105 438/105 439/112
f 439/112 478/112 477/105
f 478/112 439/112 440/113
f 440/113 479/113 478/112
f 479/113 440/113 441/114
f 441/114 480/124 479/113
f 480/124 441/114 442/116
f 442/116 481/125 480/124
f 481/125 442/116 443/118
f 443/118 482/126 481/125
f 482/126 443/118 444/119
f 444/119 483/127 482/126
f 483/127 444/119 445/120
f 445/120 484/21 483/127
f 484/21 445/120 446/122
f 446/122 485/128 484/21
f 485/128 446/122 447/120
f 447/120 486/21 485/128
f 486/21 447/120 448/119
f 448/119 487/127 486/21
f 487/127 448/119 449/118
f 449/118 488/126 487/127
f 488/126 449/118 450/116
f 450/116 489/125 488/126
f 489/125 450/116 451/114
f 451/114 490/124 489/125
f 490/124 451/114 452/113
f 452/113 491/113 490/124
f 491/113 452/113 453/112
f 453/112 492/112 491/113
f 492/112 453/112 454/105
f 454/105 493/105 492/112
f 493/105 454/105 455/6
f 455/6 494/6 493/105
f 495/4 494/6 455/6
f 455/6 417/4 495/4
f 456/2 495/4 417/4
f 108/7 106/4 188/4
f 188/4 106/4 104/2
f 104/2 185/2 188/4
f 183/1 185/2 104/2
f 104/2 102/1 183/1
f 181/1 183/1 102/1
f 102/1 100/1 181/1
f 179/1 181/1 100/1
f 100/1 98/1 179/1
f 179/1 98/1 96/1
f 96/1 177/1 179/1
f 175/1 177/1 96/1
f 96/1 94/1 175/1
f 173/1 175/1 94/1
f 94/1 92/1 173/1
f 171/1 173/1 92/1
f 92/1 90/1 171/1
f 169/1 171/1 90/1
f 90/1 88/1 169/1
f 165/1 169/1 88/1
f 88/1 87/1 165/1
f 166/1 165/1 87/1
f 87/1 127/1 166/1
f 208/1 166/1 127/1
f 127/1 129/1 208/1
f 210/1 208/1 129/1
f 129/1 131/1 210/1
f 210/1 131/1 133/1
f 133/1 212/1 210/1
f 214/1 212/1 133/1
f 133/1 135/1 214/1
f 216/1 214/1 135/1
f 135/1 137/1 216/1
f 218/1 216/1 137/1
f 137/1 139/1 218/1
f 220/1 218/1 139/1
f 139/1 141/1 220/1
f 222/2 220/1 141/1
f 141/1 143/2 222/2
f 224/4 222/2 143/2
f 143/2 145/4 224/4
f 224/4 145/4 147/7
f 147/7 226/6 224/4
f 228/9 226/6 147/7
f 147/7 149/10 228/9
f 230/11 228/9 149/10
f 149/10 151/113 230/11
f 232/129 230/11 151/113
f 151/113 153/130 232/129
f 234/131 232/129 153/130
f 153/130 155/132 234/131
f 234/131 155/132 157/133
f 157/133 236/134 234/131
f 238/19 236/134 157/133
f 157/133 159/135 238/19
f 240/84 238/19 159/135
f 159/135 161/136 240/84
f 242/137 240/84 161/136
f 161/136 163/41 242/137
f 242/137 163/41 126/138
f 126/138 244/50 242/137
f 205/137 244/50 126/138
f 126/138 124/41 205/137
f 203/84 205/137 124/41
f 124/41 122/136 203/84
f 201/19 203/84 122/136
f 122/136 120/135 201/19
f 199/134 201/19 120/135
f 120/135 118/133 199/134
f 197/131 199/134 118/133
f 118/133 116/132 197/131
f 195/129 197/131 116/132
f 116/132 114/130 195/129
f 193/11 195/129 114/130
f 114/130 112/113 193/11
f 193/11 112/113 110/10
f 110/10 191/9 193/11
f 189/6 191/9 110/10
f 110/10 108/7 189/6
f 188/4 189/6 108/7
f 507/4 508/2 509/2
f 510/1 509/2 508/2
f 508/2 511/1 510/1
f 512/1 510/1 511/1
f 511/1 513/1 512/1
f 514/1 512/1 513/1
f 513/1 515/1 514/1
f 516/1 514/1 515/1
f 515/1 517/1 516/1
f 518/1 516/1 517/1
f 517/1 519/1 518/1
f 520/1 518/1 519/1
f 519/1 521/1 520/1
f 522/1 520/1 521/1
f 521/1 523/1 522/1
f 524/1 522/1 523/1
f 523/1 525/1 524/1
f 526/1 524/1 525/1
f 525/1 527/1 526/1
f 528/1 526/1 527/1
f 527/1 529/1 528/1
f 530/1 528/1 529/1
f 529/1 531/1 530/1
f 532/1 530/1 531/1
f 531/1 533/1 532/1
f 534/1 532/1 533/1
f 533/1 535/1 534/1
f 536/1 534/1 535/1
f 535/1 537/1 536/1
f 538/1 536/1 537/1
f 537/1 539/1 538/1
f 540/1 538/1 539/1
f 539/1 541/1 540/1
f 542/1 540/1 541/1
f 541/1 543/1 542/1
f 544/2 542/1 543/1
f 543/1 545/2 544/2
f 546/4 544/2 545/2
f 545/2 547/4 546/4
f 548/6 546/4 547/4
f 547/4 549/6 548/6
f 550/8 548/6 549/6
f 549/6 551/105 550/8
f 552/108 550/8 551/105
f 551/105 553/139 552/108
f 554/140 552/108 553/139
f 553/139 555/110 554/140
f 556/141 554/140 555/110
f 555/110 557/142 556/141
f 558/143 556/141 557/142
f 557/142 559/60 558/143
f 560/116 558/143 559/60
f 559/60 561/35 560/116
f 562/18 560/116 561/35
f 561/35 563/144 562/18
f 564/145 562/18 563/144
f 563/144 565/146 564/145
f 566/147 564/145 565/146
f 565/146 567/21 566/147
f 568/145 566/147 567/21
f 567/21 569/146 568/145
f 570/18 568/145 569/146
f 569/146 571/144 570/18
f 572/116 570/18 571/144
f 571/144 573/35 572/116
f 574/143 572/116 573/35
f 573/35 575/60 574/143
f 576/141 574/143 575/60
f 575/60 577/148 576/141
f 578/140 576/141 577/148
f 577/148 579/110 578/140
f 580/108 578/140 579/110
f 579/110 581/139 580/108
f 582/8 580/108 581/139
f 581/139 583/105 582/8
f 584/6 582/8 583/105
f 583/105 585/6 584/6
f 586/4 584/6 585/6
f 585/6 507/4 586/4
f 509/2 586/4 507/4
f 586/4 509/2 103/2
f 101/1 103/2 509/2
f 509/2 510/1 101/1
f 99/1 101/1 510/1
f 510/1 512/1 99/1
f 97/1 99/1 512/1
f 512/1 514/1 97/1
f 95/1 97/1 514/1
f 514/1 516/1 95/1
f 93/1 95/1 516/1
f 516/1 518/1 93/1
f 91/1 93/1 518/1
f 518/1 520/1 91/1
f 89/1 91/1 520/1
f 520/1 522/1 89/1
f 85/1 89/1 522/1
f 522/1 524/1 85/1
f 86/1 85/1 524/1
f 524/1 526/1 86/1
f 128/1 86/1 526/1
f 526/1 528/1 128/1
f 130/1 128/1 528/1
f 528/1 530/1 130/1
f 132/1 130/1 530/1
f 530/1 532/1 132/1
f 134/1 132/1 532/1
f 532/1 534/1 134/1
f 136/1 134/1 534/1
f 534/1 536/1 136/1
f 138/1 136/1 536/1
f 536/1 538/1 138/1
f 140/1 138/1 538/1
f 538/1 540/1 140/1
f 142/1 140/1 540/1
f 540/1 542/1 142/1
f 144/2 142/1 542/1
f 542/1 544/2 144/2
f 146/4 144/2 544/2
f 544/2 546/4 146/4
f 148/6 146/4 546/4
f 546/4 548/6 148/6
f 150/8 148/6 548/6
f 548/6 550/8 150/8
f 152/10 150/8 550/8
f 550/8 552/108 152/10
f 154/104 152/10 552/108
f 552/108 554/140 154/104
f 156/149 154/104 554/140
f 554/140 556/141 156/149
f 158/150 156/149 556/141
f 556/141 558/143 158/150
f 160/151 158/150 558/143
f 558/143 560/116 160/151
f 162/152 160/151 560/116
f 560/116 562/18 162/152
f 164/153 162/152 562/18
f 562/18 564/145 164/153
f 125/61 164/153 564/145
f 564/145 566/147 125/61
f 123/153 125/61 566/147
f 566/147 568/145 123/153
f 121/152 123/153 568/145
f 568/145 570/18 121/152
f 119/151 121/152 570/18
f 570/18 572/116 119/151
f 117/150 119/151 572/116
f 572/116 574/143 117/150
f 115/149 117/150 574/143
f 574/143 576/141 115/149
f 113/104 115/149 576/141
f 576/141 578/140 113/104
f 111/10 113/104 578/140
f 578/140 580/108 111/10
f 109/8 111/10 580/108
f 580/108 582/8 109/8
f 107/6 109/8 582/8
f 582/8 584/6 107/6
f 105/4 107/6 584/6
f 584/6 586/4 105/4
f 103/2 105/4 586/4
usemtl Material.002
f 245/1 246/1 247/1
f 247/1 248/1 245/1
f 248/1 247/1 249/1
f 249/1 250/1 248/1
f 251/1 248/1 250/1
f 245/1 248/1 251/1
f 251/1 252/1 245/1
f 250/1 253/1 251/1
f 254/1 251/1 253/1
f 252/1 251/1 254/1
f 254/1 255/1 252/1
f 253/1 256/1 254/1
f 257/1 254/1 256/1
f 255/1 254/1 257/1
f 257/1 258/1 255/1
f 256/1 259/1 257/1
f 259/1 260/1 261/1
f 261/1 257/1 259/1
f 258/1 257/1 261/1
f 261/1 262/1 258/1
f 247/1 246/1 403/1
f 403/1 404/1 247/1
f 405/1 249/1 247/1
f 247/1 404/1 405/1
f 406/1 405/1 404/1
f 404/1 403/1 407/1
f 407/1 408/1 404/1
f 404/1 408/1 406/1
f 409/1 406/1 408/1
f 408/1 407/1 410/1
f 410/1 411/1 408/1
f 408/1 411/1 409/1
f 412/1 409/1 411/1
f 411/1 410/1 413/1
f 413/1 414/1 411/1
f 411/1 414/1 412/1
f 260/1 412/1 414/1
f 414/1 261/1 260/1
f 262/1 261/1 414/1
f 414/1 413/1 262/1
f 496/1 245/1 252/1
f 246/1 245/1 496/1
f 252/1 497/1 496/1
f 497/1 252/1 255/1
f 255/1 498/1 497/1
f 498/1 255/1 258/1
f 258/1 499/1 498/1
f 499/1 258/1 262/1
f 262/1 500/1 499/1
f 500/1 262/1 413/1
f 413/1 501/1 500/1
f 501/1 413/1 410/1
f 410/1 502/1 501/1
f 502/1 410/1 407/1
f 407/1 503/1 502/1
f 503/1 407/1 403/1
f 403/1 504/1 503/1
f 504/1 403/1 246/1
f 246/1 505/1 504/1
f 496/1 505/1 246/1
f 496/1 506/1 505/1
f 505/1 506/1 504/1
f 504/1 506/1 503/1
f 503/1 506/1 502/1
f 502/1 506/1 501/1
f 501/1 506/1 500/1
f 500/1 506/1 499/1
f 499/1 506/1 498/1
f 498/1 506/1 497/1
f 497/1 506/1 496/1
usemtl Material
f 827/154 828/155 829/156
f 829/156 828/155 830/157
f 830/157 831/158 829/156
f 831/158 830/157 832/159
f 832/159 833/160 831/158
f 833/160 832/159 834/161
f 834/161 835/162 833/160
f 835/162 834/161 836/163
f 836/163 837/164 835/162
f 837/164 836/163 838/165
f 838/165 839/166 837/164
f 839/166 838/165 840/167
f 840/167 841/168 839/166
f 841/168 840/167 842/169
f 842/169 843/170 841/168
f 843/170 842/169 844/171
f 844/171 845/172 843/170
f 845/172 844/171 846/173
f 846/173 847/174 845/172
f 847/174 846/173 848/175
f 848/175 849/176 847/174
f 849/176 848/175 850/177
f 850/177 851/178 849/176
f 851/178 850/177 852/179
f 852/179 853/180 851/178
f 853/180 852/179 854/181
f 854/181 855/182 853/180
f 855/182 854/181 856/183
f 856/183 857/184 855/182
f 857/184 856/183 858/185
f 858/185 859/186 857/184
f 859/186 858/185 860/187
f 860/187 861/188 859/186
f 861/188 860/187 862/189
f 862/189 863/190 861/188
f 863/190 862/189 864/191
f 864/191 865/192 863/190
f 865/192 864/191 866/193
f 866/193 867/194 865/192
f 867/194 866/193 868/195
f 868/195 869/196 867/194
f 869/196 868/195 870/197
f 870/197 871/198 869/196
f 871/198 870/197 872/199
f 872/199 873/200 871/198
f 873/200 872/199 874/201
f 874/201 875/202 873/200
f 875/202 874/201 876/203
f 876/203 877/204 875/202
f 877/204 876/203 878/205
f 878/205 879/206 877/204
f 879/206 878/205 880/207
f 880/207 881/208 879/206
f 881/208 880/207 882/209
f 882/209 883/210 881/208
f 883/210 882/209 884/211
f 884/211 885/212 883/210
f 885/212 884/211 886/213
f 886/213 887/214 885/212
f 887/214 886/213 888/215
f 888/215 889/216 887/214
f 890/217 889/216 888/215
f 888/215 891/218 890/217
f 892/219 890/217 891/218
f 891/218 893/220 892/219
f 894/221 892/219 893/220
f 893/220 895/222 894/221
f 896/223 894/221 895/222
f 895/222 897/224 896/223
f 898/225 896/223 897/224
f 897/224 899/226 898/225
f 900/227 898/225 899/226
f 899/226 901/228 900/227
f 902/229 900/227 901/228
f 901/228 903/230 902/229
f 904/231 902/229 903/230
f 903/230 905/232 904/231
f 906/233 904/231 905/232
f 905/232 827/154 906/233
f 906/233 827/154 829/156
f 907/234 908/235 909/236
f 910/237 909/236 908/235
f 908/235 911/238 910/237
f 912/239 910/237 911/238
f 911/238 913/240 912/239
f 914/241 912/239 913/240
f 913/240 915/242 914/241
f 916/243 914/241 915/242
f 915/242 917/244 916/243
f 918/245 916/243 917/244
f 917/244 919/246 918/245
f 920/247 918/245 919/246
f 919/246 921/248 920/247
f 922/249 920/247 921/248
f 921/248 923/250 922/249
f 924/251 922/249 923/250
f 923/250 925/252 924/251
f 926/253 924/251 925/252
f 925/252 927/254 926/253
f 928/255 926/253 927/254
f 927/254 929/256 928/255
f 930/257 928/255 929/256
f 929/256 931/258 930/257
f 932/259 930/257 931/258
f 931/258 933/260 932/259
f 934/261 932/259 933/260
f 933/260 935/262 934/261
f 936/263 934/261 935/262
f 935/262 937/264 936/263
f 938/265 936/263 937/264
f 937/264 939/266 938/265
f 940/267 938/265 939/266
f 939/266 941/268 940/267
f 942/269 940/267 941/268
f 941/268 943/270 942/269
f 944/271 942/269 943/270
f 943/270 945/272 944/271
f 946/273 944/271 945/272
f 945/272 947/274 946/273
f 948/275 946/273 947/274
f 947/274 949/276 948/275
f 950/277 948/275 949/276
f 949/276 951/278 950/277
f 952/279 950/277 951/278
f 951/278 953/280 952/279
f 954/281 952/279 953/280
f 953/280 955/282 954/281
f 956/283 954/281 955/282
f 955/282 957/284 956/283
f 958/285 956/283 957/284
f 957/284 959/286 958/285
f 960/287 958/285 959/286
f 959/286 961/288 960/287
f 962/289 960/287 961/288
f 961/288 963/290 962/289
f 964/291 962/289 963/290
f 963/290 965/292 964/291
f 966/293 964/291 965/292
f 965/292 967/294 966/293
f 968/295 966/293 967/294
f 967/294 969/296 968/295
f 970/297 968/295 969/296
f 969/296 971/298 970/297
f 972/299 970/297 971/298
f 971/298 973/300 972/299
f 974/301 972/299 973/300
f 973/300 975/302 974/301
f 976/303 974/301 975/302
f 975/302 977/304 976/303
f 978/305 976/303 977/304
f 977/304 979/306 978/305
f 980/307 978/305 979/306
f 979/306 981/308 980/307
f 982/309 980/307 981/308
f 981/308 983/310 982/309
f 984/311 982/309 983/310
f 983/310 985/312 984/311
f 986/313 984/311 985/312
f 985/312 907/234 986/313
f 909/236 986/313 907/234
f 987/314 986/313 909/236
f 909/236 988/315 987/314
f 988/315 909/236 910/237
f 910/237 989/316 988/315
f 989/316 910/237 912/239
f 912/239 990/317 989/316
f 990/317 912/239 914/241
f 914/241 991/318 990/317
f 991/318 914/241 916/243
f 916/243 992/319 991/318
f 992/319 916/243 918/245
f 918/245 993/320 992/319
f 993/320 918/245 920/247
f 920/247 994/321 993/320
f 994/321 920/247 922/249
f 922/249 995/322 994/321
f 995/322 922/249 924/251
f 924/251 996/323 995/322
f 996/323 924/251 926/253
f 926/253 997/324 996/323
f 997/324 926/253 928/255
f 928/255 998/325 997/324
f 998/325 928/255 930/257
f 930/257 999/326 998/325
f 999/326 930/257 932/259
f 932/259 1000/327 999/326
f 1000/327 932/259 934/261
f 934/261 1001/328 1000/327
f 1001/328 934/261 936/263
f 936/263 1002/329 1001/328
f 1002/329 936/263 938/265
f 938/265 1003/330 1002/329
f 1003/330 938/265 940/267
f 940/267 1004/331 1003/330
f 1004/331 940/267 942/269
f 942/269 1005/332 1004/331
f 1005/332 942/269 944/271
f 944/271 1006/333 1005/332
f 1006/333 944/271 946/273
f 946/273 1007/334 1006/333
f 1007/334 946/273 948/275
f 948/275 1008/335 1007/334
f 1008/335 948/275 950/277
f 950/277 1009/336 1008/335
f 1009/336 950/277 952/279
f 952/279 1010/337 1009/336
f 1010/337 952/279 954/281
f 954/281 1011/338 1010/337
f 1011/338 954/281 956/283
f 956/283 1012/339 1011/338
f 1012/339 956/283 958/285
f 958/285 1013/340 1012/339
f 1013/340 958/285 960/287
f 960/287 1014/341 1013/340
f 1014/341 960/287 962/289
f 962/289 1015/342 1014/341
f 1015/342 962/289 964/291
f 964/291 1016/343 1015/342
f 1016/343 964/291 966/293
f 966/293 1017/344 1016/343
f 1017/344 966/293 968/295
f 968/295 1018/345 1017/344
f 1018/345 968/295 970/297
f 970/297 1019/346 1018/345
f 1019/346 970/297 972/299
f 972/299 1020/347 1019/346
f 1020/347 972/299 974/301
f 974/301 1021/348 1020/347
f 1021/348 974/301 976/303
f 976/303 1022/349 1021/348
f 1022/349 976/303 978/305
f 978/305 1023/350 1022/349
f 1023/350 978/305 980/307
f 980/307 1024/351 1023/350
f 1024/351 980/307 982/309
f 982/309 1025/352 1024/351
f 1025/352 982/309 984/311
f 984/311 1026/353 1025/352
f 1026/353 984/311 986/313
f 986/313 987/314 1026/353
f 1026/353 987/314 1027/354
f 1028/355 1027/354 987/314
f 987/314 988/315 1028/355
f 1029/356 1028/355 988/315
f 988/315 989/316 1029/356
f 1030/357 1029/356 989/316
f 989/316 990/317 1030/357
f 1031/358 1030/357 990/317
f 990/317 991/318 1031/358
f 1032/359 1031/358 991/318
f 991/318 992/319 1032/359
f 1033/360 1032/359 992/319
f 992/319 993/320 1033/360
f 1034/361 1033/360 993/320
f 993/320 994/321 1034/361
f 1035/362 1034/361 994/321
f 994/321 995/322 1035/362
f 1036/363 1035/362 995/322
f 995/322 996/323 1036/363
f 1037/364 1036/363 996/323
f 996/323 997/324 1037/364
f 1038/365 1037/364 997/324
f 997/324 998/325 1038/365
f 1039/366 1038/365 998/325
f 998/325 999/326 1039/366
f 1040/367 1039/366 999/326
f 999/326 1000/327 1040/367
f 1041/368 1040/367 1000/327
f 1000/327 1001/328 1041/368
f 1042/369 1041/368 1001/328
f 1001/328 1002/329 1042/369
f 1043/370 1042/369 1002/329
f 1002/329 1003/330 1043/370
f 1044/371 1043/370 1003/330
f 1003/330 1004/331 1044/371
f 1045/372 1044/371 1004/331
f 1004/331 1005/332 1045/372
f 1046/373 1045/372 1005/332
f 1005/332 1006/333 1046/373
f 1047/374 1046/373 1006/333
f 1006/333 1007/334 1047/374
f 1048/375 1047/374 1007/334
f 1007/334 1008/335 1048/375
f 1049/376 1048/375 1008/335
f 1008/335 1009/336 1049/376
f 1050/377 1049/376 1009/336
f 1009/336 1010/337 1050/377
f 1051/378 1050/377 1010/337
f 1010/337 1011/338 1051/378
f 1052/379 1051/378 1011/338
f 1011/338 1012/339 1052/379
f 1053/380 1052/379 1012/339
f 1012/339 1013/340 1053/380
f 1054/381 1053/380 1013/340
f 1013/340 1014/341 1054/381
f 1055/382 1054/381 1014/341
f 1014/341 1015/342 1055/382
f 1056/383 1055/382 1015/342
f 1015/342 1016/343 1056/383
f 1057/384 1056/383 1016/343
f 1016/343 1017/344 1057/384
f 1058/385 1057/384 1017/344
f 1017/344 1018/345 1058/385
f 1059/386 1058/385 1018/345
f 1018/345 1019/346 1059/386
f 1060/387 1059/386 1019/346
f 1019/346 1020/347 1060/387
f 1061/388 1060/387 1020/347
f 1020/347 1021/348 1061/388
f 1062/389 1061/388 1021/348
f 1021/348 1022/349 1062/389
f 1063/390 1062/389 1022/349
f 1022/349 1023/350 1063/390
f 1064/391 1063/390 1023/350
f 1023/350 1024/351 1064/391
f 1065/392 1064/391 1024/351
f 1024/351 1025/352 1065/392
f 1066/393 1065/392 1025/352
f 1025/352 1026/353 1066/393
f 1027/354 1066/393 1026/353
f 1066/393 1027/354 901/228
f 903/230 901/228 1027/354
f 1027/354 1028/355 903/230
f 905/232 903/230 1028/355
f 1028/355 1029/356 905/232
f 827/154 905/232 1029/356
f 1030/357 827/154 1029/356
f 828/155 827/154 1030/357
f 1030/357 1031/358 828/155
f 830/157 828/155 1031/358
f 1031/358 1032/359 830/157
f 832/159 830/157 1032/359
f 1032/359 1033/360 832/159
f 834/161 832/159 1033/360
f 1033/360 1034/361 834/161
f 836/163 834/161 1034/361
f 1034/361 1035/362 836/163
f 838/165 836/163 1035/362
f 1035/362 1036/363 838/165
f 840/167 838/165 1036/363
f 1036/363 1037/364 840/167
f 842/169 840/167 1037/364
f 1037/364 1038/365 842/169
f 844/171 842/169 1038/365
f 1038/365 1039/366 844/171
f 846/173 844/171 1039/366
f 1039/366 1040/367 846/173
f 848/175 846/173 1040/367
f 1040/367 1041/368 848/175
f 850/177 848/175 1041/368
f 1041/368 1042/369 850/177
f 852/179 850/177 1042/369
f 1042/369 1043/370 852/179
f 854/181 852/179 1043/370
f 1043/370 1044/371 854/181
f 856/183 854/181 1044/371
f 1044/371 1045/372 856/183
f 858/185 856/183 1045/372
f 1045/372 1046/373 858/185
f 860/187 858/185 1046/373
f 1046/373 1047/374 860/187
f 862/189 860/187 1047/374
f 1047/374 1048/375 862/189
f 864/191 862/189 1048/375
f 1048/375 1049/376 864/191
f 866/193 864/191 1049/376
f 1049/376 1050/377 866/193
f 868/195 866/193 1050/377
f 1050/377 1051/378 868/195
f 870/197 868/195 1051/378
f 1051/378 1052/379 870/197
f 872/199 870/197 1052/379
f 1052/379 1053/380 872/199
f 874/201 872/199 1053/380
f 1053/380 1054/381 874/201
f 876/203 874/201 1054/381
f 1054/381 1055/382 876/203
f 878/205 876/203 1055/382
f 1055/382 1056/383 878/205
f 880/207 878/205 1056/383
f 1056/383 1057/384 880/207
f 882/209 880/207 1057/384
f 1057/384 1058/385 882/209
f 884/211 882/209 1058/385
f 1058/385 1059/386 884/211
f 886/213 884/211 1059/386
f 1059/386 1060/387 886/213
f 888/215 886/213 1060/387
f 1060/387 1061/388 888/215
f 891/218 888/215 1061/388
f 1061/388 1062/389 891/218
f 893/220 891/218 1062/389
f 1062/389 1063/390 893/220
f 895/222 893/220 1063/390
f 1063/390 1064/391 895/222
f 897/224 895/222 1064/391
f 1064/391 1065/392 897/224
f 899/226 897/224 1065/392
f 1065/392 1066/393 899/226
f 901/228 899/226 1066/393
