# Blender v2.68 (sub 0) OBJ File: 'FSAE_wheels.blend'
# www.blender.org
mtllib wheel.mtl
o Mesh.011_object__43.001
v -43.171722 49.182510 48.230648
v -78.937363 57.124603 67.540031
v -82.016579 35.611092 70.073563
v -45.206337 26.746565 50.514751
v -79.966370 61.505989 74.376656
v -83.373001 40.758873 77.541641
v -37.286137 49.128220 52.931381
v -39.071289 26.705896 55.410366
v -48.145252 56.778679 92.025620
v -49.961605 34.851452 95.673927
v -54.607697 60.854893 94.637115
v -56.938553 39.985687 98.659645
v -64.663795 48.850174 -3.632649
v -102.011909 55.211979 -19.550993
v -106.026573 33.257626 -20.392935
v -67.688446 26.312515 -3.796299
v -108.131348 58.820183 -16.105364
v -112.746300 37.598301 -16.799175
v -64.663803 48.850174 3.897784
v -67.688446 26.312515 4.053717
v -102.011932 55.205189 19.816177
v -106.026596 33.257626 20.650311
v -108.131371 58.820183 16.370543
v -112.746315 37.598301 17.064350
v -37.488758 49.080757 -52.767513
v -48.308842 56.934685 -91.822823
v -50.148586 34.878578 -95.494461
v -39.250538 26.739815 -55.230881
v -54.794678 60.882019 -94.457649
v -57.125530 40.012814 -98.487900
v -43.366535 49.128220 -48.066776
v -45.393372 26.773691 -50.335278
v -79.100983 57.280605 -67.329460
v -82.195786 35.604301 -69.901932
v -80.153374 61.505989 -74.205025
v -83.559998 40.758873 -77.370010
v 17.851315 48.972256 -62.160957
v 41.713303 56.222538 -95.018883
v 43.389328 34.525898 -98.706139
v 18.701036 26.529558 -65.060913
v 39.678665 60.068123 -101.715187
v 41.385895 39.056496 -106.049507
v 10.515778 48.856960 -63.844841
v 11.045871 26.448139 -66.807053
v 3.320588 55.483273 -103.710869
v 3.390751 33.081284 -107.897057
v 8.029063 58.840511 -108.988411
v 8.387655 37.598297 -113.642311
v 59.736393 48.911209 -24.727062
v 100.187111 55.971611 -26.582373
v 104.248550 33.569584 -27.580246
v 62.511589 26.543098 -25.904198
v 104.271942 59.518730 -32.343246
v 108.723160 38.418938 -33.715252
v 56.454506 49.060421 -31.501331
v 59.104969 26.651642 -32.974724
v 83.193001 56.941467 -62.098568
v 86.381348 35.448292 -64.507385
v 90.130974 61.119392 -61.568493
v 93.974136 40.304436 -64.179993
v 56.555813 49.046837 31.306791
v 83.294273 56.961800 61.904053
v 86.482613 35.441498 64.320587
v 59.206268 26.651642 32.787899
v 90.232246 61.112598 61.373894
v 94.075401 40.297646 63.993206
v 59.837708 48.897625 24.532526
v 62.612900 26.543098 25.717377
v 100.288422 55.964821 26.395689
v 104.349861 33.549248 27.385666
v 104.373253 59.498398 32.148754
v 108.832260 38.398605 33.528481
v 10.749562 48.918003 63.806091
v 3.562134 55.354397 103.711128
v 3.624486 33.081284 107.866089
v 11.279652 26.421015 66.783920
v 8.270579 58.840511 108.957458
v 8.613578 37.598297 113.611359
v 18.085123 49.026508 62.122215
v 18.927013 26.495640 65.037773
v 41.962643 56.032658 95.027008
v 43.615269 34.519108 98.683022
v 39.920216 60.061329 101.684265
v 41.611824 39.049706 106.026390
v -19.099331 91.510979 120.066025
v -0.101752 91.510979 121.562752
v -0.101753 72.879944 121.562752
v -19.099333 72.879944 120.066025
v -37.629173 91.510979 115.622597
v -37.629173 72.879944 115.622597
v -55.239136 91.510979 108.325966
v -55.239136 72.879944 108.325966
v -71.484917 91.510979 98.371185
v -71.484917 72.879944 98.371185
v -85.976669 91.510979 85.991982
v -85.976669 72.879944 85.991982
v -98.348083 91.510986 71.500114
v -98.348083 72.879951 71.500114
v -108.310699 91.510986 55.254391
v -108.310699 72.879951 55.254391
v -115.599457 91.510986 37.644379
v -115.599457 72.879951 37.644379
v -120.050667 91.510986 19.122356
v -120.050667 72.879951 19.122356
v -121.547371 91.510986 0.124729
v -121.547379 72.879951 0.124729
v -120.050644 91.510986 -18.880611
v -120.050644 72.879951 -18.880611
v -115.599419 91.510986 -37.410431
v -115.599419 72.879951 -37.410431
v -108.310631 91.510986 -55.012630
v -108.310638 72.879951 -55.012630
v -98.348000 91.510986 -71.258339
v -98.348000 72.879951 -71.258339
v -85.976570 91.510979 -85.750183
v -85.976570 72.879944 -85.750183
v -71.484802 91.510979 -98.129387
v -71.484802 72.879944 -98.129387
v -55.239014 91.510979 -108.084152
v -55.239014 72.879944 -108.084152
v -37.629044 91.510979 -115.380768
v -37.629044 72.879944 -115.380768
v -19.099195 91.510979 -119.824165
v -19.099197 72.879944 -119.824165
v -0.101615 91.510979 -121.320877
v -0.101616 72.879944 -121.320877
v 18.895805 72.879944 120.066040
v 18.895807 91.510979 120.066040
v 37.425659 72.879944 115.622643
v 37.425659 91.510979 115.622643
v 55.035656 72.879944 108.326027
v 55.035656 91.510979 108.326027
v 71.281418 72.879944 98.371262
v 71.281418 91.510979 98.371262
v 85.773216 72.879944 85.992073
v 85.773216 91.510979 85.992073
v 98.144646 72.879936 71.500221
v 98.144646 91.510971 71.500221
v 108.107269 72.879936 55.254513
v 108.107269 91.510971 55.254513
v 115.396049 72.879936 37.644508
v 115.396049 91.510971 37.644508
v 119.847267 72.879936 19.122492
v 119.847267 91.510971 19.122492
v 121.344009 72.879936 0.124866
v 121.344017 91.510971 0.124866
v 119.847290 72.879936 -18.880476
v 119.847290 91.510971 -18.880476
v 115.396088 72.879936 -37.410301
v 115.396088 91.510971 -37.410301
v 108.107330 72.879936 -55.012508
v 108.107338 91.510971 -55.012508
v 98.144730 72.879936 -71.258232
v 98.144730 91.510971 -71.258232
v 85.773315 72.879944 -85.750092
v 85.773315 91.510979 -85.750092
v 71.281532 72.879944 -98.129311
v 71.281532 91.510979 -98.129311
v 55.035778 72.879944 -108.084091
v 55.035778 91.510979 -108.084091
v 37.425789 72.879944 -115.380722
v 37.425789 91.510979 -115.380722
v 18.895941 72.879944 -119.824150
v 18.895943 91.510979 -119.824150
v -0.101745 60.909142 107.749184
v 16.736486 60.909142 106.423927
v 19.192034 -102.877136 121.936890
v -0.101761 -102.877136 123.457024
v -16.939972 60.909142 106.423912
v -19.395552 -102.877136 121.936874
v -33.357231 60.909142 102.479424
v -38.213825 -102.877136 117.423286
v -48.963779 60.909145 96.016930
v -56.096649 -102.877136 110.017647
v -63.362003 60.909145 87.192444
v -72.599655 -102.877136 99.899033
v -76.208939 60.909145 76.224182
v -87.317513 -102.877129 87.332771
v -87.177162 60.909145 63.385063
v -99.883820 -102.877129 72.614891
v -96.001633 60.909145 48.979069
v -109.994522 -102.877129 56.111851
v -102.464088 60.909145 33.380325
v -117.400223 -102.877129 38.236897
v -106.408577 60.909145 16.955256
v -121.921577 -102.877129 19.418615
v -123.441681 -102.877129 0.117015
v -107.733810 60.909145 0.124737
v -106.408554 60.909145 -16.713398
v -121.921555 -102.877129 -19.176779
v -102.464050 60.909145 -33.138462
v -117.400185 -102.877129 -37.995049
v -96.001579 60.909145 -48.745007
v -109.994453 -102.877129 -55.870087
v -87.177094 60.909145 -63.143280
v -99.883736 -102.877129 -72.373116
v -76.208855 60.909145 -75.982391
v -87.317413 -102.877129 -87.090973
v -63.361904 60.909145 -86.950638
v -72.599541 -102.877136 -99.665047
v -48.963669 60.909145 -95.775108
v -56.096527 -102.877136 -109.775742
v -33.357117 60.909142 -102.237587
v -38.213692 -102.877136 -117.181458
v -16.939852 60.909142 -106.182053
v -19.395414 -102.877136 -121.695023
v 38.010311 -102.877136 117.423332
v 33.153751 60.909142 102.479454
v 55.893143 -102.877136 110.017708
v 48.760296 60.909138 96.016991
v 72.396172 -102.877136 99.899109
v 63.158546 60.909138 87.192520
v 87.114029 -102.877136 87.332863
v 76.005493 60.909138 76.224274
v 99.680344 -102.877144 72.614998
v 86.973740 60.909138 63.385162
v 109.791077 -102.877144 56.111973
v 95.798218 60.909138 48.979176
v 117.196793 -102.877144 38.237026
v 102.260681 60.909138 33.380440
v 121.718185 -102.877144 19.418753
v 106.205193 60.909138 16.955374
v 123.238304 -102.877144 0.117154
v 107.530426 60.909138 0.124858
v 121.718208 -102.877144 -19.176641
v 106.205215 60.909138 -16.713280
v 117.196831 -102.877144 -37.994919
v 102.260719 60.909138 -33.138348
v 109.791145 -102.877144 -55.869965
v 95.798271 60.909138 -48.744900
v 99.680428 -102.877144 -72.373009
v 86.973808 60.909138 -63.143181
v 87.114128 -102.877136 -87.090881
v 76.005577 60.909138 -75.982300
v 72.396286 -102.877136 -99.664970
v 63.158646 60.909138 -86.950562
v 55.893265 -102.877136 -109.775681
v 48.760406 60.909138 -95.775047
v 38.010445 -102.877136 -117.181412
v 33.153866 60.909142 -102.237556
v 19.192171 -102.877136 -121.695007
v 16.736607 60.909142 -106.182037
v -0.101622 -102.877136 -123.215149
v -0.101624 60.909142 -107.507309
v 12.924530 78.122643 18.085621
v -0.101696 78.122643 22.318542
v -0.101701 64.571594 29.646297
v 17.235422 64.571594 24.017950
v -0.101705 28.984737 33.130867
v 19.285650 28.984737 26.832130
v 27.946415 64.571594 9.268964
v 20.977278 78.122643 7.000463
v 31.267288 28.984735 10.344714
v 27.946424 64.571594 -8.964693
v 20.977285 78.122643 -6.696201
v 31.267300 28.984735 -10.040442
v 17.235449 64.571594 -23.713694
v 12.924550 78.122643 -17.781368
v 19.285681 28.984737 -26.535675
v -0.101667 28.984737 -32.834435
v -0.101668 64.571594 -29.342058
v -0.101671 78.122643 -22.014305
v -81.634583 56.927891 63.868393
v -90.248596 61.112606 61.514118
v -47.630722 49.006176 43.070095
v -35.547722 47.866730 31.384705
v -22.583858 47.839607 41.729233
v -31.283604 48.850170 56.135311
v -43.966869 56.507423 93.834213
v -39.788494 60.047787 101.809029
v -23.363390 48.083778 29.451412
v -35.500950 48.321156 24.197273
v -15.583520 48.293991 40.084480
v -8.201215 48.056610 36.233494
v -3.258889 48.266865 42.797279
v 8.426532 48.049858 36.584309
v 2.338263 47.751438 47.318661
v -33.450741 48.056610 16.238068
v -41.066921 48.253323 12.862594
v -37.605713 48.015942 0.156001
v -46.718624 47.717522 8.419176
v -46.718613 47.724316 -8.169540
v -41.066910 48.260113 -12.612950
v -33.559845 48.056610 -15.972805
v -35.672424 48.314365 -24.025595
v -23.581646 48.090527 -29.240686
v -35.719189 47.866730 -31.220739
v -22.755314 47.846397 -41.557533
v -15.754975 48.307575 -39.912682
v -8.450620 48.056610 -36.139748
v -3.469302 48.266865 -42.812630
v 8.153733 48.056610 -36.615261
v 2.127832 47.751438 -47.334007
v 18.295645 47.826023 -43.646748
v 21.374853 48.334702 -37.145321
v 22.980736 48.083778 -29.084818
v 31.298489 48.341492 -29.349848
v 33.699497 48.063404 -16.393736
v 38.322227 47.853149 -27.798483
v 45.517429 47.758183 -12.854610
v 42.352463 48.239738 -6.392124
v 37.051544 48.022736 -0.108992
v 42.453800 48.232990 6.228697
v 33.816406 48.056610 16.175749
v 45.610973 47.751434 12.691188
v 38.415726 47.853149 27.627337
v 31.392012 48.341492 29.186407
v 23.175577 48.083778 28.960306
v 21.585295 48.321156 37.129997
v 18.506079 47.819229 43.631424
v 3.944118 48.639915 64.071121
v -0.974837 55.110264 103.547386
v -8.209039 58.840511 108.957443
v 24.344889 48.945129 59.370491
v 45.992893 55.924110 92.922157
v 54.739429 60.868427 94.512466
v 61.607281 48.633118 17.960936
v 101.122551 55.679939 21.921049
v 108.068314 58.820175 16.097824
v 52.478756 49.040047 36.802536
v 80.324188 56.873634 65.349594
v 79.957802 61.512733 74.236420
v -84.791771 35.543259 66.222664
v -94.091759 40.297653 64.133423
v -37.060055 25.797045 32.717686
v -37.013283 26.285387 25.218475
v -42.805305 26.204010 13.408274
v -48.698692 25.627499 8.769983
v -63.385357 48.687378 10.601890
v -104.732559 33.501755 25.234049
v -100.850410 55.049225 24.212757
v -108.895355 38.391819 33.809006
v -104.436325 59.498405 32.429195
v -41.487919 39.029373 106.143250
v -45.588329 34.668324 97.529259
v -23.542704 25.763126 43.498886
v -16.246151 26.251469 41.776073
v -3.399191 26.210760 44.613579
v 2.431818 25.661413 49.329838
v -1.130752 33.135536 107.632187
v -8.567633 37.598297 113.611343
v -100.850388 55.049225 -23.947664
v -104.436287 59.498405 -32.164101
v -63.385345 48.694168 -10.336754
v -104.732529 33.501755 -24.968864
v -108.895317 38.398613 -33.543823
v -48.698681 25.627499 -8.520350
v -42.805290 26.210762 -13.158632
v -37.176949 26.278597 -25.046795
v -37.223713 25.797045 -32.546005
v -47.817760 49.006176 -42.890617
v -84.978783 35.536465 -66.043228
v -81.790428 57.097477 -63.657734
v -94.278778 40.277321 -63.961807
v -90.435616 61.099026 -61.342499
v -44.122681 56.676968 -93.631310
v -39.975471 60.081665 -101.629555
v -31.470654 48.870502 -55.963627
v -45.767525 34.702240 -97.357590
v -41.667110 39.063290 -105.971581
v -23.714157 25.769918 -43.327190
v -16.409800 26.265051 -41.612171
v -3.609626 26.210760 -44.629025
v 2.221388 25.661413 -49.345276
v 3.710334 48.646706 -64.094269
v -1.364488 33.135536 -107.655350
v -1.216383 55.259434 -103.547127
v -8.793578 37.598297 -113.642326
v -8.442796 58.840511 -108.980621
v 45.743549 56.147949 -92.898521
v 54.505669 60.875217 -94.535553
v 24.111076 48.945129 -59.401417
v 47.559902 34.803986 -96.429916
v 56.836521 40.006016 -98.565811
v 19.082987 25.742790 -45.494274
v 22.286930 26.292175 -38.720009
v 32.631516 26.305717 -30.589336
v 39.951488 25.783497 -28.967810
v 52.377460 49.040047 -36.989365
v 83.231972 35.604294 -68.077728
v 80.222923 56.853298 -65.544197
v 83.255363 40.758865 -77.588211
v 79.848755 61.512733 -74.423225
v 101.021217 55.686733 -22.115633
v 107.959198 58.847301 -16.284595
v 61.505962 48.639912 -18.155476
v 105.082672 33.427162 -22.887318
v 112.581909 37.625420 -16.978403
v 47.458515 25.668203 -13.392485
v 44.161007 26.190424 -6.657157
v 44.254555 26.183632 6.493732
v 47.552032 25.661411 13.229064
v 105.183990 33.406830 22.700634
v 112.683235 37.598293 16.791636
v 83.333237 35.604294 67.883125
v 83.356636 40.765614 77.401405
v 40.044987 25.783497 28.804380
v 32.725037 26.305717 30.425901
v 22.497372 26.285383 38.704685
v 19.293421 25.736000 45.478951
v 47.793648 34.797192 96.399017
v 57.070278 39.999222 98.534904
v -13.127942 78.122643 18.085606
v -17.438841 64.571594 24.017931
v -19.489050 28.984737 26.832108
v -31.470692 28.984739 10.344679
v -21.180651 78.122643 7.000439
v -28.149817 64.571594 9.268931
v -31.470680 28.984739 -10.040478
v -21.180643 78.122643 -6.696225
v -28.149807 64.571594 -8.964725
v -19.489019 28.984737 -26.535698
v -13.127922 78.122643 -17.781384
v -17.438814 64.571594 -23.713713
v -0.062701 42.305233 0.015699
v -135.259644 -105.793526 21.531170
v -136.943436 -105.793526 0.117007
v -130.247177 -105.793526 42.407463
v -122.030746 -105.793526 62.246941
v -110.813080 -105.793526 80.550674
v -96.859177 -105.793526 96.882263
v -80.535477 -105.793533 110.828346
v -62.223904 -105.793533 122.046036
v -42.384426 -105.793533 130.262482
v -21.508144 -105.793533 135.274918
v -0.101769 -105.793533 136.958817
v 21.304588 -105.793533 135.274948
v 42.180882 -105.793533 130.262543
v 62.020382 -105.793533 122.046112
v 80.331955 -105.793533 110.828438
v 96.655685 -105.793541 96.882370
v 110.601791 -105.793541 80.550797
v 121.827293 -105.793541 62.247078
v 130.043732 -105.793541 42.407608
v 135.056229 -105.793541 21.531322
v 136.740082 -105.793541 0.117162
v 135.056244 -105.793541 -21.289288
v 130.043777 -105.793541 -42.165577
v 121.827362 -105.793541 -62.005058
v 110.601883 -105.793541 -80.308792
v 96.655800 -105.793541 -96.640282
v 80.332085 -105.793533 -110.586479
v 62.020519 -105.793533 -121.804169
v 42.181026 -105.793533 -130.020615
v 21.304741 -105.793533 -135.033051
v -0.101615 -105.793533 -136.724747
v -21.507992 -105.793533 -135.033081
v -42.384281 -105.793533 -130.020676
v -62.223766 -105.793533 -121.804245
v -80.535347 -105.793533 -110.586571
v -96.859062 -105.793526 -96.640388
v -110.812988 -105.793526 -80.308914
v -122.030678 -105.793526 -62.005196
v -130.247131 -105.793526 -42.165722
v -135.259628 -105.793526 -21.289440
v -136.686203 -104.348907 21.757174
v -131.626968 -104.348907 42.851757
v -123.317001 -104.348907 62.901722
v -111.982384 -104.348907 81.408226
v -97.888176 -104.348907 97.903458
v -81.385178 -104.348915 111.997681
v -62.886513 -104.348915 123.340080
v -42.836555 -104.348915 131.642288
v -21.734221 -104.348915 136.709274
v -0.101770 -104.348915 138.408783
v 21.530661 -104.348915 136.709305
v 42.633026 -104.348915 131.642349
v 62.682991 -104.348915 123.340157
v 81.181664 -104.348915 111.997772
v 97.684685 -104.348923 97.903564
v 111.778915 -104.348923 81.408348
v 123.113548 -104.348923 62.901859
v 131.423523 -104.348923 42.851902
v 136.482819 -104.348923 21.757326
v 138.190033 -104.348923 0.117162
v 136.482834 -104.348923 -21.515291
v 131.423569 -104.348923 -42.617680
v 123.113617 -104.348923 -62.659836
v 111.779007 -104.348923 -81.166344
v 97.684799 -104.348923 -97.661583
v 81.181793 -104.348915 -111.755806
v 62.683128 -104.348915 -123.098206
v 42.633175 -104.348915 -131.400330
v 21.530815 -104.348915 -136.467407
v -0.101614 -104.348915 -138.166916
v -21.734066 -104.348915 -136.467438
v -42.836407 -104.348915 -131.400391
v -62.886375 -104.348915 -123.098282
v -81.385048 -104.348915 -111.755898
v -97.888062 -104.348907 -97.661690
v -111.982292 -104.348907 -81.166466
v -123.316933 -104.348907 -62.659973
v -131.626923 -104.348907 -42.617825
v -136.686188 -104.348907 -21.515444
v -138.393402 -104.348907 0.117006
v 6.111308 88.045197 8.707659
v 9.954473 88.045197 3.422307
v 9.954476 88.045197 -3.118057
v 6.111318 88.045197 -8.403413
v -0.101677 88.045197 -10.422399
v -6.314677 88.045197 -8.403420
v -10.157841 88.045197 -3.118069
v -10.157845 88.045197 3.422295
v -6.314687 88.045197 8.707651
v -0.101689 88.045197 10.726729
v -0.101683 92.541878 0.148216
v -136.662827 93.301529 0.124720
v -134.979004 93.301529 21.484333
v -122.864822 93.301529 19.566652
v -118.312271 93.301529 38.525253
v -129.982101 93.301529 42.321690
v -110.844238 93.301529 56.548431
v -121.781296 93.301529 62.122135
v -100.655540 93.301529 73.176186
v -110.579185 93.301529 80.387024
v -87.987915 93.301529 88.010956
v -96.664291 93.301529 96.687294
v -73.160942 93.301521 100.670815
v -80.371750 93.301521 110.602249
v -56.533199 93.301521 110.867302
v -62.099159 93.301521 121.796524
v -38.510052 93.301521 118.327583
v -42.298668 93.301521 129.997452
v -19.543673 93.301521 122.880203
v -21.461370 93.301521 135.002075
v -0.101753 93.301521 124.408058
v -0.101760 93.301521 136.685974
v 19.340147 93.301521 122.880219
v 21.257830 93.301521 135.002106
v 38.306561 93.301521 118.327629
v 42.095139 93.301521 129.997513
v 56.321903 93.301521 110.867363
v 61.895664 93.301521 121.796600
v 72.957443 93.301521 100.670891
v 80.168251 93.301521 110.602341
v 87.784454 93.301514 88.011055
v 96.460808 93.301514 96.687401
v 100.452103 93.301514 73.176292
v 110.375748 93.301514 80.387146
v 110.640800 93.301514 56.548553
v 121.577843 93.301514 62.122272
v 118.108879 93.301514 38.525387
v 129.778702 93.301514 42.321835
v 122.661430 93.301514 19.566790
v 134.775589 93.301514 21.484486
v 124.189369 93.301514 0.124868
v 136.459427 93.301514 0.124875
v 122.661453 93.301514 -19.324770
v 134.775620 93.301514 -21.242451
v 118.108917 93.301514 -38.283371
v 129.778748 93.301514 -42.079803
v 110.640869 93.301514 -56.306549
v 121.577911 93.301514 -61.880253
v 100.452187 93.301514 -72.934303
v 110.375832 93.301514 -80.145050
v 87.784554 93.301514 -87.769073
v 96.460922 93.301514 -96.445412
v 72.957558 93.301521 -100.428940
v 80.168381 93.301521 -110.360382
v 56.322025 93.301521 -110.625427
v 61.895802 93.301521 -121.554649
v 38.306694 93.301521 -118.085709
v 42.095284 93.301521 -129.755478
v 19.340284 93.301521 -122.638329
v 21.257982 93.301521 -134.760208
v -0.101613 93.301521 -124.166191
v -0.101606 93.301521 -136.444092
v -19.543535 93.301521 -122.638344
v -21.461218 93.301521 -134.760239
v -38.509918 93.301521 -118.085754
v -42.298523 93.301521 -129.755539
v -56.533077 93.301521 -110.625488
v -62.099022 93.301521 -121.554726
v -73.160828 93.301521 -100.429016
v -80.371620 93.301521 -110.360474
v -87.987816 93.301529 -87.769173
v -96.664177 93.301529 -96.445518
v -100.655457 93.301529 -72.934410
v -110.579102 93.301529 -80.145172
v -110.844170 93.301529 -56.306671
v -121.781227 93.301529 -61.880390
v -118.312233 93.301529 -38.283504
v -129.982056 93.301529 -42.079948
v -122.864799 93.301529 -19.324907
v -134.978973 93.301529 -21.242603
v -124.392731 93.301529 0.124727
v 0.264544 -66.896935 248.317108
v -0.094041 -88.125603 235.563766
v 36.731800 -88.118813 232.656036
v 39.078232 -66.896935 245.230194
v 0.209992 -40.608654 253.836365
v 72.653351 -88.118813 224.034271
v 76.933067 -66.896935 236.117310
v 106.789742 -88.118820 209.893326
v 112.901375 -66.896942 221.188980
v 138.291260 -88.118820 190.583923
v 146.086731 -66.896942 200.819443
v 166.378387 -88.112030 166.589508
v 175.686157 -66.896942 175.515274
v 190.372849 -88.112030 138.502380
v 200.951309 -66.903732 145.884689
v 209.666672 -88.112030 107.000946
v 221.274139 -66.903732 112.668236
v 223.807678 -88.112030 72.864494
v 236.155716 -66.903732 76.684357
v 232.429489 -88.105232 36.942955
v 245.214050 -66.903732 38.813911
v 235.321640 -88.105232 0.117217
v 248.246536 -66.903732 -0.007580
v 232.421738 -88.105232 -36.708622
v 245.167328 -66.903732 -38.821175
v 223.799957 -88.105232 -72.630157
v 236.046661 -66.903732 -76.683830
v 209.659012 -88.105232 -106.758827
v 221.118347 -66.903732 -112.652122
v 190.357422 -88.105232 -138.260300
v 200.756577 -66.903732 -145.837479
v 175.444702 -66.903732 -175.429153
v 166.370758 -88.105232 -166.347443
v 145.814117 -66.903732 -200.702103
v 138.275894 -88.105232 -190.341904
v 112.597610 -66.903732 -221.024918
v 106.782181 -88.105232 -209.643509
v 76.613708 -66.903725 -235.898651
v 72.653603 -88.105225 -223.776764
v 38.743290 -66.903725 -244.964859
v 36.732059 -88.105225 -232.406296
v -0.078178 -66.903725 -247.989532
v -0.093775 -88.105225 -235.306274
v -38.899624 -66.903725 -244.910339
v -36.927395 -88.105225 -232.406326
v -76.754471 -66.903725 -235.797440
v -72.848938 -88.105225 -223.784561
v -112.714981 -66.903717 -220.869110
v -106.977531 -88.105217 -209.651428
v -145.908157 -66.896927 -200.499588
v -138.479034 -88.112015 -190.349854
v -166.573975 -88.112015 -166.363235
v -175.499786 -66.896927 -175.187714
v -190.568420 -88.112015 -138.268311
v -200.764908 -66.896927 -145.564850
v -209.877853 -88.112015 -106.766785
v -221.087723 -66.896927 -112.348396
v -224.018875 -88.118805 -72.638229
v -235.969299 -66.896927 -76.364502
v -232.640686 -88.118805 -36.716686
v -245.035461 -66.890137 -38.494061
v -235.540619 -88.118805 0.116952
v -248.060135 -66.890137 0.327429
v -244.980957 -66.890137 39.148830
v -232.648499 -88.118805 36.950504
v -224.018951 -88.125595 72.872040
v -235.860291 -66.890137 77.003677
v -209.885773 -88.125595 107.008507
v -220.939758 -66.890137 112.971962
v -190.576385 -88.125595 138.509979
v -200.570206 -66.890137 146.157318
v -166.581909 -88.125595 166.604935
v -175.258316 -66.890137 175.748993
v -138.494858 -88.125595 190.599380
v -145.635544 -66.890137 201.021973
v -106.985550 -88.125595 209.901016
v -112.419022 -66.890137 221.344788
v -72.856972 -88.125603 224.041977
v -76.427330 -66.890144 236.218506
v -36.927654 -88.125603 232.663803
v -38.556896 -66.890144 245.284714
v -39.484570 -40.608654 250.741531
v 0.022883 44.448448 253.649307
v -39.671654 44.455200 250.554459
v -0.039468 64.917480 246.804871
v -38.673840 64.924271 243.795807
v -0.094032 81.310333 233.326508
v -36.576839 81.310333 230.457672
v -76.364937 64.931061 234.768539
v -72.163177 81.310333 221.913803
v -112.169548 64.931068 219.964966
v -105.972153 81.310341 207.905350
v -137.177429 81.310341 188.783066
v -145.230118 64.931068 199.743454
v -164.999466 81.310341 165.022430
v -174.712631 64.931068 174.595276
v -188.767838 81.310341 137.192520
v -199.899796 64.931068 145.143921
v -207.890121 81.310341 105.987221
v -220.167984 64.931068 112.122314
v -221.890762 81.310341 72.178337
v -235.018341 64.931068 76.333290
v -230.434586 81.310341 36.599697
v -244.092255 64.931068 38.657700
v -233.311096 81.310341 0.116953
v -247.155838 64.924278 0.023365
v -230.442337 81.310341 -36.365879
v -244.146759 64.924278 -38.603252
v -221.898499 81.317139 -71.952217
v -235.127396 64.917488 -76.294342
v -220.323792 64.910698 -112.106689
v -207.897797 81.317139 -105.761192
v -200.094498 64.910698 -145.159485
v -188.783249 81.317139 -136.966461
v -174.946289 64.903946 -174.642029
v -165.014847 81.317139 -164.796265
v -145.502731 64.897148 -199.829102
v -137.184998 81.317139 -188.572495
v -112.473335 64.890358 -220.097336
v -105.979698 81.317139 -207.694809
v -76.684303 64.883560 -234.947693
v -72.170715 81.317131 -221.703232
v -39.008762 64.883560 -244.021652
v -36.584385 81.317131 -230.247025
v -0.382191 64.876770 -247.085236
v -0.093769 81.317131 -233.123550
v 38.252190 64.870018 -244.076172
v 36.389065 81.317131 -230.254807
v 75.935509 64.870018 -235.056793
v 71.975403 81.317131 -221.710938
v 111.747910 64.870010 -220.245346
v 105.792168 81.317123 -207.702393
v 144.800720 64.863220 -200.023911
v 136.997421 81.317123 -188.580139
v 174.283188 64.863220 -174.875656
v 164.827255 81.317123 -164.811691
v 199.470367 64.863220 -145.432114
v 188.603455 81.317123 -136.981873
v 219.746338 64.863220 -112.402702
v 207.725723 81.317123 -105.776573
v 234.596710 64.863220 -76.613670
v 221.726364 81.317123 -71.959778
v 243.670624 64.870010 -38.938171
v 230.270203 81.317123 -36.365620
v 246.734222 64.870010 -0.311552
v 233.138901 81.317123 0.117216
v 243.725128 64.876762 38.322777
v 230.262344 81.317123 36.599957
v 234.705765 64.876762 76.006157
v 221.718506 81.317123 72.186295
v 219.894318 64.883553 111.818489
v 207.710022 81.317123 106.003059
v 199.672867 64.890343 144.871292
v 188.587692 81.317123 137.200531
v 174.524643 64.890343 174.353745
v 164.819275 81.317123 165.030426
v 145.081116 64.897133 199.540924
v 136.989410 81.310326 188.798737
v 112.051689 64.903931 219.816971
v 105.784134 81.310326 207.913284
v 76.262657 64.910690 234.667328
v 71.967354 81.310333 221.921707
v 38.587109 64.917480 243.741196
v 36.381001 81.310333 230.457703
v 39.709663 44.441658 250.499939
v 39.896751 -40.608654 250.687012
v 78.609093 -40.615452 241.363632
v 115.380348 -40.615452 226.100098
v 149.314056 -40.615456 205.278397
v 179.576096 -40.615456 179.397491
v 205.410309 -40.615456 149.104233
v 226.193069 -40.615459 115.139420
v 241.402054 -40.622250 78.344734
v 250.670883 -40.622250 39.624630
v 253.773529 -40.622250 -0.069932
v 250.616379 -40.622250 -39.764496
v 241.300812 -40.622250 -78.476799
v 226.037277 -40.622250 -115.248100
v 205.207794 -40.622246 -149.181793
v 179.326859 -40.622246 -179.443771
v 149.033646 -40.622246 -205.278030
v 115.076569 -40.622242 -226.060760
v 78.274155 -40.622242 -241.269775
v 39.554035 -40.622238 -250.538574
v -0.140530 -40.622238 -253.633408
v -39.827286 -40.615448 -250.484055
v -78.539612 -40.615444 -241.160675
v -115.310890 -40.615444 -225.904953
v -149.252396 -40.615440 -205.075531
v -179.506653 -40.615440 -179.194565
v -205.340881 -40.615440 -148.901398
v -226.123611 -40.608643 -114.936485
v -241.340378 -40.608643 -78.141876
v -250.609222 -40.608643 -39.421776
v -253.704056 -40.608643 0.272784
v -250.546906 -40.608643 39.967350
v -241.231369 -40.608643 78.671936
v -225.967834 -40.608643 115.450943
v -205.138321 -40.608646 149.384644
v -179.265198 -40.608646 179.638901
v -148.964172 -40.608646 205.480896
v -115.007103 -40.608650 226.263718
v -78.212479 -40.608650 241.472733
v -78.399567 44.455204 241.285568
v -115.194206 44.455204 226.076660
v -149.151276 44.461998 205.293823
v -179.444458 44.461998 179.451828
v -205.325424 44.461998 149.197571
v -226.154907 44.462002 115.263870
v -241.418442 44.462002 78.484779
v -250.734009 44.455212 39.780281
v -253.891174 44.455212 0.085717
v -250.788513 44.448460 -39.608841
v -241.519684 44.448460 -78.328941
v -226.310715 44.441669 -115.123550
v -205.527939 44.434872 -149.088455
v -179.693710 44.428082 -179.381622
v -149.431686 44.428082 -205.262604
v -115.497971 44.421326 -226.092102
v -78.726700 44.414536 -241.347839
v -40.014370 44.407738 -250.671112
v -0.327616 44.407738 -253.820480
v 39.366947 44.400948 -250.725723
v 78.094864 44.400944 -241.456833
v 114.889488 44.394154 -226.247833
v 148.846558 44.394150 -205.465088
v 179.139771 44.394150 -179.630936
v 205.020721 44.394150 -149.368866
v 225.850189 44.394146 -115.435165
v 241.113724 44.394146 -78.656059
v 250.437088 44.394146 -39.951561
v 253.586441 44.400936 -0.256999
v 250.483810 44.400936 39.437561
v 241.222778 44.407726 78.157661
v 226.005981 44.414520 114.952263
v 205.223236 44.414524 148.917175
v 179.389023 44.421314 179.210342
v 149.134766 44.428066 205.091324
v 115.193268 44.434860 225.920837
v 78.421989 44.434860 241.176559
v -123.480690 96.034790 62.979687
v -112.130501 96.034790 81.509521
v -110.579185 93.301529 80.387024
v -98.020691 96.034790 98.035973
v -96.664291 93.301529 96.687294
v -81.494293 96.034782 112.145714
v -80.371750 93.301521 110.602249
v -62.964470 96.034782 123.496010
v -62.099159 93.301521 121.796524
v -42.891117 96.034782 131.813751
v -42.298668 93.301521 129.997452
v -21.765388 96.034782 136.888641
v -21.461370 93.301521 135.002075
v -0.101761 96.034782 138.588043
v -0.101760 93.301521 136.685974
v 21.561848 96.034782 136.888672
v 21.257830 93.301521 135.002106
v 42.687611 96.034782 131.813812
v 42.095139 93.301521 129.997513
v 62.768749 96.034782 123.496086
v 61.895664 93.301521 121.796600
v 81.290802 96.034782 112.145805
v 80.168251 93.301521 110.602341
v 97.817215 96.034775 98.036079
v 96.460808 93.301514 96.687401
v 111.927032 96.034775 81.509644
v 110.375748 93.301514 80.387146
v 123.285057 96.034775 62.979824
v 121.577843 93.301514 62.122272
v 131.602844 96.034775 42.906452
v 129.778702 93.301514 42.321835
v 136.669907 96.034775 21.780745
v 134.775589 93.301514 21.484486
v 138.377121 96.034775 0.117163
v 136.459427 93.301514 0.124875
v 136.669937 96.034775 -21.546516
v 134.775620 93.301514 -21.242451
v 131.602890 96.034775 -42.672230
v 129.778748 93.301514 -42.079803
v 123.285126 96.034775 -62.753418
v 121.577911 93.301514 -61.880253
v 111.934937 96.034775 -81.283249
v 110.375832 93.301514 -80.145050
v 97.817329 96.034775 -97.801811
v 96.460922 93.301514 -96.445412
v 81.298729 96.034782 -111.919456
v 80.168381 93.301521 -110.360382
v 62.768887 96.034782 -123.269661
v 61.895802 93.301521 -121.554649
v 42.695541 96.034782 -131.587494
v 42.095284 93.301521 -129.755478
v 21.562002 96.034782 -136.662369
v 21.257982 93.301521 -134.760208
v -0.101605 96.034782 -138.361786
v -0.101606 93.301521 -136.444092
v -21.765234 96.034782 -136.662399
v -21.461218 93.301521 -134.760239
v -42.890968 96.034782 -131.587555
v -42.298523 93.301521 -129.755539
v -62.964333 96.034782 -123.269737
v -62.099022 93.301521 -121.554726
v -81.494164 96.034782 -111.911743
v -80.371620 93.301521 -110.360474
v -96.664177 93.301529 -96.445518
v -98.020576 96.034790 -97.801918
v -110.579102 93.301529 -80.145172
v -112.130409 96.034790 -81.283371
v -121.781227 93.301529 -61.880390
v -123.488426 96.034790 -62.753555
v -129.982056 93.301529 -42.079948
v -131.798401 96.034790 -42.672375
v -134.978973 93.301529 -21.242603
v -136.873260 96.034790 -21.546669
v -136.662827 93.301529 0.117007
v -138.580505 96.034790 0.117006
v -134.979004 93.301529 21.484333
v -136.873291 96.034790 21.780592
v -129.982101 93.301529 42.321690
v -131.798447 96.034790 42.906307
v -121.781296 93.301529 62.122135
v -233.311096 81.310341 0.116953
v -230.434586 81.310341 36.599697
v -208.529282 94.705429 33.130749
v -200.796188 94.705429 65.326111
v -221.890762 81.310341 72.178337
v -188.120789 94.705429 95.923363
v -207.890121 81.310341 105.987221
v -170.822617 94.705429 124.158539
v -188.767838 81.310341 137.192520
v -149.314941 94.705429 149.337921
v -164.999466 81.310341 165.022430
v -124.135574 94.705429 170.837875
v -137.177429 81.310341 188.783066
v -95.900368 94.705429 188.143829
v -105.972153 81.310341 207.905350
v -65.310928 94.705421 200.819336
v -72.163177 81.310333 221.913803
v -33.107845 94.705421 208.544662
v -36.576839 81.310333 230.457672
v -0.094019 94.705421 211.148361
v -0.094032 81.310333 233.326508
v 32.912029 94.705421 208.552490
v 36.381001 81.310333 230.457703
v 65.115150 94.705421 200.819397
v 71.967354 81.310333 221.921707
v 95.704597 94.705414 188.151749
v 105.784134 81.310326 207.913284
v 123.947609 94.705414 170.845840
v 136.989410 81.310326 188.798737
v 149.126999 94.705414 149.345917
v 164.819275 81.317123 165.030426
v 170.634735 94.705414 124.166542
v 188.587692 81.317123 137.200531
v 187.940689 94.705414 95.931290
v 207.710022 81.317123 106.003059
v 200.616165 94.705414 65.334145
v 221.718506 81.317123 72.186295
v 208.349274 94.705414 33.130985
v 230.262344 81.317123 36.599957
v 210.945175 94.705414 0.117203
v 233.138901 81.317123 0.117216
v 208.349304 94.705414 -32.896671
v 230.270203 81.317123 -36.365620
v 200.624039 94.705414 -65.099747
v 221.726364 81.317123 -71.959778
v 187.948608 94.705414 -95.696999
v 207.725723 81.317123 -105.776573
v 170.642670 94.705414 -123.932281
v 188.603455 81.317123 -136.981873
v 149.134964 94.705414 -149.119476
v 164.827255 81.317123 -164.811691
v 123.955589 94.705414 -170.627136
v 136.997421 81.317123 -188.580139
v 95.720390 94.705414 -187.933090
v 105.792168 81.317123 -207.702393
v 65.123161 94.705421 -200.600769
v 71.975403 81.317131 -221.710938
v 32.920071 94.705421 -208.333893
v 36.389065 81.317131 -230.254807
v -0.093781 94.705421 -210.929794
v -0.093769 81.317131 -233.123550
v -33.115391 94.705421 -208.333923
v -36.584385 81.317131 -230.247025
v -65.310707 94.705421 -200.600830
v -72.170715 81.317131 -221.703232
v -95.907967 94.705429 -187.925415
v -105.979698 81.317139 -207.694809
v -124.143173 94.705429 -170.619476
v -137.184998 81.317139 -188.572495
v -149.322586 94.705429 -149.111847
v -165.014847 81.317139 -164.796265
v -170.830292 94.705429 -123.924667
v -188.783249 81.317139 -136.966461
v -188.128494 94.705429 -95.689407
v -207.897797 81.317139 -105.761192
v -200.803925 94.705429 -65.092163
v -221.898499 81.317139 -71.952217
v -208.529251 94.705429 -32.896908
v -230.442337 81.310341 -36.365879
v -211.125153 94.705429 0.116965
v -182.289703 101.555580 0.116982
v -180.044647 101.555580 28.617191
v -173.371735 101.555580 56.415874
v -162.426910 101.555580 82.826950
v -147.490768 101.555580 107.203415
v -128.921967 101.555580 128.944977
v -107.188210 101.555580 147.513840
v -82.811745 101.555573 162.449921
v -56.400692 101.555573 173.386978
v -28.602036 101.555573 180.059967
v -0.101786 101.555573 182.305054
v 28.406250 101.555573 180.067795
v 56.204941 101.555573 173.394836
v 82.616013 101.555573 162.450012
v 106.992462 101.555565 147.513962
v 128.734070 101.555565 128.952942
v 147.302887 101.555565 107.211388
v 162.239029 101.555565 82.834938
v 173.183884 101.555565 56.423882
v 179.856827 101.555565 28.617393
v 182.101944 101.555565 0.117187
v 179.864655 101.555565 -28.383114
v 173.191742 101.555565 -56.189606
v 162.246902 101.555565 -82.600677
v 147.310806 101.555565 -106.977066
v 128.742004 101.555565 -128.718719
v 107.000420 101.555565 -147.287491
v 82.623985 101.555573 -162.231461
v 56.205135 101.555573 -173.168518
v 28.406454 101.555573 -179.841507
v -0.101580 101.555573 -182.086594
v -28.601831 101.555573 -179.841537
v -56.400497 101.555573 -173.168579
v -82.811562 101.555573 -162.223755
v -107.195831 101.555580 -147.287613
v -128.929626 101.555580 -128.718872
v -147.498459 101.555580 -106.977234
v -162.434616 101.555580 -82.600861
v -173.371674 101.555580 -56.181995
v -180.044617 101.555580 -28.383316
v -157.897675 100.857025 0.116995
v -155.956635 100.857025 24.805244
v -150.172394 100.857025 48.877651
v -140.700912 100.857025 71.757408
v -127.760422 100.857025 92.867516
v -111.678375 100.857025 111.693596
v -92.852325 100.857025 127.775673
v -71.734383 100.857018 140.716171
v -48.862465 100.857018 150.187729
v -24.782257 100.857018 155.971939
v -0.101772 100.857018 157.913071
v 24.586498 100.857018 155.971970
v 48.666714 100.857018 150.187790
v 71.538651 100.857018 140.716263
v 92.656593 100.857010 127.783585
v 111.482674 100.857010 111.701523
v 127.564751 100.857010 92.867653
v 140.505249 100.857010 71.757561
v 149.976761 100.857010 48.877819
v 155.761017 100.857010 24.805420
v 157.702103 100.857010 0.117173
v 155.761047 100.857010 -24.571167
v 149.984619 100.857010 -48.643574
v 140.505325 100.857010 -71.523239
v 127.564850 100.857010 -92.641243
v 111.490593 100.857010 -111.467339
v 92.656738 100.857010 -127.549408
v 71.546600 100.857018 -140.489914
v 48.666882 100.857018 -149.961380
v 24.586674 100.857018 -155.745682
v -0.101594 100.857018 -157.686707
v -24.782082 100.857018 -155.745712
v -48.862297 100.857018 -149.961441
v -71.742027 100.857018 -140.490005
v -92.852180 100.857025 -127.549515
v -111.686050 100.857025 -111.467461
v -127.760323 100.857025 -92.633575
v -140.700836 100.857025 -71.523392
v -150.172333 100.857025 -48.643742
v -155.956604 100.857025 -24.571342
v -232.648499 -88.118805 36.950504
v -235.540619 -88.118805 0.116952
v -216.122055 -100.978081 0.116962
v -213.463806 -100.978081 -33.676495
v -232.640686 -88.118805 -36.716686
v -205.551361 -100.978081 -66.635719
v -224.018875 -88.118805 -72.638229
v -192.571915 -100.978081 -97.957909
v -209.877853 -88.112015 -106.766785
v -174.860550 -100.978081 -126.855751
v -190.568420 -88.112015 -138.268311
v -152.846146 -100.978081 -152.627548
v -166.573975 -88.112015 -166.363235
v -127.066498 -100.978081 -174.642014
v -138.479034 -88.112015 -190.349854
v -98.168655 -100.978081 -192.353302
v -106.977531 -88.105217 -209.651428
v -66.846436 -100.978088 -205.324890
v -72.848938 -88.105225 -223.784561
v -33.887154 -100.978088 -213.237335
v -36.927395 -88.105225 -232.406326
v -0.093787 -100.978088 -215.895569
v -0.093775 -88.105225 -235.306274
v 33.691795 -100.978088 -213.237305
v 36.732059 -88.105225 -232.406296
v 66.651085 -100.978088 -205.317017
v 72.653603 -88.105225 -223.776764
v 97.965492 -100.978096 -192.345383
v 106.782181 -88.105232 -209.643509
v 126.871094 -100.978096 -174.634064
v 138.275894 -88.105232 -190.341904
v 152.642929 -100.978096 -152.619553
v 166.370758 -88.105232 -166.347443
v 174.657318 -100.978096 -126.847748
v 190.357422 -88.105232 -138.260300
v 192.368622 -100.978096 -97.949890
v 209.659012 -88.105232 -106.758827
v 205.340271 -100.978096 -66.635490
v 223.799957 -88.105232 -72.630157
v 213.252670 -100.978096 -33.676250
v 232.421738 -88.105232 -36.708622
v 215.910904 -100.978096 0.117206
v 235.321640 -88.105232 0.117217
v 213.252625 -100.978096 33.910572
v 232.429489 -88.105232 36.942955
v 205.340195 -100.978096 66.869797
v 223.807678 -88.112030 72.864494
v 192.368515 -100.978096 98.184166
v 209.666672 -88.112030 107.000946
v 174.664978 -100.978096 127.089821
v 190.372849 -88.112030 138.502380
v 152.650543 -100.978096 152.861618
v 166.378387 -88.112030 166.589508
v 126.878685 -100.978096 174.883896
v 138.291260 -88.118820 190.583923
v 97.973068 -100.978096 192.595169
v 106.789742 -88.118820 209.893326
v 66.658638 -100.978088 205.566788
v 72.653351 -88.118813 224.034271
v 33.691555 -100.978088 213.479233
v 36.731800 -88.118813 232.656036
v -0.094031 -100.978088 216.145264
v -0.094041 -88.125603 235.563766
v -33.895199 -100.978088 213.486923
v -36.927654 -88.125603 232.663803
v -66.854454 -100.978088 205.574524
v -72.856972 -88.125603 224.041977
v -98.176659 -100.978081 192.602859
v -106.985550 -88.125595 209.901016
v -127.074478 -100.978081 174.891541
v -138.494858 -88.125595 190.599380
v -152.854126 -100.978081 152.869232
v -166.581909 -88.125595 166.604935
v -174.868500 -100.978081 127.097427
v -190.576385 -88.125595 138.509979
v -192.579834 -100.978081 98.191765
v -209.885773 -88.125595 107.008507
v -205.551437 -100.978081 66.869568
v -224.018951 -88.125595 72.872040
v -213.463852 -100.978081 33.910328
v -190.724442 -109.354263 0.116977
v -188.370193 -109.354263 -29.700779
v -181.393188 -109.354263 -58.785694
v -169.941635 -109.354263 -86.420631
v -154.311707 -109.354263 -111.927391
v -134.885376 -109.354263 -134.666809
v -112.138161 -109.354263 -154.093109
v -86.639168 -109.354271 -169.722961
v -59.004196 -109.354271 -181.166718
v -29.919271 -109.354271 -188.151459
v -0.093802 -109.354271 -190.497910
v 29.723885 -109.354271 -188.151428
v 58.801018 -109.354271 -181.166656
v 86.435974 -109.354271 -169.715164
v 111.942757 -109.354279 -154.092987
v 134.682144 -109.354279 -134.666656
v 154.108444 -109.354279 -111.919418
v 169.738358 -109.354279 -86.420433
v 181.182098 -109.354279 -58.785488
v 188.166824 -109.354279 -29.700565
v 190.513260 -109.354279 0.117192
v 188.166794 -109.354279 29.934856
v 181.189835 -109.354279 59.019772
v 169.746048 -109.354279 86.654709
v 154.116119 -109.354279 112.161453
v 134.689789 -109.354279 134.908676
v 111.942581 -109.354279 154.334976
v 86.443581 -109.354271 169.964920
v 58.808605 -109.354271 181.408600
v 29.723673 -109.354271 188.393326
v -0.094017 -109.354271 190.739777
v -29.919483 -109.354271 188.393295
v -59.004402 -109.354271 181.408539
v -86.639359 -109.354271 169.964828
v -112.146141 -109.354263 154.334854
v -134.893311 -109.354263 134.908524
v -154.319626 -109.354263 112.161285
v -169.949554 -109.354263 86.662315
v -181.393250 -109.354263 59.027370
v -188.377991 -109.354263 29.934643
v -165.584045 -110.398750 0.116991
v -163.541580 -110.398750 -25.771807
v -157.484482 -110.398750 -51.021343
v -147.545273 -110.398750 -75.008064
v -133.973328 -110.398750 -97.154968
v -117.111687 -110.398750 -116.893051
v -97.365761 -110.398750 -133.762497
v -75.226608 -110.398758 -147.326630
v -51.232117 -110.398758 -157.265778
v -25.982569 -110.398758 -163.322891
v -0.101599 -110.398758 -165.365280
v 25.787153 -110.398758 -163.322861
v 51.036713 -110.398758 -157.265717
v 75.031174 -110.398758 -147.326538
v 97.170319 -110.398766 -133.762375
v 116.916245 -110.398766 -116.892914
v 133.777847 -110.398766 -97.147003
v 147.341949 -110.398766 -75.007896
v 157.281174 -110.398766 -51.021168
v 163.346039 -110.398766 -25.771624
v 165.380646 -110.398766 0.117178
v 163.346008 -110.398766 26.005884
v 157.281113 -110.398766 51.255421
v 147.349670 -110.398766 75.242142
v 133.777740 -110.398766 97.381233
v 116.916115 -110.398766 117.127213
v 97.170166 -110.398766 133.996567
v 75.031006 -110.398758 147.560699
v 51.036533 -110.398758 157.499939
v 25.786968 -110.398758 163.564758
v -0.101785 -110.398758 165.599335
v -25.982754 -110.398758 163.564728
v -51.232296 -110.398758 157.499878
v -75.226776 -110.398758 147.568405
v -97.365913 -110.398750 133.996445
v -117.111816 -110.398750 117.134880
v -133.981216 -110.398750 97.388893
v -147.545349 -110.398750 75.241974
v -157.484543 -110.398750 51.255245
v -163.541611 -110.398750 26.005701
v -138.393402 -104.348907 0.117006
v -136.686188 -104.348907 -21.515444
v -131.626923 -104.348907 -42.617825
v -123.316933 -104.348907 -62.659973
v -111.982292 -104.348907 -81.166466
v -97.888062 -104.348907 -97.661690
v -81.385048 -104.348915 -111.755898
v -62.886375 -104.348915 -123.098282
v -42.836407 -104.348915 -131.400391
v -21.734066 -104.348915 -136.467438
v -0.101614 -104.348915 -138.166916
v 21.530815 -104.348915 -136.467407
v 42.633175 -104.348915 -131.400330
v 62.683128 -104.348915 -123.098206
v 81.181793 -104.348915 -111.755806
v 97.684799 -104.348923 -97.661583
v 111.779007 -104.348923 -81.166344
v 123.113617 -104.348923 -62.659836
v 131.423569 -104.348923 -42.617680
v 136.482834 -104.348923 -21.515291
v 138.190033 -104.348923 0.117162
v 136.482819 -104.348923 21.757326
v 131.423523 -104.348923 42.851902
v 123.113548 -104.348923 62.901859
v 111.778915 -104.348923 81.408348
v 97.684685 -104.348923 97.903564
v 81.181664 -104.348915 111.997772
v 62.682991 -104.348915 123.340157
v 42.633026 -104.348915 131.642349
v 21.530661 -104.348915 136.709305
v -0.101770 -104.348915 138.408783
v -21.734221 -104.348915 136.709274
v -42.836555 -104.348915 131.642288
v -62.886513 -104.348915 123.340080
v -81.385178 -104.348915 111.997681
v -97.888176 -104.348907 97.903458
v -111.982384 -104.348907 81.408226
v -123.317001 -104.348907 62.901722
v -131.626968 -104.348907 42.851757
v -136.686203 -104.348907 21.757174
vt 0.000000 1.000000
vt 0.000010 0.999990
vt 0.000020 0.999980
vt 0.000030 0.999970
vt 0.000040 0.999960
vt 0.000060 0.999940
vt 0.000070 0.999930
vt 0.000100 0.999900
vt 0.000120 0.999880
vt 0.000170 0.999830
vt 0.000220 0.999780
vt 0.000290 0.999710
vt 0.000380 0.999620
vt 0.000480 0.999520
vt 0.000660 0.999340
vt 0.000850 0.999140
vt 0.000860 0.999140
vt 0.001120 0.998880
vt 0.001510 0.998490
vt 0.001890 0.998110
vt 0.001900 0.998100
vt 0.002610 0.997390
vt 0.002630 0.997370
vt 0.003390 0.996610
vt 0.004400 0.995600
vt 0.004430 0.995570
vt 0.005960 0.994040
vt 0.005990 0.994010
vt 0.007510 0.992490
vt 0.000660 0.999330
vt 0.000010 0.999980
vt 0.000000 0.999990
vt 0.002990 0.997010
vt 0.001450 0.998550
vt 0.001260 0.998740
vt 0.003380 0.996630
vt 0.006930 0.993070
vt 0.007660 0.992340
vt 0.007120 0.992880
vt 0.007760 0.992240
vt 0.006510 0.993490
vt 0.005870 0.994130
vt 0.005260 0.994740
vt 0.004610 0.995380
vt 0.004000 0.995990
vt 0.003650 0.996350
vt 0.003330 0.996670
vt 0.003020 0.996980
vt 0.002700 0.997300
vt 0.002400 0.997600
vt 0.002080 0.997920
vt 0.001860 0.998140
vt 0.001710 0.998290
vt 0.001550 0.998450
vt 0.001400 0.998600
vt 0.001240 0.998760
vt 0.001080 0.998920
vt 0.000950 0.999050
vt 0.000870 0.999130
vt 0.000880 0.999120
vt 0.001250 0.998750
vt 0.001560 0.998440
vt 0.001870 0.998130
vt 0.002090 0.997910
vt 0.002410 0.997590
vt 0.002720 0.997280
vt 0.003350 0.996650
vt 0.004040 0.995970
vt 0.004650 0.995350
vt 0.005290 0.994710
vt 0.005900 0.994100
vt 0.006540 0.993460
vt 0.007150 0.992850
vt 0.007790 0.992210
vt 0.005930 0.994070
vt 0.004680 0.995320
vt 0.004070 0.995930
vt 0.003670 0.996330
vt 0.003360 0.996640
vt 0.003040 0.996960
vt 0.002740 0.997260
vt 0.002430 0.997570
vt 0.002110 0.997890
vt 0.001880 0.998120
vt 0.001730 0.998270
vt 0.001570 0.998430
vt 0.001410 0.998590
vt 0.001100 0.998900
vt 0.000960 0.999040
vt 0.001720 0.998280
vt 0.000050 0.999950
vt 0.000090 0.999910
vt 0.000080 0.999920
vt 0.000530 0.999460
vt 0.000450 0.999550
vt 0.001690 0.998310
vt 0.002470 0.997530
vt 0.002500 0.997500
vt 0.003220 0.996780
vt 0.006660 0.993340
vt 0.007540 0.992460
vt 0.000280 0.999720
vt 0.000350 0.999650
vt 0.000270 0.999730
vt 0.000110 0.999890
vt 0.000150 0.999850
vt 0.000140 0.999860
vt 0.000180 0.999820
vt 0.000130 0.999870
vt 0.000360 0.999640
vt 0.000410 0.999590
vt 0.000210 0.999790
vt 0.000370 0.999630
vt 0.000590 0.999410
vt 0.000430 0.999570
vt 0.000890 0.999110
vt 0.000650 0.999350
vt 0.001280 0.998720
vt 0.001630 0.998370
vt 0.001840 0.998160
vt 0.001270 0.998730
vt 0.001910 0.998090
vt 0.001340 0.998660
vt 0.000610 0.999390
vt 0.000910 0.999090
vt 0.001330 0.998670
vt 0.001680 0.998320
vt 0.001990 0.998010
vt 0.000400 0.999600
vt 0.000760 0.999240
vt 0.000680 0.999320
vt 0.001440 0.998560
vt 0.002490 0.997510
vt 0.001010 0.998990
vt 0.003730 0.996270
vt 0.005380 0.994620
vt 0.002260 0.997740
vt 0.006870 0.993130
vt 0.000210 0.999800
vt 0.000280 0.999710
vt 0.000440 0.999560
vt 0.000580 0.999410
vt 0.000670 0.999330
vt 0.001610 0.998390
vt 0.001310 0.998690
vt 0.001830 0.998180
vt 0.001370 0.998620
vt 0.000580 0.999420
vt 0.000420 0.999580
vt 0.000620 0.999380
vt 0.000830 0.999170
vt 0.001000 0.999000
vt 0.001190 0.998810
vt 0.754061 0.629462
vt 0.730692 0.667614
vt 0.727498 0.665302
vt 0.701641 0.701640
vt 0.698848 0.698864
vt 0.667614 0.730691
vt 0.665303 0.727514
vt 0.629462 0.754061
vt 0.627681 0.750562
vt 0.588133 0.771187
vt 0.586913 0.767447
vt 0.544636 0.781635
vt 0.544010 0.777751
vt 0.500032 0.785134
vt 0.500032 0.781218
vt 0.455428 0.781635
vt 0.456054 0.777751
vt 0.411932 0.771187
vt 0.413152 0.767447
vt 0.370586 0.754061
vt 0.372384 0.750562
vt 0.332450 0.730692
vt 0.334762 0.727514
vt 0.298424 0.701640
vt 0.301216 0.698864
vt 0.269372 0.667614
vt 0.272566 0.665303
vt 0.245987 0.629462
vt 0.249502 0.627696
vt 0.228861 0.588132
vt 0.232617 0.586929
vt 0.218429 0.544636
vt 0.222329 0.544026
vt 0.214914 0.500032
vt 0.218862 0.500048
vt 0.218429 0.455428
vt 0.222329 0.456054
vt 0.228861 0.411932
vt 0.232617 0.413152
vt 0.245987 0.370586
vt 0.249502 0.372384
vt 0.269356 0.332434
vt 0.272566 0.334778
vt 0.298423 0.298424
vt 0.301216 0.301216
vt 0.332434 0.269356
vt 0.334761 0.272566
vt 0.370586 0.245987
vt 0.372383 0.249518
vt 0.411916 0.228861
vt 0.413151 0.232633
vt 0.455428 0.218412
vt 0.456054 0.222329
vt 0.500032 0.214913
vt 0.500032 0.218862
vt 0.544636 0.218412
vt 0.544010 0.222329
vt 0.588133 0.228861
vt 0.586913 0.232633
vt 0.629462 0.245987
vt 0.627680 0.249518
vt 0.667614 0.269372
vt 0.665303 0.272566
vt 0.698848 0.301216
vt 0.701641 0.298424
vt 0.727498 0.334778
vt 0.730692 0.332434
vt 0.750562 0.372384
vt 0.754077 0.370586
vt 0.767447 0.413151
vt 0.771187 0.411932
vt 0.777735 0.456054
vt 0.781636 0.455428
vt 0.781202 0.500032
vt 0.785151 0.500032
vt 0.777735 0.544026
vt 0.781636 0.544636
vt 0.767447 0.586929
vt 0.771187 0.588132
vt 0.750562 0.627696
vt 0.980195 0.500032
vt 0.974272 0.575147
vt 0.929170 0.568005
vt 0.913249 0.634293
vt 0.956681 0.648401
vt 0.887151 0.697291
vt 0.927854 0.718012
vt 0.851535 0.755425
vt 0.888483 0.782261
vt 0.807252 0.807268
vt 0.839545 0.839561
vt 0.755409 0.851535
vt 0.782261 0.888483
vt 0.697275 0.887167
vt 0.718012 0.927854
vt 0.634293 0.913264
vt 0.648402 0.956697
vt 0.567989 0.929170
vt 0.575132 0.974288
vt 0.500016 0.934531
vt 0.500016 0.980195
vt 0.432059 0.929186
vt 0.424916 0.974288
vt 0.365755 0.913264
vt 0.351647 0.956713
vt 0.302773 0.887183
vt 0.282020 0.927870
vt 0.244623 0.851551
vt 0.217771 0.888515
vt 0.192780 0.807284
vt 0.160471 0.839577
vt 0.148497 0.755441
vt 0.111533 0.782277
vt 0.112865 0.697307
vt 0.072162 0.718044
vt 0.086767 0.634309
vt 0.043319 0.648418
vt 0.070846 0.568005
vt 0.025728 0.575148
vt 0.065501 0.500032
vt 0.019805 0.500032
vt 0.070846 0.432059
vt 0.025712 0.424916
vt 0.086751 0.365755
vt 0.043303 0.351631
vt 0.112849 0.302757
vt 0.072130 0.282004
vt 0.148481 0.244623
vt 0.111501 0.217754
vt 0.192764 0.192764
vt 0.160455 0.160455
vt 0.244607 0.148481
vt 0.217754 0.111517
vt 0.302741 0.112849
vt 0.282004 0.072146
vt 0.365739 0.086768
vt 0.351630 0.043303
vt 0.432043 0.070846
vt 0.424900 0.025712
vt 0.500016 0.065501
vt 0.500016 0.019805
vt 0.568005 0.070846
vt 0.575148 0.025728
vt 0.634293 0.086768
vt 0.648418 0.043319
vt 0.697291 0.112865
vt 0.718028 0.072161
vt 0.755425 0.148497
vt 0.782278 0.111533
vt 0.807268 0.192780
vt 0.839577 0.160487
vt 0.851551 0.244639
vt 0.888515 0.217786
vt 0.887167 0.302773
vt 0.927870 0.282036
vt 0.913265 0.365771
vt 0.956697 0.351646
vt 0.929170 0.432059
vt 0.974288 0.424916
vt 0.934515 0.500032
vt 0.875145 0.500032
vt 0.870522 0.558712
vt 0.856783 0.615948
vt 0.834249 0.670326
vt 0.803496 0.720516
vt 0.765264 0.765280
vt 0.720516 0.803512
vt 0.670326 0.834264
vt 0.615948 0.856783
vt 0.558712 0.870522
vt 0.500032 0.875145
vt 0.441336 0.870538
vt 0.384100 0.856799
vt 0.329722 0.834265
vt 0.279532 0.803512
vt 0.234768 0.765296
vt 0.196536 0.720532
vt 0.165783 0.670342
vt 0.143249 0.615964
vt 0.129510 0.558712
vt 0.124887 0.500032
vt 0.129493 0.441352
vt 0.143233 0.384100
vt 0.165767 0.329722
vt 0.196520 0.279532
vt 0.234752 0.234768
vt 0.279516 0.196536
vt 0.329706 0.165767
vt 0.384100 0.143249
vt 0.441336 0.129509
vt 0.500032 0.124887
vt 0.558712 0.129509
vt 0.615948 0.143249
vt 0.670326 0.165783
vt 0.720532 0.196536
vt 0.765280 0.234768
vt 0.803512 0.279532
vt 0.834265 0.329722
vt 0.856783 0.384116
vt 0.870522 0.441352
vt 0.824923 0.500032
vt 0.820927 0.550863
vt 0.809018 0.600427
vt 0.789516 0.647535
vt 0.762873 0.690999
vt 0.729761 0.729761
vt 0.690999 0.762872
vt 0.647519 0.789516
vt 0.600427 0.809017
vt 0.550848 0.820927
vt 0.500032 0.824923
vt 0.449201 0.820927
vt 0.399621 0.809017
vt 0.352529 0.789516
vt 0.309049 0.762889
vt 0.270287 0.729777
vt 0.237175 0.690999
vt 0.210532 0.647535
vt 0.191031 0.600427
vt 0.179121 0.550864
vt 0.175125 0.500032
vt 0.179121 0.449200
vt 0.191015 0.399637
vt 0.210532 0.352529
vt 0.237175 0.309049
vt 0.270271 0.270287
vt 0.309049 0.237175
vt 0.352513 0.210532
vt 0.399621 0.191031
vt 0.449201 0.179121
vt 0.500032 0.175125
vt 0.550847 0.179121
vt 0.600427 0.191031
vt 0.647535 0.210532
vt 0.690999 0.237175
vt 0.729777 0.270287
vt 0.762873 0.309065
vt 0.789516 0.352529
vt 0.809018 0.399637
vt 0.820927 0.449200
usemtl Material.003
s off
f 587/1 588/1 589/1
f 590/1 587/1 589/1
f 591/1 587/1 590/1
f 590/1 589/1 592/1
f 592/1 593/1 590/1
f 593/1 592/1 594/1
f 594/1 595/1 593/1
f 595/1 594/1 596/1
f 596/1 597/1 595/1
f 597/1 596/1 598/1
f 598/1 599/1 597/1
f 599/1 598/1 600/1
f 600/1 601/1 599/1
f 601/1 600/1 602/1
f 602/1 603/1 601/1
f 603/1 602/1 604/1
f 604/1 605/1 603/1
f 605/1 604/1 606/1
f 606/1 607/1 605/1
f 607/1 606/1 608/1
f 608/1 609/1 607/1
f 609/1 608/1 610/1
f 610/1 611/1 609/1
f 611/1 610/1 612/1
f 612/1 613/1 611/1
f 613/1 612/1 614/1
f 614/1 615/1 613/1
f 615/1 614/1 616/1
f 616/1 617/1 615/1
f 618/1 617/1 616/1
f 616/1 619/1 618/1
f 620/1 618/1 619/1
f 619/1 621/1 620/1
f 622/2 620/1 621/1
f 621/1 623/2 622/2
f 624/2 622/2 623/2
f 623/2 625/2 624/2
f 626/3 624/2 625/2
f 625/2 627/3 626/3
f 628/4 626/3 627/3
f 627/3 629/4 628/4
f 630/5 628/4 629/4
f 629/4 631/5 630/5
f 632/6 630/5 631/5
f 631/5 633/6 632/6
f 634/7 632/6 633/6
f 633/6 635/7 634/7
f 636/8 634/7 635/7
f 635/7 637/8 636/8
f 636/8 637/8 638/9
f 638/9 639/9 636/8
f 639/9 638/9 640/10
f 640/10 641/10 639/9
f 641/10 640/10 642/11
f 642/11 643/11 641/10
f 643/11 642/11 644/12
f 644/12 645/12 643/11
f 645/12 644/12 646/13
f 646/13 647/13 645/12
f 647/13 646/13 648/14
f 648/14 649/14 647/13
f 650/15 649/14 648/14
f 648/14 651/15 650/15
f 650/15 651/15 652/16
f 652/16 653/17 650/15
f 653/17 652/16 654/18
f 654/18 655/18 653/17
f 655/18 654/18 656/19
f 656/19 657/19 655/18
f 657/19 656/19 658/20
f 658/20 659/21 657/19
f 659/21 658/20 660/22
f 660/22 661/23 659/21
f 661/23 660/22 662/24
f 662/24 663/24 661/23
f 663/24 662/24 664/25
f 664/25 665/26 663/24
f 665/26 664/25 666/27
f 666/27 667/28 665/26
f 667/28 666/27 588/29
f 588/29 587/29 667/28
f 667/28 587/29 668/28
f 587/29 591/29 668/28
f 668/28 591/29 669/29
f 669/29 670/27 668/28
f 670/27 669/29 671/29
f 671/29 672/27 670/27
f 672/27 671/29 673/29
f 673/29 674/27 672/27
f 675/25 672/27 674/27
f 674/27 676/25 675/25
f 677/24 675/25 676/25
f 676/25 678/24 677/24
f 677/24 678/24 679/22
f 679/22 680/22 677/24
f 680/22 679/22 681/20
f 681/20 682/20 680/22
f 682/20 681/20 683/19
f 683/19 684/19 682/20
f 684/19 683/19 685/18
f 685/18 686/18 684/19
f 686/18 685/18 687/16
f 687/16 688/16 686/18
f 688/16 687/16 689/30
f 689/30 690/30 688/16
f 690/30 689/30 691/14
f 691/14 692/14 690/30
f 692/14 691/14 693/13
f 693/13 694/13 692/14
f 694/13 693/13 695/12
f 695/12 696/12 694/13
f 697/11 696/12 695/12
f 695/12 698/11 697/11
f 699/10 697/11 698/11
f 698/11 700/10 699/10
f 701/9 699/10 700/10
f 700/10 702/9 701/9
f 703/8 701/9 702/9
f 702/9 704/8 703/8
f 705/7 703/8 704/8
f 704/8 706/7 705/7
f 707/6 705/7 706/7
f 706/7 708/6 707/6
f 709/5 707/6 708/6
f 708/6 710/5 709/5
f 711/4 709/5 710/5
f 710/5 712/4 711/4
f 713/3 711/4 712/4
f 712/4 714/3 713/3
f 715/2 713/3 714/3
f 714/3 716/2 715/2
f 717/2 715/2 716/2
f 716/2 718/2 717/2
f 719/1 717/2 718/2
f 718/2 720/1 719/1
f 721/1 719/1 720/1
f 720/1 722/1 721/1
f 723/1 721/1 722/1
f 722/1 724/1 723/1
f 725/1 723/1 724/1
f 724/1 726/1 725/1
f 727/1 725/1 726/1
f 726/1 728/1 727/1
f 729/1 727/1 728/1
f 728/1 730/1 729/1
f 731/1 729/1 730/1
f 730/1 732/1 731/1
f 733/1 731/1 732/1
f 732/1 734/1 733/1
f 735/1 733/1 734/1
f 734/1 736/1 735/1
f 737/1 735/1 736/1
f 736/1 738/1 737/1
f 739/1 737/1 738/1
f 738/1 740/1 739/1
f 741/1 739/1 740/1
f 740/1 742/1 741/1
f 743/1 741/1 742/1
f 742/1 744/1 743/1
f 745/1 743/1 744/1
f 744/1 746/1 745/1
f 747/1 745/1 746/1
f 746/1 748/1 747/1
f 749/1 747/1 748/1
f 748/1 750/1 749/1
f 750/1 673/1 671/1
f 671/1 749/1 750/1
f 749/1 671/1 669/1
f 669/1 751/1 749/1
f 747/1 749/1 751/1
f 751/1 669/1 591/1
f 591/1 752/1 751/1
f 590/1 752/1 591/1
f 752/1 590/1 593/1
f 593/1 753/1 752/1
f 753/1 593/1 595/1
f 595/1 754/1 753/1
f 754/1 595/1 597/1
f 597/1 755/1 754/1
f 755/1 597/1 599/1
f 599/1 756/1 755/1
f 756/1 599/1 601/1
f 601/1 757/1 756/1
f 757/1 601/1 603/1
f 603/1 758/1 757/1
f 758/1 603/1 605/1
f 605/1 759/1 758/1
f 759/1 605/1 607/1
f 607/1 760/1 759/1
f 760/1 607/1 609/1
f 609/1 761/1 760/1
f 761/1 609/1 611/1
f 611/1 762/1 761/1
f 762/1 611/1 613/1
f 613/1 763/1 762/1
f 763/1 613/1 615/1
f 615/1 764/1 763/1
f 764/1 615/1 617/1
f 617/1 765/1 764/1
f 765/1 617/1 618/1
f 618/1 766/1 765/1
f 766/1 618/1 620/1
f 620/1 767/1 766/1
f 767/1 620/1 622/2
f 622/2 768/2 767/1
f 768/2 622/2 624/2
f 624/2 769/2 768/2
f 769/2 624/2 626/3
f 626/3 770/3 769/2
f 770/3 626/3 628/4
f 628/4 771/4 770/3
f 771/4 628/4 630/5
f 630/5 772/5 771/4
f 772/5 630/5 632/6
f 632/6 773/6 772/5
f 773/6 632/6 634/7
f 634/7 774/7 773/6
f 774/7 634/7 636/8
f 636/8 775/8 774/7
f 775/8 636/8 639/9
f 639/9 776/9 775/8
f 776/9 639/9 641/10
f 641/10 777/10 776/9
f 777/10 641/10 643/11
f 643/11 778/11 777/10
f 778/11 643/11 645/12
f 645/12 779/12 778/11
f 779/12 645/12 647/13
f 647/13 780/13 779/12
f 780/13 647/13 649/14
f 649/14 781/14 780/13
f 781/14 649/14 650/15
f 650/15 782/30 781/14
f 782/30 650/15 653/17
f 653/17 783/17 782/30
f 783/17 653/17 655/18
f 655/18 784/18 783/17
f 784/18 655/18 657/19
f 657/19 785/19 784/18
f 785/19 657/19 659/21
f 659/21 786/21 785/19
f 786/21 659/21 661/23
f 661/23 787/22 786/21
f 787/22 661/23 663/24
f 663/24 788/24 787/22
f 788/24 663/24 665/26
f 665/26 789/26 788/24
f 789/26 665/26 667/28
f 667/28 668/28 789/26
f 789/26 668/28 670/27
f 670/27 790/26 789/26
f 788/24 789/26 790/26
f 790/26 670/27 672/27
f 672/27 675/25 790/26
f 791/24 790/26 675/25
f 790/26 791/24 788/24
f 787/22 788/24 791/24
f 675/25 677/24 791/24
f 792/22 791/24 677/24
f 791/24 792/22 787/22
f 786/21 787/22 792/22
f 677/24 680/22 792/22
f 793/20 792/22 680/22
f 792/22 793/20 786/21
f 785/19 786/21 793/20
f 680/22 682/20 793/20
f 794/19 793/20 682/20
f 793/20 794/19 785/19
f 784/18 785/19 794/19
f 682/20 684/19 794/19
f 795/18 794/19 684/19
f 794/19 795/18 784/18
f 783/17 784/18 795/18
f 684/19 686/18 795/18
f 796/16 795/18 686/18
f 795/18 796/16 783/17
f 782/30 783/17 796/16
f 686/18 688/16 796/16
f 797/30 796/16 688/16
f 796/16 797/30 782/30
f 781/14 782/30 797/30
f 688/16 690/30 797/30
f 798/14 797/30 690/30
f 797/30 798/14 781/14
f 780/13 781/14 798/14
f 690/30 692/14 798/14
f 799/13 798/14 692/14
f 798/14 799/13 780/13
f 779/12 780/13 799/13
f 692/14 694/13 799/13
f 800/12 799/13 694/13
f 799/13 800/12 779/12
f 778/11 779/12 800/12
f 694/13 696/12 800/12
f 801/11 800/12 696/12
f 800/12 801/11 778/11
f 777/10 778/11 801/11
f 696/12 697/11 801/11
f 802/10 801/11 697/11
f 801/11 802/10 777/10
f 776/9 777/10 802/10
f 697/11 699/10 802/10
f 803/9 802/10 699/10
f 802/10 803/9 776/9
f 775/8 776/9 803/9
f 699/10 701/9 803/9
f 804/8 803/9 701/9
f 803/9 804/8 775/8
f 774/7 775/8 804/8
f 701/9 703/8 804/8
f 805/7 804/8 703/8
f 804/8 805/7 774/7
f 773/6 774/7 805/7
f 703/8 705/7 805/7
f 806/6 805/7 705/7
f 805/7 806/6 773/6
f 772/5 773/6 806/6
f 705/7 707/6 806/6
f 807/5 806/6 707/6
f 806/6 807/5 772/5
f 771/4 772/5 807/5
f 707/6 709/5 807/5
f 808/4 807/5 709/5
f 807/5 808/4 771/4
f 770/3 771/4 808/4
f 709/5 711/4 808/4
f 809/3 808/4 711/4
f 808/4 809/3 770/3
f 769/2 770/3 809/3
f 711/4 713/3 809/3
f 810/2 809/3 713/3
f 809/3 810/2 769/2
f 768/2 769/2 810/2
f 713/3 715/2 810/2
f 811/2 810/2 715/2
f 810/2 811/2 768/2
f 767/1 768/2 811/2
f 715/2 717/2 811/2
f 812/1 811/2 717/2
f 811/2 812/1 767/1
f 766/1 767/1 812/1
f 717/2 719/1 812/1
f 813/1 812/1 719/1
f 812/1 813/1 766/1
f 765/1 766/1 813/1
f 719/1 721/1 813/1
f 814/1 813/1 721/1
f 813/1 814/1 765/1
f 764/1 765/1 814/1
f 721/1 723/1 814/1
f 815/1 814/1 723/1
f 814/1 815/1 764/1
f 763/1 764/1 815/1
f 723/1 725/1 815/1
f 816/1 815/1 725/1
f 815/1 816/1 763/1
f 762/1 763/1 816/1
f 725/1 727/1 816/1
f 817/1 816/1 727/1
f 816/1 817/1 762/1
f 761/1 762/1 817/1
f 727/1 729/1 817/1
f 818/1 817/1 729/1
f 817/1 818/1 761/1
f 760/1 761/1 818/1
f 729/1 731/1 818/1
f 819/1 818/1 731/1
f 818/1 819/1 760/1
f 759/1 760/1 819/1
f 731/1 733/1 819/1
f 820/1 819/1 733/1
f 819/1 820/1 759/1
f 758/1 759/1 820/1
f 733/1 735/1 820/1
f 821/1 820/1 735/1
f 820/1 821/1 758/1
f 757/1 758/1 821/1
f 735/1 737/1 821/1
f 822/1 821/1 737/1
f 821/1 822/1 757/1
f 756/1 757/1 822/1
f 737/1 739/1 822/1
f 823/1 822/1 739/1
f 822/1 823/1 756/1
f 755/1 756/1 823/1
f 739/1 741/1 823/1
f 824/1 823/1 741/1
f 823/1 824/1 755/1
f 754/1 755/1 824/1
f 741/1 743/1 824/1
f 825/1 824/1 743/1
f 824/1 825/1 754/1
f 753/1 754/1 825/1
f 743/1 745/1 825/1
f 826/1 825/1 745/1
f 825/1 826/1 753/1
f 752/1 753/1 826/1
f 826/1 751/1 752/1
f 751/1 826/1 747/1
f 745/1 747/1 826/1
usemtl Material.003_tyre.tga
f 1067/1 1068/1 1069/1
f 1070/1 1069/1 1068/1
f 1068/1 1071/1 1070/1
f 1072/1 1070/1 1071/1
f 1071/1 1073/1 1072/1
f 1074/1 1072/1 1073/1
f 1073/1 1075/1 1074/1
f 1076/1 1074/1 1075/1
f 1075/1 1077/1 1076/1
f 1078/1 1076/1 1077/1
f 1077/1 1079/1 1078/1
f 1080/1 1078/1 1079/1
f 1079/1 1081/1 1080/1
f 1082/1 1080/1 1081/1
f 1081/1 1083/1 1082/1
f 1084/1 1082/1 1083/1
f 1083/1 1085/1 1084/1
f 1086/1 1084/1 1085/1
f 1085/1 1087/1 1086/1
f 1088/1 1086/1 1087/1
f 1087/1 1089/1 1088/1
f 1090/1 1088/1 1089/1
f 1089/1 1091/1 1090/1
f 1092/1 1090/1 1091/1
f 1091/1 1093/1 1092/1
f 1094/1 1092/1 1093/1
f 1093/1 1095/1 1094/1
f 1096/1 1094/1 1095/1
f 1095/1 1097/1 1096/1
f 1098/1 1096/1 1097/1
f 1097/1 1099/1 1098/1
f 1100/1 1098/1 1099/1
f 1099/1 1101/1 1100/1
f 1102/1 1100/1 1101/1
f 1101/1 1103/1 1102/1
f 1104/1 1102/1 1103/1
f 1103/1 1105/1 1104/1
f 1106/1 1104/1 1105/1
f 1105/1 1107/1 1106/1
f 1108/1 1106/1 1107/1
f 1107/1 1109/1 1108/1
f 1110/1 1108/1 1109/1
f 1109/1 1111/1 1110/1
f 1112/1 1110/1 1111/1
f 1111/1 1113/1 1112/1
f 1114/1 1112/1 1113/1
f 1113/1 1115/1 1114/1
f 1116/1 1114/1 1115/1
f 1115/1 1117/1 1116/1
f 1118/1 1116/1 1117/1
f 1117/1 1119/2 1118/1
f 1120/2 1118/1 1119/2
f 1119/2 1121/2 1120/2
f 1122/2 1120/2 1121/2
f 1121/2 1123/3 1122/2
f 1124/31 1122/2 1123/3
f 1123/3 1125/3 1124/31
f 1126/3 1124/31 1125/3
f 1125/3 1127/4 1126/3
f 1128/3 1126/3 1127/4
f 1127/4 1129/4 1128/3
f 1130/3 1128/3 1129/4
f 1129/4 1131/4 1130/3
f 1132/31 1130/3 1131/4
f 1131/4 1133/3 1132/31
f 1134/2 1132/31 1133/3
f 1133/3 1135/3 1134/2
f 1136/2 1134/2 1135/3
f 1135/3 1137/2 1136/2
f 1138/1 1136/2 1137/2
f 1137/2 1139/2 1138/1
f 1140/1 1138/1 1139/2
f 1139/2 1141/1 1140/1
f 1142/1 1140/1 1141/1
f 1141/1 1143/1 1142/1
f 1144/1 1142/1 1143/1
f 1143/1 1145/1 1144/1
f 1146/1 1144/1 1145/1
f 1145/1 1067/1 1146/1
f 1069/1 1146/1 1067/1
f 1146/1 1069/1 1147/1
f 1148/1 1147/1 1069/1
f 1069/1 1070/1 1148/1
f 1149/1 1148/1 1070/1
f 1070/1 1072/1 1149/1
f 1150/1 1149/1 1072/1
f 1072/1 1074/1 1150/1
f 1151/1 1150/1 1074/1
f 1074/1 1076/1 1151/1
f 1152/1 1151/1 1076/1
f 1076/1 1078/1 1152/1
f 1153/1 1152/1 1078/1
f 1078/1 1080/1 1153/1
f 1154/1 1153/1 1080/1
f 1080/1 1082/1 1154/1
f 1155/1 1154/1 1082/1
f 1082/1 1084/1 1155/1
f 1156/1 1155/1 1084/1
f 1084/1 1086/1 1156/1
f 1157/1 1156/1 1086/1
f 1086/1 1088/1 1157/1
f 1158/1 1157/1 1088/1
f 1088/1 1090/1 1158/1
f 1159/1 1158/1 1090/1
f 1090/1 1092/1 1159/1
f 1160/1 1159/1 1092/1
f 1092/1 1094/1 1160/1
f 1161/1 1160/1 1094/1
f 1094/1 1096/1 1161/1
f 1162/1 1161/1 1096/1
f 1096/1 1098/1 1162/1
f 1163/1 1162/1 1098/1
f 1098/1 1100/1 1163/1
f 1164/1 1163/1 1100/1
f 1100/1 1102/1 1164/1
f 1165/1 1164/1 1102/1
f 1102/1 1104/1 1165/1
f 1166/1 1165/1 1104/1
f 1104/1 1106/1 1166/1
f 1167/1 1166/1 1106/1
f 1106/1 1108/1 1167/1
f 1168/1 1167/1 1108/1
f 1108/1 1110/1 1168/1
f 1169/1 1168/1 1110/1
f 1110/1 1112/1 1169/1
f 1170/1 1169/1 1112/1
f 1112/1 1114/1 1170/1
f 1171/1 1170/1 1114/1
f 1114/1 1116/1 1171/1
f 1172/1 1171/1 1116/1
f 1116/1 1118/1 1172/1
f 1173/32 1172/1 1118/1
f 1118/1 1120/2 1173/32
f 1174/2 1173/32 1120/2
f 1120/2 1122/2 1174/2
f 1175/2 1174/2 1122/2
f 1122/2 1124/31 1175/2
f 1176/2 1175/2 1124/31
f 1124/31 1126/3 1176/2
f 1177/2 1176/2 1126/3
f 1126/3 1128/3 1177/2
f 1178/2 1177/2 1128/3
f 1128/3 1130/3 1178/2
f 1179/2 1178/2 1130/3
f 1130/3 1132/31 1179/2
f 1180/2 1179/2 1132/31
f 1132/31 1134/2 1180/2
f 1181/32 1180/2 1134/2
f 1134/2 1136/2 1181/32
f 1182/1 1181/32 1136/2
f 1136/2 1138/1 1182/1
f 1183/1 1182/1 1138/1
f 1138/1 1140/1 1183/1
f 1184/1 1183/1 1140/1
f 1140/1 1142/1 1184/1
f 1185/1 1184/1 1142/1
f 1142/1 1144/1 1185/1
f 1186/1 1185/1 1144/1
f 1144/1 1146/1 1186/1
f 1147/1 1186/1 1146/1
f 1186/1 1147/1 1187/1
f 1188/1 1187/1 1147/1
f 1147/1 1148/1 1188/1
f 1189/1 1188/1 1148/1
f 1148/1 1149/1 1189/1
f 1190/1 1189/1 1149/1
f 1149/1 1150/1 1190/1
f 1191/1 1190/1 1150/1
f 1150/1 1151/1 1191/1
f 1192/1 1191/1 1151/1
f 1151/1 1152/1 1192/1
f 1193/1 1192/1 1152/1
f 1152/1 1153/1 1193/1
f 1194/1 1193/1 1153/1
f 1153/1 1154/1 1194/1
f 1195/1 1194/1 1154/1
f 1154/1 1155/1 1195/1
f 1196/1 1195/1 1155/1
f 1155/1 1156/1 1196/1
f 1197/1 1196/1 1156/1
f 1156/1 1157/1 1197/1
f 1198/1 1197/1 1157/1
f 1157/1 1158/1 1198/1
f 1199/1 1198/1 1158/1
f 1158/1 1159/1 1199/1
f 1200/1 1199/1 1159/1
f 1159/1 1160/1 1200/1
f 1201/1 1200/1 1160/1
f 1160/1 1161/1 1201/1
f 1202/1 1201/1 1161/1
f 1161/1 1162/1 1202/1
f 1203/1 1202/1 1162/1
f 1162/1 1163/1 1203/1
f 1204/1 1203/1 1163/1
f 1163/1 1164/1 1204/1
f 1205/1 1204/1 1164/1
f 1164/1 1165/1 1205/1
f 1206/1 1205/1 1165/1
f 1165/1 1166/1 1206/1
f 1207/1 1206/1 1166/1
f 1166/1 1167/1 1207/1
f 1208/1 1207/1 1167/1
f 1167/1 1168/1 1208/1
f 1209/1 1208/1 1168/1
f 1168/1 1169/1 1209/1
f 1210/1 1209/1 1169/1
f 1169/1 1170/1 1210/1
f 1211/1 1210/1 1170/1
f 1170/1 1171/1 1211/1
f 1212/1 1211/1 1171/1
f 1171/1 1172/1 1212/1
f 1213/1 1212/1 1172/1
f 1172/1 1173/32 1213/1
f 1214/1 1213/1 1173/32
f 1173/32 1174/2 1214/1
f 1215/32 1214/1 1174/2
f 1174/2 1175/2 1215/32
f 1216/2 1215/32 1175/2
f 1175/2 1176/2 1216/2
f 1217/2 1216/2 1176/2
f 1176/2 1177/2 1217/2
f 1218/2 1217/2 1177/2
f 1177/2 1178/2 1218/2
f 1219/32 1218/2 1178/2
f 1178/2 1179/2 1219/32
f 1220/1 1219/32 1179/2
f 1179/2 1180/2 1220/1
f 1221/1 1220/1 1180/2
f 1180/2 1181/32 1221/1
f 1222/1 1221/1 1181/32
f 1181/32 1182/1 1222/1
f 1223/1 1222/1 1182/1
f 1182/1 1183/1 1223/1
f 1224/1 1223/1 1183/1
f 1183/1 1184/1 1224/1
f 1225/1 1224/1 1184/1
f 1184/1 1185/1 1225/1
f 1226/1 1225/1 1185/1
f 1185/1 1186/1 1226/1
f 1187/1 1226/1 1186/1
f 1226/1 1187/1 1227/1
f 1228/1 1227/1 1187/1
f 1187/1 1188/1 1228/1
f 1229/1 1228/1 1188/1
f 1188/1 1189/1 1229/1
f 1230/1 1229/1 1189/1
f 1189/1 1190/1 1230/1
f 1231/1 1230/1 1190/1
f 1190/1 1191/1 1231/1
f 1232/1 1231/1 1191/1
f 1191/1 1192/1 1232/1
f 1233/1 1232/1 1192/1
f 1192/1 1193/1 1233/1
f 1234/1 1233/1 1193/1
f 1193/1 1194/1 1234/1
f 1235/1 1234/1 1194/1
f 1194/1 1195/1 1235/1
f 1236/1 1235/1 1195/1
f 1195/1 1196/1 1236/1
f 1237/1 1236/1 1196/1
f 1196/1 1197/1 1237/1
f 1238/1 1237/1 1197/1
f 1197/1 1198/1 1238/1
f 1239/1 1238/1 1198/1
f 1198/1 1199/1 1239/1
f 1240/1 1239/1 1199/1
f 1199/1 1200/1 1240/1
f 1241/1 1240/1 1200/1
f 1200/1 1201/1 1241/1
f 1242/1 1241/1 1201/1
f 1201/1 1202/1 1242/1
f 1243/1 1242/1 1202/1
f 1202/1 1203/1 1243/1
f 1244/1 1243/1 1203/1
f 1203/1 1204/1 1244/1
f 1245/1 1244/1 1204/1
f 1204/1 1205/1 1245/1
f 1246/1 1245/1 1205/1
f 1205/1 1206/1 1246/1
f 1247/1 1246/1 1206/1
f 1206/1 1207/1 1247/1
f 1248/1 1247/1 1207/1
f 1207/1 1208/1 1248/1
f 1249/1 1248/1 1208/1
f 1208/1 1209/1 1249/1
f 1250/1 1249/1 1209/1
f 1209/1 1210/1 1250/1
f 1251/1 1250/1 1210/1
f 1210/1 1211/1 1251/1
f 1252/1 1251/1 1211/1
f 1211/1 1212/1 1252/1
f 1253/1 1252/1 1212/1
f 1212/1 1213/1 1253/1
f 1254/1 1253/1 1213/1
f 1213/1 1214/1 1254/1
f 1255/1 1254/1 1214/1
f 1214/1 1215/32 1255/1
f 1256/1 1255/1 1215/32
f 1215/32 1216/2 1256/1
f 1257/1 1256/1 1216/2
f 1216/2 1217/2 1257/1
f 1258/1 1257/1 1217/2
f 1217/2 1218/2 1258/1
f 1259/1 1258/1 1218/2
f 1218/2 1219/32 1259/1
f 1260/1 1259/1 1219/32
f 1219/32 1220/1 1260/1
f 1261/1 1260/1 1220/1
f 1220/1 1221/1 1261/1
f 1262/1 1261/1 1221/1
f 1221/1 1222/1 1262/1
f 1263/1 1262/1 1222/1
f 1222/1 1223/1 1263/1
f 1264/1 1263/1 1223/1
f 1223/1 1224/1 1264/1
f 1265/1 1264/1 1224/1
f 1224/1 1225/1 1265/1
f 1266/1 1265/1 1225/1
f 1225/1 1226/1 1266/1
f 1227/1 1266/1 1226/1
usemtl Material.001
f 1/33 2/34 3/34
f 4/33 1/33 3/34
f 2/34 5/35 6/35
f 6/35 3/34 2/34
f 7/36 1/33 4/33
f 4/33 8/36 7/36
f 9/37 7/36 8/36
f 8/36 10/37 9/37
f 11/38 9/37 10/37
f 10/37 12/38 11/38
f 13/33 14/34 15/34
f 15/34 16/33 13/33
f 14/34 17/35 18/35
f 18/35 15/34 14/34
f 19/36 13/33 16/33
f 16/33 20/36 19/36
f 21/37 19/36 20/36
f 20/36 22/37 21/37
f 23/38 21/37 22/37
f 22/37 24/38 23/38
f 25/33 26/34 27/34
f 27/34 28/33 25/33
f 26/34 29/35 30/35
f 30/35 27/34 26/34
f 31/36 25/33 28/33
f 28/33 32/36 31/36
f 33/37 31/36 32/36
f 32/36 34/37 33/37
f 35/38 33/37 34/37
f 34/37 36/38 35/38
f 37/33 38/34 39/34
f 39/34 40/33 37/33
f 38/34 41/35 42/35
f 42/35 39/34 38/34
f 43/36 37/33 40/33
f 40/33 44/36 43/36
f 45/37 43/36 44/36
f 44/36 46/37 45/37
f 47/38 45/37 46/37
f 46/37 48/38 47/38
f 49/33 50/34 51/34
f 51/34 52/33 49/33
f 50/34 53/35 54/35
f 54/35 51/34 50/34
f 55/36 49/33 52/33
f 52/33 56/36 55/36
f 57/37 55/36 56/36
f 56/36 58/37 57/37
f 59/38 57/37 58/37
f 58/37 60/38 59/38
f 61/33 62/34 63/34
f 63/34 64/33 61/33
f 62/34 65/35 66/35
f 66/35 63/34 62/34
f 67/36 61/33 64/33
f 64/33 68/36 67/36
f 69/37 67/36 68/36
f 68/36 70/37 69/37
f 71/38 69/37 70/37
f 70/37 72/38 71/38
f 73/33 74/34 75/34
f 75/34 76/33 73/33
f 74/34 77/35 78/35
f 78/35 75/34 74/34
f 79/36 73/33 76/33
f 76/33 80/36 79/36
f 81/37 79/36 80/36
f 80/36 82/37 81/37
f 83/38 81/37 82/37
f 82/37 84/38 83/38
f 85/39 86/40 87/40
f 87/40 88/39 85/39
f 89/41 85/39 88/39
f 88/39 90/41 89/41
f 91/42 89/41 90/41
f 90/41 92/42 91/42
f 93/43 91/42 92/42
f 92/42 94/43 93/43
f 95/44 93/43 94/43
f 94/43 96/44 95/44
f 97/45 95/44 96/44
f 96/44 98/45 97/45
f 99/46 97/45 98/45
f 98/45 100/46 99/46
f 101/47 99/46 100/46
f 100/46 102/47 101/47
f 103/48 101/47 102/47
f 102/47 104/48 103/48
f 105/49 103/48 104/48
f 104/48 106/49 105/49
f 107/50 105/49 106/49
f 106/49 108/50 107/50
f 109/51 107/50 108/50
f 108/50 110/51 109/51
f 111/52 109/51 110/51
f 110/51 112/52 111/52
f 113/53 111/52 112/52
f 112/52 114/53 113/53
f 115/54 113/53 114/53
f 114/53 116/54 115/54
f 117/55 115/54 116/54
f 116/54 118/55 117/55
f 119/56 117/55 118/55
f 118/55 120/56 119/56
f 121/57 119/56 120/56
f 120/56 122/57 121/57
f 123/58 121/57 122/57
f 122/57 124/58 123/58
f 125/59 123/58 124/58
f 124/58 126/59 125/59
f 127/58 87/60 86/60
f 86/60 128/58 127/58
f 129/57 127/58 128/58
f 128/58 130/57 129/57
f 131/61 129/57 130/57
f 130/57 132/61 131/61
f 133/55 131/61 132/61
f 132/61 134/55 133/55
f 135/62 133/55 134/55
f 134/55 136/62 135/62
f 137/53 135/62 136/62
f 136/62 138/53 137/53
f 139/63 137/53 138/53
f 138/53 140/63 139/63
f 141/64 139/63 140/63
f 140/63 142/64 141/64
f 143/65 141/64 142/64
f 142/64 144/65 143/65
f 145/66 143/65 144/65
f 144/65 146/66 145/66
f 147/48 145/66 146/66
f 146/66 148/48 147/48
f 149/67 147/48 148/48
f 148/48 150/67 149/67
f 151/46 149/67 150/67
f 150/67 152/46 151/46
f 153/68 151/46 152/46
f 152/46 154/68 153/68
f 155/69 153/68 154/68
f 154/68 156/69 155/69
f 157/70 155/69 156/69
f 156/69 158/70 157/70
f 159/71 157/70 158/70
f 158/70 160/71 159/71
f 161/72 159/71 160/71
f 160/71 162/72 161/72
f 163/73 161/72 162/72
f 162/72 164/73 163/73
f 126/40 163/73 164/73
f 164/73 125/40 126/40
f 165/73 166/74 167/74
f 167/74 168/73 165/73
f 169/72 165/73 168/73
f 168/73 170/72 169/72
f 171/75 169/72 170/72
f 170/72 172/75 171/75
f 173/70 171/75 172/75
f 172/75 174/70 173/70
f 175/76 173/70 174/70
f 174/70 176/76 175/76
f 177/77 175/76 176/76
f 176/76 178/77 177/77
f 179/78 177/77 178/77
f 178/77 180/78 179/78
f 181/79 179/78 180/78
f 180/78 182/79 181/79
f 183/80 181/79 182/79
f 182/79 184/80 183/80
f 185/81 183/80 184/80
f 184/80 186/81 185/81
f 185/81 186/81 187/82
f 187/82 188/82 185/81
f 189/83 188/82 187/82
f 187/82 190/83 189/83
f 191/84 189/83 190/83
f 190/83 192/84 191/84
f 193/85 191/84 192/84
f 192/84 194/85 193/85
f 195/86 193/85 194/85
f 194/85 196/86 195/86
f 197/87 195/86 196/86
f 196/86 198/87 197/87
f 199/61 197/87 198/87
f 198/87 200/61 199/61
f 201/88 199/61 200/61
f 200/61 202/88 201/88
f 203/89 201/88 202/88
f 202/88 204/89 203/89
f 205/60 203/89 204/89
f 204/89 206/60 205/60
f 207/89 167/60 166/60
f 166/60 208/89 207/89
f 209/88 207/89 208/89
f 208/89 210/88 209/88
f 211/61 209/88 210/88
f 210/88 212/61 211/61
f 213/87 211/61 212/61
f 212/61 214/87 213/87
f 215/86 213/87 214/87
f 214/87 216/86 215/86
f 217/90 215/86 216/86
f 216/86 218/90 217/90
f 219/84 217/90 218/90
f 218/90 220/84 219/84
f 221/83 219/84 220/84
f 220/84 222/83 221/83
f 223/65 221/83 222/83
f 222/83 224/65 223/65
f 225/81 223/65 224/65
f 224/65 226/81 225/81
f 227/80 225/81 226/81
f 226/81 228/80 227/80
f 229/67 227/80 228/80
f 228/80 230/67 229/67
f 231/78 229/67 230/67
f 230/67 232/78 231/78
f 233/68 231/78 232/78
f 232/78 234/68 233/68
f 235/76 233/68 234/68
f 234/68 236/76 235/76
f 237/70 235/76 236/76
f 236/76 238/70 237/70
f 239/71 237/70 238/70
f 238/70 240/71 239/71
f 241/72 239/71 240/71
f 240/71 242/72 241/72
f 243/73 241/72 242/72
f 242/72 244/73 243/73
f 206/40 243/73 244/73
f 244/73 205/40 206/40
f 263/1 264/1 5/1
f 5/1 2/1 263/1
f 265/1 263/1 2/1
f 2/1 1/1 265/1
f 1/1 266/2 265/1
f 266/2 1/1 267/1
f 1/1 7/1 267/1
f 267/1 7/1 268/1
f 268/1 7/1 9/1
f 9/1 269/1 268/1
f 269/1 9/1 11/1
f 11/1 270/1 269/1
f 267/1 271/2 266/2
f 266/2 271/2 272/2
f 267/1 273/1 271/2
f 273/1 274/32 271/2
f 275/1 274/32 273/1
f 276/32 274/32 275/1
f 277/1 276/32 275/1
f 271/2 278/2 272/2
f 272/2 278/2 279/3
f 279/3 278/2 280/4
f 281/3 279/3 280/4
f 281/3 280/4 282/5
f 282/5 280/4 283/5
f 280/4 284/91 283/5
f 285/6 283/5 284/91
f 285/6 284/91 286/6
f 287/7 285/6 286/6
f 287/7 286/6 288/92
f 288/92 286/6 289/92
f 286/6 290/93 289/92
f 291/92 289/92 290/93
f 291/92 290/93 292/93
f 293/8 291/92 292/93
f 293/8 292/93 294/8
f 294/8 292/93 295/93
f 292/93 296/6 295/93
f 297/6 295/93 296/6
f 297/6 296/6 298/91
f 299/6 297/6 298/91
f 299/6 298/91 300/5
f 300/5 298/91 301/5
f 298/91 302/4 301/5
f 301/5 302/4 303/3
f 303/3 302/4 304/2
f 305/3 303/3 304/2
f 305/3 304/2 306/2
f 306/2 304/2 307/2
f 304/2 308/2 307/2
f 307/2 308/2 309/32
f 309/32 308/2 276/32
f 310/1 309/32 276/32
f 310/1 276/32 277/1
f 310/1 277/1 73/1
f 73/1 277/1 311/1
f 74/1 73/1 311/1
f 311/1 312/1 74/1
f 77/1 74/1 312/1
f 312/1 313/1 77/1
f 73/1 79/1 310/1
f 310/1 79/1 314/1
f 314/1 79/1 81/1
f 81/1 315/1 314/1
f 315/1 81/1 83/1
f 83/1 316/1 315/1
f 67/2 305/3 306/2
f 305/3 67/2 317/2
f 317/2 67/2 69/2
f 69/2 318/2 317/2
f 318/2 69/2 71/2
f 71/2 319/2 318/2
f 306/2 61/2 67/2
f 61/2 306/2 320/2
f 62/1 61/2 320/2
f 320/2 321/1 62/1
f 65/1 62/1 321/1
f 321/1 322/1 65/1
f 323/94 324/95 264/95
f 264/95 263/94 323/94
f 325/19 323/94 263/94
f 263/94 265/18 325/19
f 265/18 266/19 325/19
f 326/96 325/19 266/19
f 266/19 272/96 326/96
f 326/96 272/96 279/51
f 279/51 327/51 326/96
f 328/97 327/51 279/51
f 279/51 281/98 328/97
f 281/98 329/99 328/97
f 330/100 328/97 329/99
f 329/99 331/100 330/100
f 332/101 330/100 331/100
f 331/100 333/101 332/101
f 269/100 270/101 334/101
f 334/101 335/100 269/100
f 268/99 269/100 335/100
f 335/100 336/97 268/99
f 267/98 268/99 336/97
f 273/51 267/98 336/97
f 336/97 337/51 273/51
f 273/51 337/51 338/96
f 338/96 275/96 273/51
f 277/19 275/96 338/96
f 338/96 339/19 277/19
f 311/18 277/19 339/19
f 312/94 311/18 339/19
f 339/19 340/94 312/94
f 313/95 312/94 340/94
f 340/94 341/95 313/95
f 342/6 343/7 17/91
f 17/91 14/91 342/6
f 344/5 342/6 14/91
f 14/91 13/4 344/5
f 13/4 282/5 344/5
f 19/4 282/5 13/4
f 281/3 282/5 19/4
f 281/3 19/4 329/3
f 329/3 19/4 21/2
f 21/2 331/2 329/3
f 331/2 21/2 23/2
f 23/2 333/2 331/2
f 345/94 346/95 343/95
f 343/95 342/94 345/94
f 347/19 345/94 342/94
f 342/94 344/18 347/19
f 344/18 282/19 347/19
f 348/96 347/19 282/19
f 282/19 283/96 348/96
f 349/51 348/96 283/96
f 283/96 285/51 349/51
f 350/97 349/51 285/51
f 285/51 287/98 350/97
f 287/98 351/99 350/97
f 352/100 350/97 351/99
f 351/99 353/100 352/100
f 354/101 352/100 353/100
f 353/100 355/101 354/101
f 356/102 357/103 29/12
f 29/12 26/104 356/102
f 358/105 356/102 26/104
f 26/104 25/105 358/105
f 25/105 288/92 358/105
f 287/7 288/92 25/105
f 25/105 31/8 287/7
f 287/7 31/8 351/92
f 351/92 31/8 33/106
f 33/106 353/107 351/92
f 353/107 33/106 35/108
f 35/108 355/109 353/107
f 359/94 360/95 357/95
f 357/95 356/94 359/94
f 361/19 359/94 356/94
f 356/94 358/18 361/19
f 358/18 288/19 361/19
f 362/96 361/19 288/19
f 288/19 289/96 362/96
f 363/51 362/96 289/96
f 289/96 291/51 363/51
f 364/97 363/51 291/51
f 291/51 293/98 364/97
f 293/98 365/98 364/97
f 366/100 364/97 365/98
f 365/98 367/100 366/100
f 368/101 366/100 367/100
f 367/100 369/101 368/101
f 370/104 371/12 41/103
f 41/103 38/12 370/104
f 372/9 370/104 38/12
f 38/12 37/107 372/9
f 37/107 294/8 372/9
f 293/8 294/8 37/107
f 37/107 43/107 293/8
f 293/8 43/107 365/107
f 365/107 43/107 45/110
f 45/110 367/110 365/107
f 367/110 45/110 47/111
f 47/111 369/111 367/110
f 373/94 374/95 371/95
f 371/95 370/94 373/94
f 375/19 373/94 370/94
f 370/94 372/18 375/19
f 372/18 294/19 375/19
f 376/96 375/19 294/19
f 294/19 295/96 376/96
f 377/51 376/96 295/96
f 295/96 297/51 377/51
f 378/97 377/51 297/51
f 297/51 299/98 378/97
f 299/98 379/99 378/97
f 380/100 378/97 379/99
f 379/99 381/100 380/100
f 382/101 380/100 381/100
f 381/100 383/101 382/101
f 384/91 385/91 53/7
f 53/7 50/6 384/91
f 386/91 384/91 50/6
f 50/6 49/6 386/91
f 49/6 300/5 386/91
f 300/5 49/6 55/6
f 55/6 299/6 300/5
f 299/6 55/6 379/7
f 379/7 55/6 57/109
f 57/109 381/106 379/7
f 381/106 57/109 59/109
f 59/109 383/108 381/106
f 387/94 388/95 385/95
f 385/95 384/94 387/94
f 389/19 387/94 384/94
f 384/94 386/18 389/19
f 386/18 300/19 389/19
f 390/96 389/19 300/19
f 300/19 301/96 390/96
f 390/96 301/96 303/51
f 303/51 391/51 390/96
f 392/97 391/51 303/51
f 303/51 305/98 392/97
f 305/98 317/99 392/97
f 393/100 392/97 317/99
f 317/99 318/100 393/100
f 394/101 393/100 318/100
f 318/100 319/101 394/101
f 395/94 396/95 322/95
f 322/95 321/94 395/94
f 397/19 395/94 321/94
f 321/94 320/18 397/19
f 320/18 306/19 397/19
f 398/96 397/19 306/19
f 306/19 307/96 398/96
f 398/96 307/96 309/51
f 309/51 399/51 398/96
f 400/97 399/51 309/51
f 309/51 310/98 400/97
f 310/98 314/99 400/97
f 401/100 400/97 314/99
f 314/99 315/100 401/100
f 402/101 401/100 315/100
f 315/100 316/101 402/101
f 278/2 271/2 415/4
f 271/2 274/32 415/4
f 274/32 276/32 415/4
f 276/32 308/2 415/4
f 308/2 304/2 415/4
f 304/2 302/4 415/4
f 302/4 298/91 415/4
f 298/91 296/6 415/4
f 296/6 292/93 415/4
f 292/93 290/93 415/4
f 290/93 286/6 415/4
f 286/6 284/91 415/4
f 284/91 280/4 415/4
f 280/4 278/2 415/4
f 186/2 416/2 417/4
f 418/1 416/2 186/2
f 186/2 184/1 418/1
f 419/1 418/1 184/1
f 184/1 182/1 419/1
f 420/1 419/1 182/1
f 182/1 180/1 420/1
f 421/1 420/1 180/1
f 180/1 178/1 421/1
f 422/1 421/1 178/1
f 178/1 176/1 422/1
f 423/1 422/1 176/1
f 176/1 174/1 423/1
f 424/1 423/1 174/1
f 174/1 172/1 424/1
f 425/1 424/1 172/1
f 172/1 170/1 425/1
f 426/1 425/1 170/1
f 170/1 168/1 426/1
f 427/1 426/1 168/1
f 168/1 167/1 427/1
f 428/1 427/1 167/1
f 167/1 207/1 428/1
f 429/1 428/1 207/1
f 207/1 209/1 429/1
f 430/1 429/1 209/1
f 209/1 211/1 430/1
f 431/1 430/1 211/1
f 211/1 213/1 431/1
f 432/1 431/1 213/1
f 213/1 215/1 432/1
f 433/1 432/1 215/1
f 215/1 217/1 433/1
f 434/1 433/1 217/1
f 217/1 219/1 434/1
f 435/2 434/1 219/1
f 219/1 221/2 435/2
f 436/4 435/2 221/2
f 221/2 223/4 436/4
f 437/6 436/4 223/4
f 223/4 225/6 437/6
f 438/105 437/6 225/6
f 225/6 227/8 438/105
f 439/112 438/105 227/8
f 227/8 229/10 439/112
f 440/113 439/112 229/10
f 229/10 231/102 440/113
f 441/114 440/113 231/102
f 231/102 233/115 441/114
f 442/116 441/114 233/115
f 233/115 235/117 442/116
f 443/118 442/116 235/117
f 235/117 237/59 443/118
f 444/119 443/118 237/59
f 237/59 239/57 444/119
f 445/120 444/119 239/57
f 239/57 241/121 445/120
f 446/122 445/120 241/121
f 241/121 243/123 446/122
f 447/120 446/122 243/123
f 243/123 206/121 447/120
f 448/119 447/120 206/121
f 206/121 204/57 448/119
f 449/118 448/119 204/57
f 204/57 202/59 449/118
f 450/116 449/118 202/59
f 202/59 200/117 450/116
f 451/114 450/116 200/117
f 200/117 198/115 451/114
f 452/113 451/114 198/115
f 198/115 196/102 452/113
f 453/112 452/113 196/102
f 196/102 194/10 453/112
f 454/105 453/112 194/10
f 194/10 192/8 454/105
f 455/6 454/105 192/8
f 192/8 190/6 455/6
f 455/6 190/6 187/4
f 187/4 417/4 455/6
f 417/4 187/4 186/2
f 417/4 416/2 456/2
f 456/2 416/2 418/1
f 418/1 457/1 456/2
f 457/1 418/1 419/1
f 419/1 458/1 457/1
f 458/1 419/1 420/1
f 420/1 459/1 458/1
f 459/1 420/1 421/1
f 421/1 460/1 459/1
f 460/1 421/1 422/1
f 422/1 461/1 460/1
f 461/1 422/1 423/1
f 423/1 462/1 461/1
f 462/1 423/1 424/1
f 424/1 463/1 462/1
f 463/1 424/1 425/1
f 425/1 464/1 463/1
f 464/1 425/1 426/1
f 426/1 465/1 464/1
f 465/1 426/1 427/1
f 427/1 466/1 465/1
f 466/1 427/1 428/1
f 428/1 467/1 466/1
f 467/1 428/1 429/1
f 429/1 468/1 467/1
f 468/1 429/1 430/1
f 430/1 469/1 468/1
f 469/1 430/1 431/1
f 431/1 470/1 469/1
f 470/1 431/1 432/1
f 432/1 471/1 470/1
f 471/1 432/1 433/1
f 433/1 472/1 471/1
f 472/1 433/1 434/1
f 434/1 473/1 472/1
f 473/1 434/1 435/2
f 435/2 474/2 473/1
f 474/2 435/2 436/4
f 436/4 475/4 474/2
f 475/4 436/4 437/6
f 437/6 476/6 475/4
f 476/6 437/6 438/105
f 438/105 477/105 476/6
f 477/105 438/105 439/112
f 439/112 478/112 477/105
f 478/112 439/112 440/113
f 440/113 479/113 478/112
f 479/113 440/113 441/114
f 441/114 480/124 479/113
f 480/124 441/114 442/116
f 442/116 481/125 480/124
f 481/125 442/116 443/118
f 443/118 482/126 481/125
f 482/126 443/118 444/119
f 444/119 483/127 482/126
f 483/127 444/119 445/120
f 445/120 484/21 483/127
f 484/21 445/120 446/122
f 446/122 485/128 484/21
f 485/128 446/122 447/120
f 447/120 486/21 485/128
f 486/21 447/120 448/119
f 448/119 487/127 486/21
f 487/127 448/119 449/118
f 449/118 488/126 487/127
f 488/126 449/118 450/116
f 450/116 489/125 488/126
f 489/125 450/116 451/114
f 451/114 490/124 489/125
f 490/124 451/114 452/113
f 452/113 491/113 490/124
f 491/113 452/113 453/112
f 453/112 492/112 491/113
f 492/112 453/112 454/105
f 454/105 493/105 492/112
f 493/105 454/105 455/6
f 455/6 494/6 493/105
f 495/4 494/6 455/6
f 455/6 417/4 495/4
f 456/2 495/4 417/4
f 108/7 106/4 188/4
f 188/4 106/4 104/2
f 104/2 185/2 188/4
f 183/1 185/2 104/2
f 104/2 102/1 183/1
f 181/1 183/1 102/1
f 102/1 100/1 181/1
f 179/1 181/1 100/1
f 100/1 98/1 179/1
f 179/1 98/1 96/1
f 96/1 177/1 179/1
f 175/1 177/1 96/1
f 96/1 94/1 175/1
f 173/1 175/1 94/1
f 94/1 92/1 173/1
f 171/1 173/1 92/1
f 92/1 90/1 171/1
f 169/1 171/1 90/1
f 90/1 88/1 169/1
f 165/1 169/1 88/1
f 88/1 87/1 165/1
f 166/1 165/1 87/1
f 87/1 127/1 166/1
f 208/1 166/1 127/1
f 127/1 129/1 208/1
f 210/1 208/1 129/1
f 129/1 131/1 210/1
f 210/1 131/1 133/1
f 133/1 212/1 210/1
f 214/1 212/1 133/1
f 133/1 135/1 214/1
f 216/1 214/1 135/1
f 135/1 137/1 216/1
f 218/1 216/1 137/1
f 137/1 139/1 218/1
f 220/1 218/1 139/1
f 139/1 141/1 220/1
f 222/2 220/1 141/1
f 141/1 143/2 222/2
f 224/4 222/2 143/2
f 143/2 145/4 224/4
f 224/4 145/4 147/7
f 147/7 226/6 224/4
f 228/9 226/6 147/7
f 147/7 149/10 228/9
f 230/11 228/9 149/10
f 149/10 151/113 230/11
f 232/129 230/11 151/113
f 151/113 153/130 232/129
f 234/131 232/129 153/130
f 153/130 155/132 234/131
f 234/131 155/132 157/133
f 157/133 236/134 234/131
f 238/19 236/134 157/133
f 157/133 159/135 238/19
f 240/84 238/19 159/135
f 159/135 161/136 240/84
f 242/137 240/84 161/136
f 161/136 163/41 242/137
f 242/137 163/41 126/138
f 126/138 244/50 242/137
f 205/137 244/50 126/138
f 126/138 124/41 205/137
f 203/84 205/137 124/41
f 124/41 122/136 203/84
f 201/19 203/84 122/136
f 122/136 120/135 201/19
f 199/134 201/19 120/135
f 120/135 118/133 199/134
f 197/131 199/134 118/133
f 118/133 116/132 197/131
f 195/129 197/131 116/132
f 116/132 114/130 195/129
f 193/11 195/129 114/130
f 114/130 112/113 193/11
f 193/11 112/113 110/10
f 110/10 191/9 193/11
f 189/6 191/9 110/10
f 110/10 108/7 189/6
f 188/4 189/6 108/7
f 507/4 508/2 509/2
f 510/1 509/2 508/2
f 508/2 511/1 510/1
f 512/1 510/1 511/1
f 511/1 513/1 512/1
f 514/1 512/1 513/1
f 513/1 515/1 514/1
f 516/1 514/1 515/1
f 515/1 517/1 516/1
f 518/1 516/1 517/1
f 517/1 519/1 518/1
f 520/1 518/1 519/1
f 519/1 521/1 520/1
f 522/1 520/1 521/1
f 521/1 523/1 522/1
f 524/1 522/1 523/1
f 523/1 525/1 524/1
f 526/1 524/1 525/1
f 525/1 527/1 526/1
f 528/1 526/1 527/1
f 527/1 529/1 528/1
f 530/1 528/1 529/1
f 529/1 531/1 530/1
f 532/1 530/1 531/1
f 531/1 533/1 532/1
f 534/1 532/1 533/1
f 533/1 535/1 534/1
f 536/1 534/1 535/1
f 535/1 537/1 536/1
f 538/1 536/1 537/1
f 537/1 539/1 538/1
f 540/1 538/1 539/1
f 539/1 541/1 540/1
f 542/1 540/1 541/1
f 541/1 543/1 542/1
f 544/2 542/1 543/1
f 543/1 545/2 544/2
f 546/4 544/2 545/2
f 545/2 547/4 546/4
f 548/6 546/4 547/4
f 547/4 549/6 548/6
f 550/8 548/6 549/6
f 549/6 551/105 550/8
f 552/108 550/8 551/105
f 551/105 553/139 552/108
f 554/140 552/108 553/139
f 553/139 555/110 554/140
f 556/141 554/140 555/110
f 555/110 557/142 556/141
f 558/143 556/141 557/142
f 557/142 559/60 558/143
f 560/116 558/143 559/60
f 559/60 561/35 560/116
f 562/18 560/116 561/35
f 561/35 563/144 562/18
f 564/145 562/18 563/144
f 563/144 565/146 564/145
f 566/147 564/145 565/146
f 565/146 567/21 566/147
f 568/145 566/147 567/21
f 567/21 569/146 568/145
f 570/18 568/145 569/146
f 569/146 571/144 570/18
f 572/116 570/18 571/144
f 571/144 573/35 572/116
f 574/143 572/116 573/35
f 573/35 575/60 574/143
f 576/141 574/143 575/60
f 575/60 577/148 576/141
f 578/140 576/141 577/148
f 577/148 579/110 578/140
f 580/108 578/140 579/110
f 579/110 581/139 580/108
f 582/8 580/108 581/139
f 581/139 583/105 582/8
f 584/6 582/8 583/105
f 583/105 585/6 584/6
f 586/4 584/6 585/6
f 585/6 507/4 586/4
f 509/2 586/4 507/4
f 586/4 509/2 103/2
f 101/1 103/2 509/2
f 509/2 510/1 101/1
f 99/1 101/1 510/1
f 510/1 512/1 99/1
f 97/1 99/1 512/1
f 512/1 514/1 97/1
f 95/1 97/1 514/1
f 514/1 516/1 95/1
f 93/1 95/1 516/1
f 516/1 518/1 93/1
f 91/1 93/1 518/1
f 518/1 520/1 91/1
f 89/1 91/1 520/1
f 520/1 522/1 89/1
f 85/1 89/1 522/1
f 522/1 524/1 85/1
f 86/1 85/1 524/1
f 524/1 526/1 86/1
f 128/1 86/1 526/1
f 526/1 528/1 128/1
f 130/1 128/1 528/1
f 528/1 530/1 130/1
f 132/1 130/1 530/1
f 530/1 532/1 132/1
f 134/1 132/1 532/1
f 532/1 534/1 134/1
f 136/1 134/1 534/1
f 534/1 536/1 136/1
f 138/1 136/1 536/1
f 536/1 538/1 138/1
f 140/1 138/1 538/1
f 538/1 540/1 140/1
f 142/1 140/1 540/1
f 540/1 542/1 142/1
f 144/2 142/1 542/1
f 542/1 544/2 144/2
f 146/4 144/2 544/2
f 544/2 546/4 146/4
f 148/6 146/4 546/4
f 546/4 548/6 148/6
f 150/8 148/6 548/6
f 548/6 550/8 150/8
f 152/10 150/8 550/8
f 550/8 552/108 152/10
f 154/104 152/10 552/108
f 552/108 554/140 154/104
f 156/149 154/104 554/140
f 554/140 556/141 156/149
f 158/150 156/149 556/141
f 556/141 558/143 158/150
f 160/151 158/150 558/143
f 558/143 560/116 160/151
f 162/152 160/151 560/116
f 560/116 562/18 162/152
f 164/153 162/152 562/18
f 562/18 564/145 164/153
f 125/61 164/153 564/145
f 564/145 566/147 125/61
f 123/153 125/61 566/147
f 566/147 568/145 123/153
f 121/152 123/153 568/145
f 568/145 570/18 121/152
f 119/151 121/152 570/18
f 570/18 572/116 119/151
f 117/150 119/151 572/116
f 572/116 574/143 117/150
f 115/149 117/150 574/143
f 574/143 576/141 115/149
f 113/104 115/149 576/141
f 576/141 578/140 113/104
f 111/10 113/104 578/140
f 578/140 580/108 111/10
f 109/8 111/10 580/108
f 580/108 582/8 109/8
f 107/6 109/8 582/8
f 582/8 584/6 107/6
f 105/4 107/6 584/6
f 584/6 586/4 105/4
f 103/2 105/4 586/4
usemtl Material.002
f 245/1 246/1 247/1
f 247/1 248/1 245/1
f 248/1 247/1 249/1
f 249/1 250/1 248/1
f 251/1 248/1 250/1
f 245/1 248/1 251/1
f 251/1 252/1 245/1
f 250/1 253/1 251/1
f 254/1 251/1 253/1
f 252/1 251/1 254/1
f 254/1 255/1 252/1
f 253/1 256/1 254/1
f 257/1 254/1 256/1
f 255/1 254/1 257/1
f 257/1 258/1 255/1
f 256/1 259/1 257/1
f 259/1 260/1 261/1
f 261/1 257/1 259/1
f 258/1 257/1 261/1
f 261/1 262/1 258/1
f 247/1 246/1 403/1
f 403/1 404/1 247/1
f 405/1 249/1 247/1
f 247/1 404/1 405/1
f 406/1 405/1 404/1
f 404/1 403/1 407/1
f 407/1 408/1 404/1
f 404/1 408/1 406/1
f 409/1 406/1 408/1
f 408/1 407/1 410/1
f 410/1 411/1 408/1
f 408/1 411/1 409/1
f 412/1 409/1 411/1
f 411/1 410/1 413/1
f 413/1 414/1 411/1
f 411/1 414/1 412/1
f 260/1 412/1 414/1
f 414/1 261/1 260/1
f 262/1 261/1 414/1
f 414/1 413/1 262/1
f 496/1 245/1 252/1
f 246/1 245/1 496/1
f 252/1 497/1 496/1
f 497/1 252/1 255/1
f 255/1 498/1 497/1
f 498/1 255/1 258/1
f 258/1 499/1 498/1
f 499/1 258/1 262/1
f 262/1 500/1 499/1
f 500/1 262/1 413/1
f 413/1 501/1 500/1
f 501/1 413/1 410/1
f 410/1 502/1 501/1
f 502/1 410/1 407/1
f 407/1 503/1 502/1
f 503/1 407/1 403/1
f 403/1 504/1 503/1
f 504/1 403/1 246/1
f 246/1 505/1 504/1
f 496/1 505/1 246/1
f 496/1 506/1 505/1
f 505/1 506/1 504/1
f 504/1 506/1 503/1
f 503/1 506/1 502/1
f 502/1 506/1 501/1
f 501/1 506/1 500/1
f 500/1 506/1 499/1
f 499/1 506/1 498/1
f 498/1 506/1 497/1
f 497/1 506/1 496/1
usemtl Material
f 827/154 828/155 829/156
f 829/156 828/155 830/157
f 830/157 831/158 829/156
f 831/158 830/157 832/159
f 832/159 833/160 831/158
f 833/160 832/159 834/161
f 834/161 835/162 833/160
f 835/162 834/161 836/163
f 836/163 837/164 835/162
f 837/164 836/163 838/165
f 838/165 839/166 837/164
f 839/166 838/165 840/167
f 840/167 841/168 839/166
f 841/168 840/167 842/169
f 842/169 843/170 841/168
f 843/170 842/169 844/171
f 844/171 845/172 843/170
f 845/172 844/171 846/173
f 846/173 847/174 845/172
f 847/174 846/173 848/175
f 848/175 849/176 847/174
f 849/176 848/175 850/177
f 850/177 851/178 849/176
f 851/178 850/177 852/179
f 852/179 853/180 851/178
f 853/180 852/179 854/181
f 854/181 855/182 853/180
f 855/182 854/181 856/183
f 856/183 857/184 855/182
f 857/184 856/183 858/185
f 858/185 859/186 857/184
f 859/186 858/185 860/187
f 860/187 861/188 859/186
f 861/188 860/187 862/189
f 862/189 863/190 861/188
f 863/190 862/189 864/191
f 864/191 865/192 863/190
f 865/192 864/191 866/193
f 866/193 867/194 865/192
f 867/194 866/193 868/195
f 868/195 869/196 867/194
f 869/196 868/195 870/197
f 870/197 871/198 869/196
f 871/198 870/197 872/199
f 872/199 873/200 871/198
f 873/200 872/199 874/201
f 874/201 875/202 873/200
f 875/202 874/201 876/203
f 876/203 877/204 875/202
f 877/204 876/203 878/205
f 878/205 879/206 877/204
f 879/206 878/205 880/207
f 880/207 881/208 879/206
f 881/208 880/207 882/209
f 882/209 883/210 881/208
f 883/210 882/209 884/211
f 884/211 885/212 883/210
f 885/212 884/211 886/213
f 886/213 887/214 885/212
f 887/214 886/213 888/215
f 888/215 889/216 887/214
f 890/217 889/216 888/215
f 888/215 891/218 890/217
f 892/219 890/217 891/218
f 891/218 893/220 892/219
f 894/221 892/219 893/220
f 893/220 895/222 894/221
f 896/223 894/221 895/222
f 895/222 897/224 896/223
f 898/225 896/223 897/224
f 897/224 899/226 898/225
f 900/227 898/225 899/226
f 899/226 901/228 900/227
f 902/229 900/227 901/228
f 901/228 903/230 902/229
f 904/231 902/229 903/230
f 903/230 905/232 904/231
f 906/233 904/231 905/232
f 905/232 827/154 906/233
f 906/233 827/154 829/156
f 907/234 908/235 909/236
f 910/237 909/236 908/235
f 908/235 911/238 910/237
f 912/239 910/237 911/238
f 911/238 913/240 912/239
f 914/241 912/239 913/240
f 913/240 915/242 914/241
f 916/243 914/241 915/242
f 915/242 917/244 916/243
f 918/245 916/243 917/244
f 917/244 919/246 918/245
f 920/247 918/245 919/246
f 919/246 921/248 920/247
f 922/249 920/247 921/248
f 921/248 923/250 922/249
f 924/251 922/249 923/250
f 923/250 925/252 924/251
f 926/253 924/251 925/252
f 925/252 927/254 926/253
f 928/255 926/253 927/254
f 927/254 929/256 928/255
f 930/257 928/255 929/256
f 929/256 931/258 930/257
f 932/259 930/257 931/258
f 931/258 933/260 932/259
f 934/261 932/259 933/260
f 933/260 935/262 934/261
f 936/263 934/261 935/262
f 935/262 937/264 936/263
f 938/265 936/263 937/264
f 937/264 939/266 938/265
f 940/267 938/265 939/266
f 939/266 941/268 940/267
f 942/269 940/267 941/268
f 941/268 943/270 942/269
f 944/271 942/269 943/270
f 943/270 945/272 944/271
f 946/273 944/271 945/272
f 945/272 947/274 946/273
f 948/275 946/273 947/274
f 947/274 949/276 948/275
f 950/277 948/275 949/276
f 949/276 951/278 950/277
f 952/279 950/277 951/278
f 951/278 953/280 952/279
f 954/281 952/279 953/280
f 953/280 955/282 954/281
f 956/283 954/281 955/282
f 955/282 957/284 956/283
f 958/285 956/283 957/284
f 957/284 959/286 958/285
f 960/287 958/285 959/286
f 959/286 961/288 960/287
f 962/289 960/287 961/288
f 961/288 963/290 962/289
f 964/291 962/289 963/290
f 963/290 965/292 964/291
f 966/293 964/291 965/292
f 965/292 967/294 966/293
f 968/295 966/293 967/294
f 967/294 969/296 968/295
f 970/297 968/295 969/296
f 969/296 971/298 970/297
f 972/299 970/297 971/298
f 971/298 973/300 972/299
f 974/301 972/299 973/300
f 973/300 975/302 974/301
f 976/303 974/301 975/302
f 975/302 977/304 976/303
f 978/305 976/303 977/304
f 977/304 979/306 978/305
f 980/307 978/305 979/306
f 979/306 981/308 980/307
f 982/309 980/307 981/308
f 981/308 983/310 982/309
f 984/311 982/309 983/310
f 983/310 985/312 984/311
f 986/313 984/311 985/312
f 985/312 907/234 986/313
f 909/236 986/313 907/234
f 987/314 986/313 909/236
f 909/236 988/315 987/314
f 988/315 909/236 910/237
f 910/237 989/316 988/315
f 989/316 910/237 912/239
f 912/239 990/317 989/316
f 990/317 912/239 914/241
f 914/241 991/318 990/317
f 991/318 914/241 916/243
f 916/243 992/319 991/318
f 992/319 916/243 918/245
f 918/245 993/320 992/319
f 993/320 918/245 920/247
f 920/247 994/321 993/320
f 994/321 920/247 922/249
f 922/249 995/322 994/321
f 995/322 922/249 924/251
f 924/251 996/323 995/322
f 996/323 924/251 926/253
f 926/253 997/324 996/323
f 997/324 926/253 928/255
f 928/255 998/325 997/324
f 998/325 928/255 930/257
f 930/257 999/326 998/325
f 999/326 930/257 932/259
f 932/259 1000/327 999/326
f 1000/327 932/259 934/261
f 934/261 1001/328 1000/327
f 1001/328 934/261 936/263
f 936/263 1002/329 1001/328
f 1002/329 936/263 938/265
f 938/265 1003/330 1002/329
f 1003/330 938/265 940/267
f 940/267 1004/331 1003/330
f 1004/331 940/267 942/269
f 942/269 1005/332 1004/331
f 1005/332 942/269 944/271
f 944/271 1006/333 1005/332
f 1006/333 944/271 946/273
f 946/273 1007/334 1006/333
f 1007/334 946/273 948/275
f 948/275 1008/335 1007/334
f 1008/335 948/275 950/277
f 950/277 1009/336 1008/335
f 1009/336 950/277 952/279
f 952/279 1010/337 1009/336
f 1010/337 952/279 954/281
f 954/281 1011/338 1010/337
f 1011/338 954/281 956/283
f 956/283 1012/339 1011/338
f 1012/339 956/283 958/285
f 958/285 1013/340 1012/339
f 1013/340 958/285 960/287
f 960/287 1014/341 1013/340
f 1014/341 960/287 962/289
f 962/289 1015/342 1014/341
f 1015/342 962/289 964/291
f 964/291 1016/343 1015/342
f 1016/343 964/291 966/293
f 966/293 1017/344 1016/343
f 1017/344 966/293 968/295
f 968/295 1018/345 1017/344
f 1018/345 968/295 970/297
f 970/297 1019/346 1018/345
f 1019/346 970/297 972/299
f 972/299 1020/347 1019/346
f 1020/347 972/299 974/301
f 974/301 1021/348 1020/347
f 1021/348 974/301 976/303
f 976/303 1022/349 1021/348
f 1022/349 976/303 978/305
f 978/305 1023/350 1022/349
f 1023/350 978/305 980/307
f 980/307 1024/351 1023/350
f 1024/351 980/307 982/309
f 982/309 1025/352 1024/351
f 1025/352 982/309 984/311
f 984/311 1026/353 1025/352
f 1026/353 984/311 986/313
f 986/313 987/314 1026/353
f 1026/353 987/314 1027/354
f 1028/355 1027/354 987/314
f 987/314 988/315 1028/355
f 1029/356 1028/355 988/315
f 988/315 989/316 1029/356
f 1030/357 1029/356 989/316
f 989/316 990/317 1030/357
f 1031/358 1030/357 990/317
f 990/317 991/318 1031/358
f 1032/359 1031/358 991/318
f 991/318 992/319 1032/359
f 1033/360 1032/359 992/319
f 992/319 993/320 1033/360
f 1034/361 1033/360 993/320
f 993/320 994/321 1034/361
f 1035/362 1034/361 994/321
f 994/321 995/322 1035/362
f 1036/363 1035/362 995/322
f 995/322 996/323 1036/363
f 1037/364 1036/363 996/323
f 996/323 997/324 1037/364
f 1038/365 1037/364 997/324
f 997/324 998/325 1038/365
f 1039/366 1038/365 998/325
f 998/325 999/326 1039/366
f 1040/367 1039/366 999/326
f 999/326 1000/327 1040/367
f 1041/368 1040/367 1000/327
f 1000/327 1001/328 1041/368
f 1042/369 1041/368 1001/328
f 1001/328 1002/329 1042/369
f 1043/370 1042/369 1002/329
f 1002/329 1003/330 1043/370
f 1044/371 1043/370 1003/330
f 1003/330 1004/331 1044/371
f 1045/372 1044/371 1004/331
f 1004/331 1005/332 1045/372
f 1046/373 1045/372 1005/332
f 1005/332 1006/333 1046/373
f 1047/374 1046/373 1006/333
f 1006/333 1007/334 1047/374
f 1048/375 1047/374 1007/334
f 1007/334 1008/335 1048/375
f 1049/376 1048/375 1008/335
f 1008/335 1009/336 1049/376
f 1050/377 1049/376 1009/336
f 1009/336 1010/337 1050/377
f 1051/378 1050/377 1010/337
f 1010/337 1011/338 1051/378
f 1052/379 1051/378 1011/338
f 1011/338 1012/339 1052/379
f 1053/380 1052/379 1012/339
f 1012/339 1013/340 1053/380
f 1054/381 1053/380 1013/340
f 1013/340 1014/341 1054/381
f 1055/382 1054/381 1014/341
f 1014/341 1015/342 1055/382
f 1056/383 1055/382 1015/342
f 1015/342 1016/343 1056/383
f 1057/384 1056/383 1016/343
f 1016/343 1017/344 1057/384
f 1058/385 1057/384 1017/344
f 1017/344 1018/345 1058/385
f 1059/386 1058/385 1018/345
f 1018/345 1019/346 1059/386
f 1060/387 1059/386 1019/346
f 1019/346 1020/347 1060/387
f 1061/388 1060/387 1020/347
f 1020/347 1021/348 1061/388
f 1062/389 1061/388 1021/348
f 1021/348 1022/349 1062/389
f 1063/390 1062/389 1022/349
f 1022/349 1023/350 1063/390
f 1064/391 1063/390 1023/350
f 1023/350 1024/351 1064/391
f 1065/392 1064/391 1024/351
f 1024/351 1025/352 1065/392
f 1066/393 1065/392 1025/352
f 1025/352 1026/353 1066/393
f 1027/354 1066/393 1026/353
f 1066/393 1027/354 901/228
f 903/230 901/228 1027/354
f 1027/354 1028/355 903/230
f 905/232 903/230 1028/355
f 1028/355 1029/356 905/232
f 827/154 905/232 1029/356
f 1030/357 827/154 1029/356
f 828/155 827/154 1030/357
f 1030/357 1031/358 828/155
f 830/157 828/155 1031/358
f 1031/358 1032/359 830/157
f 832/159 830/157 1032/359
f 1032/359 1033/360 832/159
f 834/161 832/159 1033/360
f 1033/360 1034/361 834/161
f 836/163 834/161 1034/361
f 1034/361 1035/362 836/163
f 838/165 836/163 1035/362
f 1035/362 1036/363 838/165
f 840/167 838/165 1036/363
f 1036/363 1037/364 840/167
f 842/169 840/167 1037/364
f 1037/364 1038/365 842/169
f 844/171 842/169 1038/365
f 1038/365 1039/366 844/171
f 846/173 844/171 1039/366
f 1039/366 1040/367 846/173
f 848/175 846/173 1040/367
f 1040/367 1041/368 848/175
f 850/177 848/175 1041/368
f 1041/368 1042/369 850/177
f 852/179 850/177 1042/369
f 1042/369 1043/370 852/179
f 854/181 852/179 1043/370
f 1043/370 1044/371 854/181
f 856/183 854/181 1044/371
f 1044/371 1045/372 856/183
f 858/185 856/183 1045/372
f 1045/372 1046/373 858/185
f 860/187 858/185 1046/373
f 1046/373 1047/374 860/187
f 862/189 860/187 1047/374
f 1047/374 1048/375 862/189
f 864/191 862/189 1048/375
f 1048/375 1049/376 864/191
f 866/193 864/191 1049/376
f 1049/376 1050/377 866/193
f 868/195 866/193 1050/377
f 1050/377 1051/378 868/195
f 870/197 868/195 1051/378
f 1051/378 1052/379 870/197
f 872/199 870/197 1052/379
f 1052/379 1053/380 872/199
f 874/201 872/199 1053/380
f 1053/380 1054/381 874/201
f 876/203 874/201 1054/381
f 1054/381 1055/382 876/203
f 878/205 876/203 1055/382
f 1055/382 1056/383 878/205
f 880/207 878/205 1056/383
f 1056/383 1057/384 880/207
f 882/209 880/207 1057/384
f 1057/384 1058/385 882/209
f 884/211 882/209 1058/385
f 1058/385 1059/386 884/211
f 886/213 884/211 1059/386
f 1059/386 1060/387 886/213
f 888/215 886/213 1060/387
f 1060/387 1061/388 888/215
f 891/218 888/215 1061/388
f 1061/388 1062/389 891/218
f 893/220 891/218 1062/389
f 1062/389 1063/390 893/220
f 895/222 893/220 1063/390
f 1063/390 1064/391 895/222
f 897/224 895/222 1064/391
f 1064/391 1065/392 897/224
f 899/226 897/224 1065/392
f 1065/392 1066/393 899/226
f 901/228 899/226 1066/393
