mtllib viroad.mtl
v 0 0 0
v -0.998493 -0.0548216 0
v -1.98499 -0.218573 0
v -2.94764 -0.489286 0
v -3.87488 -0.863711 0
v -4.75559 -1.33735 0
v -5.57917 -1.90451 0
v -6.33575 -2.55838 0
v -7.01623 -3.29112 0
v -7.61244 -4.09391 0
v -8.11723 -4.95712 0
v -8.52453 -5.87038 0
v -8.82945 -6.82272 0
v -9.02833 -7.8027 0
v -9.11878 -8.79856 0
v -9.09971 -9.79834 0
v -8.97137 -10.79 0
v -8.73528 -11.7617 0
v -8.39428 -12.7017 0
v -7.95247 -13.5987 0
v -7.41516 -14.4421 0
v -6.7888 -15.2215 0
v -6.08091 -15.9277 0
v -5.29999 -16.5523 0
v -4.45543 -17.0876 0
v -3.55736 -17.5273 0
v -2.61658 -17.8661 0
v -1.64438 -18.0999 0
v -0.652432 -18.2259 0
v 0.347342 -18.2426 0
v 1.34294 -18.1498 0
v 2.3224 -17.9487 0
v 3.27397 -17.6415 0
v 4.18621 -17.2321 0
v 5.04817 -16.7253 0
v 5.8495 -16.1273 0
v 6.58057 -15.4451 0
v 7.23261 -14.6871 0
v 7.79779 -13.8622 0
v 8.26931 -12.9805 0
v 8.64151 -12.0525 0
v 8.90994 -11.0893 0
v 9.07135 -10.1026 0
v 9.12382 -9.10407 0
v 9.06672 -8.10583 0
v 8.90073 -7.11984 0
v 8.62784 -6.15793 0
v 8.25134 -5.23166 0
v 7.77574 -4.35216 0
v 7.20677 -3.52998 0
v 6.55124 -2.775 0
v 5.81704 -2.09629 0
v 5.01298 -1.50199 0
v 4.14873 -0.999246 0
v 3.23465 -0.594092 0
v 2.28173 -0.291395 0
v 1.30142 -0.0947885 0
v 0.333991 -0.00611439 0
g vroa_Circle_centerline
usemtl RED
l 1 2
f 1 2
l 2 3
f 2 3
l 3 4
f 3 4
l 4 5
f 4 5
l 5 6
f 5 6
l 6 7
f 6 7
l 7 8
f 7 8
l 8 9
f 8 9
l 9 10
f 9 10
l 10 11
f 10 11
l 11 12
f 11 12
l 12 13
f 12 13
l 13 14
f 13 14
l 14 15
f 14 15
l 15 16
f 15 16
l 16 17
f 16 17
l 17 18
f 17 18
l 18 19
f 18 19
l 19 20
f 19 20
l 20 21
f 20 21
l 21 22
f 21 22
l 22 23
f 22 23
l 23 24
f 23 24
l 24 25
f 24 25
l 25 26
f 25 26
l 26 27
f 26 27
l 27 28
f 27 28
l 28 29
f 28 29
l 29 30
f 29 30
l 30 31
f 30 31
l 31 32
f 31 32
l 32 33
f 32 33
l 33 34
f 33 34
l 34 35
f 34 35
l 35 36
f 35 36
l 36 37
f 36 37
l 37 38
f 37 38
l 38 39
f 38 39
l 39 40
f 39 40
l 40 41
f 40 41
l 41 42
f 41 42
l 42 43
f 42 43
l 43 44
f 43 44
l 44 45
f 44 45
l 45 46
f 45 46
l 46 47
f 46 47
l 47 48
f 47 48
l 48 49
f 48 49
l 49 50
f 49 50
l 50 51
f 50 51
l 51 52
f 51 52
l 52 53
f 52 53
l 53 54
f 53 54
l 54 55
f 54 55
l 55 56
f 55 56
l 56 57
f 56 57
l 57 58
f 57 58
