mtllib viroad.mtl
v 0.164177 -1.49099 0
v -0.164177 1.49099 0
v -0.834316 -1.54581 0
v -1.16267 1.43617 0
v -1.65865 -1.68264 0
v -2.31133 1.2455 0
v -2.46305 -1.90886 0
v -3.43223 0.930283 0
v -3.23787 -2.22173 0
v -4.5119 0.494309 0
v -3.9738 -2.61751 0
v -5.53737 -0.057188 0
v -4.662 -3.09144 0
v -6.49634 -0.717583 0
v -5.2942 -3.63782 0
v -7.37729 -1.47895 0
v -5.86282 -4.2501 0
v -8.16963 -2.33213 0
v -6.36103 -4.92093 0
v -8.86386 -3.26689 0
v -6.78283 -5.64223 0
v -9.45163 -4.272 0
v -7.12318 -6.40536 0
v -9.92588 -5.33539 0
v -7.37797 -7.20115 0
v -10.2809 -6.44429 0
v -7.54416 -8.02003 0
v -10.5125 -7.58537 0
v -7.61974 -8.85218 0
v -10.6178 -8.74494 0
v -7.60381 -9.6876 0
v -10.5956 -9.90907 0
v -7.49656 -10.5163 0
v -10.4462 -11.0638 0
v -7.29928 -11.3282 0
v -10.1713 -12.1952 0
v -7.01434 -12.1137 0
v -9.77422 -13.2897 0
v -6.64516 -12.8633 0
v -9.25978 -14.3342 0
v -6.19618 -13.5679 0
v -8.63414 -15.3162 0
v -5.67279 -14.2193 0
v -7.90481 -16.2238 0
v -5.08127 -14.8094 0
v -7.08054 -17.0461 0
v -4.42873 -15.3312 0
v -6.17125 -17.7733 0
v -3.72301 -15.7786 0
v -5.18784 -18.3966 0
v -2.97258 -16.146 0
v -4.14214 -18.9086 0
v -2.18646 -16.4291 0
v -3.0467 -19.3031 0
v -1.37409 -16.6244 0
v -1.91467 -19.5753 0
v -0.545214 -16.7297 0
v -0.75965 -19.722 0
v 0.2902 -16.7437 0
v 0.404484 -19.7415 0
v 1.12212 -16.6662 0
v 1.56376 -19.6335 0
v 1.94056 -16.4981 0
v 2.70424 -19.3992 0
v 2.73569 -16.2414 0
v 3.81224 -19.0416 0
v 3.49796 -15.8993 0
v 4.87446 -18.5649 0
v 4.21822 -15.4759 0
v 5.87812 -17.9748 0
v 4.88781 -14.9761 0
v 6.81119 -17.2784 0
v 5.49869 -14.4061 0
v 7.66245 -16.4841 0
v 6.04354 -13.7727 0
v 8.42169 -15.6015 0
v 6.51579 -13.0835 0
v 9.07978 -14.641 0
v 6.9098 -12.3467 0
v 9.62882 -13.6143 0
v 7.22081 -11.5712 0
v 10.0622 -12.5338 0
v 7.4451 -10.7664 0
v 10.3748 -11.4122 0
v 7.57998 -9.94189 0
v 10.5627 -10.2632 0
v 7.62383 -9.10755 0
v 10.6238 -9.10059 0
v 7.57611 -8.27342 0
v 10.5573 -7.93823 0
v 7.43741 -7.44953 0
v 10.364 -6.79014 0
v 7.20939 -6.64577 0
v 10.0463 -5.67009 0
v 6.89478 -5.87179 0
v 9.60789 -4.59154 0
v 6.49738 -5.13688 0
v 9.05411 -3.56744 0
v 6.02195 -4.44987 0
v 8.39159 -2.61009 0
v 5.47419 -3.81902 0
v 7.62829 -1.73098 0
v 4.8607 -3.25189 0
v 6.77338 -0.940684 0
v 4.18884 -2.7553 0
v 5.83713 -0.24868 0
v 3.46667 -2.33521 0
v 4.83078 0.336719 0
v 2.70288 -1.99667 0
v 3.76642 0.808483 0
v 1.90663 -1.74374 0
v 2.65683 1.16095 0
v 1.08404 -1.57895 0
v 1.5188 1.38938 0
v 0.116609 -1.49028 0
v 0.551373 1.47805 0
vt 0.15 -1.83697e-17 0
vt -0.15 1.83697e-17 0
vt 0.15 -0.1 0
vt -0.15 -0.1 0
vt 0.15 -0.2 0
vt -0.15 -0.2 0
vt 0.15 -0.3 0
vt -0.15 -0.3 0
vt 0.15 -0.4 0
vt -0.15 -0.4 0
vt 0.15 -0.5 0
vt -0.15 -0.5 0
vt 0.15 -0.6 0
vt -0.15 -0.6 0
vt 0.15 -0.7 0
vt -0.15 -0.7 0
vt 0.15 -0.8 0
vt -0.15 -0.8 0
vt 0.15 -0.9 0
vt -0.15 -0.9 0
vt 0.15 -1 0
vt -0.15 -1 0
vt 0.15 -1.1 0
vt -0.15 -1.1 0
vt 0.15 -1.2 0
vt -0.15 -1.2 0
vt 0.15 -1.3 0
vt -0.15 -1.3 0
vt 0.15 -1.4 0
vt -0.15 -1.4 0
vt 0.15 -1.5 0
vt -0.15 -1.5 0
vt 0.15 -1.6 0
vt -0.15 -1.6 0
vt 0.15 -1.7 0
vt -0.15 -1.7 0
vt 0.15 -1.8 0
vt -0.15 -1.8 0
vt 0.15 -1.9 0
vt -0.15 -1.9 0
vt 0.15 -2 0
vt -0.15 -2 0
vt 0.15 -2.1 0
vt -0.15 -2.1 0
vt 0.15 -2.2 0
vt -0.15 -2.2 0
vt 0.15 -2.3 0
vt -0.15 -2.3 0
vt 0.15 -2.4 0
vt -0.15 -2.4 0
vt 0.15 -2.5 0
vt -0.15 -2.5 0
vt 0.15 -2.6 0
vt -0.15 -2.6 0
vt 0.15 -2.7 0
vt -0.15 -2.7 0
vt 0.15 -2.8 0
vt -0.15 -2.8 0
vt 0.15 -2.9 0
vt -0.15 -2.9 0
vt 0.15 -3 0
vt -0.15 -3 0
vt 0.15 -3.1 0
vt -0.15 -3.1 0
vt 0.15 -3.2 0
vt -0.15 -3.2 0
vt 0.15 -3.3 0
vt -0.15 -3.3 0
vt 0.15 -3.4 0
vt -0.15 -3.4 0
vt 0.15 -3.5 0
vt -0.15 -3.5 0
vt 0.15 -3.6 0
vt -0.15 -3.6 0
vt 0.15 -3.7 0
vt -0.15 -3.7 0
vt 0.15 -3.8 0
vt -0.15 -3.8 0
vt 0.15 -3.9 0
vt -0.15 -3.9 0
vt 0.15 -4 0
vt -0.15 -4 0
vt 0.15 -4.1 0
vt -0.15 -4.1 0
vt 0.15 -4.2 0
vt -0.15 -4.2 0
vt 0.15 -4.3 0
vt -0.15 -4.3 0
vt 0.15 -4.4 0
vt -0.15 -4.4 0
vt 0.15 -4.5 0
vt -0.15 -4.5 0
vt 0.15 -4.6 0
vt -0.15 -4.6 0
vt 0.15 -4.7 0
vt -0.15 -4.7 0
vt 0.15 -4.8 0
vt -0.15 -4.8 0
vt 0.15 -4.9 0
vt -0.15 -4.9 0
vt 0.15 -5 0
vt -0.15 -5 0
vt 0.15 -5.1 0
vt -0.15 -5.1 0
vt 0.15 -5.2 0
vt -0.15 -5.2 0
vt 0.15 -5.3 0
vt -0.15 -5.3 0
vt 0.15 -5.4 0
vt -0.15 -5.4 0
vt 0.15 -5.5 0
vt -0.15 -5.5 0
vt 0.15 -5.6 0
vt -0.15 -5.6 0
vt 0.15 -5.69715 0
vt -0.15 -5.69715 0
g vroa_Circle
usemtl GRAY
f 4/4 1/1 2/2
f 4/4 3/3 1/1
f 6/6 3/3 4/4
f 6/6 5/5 3/3
f 8/8 5/5 6/6
f 8/8 7/7 5/5
f 10/10 7/7 8/8
f 10/10 9/9 7/7
f 12/12 9/9 10/10
f 12/12 11/11 9/9
f 14/14 11/11 12/12
f 14/14 13/13 11/11
f 16/16 13/13 14/14
f 16/16 15/15 13/13
f 18/18 15/15 16/16
f 18/18 17/17 15/15
f 20/20 17/17 18/18
f 20/20 19/19 17/17
f 22/22 19/19 20/20
f 22/22 21/21 19/19
f 24/24 21/21 22/22
f 24/24 23/23 21/21
f 26/26 23/23 24/24
f 26/26 25/25 23/23
f 28/28 25/25 26/26
f 28/28 27/27 25/25
f 30/30 27/27 28/28
f 30/30 29/29 27/27
f 32/32 29/29 30/30
f 32/32 31/31 29/29
f 34/34 31/31 32/32
f 34/34 33/33 31/31
f 36/36 33/33 34/34
f 36/36 35/35 33/33
f 38/38 35/35 36/36
f 38/38 37/37 35/35
f 40/40 37/37 38/38
f 40/40 39/39 37/37
f 42/42 39/39 40/40
f 42/42 41/41 39/39
f 44/44 41/41 42/42
f 44/44 43/43 41/41
f 46/46 43/43 44/44
f 46/46 45/45 43/43
f 48/48 45/45 46/46
f 48/48 47/47 45/45
f 50/50 47/47 48/48
f 50/50 49/49 47/47
f 52/52 49/49 50/50
f 52/52 51/51 49/49
f 54/54 51/51 52/52
f 54/54 53/53 51/51
f 56/56 53/53 54/54
f 56/56 55/55 53/53
f 58/58 55/55 56/56
f 58/58 57/57 55/55
f 60/60 57/57 58/58
f 60/60 59/59 57/57
f 62/62 59/59 60/60
f 62/62 61/61 59/59
f 64/64 61/61 62/62
f 64/64 63/63 61/61
f 66/66 63/63 64/64
f 66/66 65/65 63/63
f 68/68 65/65 66/66
f 68/68 67/67 65/65
f 70/70 67/67 68/68
f 70/70 69/69 67/67
f 72/72 69/69 70/70
f 72/72 71/71 69/69
f 74/74 71/71 72/72
f 74/74 73/73 71/71
f 76/76 73/73 74/74
f 76/76 75/75 73/73
f 78/78 75/75 76/76
f 78/78 77/77 75/75
f 80/80 77/77 78/78
f 80/80 79/79 77/77
f 82/82 79/79 80/80
f 82/82 81/81 79/79
f 84/84 81/81 82/82
f 84/84 83/83 81/81
f 86/86 83/83 84/84
f 86/86 85/85 83/83
f 88/88 85/85 86/86
f 88/88 87/87 85/85
f 90/90 87/87 88/88
f 90/90 89/89 87/87
f 92/92 89/89 90/90
f 92/92 91/91 89/89
f 94/94 91/91 92/92
f 94/94 93/93 91/91
f 96/96 93/93 94/94
f 96/96 95/95 93/93
f 98/98 95/95 96/96
f 98/98 97/97 95/95
f 100/100 97/97 98/98
f 100/100 99/99 97/97
f 102/102 99/99 100/100
f 102/102 101/101 99/99
f 104/104 101/101 102/102
f 104/104 103/103 101/101
f 106/106 103/103 104/104
f 106/106 105/105 103/103
f 108/108 105/105 106/106
f 108/108 107/107 105/105
f 110/110 107/107 108/108
f 110/110 109/109 107/107
f 112/112 109/109 110/110
f 112/112 111/111 109/109
f 114/114 111/111 112/112
f 114/114 113/113 111/111
f 116/116 113/113 114/114
f 116/116 115/115 113/113
