mtllib viroad.mtl
v -0.00243512 0.0436011 0
v -0.976671 0.281713 0
v -1.95384 0.498736 0
v -2.93689 0.673578 0
v -3.92846 0.78638 0
v -4.92715 0.835224 0
v -5.92842 0.831142 0
v -6.92666 0.771405 0
v -7.91527 0.639494 0
v -8.8883 0.42124 0
v -9.85097 0.150891 0
v -10.8173 -0.097184 0
v -11.7983 -0.25438 0
v -12.792 -0.305046 0
v -13.7914 -0.277391 0
v -14.7917 -0.219584 0
v -15.7911 -0.181145 0
v -16.7894 -0.20699 0
v -17.7854 -0.315311 0
v -18.7748 -0.513441 0
v -19.7368 -0.834484 0
v -20.6001 -1.34078 0
v -21.2016 -2.08415 0
v -21.3306 -3.0032 0
v -21.0303 -3.94269 0
v -20.613 -4.86221 0
v -20.3252 -5.81306 0
v -20.2337 -6.79752 0
v -20.3247 -7.78522 0
v -20.562 -8.75292 0
v -20.9053 -9.69083 0
v -21.3064 -10.6067 0
v -21.7088 -11.5218 0
v -22.0707 -12.4527 0
v -22.3857 -13.401 0
v -22.6863 -14.3543 0
v -23.0141 -15.2974 0
v -23.3733 -16.2286 0
v -23.7517 -17.153 0
v -24.1338 -18.0771 0
v -24.5246 -18.9979 0
v -24.948 -19.9031 0
v -25.4229 -20.7813 0
v -25.9549 -21.6265 0
v -26.5352 -22.4403 0
v -27.152 -23.2277 0
v -27.7935 -23.9955 0
v -28.4488 -24.7515 0
v -29.1024 -25.5086 0
v -29.7366 -26.2812 0
v -30.3406 -27.0772 0
v -30.9127 -27.8969 0
v -31.4612 -28.7332 0
v -31.986 -29.5844 0
v -32.4842 -30.4509 0
v -32.9526 -31.3333 0
v -33.3922 -32.2302 0
v -33.8155 -33.1348 0
v -34.2055 -34.055 0
v -34.5591 -34.992 0
v -34.8762 -35.9436 0
v -35.1316 -36.9102 0
v -35.2753 -37.8861 0
v -35.2301 -38.8602 0
v -35.0117 -39.8239 0
v -34.6922 -40.7701 0
v -34.3234 -41.7015 0
v -33.949 -42.6301 0
v -33.5973 -43.5663 0
v -33.2819 -44.5145 0
v -33.0047 -45.4747 0
v -32.7644 -46.445 0
v -32.5589 -47.4234 0
v -32.3772 -48.4069 0
v -32.2 -49.3914 0
v -32.0092 -50.373 0
v -31.8004 -51.3509 0
v -31.5771 -52.3258 0
v -31.343 -53.2984 0
v -31.1077 -54.2707 0
v -30.8857 -55.246 0
v -30.6902 -56.2267 0
v -30.5297 -57.2131 0
v -30.411 -58.2048 0
v -30.3347 -59.2012 0
v -30.2844 -60.2004 0
v -30.2431 -61.2002 0
v -30.2125 -62.2002 0
v -30.2026 -63.2005 0
v -30.219 -64.2006 0
v -30.2648 -65.1997 0
v -30.3463 -66.1959 0
v -30.4718 -67.1869 0
v -30.643 -68.1713 0
v -30.842 -69.1514 0
v -31.0522 -70.1294 0
v -31.2696 -71.1059 0
v -31.4913 -72.0812 0
v -31.7116 -73.0566 0
v -31.9245 -74.0336 0
v -32.1335 -75.0114 0
v -32.3458 -75.9886 0
v -32.5602 -76.9652 0
v -32.7673 -77.9435 0
v -32.9673 -78.9233 0
v -33.1708 -79.9022 0
v -33.3866 -80.8782 0
v -33.6161 -81.8508 0
v -33.8392 -82.8245 0
v -34.0383 -83.8033 0
v -34.238 -84.7821 0
v -34.464 -85.7552 0
v -34.7113 -86.7237 0
v -34.9662 -87.6908 0
v -35.2156 -88.6595 0
v -35.4545 -89.6307 0
v -35.6834 -90.6045 0
v -35.9032 -91.5804 0
v -36.1148 -92.5584 0
v -36.319 -93.5383 0
v -36.5166 -94.5196 0
v -36.7085 -95.5024 0
v -36.8956 -96.4863 0
v -37.0786 -97.4711 0
v -37.2585 -98.4566 0
v -37.436 -99.4426 0
v -37.6121 -100.429 0
v -37.7875 -101.415 0
v -37.963 -102.401 0
v -38.1397 -103.387 0
v -38.3181 -104.372 0
v -38.4994 -105.356 0
v -38.6842 -106.34 0
v -38.8733 -107.322 0
v -39.0678 -108.302 0
v -39.2683 -109.281 0
v -39.4758 -110.257 0
v -39.6911 -111.232 0
v -39.915 -112.204 0
v -40.1483 -113.174 0
v -40.392 -114.141 0
v -40.6467 -115.105 0
v -40.9124 -116.066 0
v -41.1884 -117.024 0
v -41.474 -117.979 0
v -41.7685 -118.932 0
v -42.0713 -119.884 0
v -42.3815 -120.833 0
v -42.6985 -121.781 0
v -43.0216 -122.727 0
v -43.3502 -123.672 0
v -43.6835 -124.616 0
v -44.0208 -125.559 0
v -44.3614 -126.502 0
v -44.7047 -127.444 0
v -45.0499 -128.386 0
v -45.3964 -129.329 0
v -45.7434 -130.271 0
v -46.0902 -131.215 0
v -46.4367 -132.158 0
v -46.7837 -133.102 0
v -47.1317 -134.046 0
v -47.4818 -134.989 0
v -47.8346 -135.93 0
v -48.1909 -136.87 0
v -48.5516 -137.807 0
v -48.9174 -138.742 0
v -49.2891 -139.674 0
v -49.6675 -140.603 0
v -50.0534 -141.527 0
v -50.4476 -142.447 0
v -50.8508 -143.363 0
v -51.2639 -144.273 0
v -51.6877 -145.177 0
v -52.1229 -146.074 0
v -52.5704 -146.966 0
v -53.0309 -147.85 0
v -53.5052 -148.726 0
v -53.9941 -149.594 0
v -54.4984 -150.454 0
v -55.018 -151.306 0
v -55.5503 -152.15 0
v -56.0928 -152.989 0
v -56.6426 -153.825 0
v -57.197 -154.658 0
v -57.7534 -155.49 0
v -58.309 -156.324 0
v -58.861 -157.16 0
v -59.4069 -158 0
v -59.9444 -158.846 0
v -60.4718 -159.698 0
v -60.9873 -160.557 0
v -61.4891 -161.425 0
v -61.9753 -162.302 0
v -62.4442 -163.189 0
v -62.8939 -164.087 0
v -63.3227 -164.997 0
v -63.7287 -165.921 0
v -64.0935 -166.859 0
v -64.3471 -167.814 0
v -64.3939 -168.778 0
v -64.1912 -169.728 0
v -63.7883 -170.635 0
v -63.2758 -171.502 0
v -62.7225 -172.342 0
v -62.1766 -173.182 0
v -61.6267 -174.015 0
v -61.0543 -174.833 0
v -60.4482 -175.627 0
v -59.8111 -176.397 0
v -59.1587 -177.155 0
v -58.508 -177.916 0
v -57.8762 -178.691 0
v -57.2762 -179.49 0
v -56.7092 -180.313 0
v -56.1748 -181.158 0
v -55.668 -182.02 0
v -55.1759 -182.89 0
v -54.6888 -183.764 0
v -54.2037 -184.64 0
v -53.7189 -185.517 0
v -53.2418 -186.4 0
v -52.795 -187.297 0
v -52.4172 -188.221 0
v -52.1554 -189.176 0
v -52.0422 -190.16 0
v -52.0608 -191.156 0
v -52.1317 -192.155 0
v -52.1568 -193.153 0
v -52.0839 -194.145 0
v -51.9138 -195.127 0
v -51.6886 -196.101 0
v -51.4506 -197.073 0
v -51.2328 -198.049 0
v -51.0473 -199.031 0
v -50.8868 -200.018 0
v -50.7501 -201.009 0
v -50.6378 -202.003 0
v -50.5595 -203 0
v -50.5327 -203.999 0
v -50.5762 -204.997 0
v -50.6886 -205.99 0
v -50.8703 -206.972 0
v -51.1259 -207.937 0
v -51.4496 -208.882 0
v -51.8188 -209.812 0
v -52.2047 -210.736 0
v -52.5873 -211.66 0
v -52.9532 -212.591 0
v -53.3083 -213.527 0
v -53.6752 -214.457 0
v -54.0739 -215.375 0
v -54.52 -216.268 0
v -55.0294 -217.126 0
v -55.6066 -217.94 0
v -56.2381 -218.714 0
v -56.9055 -219.459 0
v -57.5937 -220.186 0
v -58.2831 -220.911 0
v -58.9688 -221.639 0
v -59.6611 -222.36 0
v -60.3729 -223.061 0
v -61.1101 -223.736 0
v -61.8699 -224.386 0
v -62.6366 -225.028 0
v -63.394 -225.682 0
v -64.128 -226.361 0
v -64.8288 -227.073 0
v -65.4924 -227.821 0
v -66.1181 -228.601 0
v -66.7064 -229.409 0
v -67.2565 -230.244 0
v -67.7666 -231.104 0
v -68.2391 -231.985 0
v -68.6805 -232.882 0
v -69.106 -233.787 0
v -69.5304 -234.693 0
v -69.9589 -235.598 0
v -70.3899 -236.501 0
v -70.8129 -237.409 0
v -71.2129 -238.327 0
v -71.5618 -239.263 0
v -71.8319 -240.223 0
v -72.0065 -241.205 0
v -72.0822 -242.2 0
v -72.0653 -243.198 0
v -71.97 -244.193 0
v -71.8196 -245.183 0
v -71.647 -246.17 0
v -71.4802 -247.157 0
v -71.3446 -248.147 0
v -71.254 -249.141 0
v -71.2052 -250.14 0
v -71.1882 -251.14 0
v -71.1876 -252.14 0
v -71.202 -253.141 0
v -71.2446 -254.14 0
v -71.3316 -255.135 0
v -71.4768 -256.123 0
v -71.6784 -257.101 0
v -71.926 -258.07 0
v -72.199 -259.032 0
v -72.475 -259.994 0
v -72.761 -260.952 0
v -73.0679 -261.904 0
v -73.405 -262.844 0
v -73.7633 -263.778 0
v -74.1219 -264.712 0
v -74.4675 -265.65 0
v -74.7884 -266.596 0
v -75.0712 -267.554 0
v -75.3175 -268.523 0
v -75.5438 -269.498 0
v -75.7621 -270.474 0
v -75.9646 -271.453 0
v -76.1397 -272.438 0
v -76.2841 -273.427 0
v -76.4001 -274.42 0
v -76.4986 -275.415 0
v -76.5946 -276.411 0
v -76.7042 -277.406 0
v -76.8444 -278.397 0
v -77.0326 -279.378 0
v -77.2866 -280.342 0
v -77.6254 -281.278 0
v -78.0307 -282.191 0
v -78.4751 -283.088 0
v -78.9369 -283.976 0
v -79.3924 -284.867 0
v -79.8279 -285.767 0
v -80.2346 -286.681 0
v -80.6076 -287.608 0
v -80.9455 -288.549 0
v -81.2482 -289.502 0
v -81.5158 -290.465 0
v -81.7503 -291.437 0
v -81.9587 -292.416 0
v -82.1493 -293.398 0
v -82.3294 -294.384 0
v -82.5022 -295.371 0
v -82.6685 -296.359 0
v -82.8016 -297.349 0
v -82.8539 -298.343 0
v -82.7997 -299.334 0
v -82.6432 -300.318 0
v -82.4252 -301.294 0
v -82.1988 -302.269 0
v -82.0145 -303.25 0
v -81.878 -304.239 0
v -81.7785 -305.233 0
v -81.7019 -306.231 0
v -81.6299 -307.23 0
v -81.5619 -308.231 0
v -81.4991 -309.233 0
v -81.4431 -310.235 0
v -81.3951 -311.237 0
v -81.3565 -312.24 0
v -81.3288 -313.242 0
v -81.3132 -314.243 0
v -81.3112 -315.244 0
v -81.3242 -316.244 0
v -81.3535 -317.242 0
v -81.4005 -318.238 0
v -81.4665 -319.232 0
v -81.5528 -320.224 0
v -81.6589 -321.213 0
v -81.7835 -322.2 0
v -81.9253 -323.185 0
v -82.083 -324.169 0
v -82.2553 -325.15 0
v -82.4409 -326.13 0
v -82.6386 -327.109 0
v -82.847 -328.086 0
v -83.0649 -329.063 0
v -83.291 -330.039 0
v -83.524 -331.014 0
v -83.7625 -331.988 0
v -84.0054 -332.962 0
v -84.2512 -333.936 0
v -84.4988 -334.91 0
v -84.7469 -335.883 0
v -84.9941 -336.858 0
v -85.2391 -337.832 0
v -85.4807 -338.808 0
v -85.7176 -339.784 0
v -85.9484 -340.761 0
v -86.172 -341.739 0
v -86.387 -342.718 0
v -86.5922 -343.699 0
v -86.7878 -344.681 0
v -86.9749 -345.664 0
v -87.1549 -346.649 0
v -87.3289 -347.634 0
v -87.4982 -348.62 0
v -87.6641 -349.606 0
v -87.8277 -350.592 0
v -87.9902 -351.579 0
v -88.153 -352.565 0
v -88.3173 -353.551 0
v -88.4842 -354.537 0
v -88.6551 -355.521 0
v -88.8311 -356.505 0
v -89.0135 -357.488 0
v -89.2036 -358.469 0
v -89.4025 -359.449 0
v -89.6105 -360.427 0
v -89.8266 -361.404 0
v -90.049 -362.38 0
v -90.2763 -363.356 0
v -90.507 -364.33 0
v -90.7395 -365.304 0
v -90.9724 -366.279 0
v -91.2041 -367.253 0
v -91.4332 -368.228 0
v -91.658 -369.204 0
v -91.8772 -370.18 0
v -92.0891 -371.158 0
v -92.2924 -372.138 0
v -92.4853 -373.119 0
v -92.6665 -374.102 0
v -92.8345 -375.087 0
v -92.9877 -376.075 0
v -93.1246 -377.066 0
v -93.2436 -378.06 0
v -93.3434 -379.057 0
v -93.4239 -380.057 0
v -93.4913 -381.059 0
v -93.553 -382.062 0
v -93.6165 -383.065 0
v -93.6892 -384.064 0
v -93.7788 -385.061 0
v -93.8925 -386.051 0
v -94.038 -387.036 0
v -94.2227 -388.012 0
v -94.4513 -388.979 0
v -94.7152 -389.94 0
v -95.0024 -390.898 0
v -95.3007 -391.855 0
v -95.5979 -392.815 0
v -95.8821 -393.782 0
v -96.1538 -394.753 0
v -96.4292 -395.721 0
v -96.7254 -396.678 0
v -97.0598 -397.617 0
v -97.4496 -398.53 0
v -97.9104 -399.41 0
v -98.4349 -400.259 0
v -98.9994 -401.086 0
v -99.586 -401.898 0
v -100.196 -402.69 0
v -100.833 -403.459 0
v -101.479 -404.223 0
v -102.123 -404.991 0
v -102.784 -405.744 0
v -103.497 -406.438 0
v -104.3 -407.012 0
v -105.189 -407.457 0
v -106.124 -407.819 0
v -107.069 -408.158 0
v -107.998 -408.525 0
v -108.873 -408.989 0
v -109.665 -409.583 0
v -110.36 -410.292 0
v -110.97 -411.084 0
v -111.534 -411.913 0
v -112.086 -412.749 0
v -112.626 -413.591 0
v -113.144 -414.446 0
v -113.639 -415.315 0
v -114.117 -416.193 0
v -114.571 -417.084 0
v -114.995 -417.989 0
v -115.389 -418.909 0
v -115.743 -419.843 0
v -116.05 -420.794 0
v -116.318 -421.757 0
v -116.554 -422.728 0
v -116.75 -423.707 0
v -116.909 -424.693 0
v -117.031 -425.685 0
v -117.127 -426.681 0
v -117.203 -427.678 0
v -117.24 -428.677 0
v -117.234 -429.677 0
v -117.18 -430.673 0
v -117.062 -431.663 0
v -116.886 -432.646 0
v -116.633 -433.61 0
v -116.277 -434.541 0
v -115.824 -435.431 0
v -115.298 -436.282 0
v -114.713 -437.094 0
v -114.076 -437.864 0
v -113.384 -438.583 0
v -112.632 -439.238 0
v -111.83 -439.832 0
v -110.999 -440.389 0
v -110.163 -440.94 0
v -109.332 -441.497 0
v -108.499 -442.049 0
v -107.646 -442.559 0
v -106.753 -442.991 0
v -105.817 -443.322 0
v -104.852 -443.579 0
v -103.879 -443.809 0
v -102.909 -444.057 0
v -101.943 -444.325 0
v -100.972 -444.568 0
v -99.9873 -444.725 0
v -98.9952 -444.739 0
v -98.0112 -444.599 0
v -97.0542 -444.322 0
v -96.131 -443.936 0
v -95.2302 -443.494 0
v -94.3408 -443.027 0
v -93.4526 -442.564 0
v -92.5466 -442.153 0
v -91.6069 -441.85 0
v -90.6349 -441.664 0
v -89.6488 -441.52 0
v -88.6587 -441.376 0
v -87.6662 -441.251 0
v -86.671 -441.168 0
v -85.6736 -441.146 0
v -84.6746 -441.181 0
v -83.6743 -441.22 0
v -82.6738 -441.208 0
v -81.6788 -441.114 0
v -80.7029 -440.916 0
v -79.7628 -440.596 0
v -78.87 -440.157 0
v -78.0191 -439.633 0
v -77.1949 -439.063 0
v -76.3738 -438.487 0
v -75.5381 -437.936 0
v -74.6843 -437.417 0
v -73.813 -436.931 0
v -72.9307 -436.47 0
v -72.0375 -436.033 0
v -71.1301 -435.622 0
v -70.2119 -435.227 0
v -69.3018 -434.81 0
v -68.4204 -434.342 0
v -67.5947 -433.792 0
v -66.8433 -433.142 0
v -66.1364 -432.437 0
v -65.4322 -431.726 0
v -64.7187 -431.027 0
v -63.9856 -430.35 0
v -63.2385 -429.69 0
v -62.5071 -429.011 0
v -61.7859 -428.32 0
v -61.0578 -427.634 0
v -60.3191 -426.957 0
v -59.5902 -426.271 0
v -58.9009 -425.551 0
v -58.2928 -424.767 0
v -57.7794 -423.915 0
v -57.3391 -423.017 0
v -56.9143 -422.111 0
v -56.4438 -421.233 0
v -55.8987 -420.403 0
v -55.2901 -419.615 0
v -54.6514 -418.847 0
v -53.9848 -418.103 0
v -53.2865 -417.389 0
v -52.579 -416.682 0
v -51.8721 -415.975 0
v -51.1807 -415.253 0
v -50.5274 -414.498 0
v -49.9189 -413.706 0
v -49.3496 -412.885 0
v -48.8195 -412.038 0
v -48.3206 -411.174 0
v -47.8389 -410.3 0
v -47.3657 -409.421 0
v -46.868 -408.557 0
v -46.3383 -407.712 0
v -45.777 -406.89 0
v -45.1751 -406.095 0
v -44.5588 -405.306 0
v -43.9726 -404.49 0
v -43.4584 -403.632 0
v -43.0932 -402.712 0
v -42.9392 -401.739 0
v -43.0085 -400.756 0
v -43.2879 -399.806 0
v -43.7232 -398.906 0
v -44.2341 -398.044 0
v -44.7703 -397.2 0
v -45.2915 -396.35 0
v -45.7677 -395.474 0
v -46.2127 -394.582 0
v -46.6448 -393.683 0
v -47.1124 -392.804 0
v -47.6462 -391.963 0
v -48.2382 -391.158 0
v -48.8545 -390.368 0
v -49.4589 -389.567 0
v -50.021 -388.737 0
v -50.5119 -387.866 0
v -50.9003 -386.949 0
v -51.1652 -385.989 0
v -51.2983 -385.001 0
v -51.2787 -384.002 0
v -51.0956 -383.018 0
v -50.726 -382.101 0
v -50.1421 -381.316 0
v -49.3842 -380.675 0
v -48.5874 -380.071 0
v -47.8785 -379.382 0
v -47.3016 -378.586 0
v -46.8163 -377.718 0
v -46.3433 -376.838 0
v -45.864 -375.959 0
v -45.3825 -375.081 0
v -44.904 -374.201 0
v -44.4324 -373.318 0
v -43.9699 -372.431 0
v -43.5183 -371.54 0
v -43.0793 -370.642 0
v -42.6533 -369.738 0
v -42.2372 -368.83 0
v -41.8279 -367.918 0
v -41.4221 -367.004 0
v -41.0165 -366.09 0
v -40.6079 -365.176 0
v -40.193 -364.265 0
v -39.7686 -363.358 0
v -39.336 -362.454 0
v -38.9037 -361.549 0
v -38.4807 -360.64 0
v -38.0761 -359.722 0
v -37.699 -358.792 0
v -37.361 -357.846 0
v -37.1049 -356.88 0
v -36.994 -355.893 0
v -37.0738 -354.905 0
v -37.3556 -353.957 0
v -37.8283 -353.092 0
v -38.4436 -352.327 0
v -39.1299 -351.629 0
v -39.7737 -350.886 0
v -40.3581 -350.082 0
v -40.9174 -349.254 0
v -41.4824 -348.432 0
v -42.0936 -347.646 0
v -42.748 -346.895 0
v -43.3999 -346.14 0
v -44.0197 -345.359 0
v -44.61 -344.558 0
v -45.126 -343.71 0
v -45.5463 -342.809 0
v -45.8769 -341.869 0
v -46.1329 -340.901 0
v -46.3318 -339.919 0
v -46.4929 -338.931 0
v -46.6366 -337.94 0
v -46.7848 -336.951 0
v -46.9476 -335.963 0
v -47.1227 -334.975 0
v -47.2963 -333.984 0
v -47.441 -332.985 0
v -47.5182 -331.983 0
v -47.4689 -330.994 0
v -47.2374 -330.042 0
v -46.8163 -329.156 0
v -46.2471 -328.351 0
v -45.5999 -327.594 0
v -44.9523 -326.833 0
v -44.3763 -326.026 0
v -43.9258 -325.15 0
v -43.5776 -324.222 0
v -43.2617 -323.276 0
v -42.9517 -322.327 0
v -42.6451 -321.376 0
v -42.3429 -320.422 0
v -42.0464 -319.467 0
v -41.7566 -318.508 0
v -41.4746 -317.548 0
v -41.2017 -316.584 0
v -40.9389 -315.618 0
v -40.6874 -314.649 0
v -40.4482 -313.678 0
v -40.2221 -312.703 0
v -40.0047 -311.727 0
v -39.7897 -310.75 0
v -39.5706 -309.775 0
v -39.3408 -308.802 0
v -39.0976 -307.832 0
v -38.8431 -306.865 0
v -38.5798 -305.9 0
v -38.3102 -304.937 0
v -38.0368 -303.975 0
v -37.762 -303.013 0
v -37.4859 -302.052 0
v -37.2069 -301.092 0
v -36.9232 -300.133 0
v -36.6333 -299.176 0
v -36.3391 -298.22 0
v -36.0448 -297.264 0
v -35.7549 -296.307 0
v -35.4737 -295.347 0
v -35.2053 -294.385 0
v -34.9503 -293.418 0
v -34.7067 -292.449 0
v -34.4729 -291.477 0
v -34.247 -290.503 0
v -34.027 -289.527 0
v -33.8112 -288.55 0
v -33.5978 -287.573 0
v -33.3848 -286.595 0
v -33.1705 -285.617 0
v -32.953 -284.641 0
v -32.7307 -283.666 0
v -32.5033 -282.692 0
v -32.2714 -281.719 0
v -32.0353 -280.747 0
v -31.7957 -279.776 0
v -31.5529 -278.806 0
v -31.3075 -277.837 0
v -31.06 -276.868 0
v -30.8107 -275.899 0
v -30.5603 -274.931 0
v -30.3092 -273.963 0
v -30.0581 -272.995 0
v -29.808 -272.027 0
v -29.5595 -271.059 0
v -29.3133 -270.089 0
v -29.0704 -269.119 0
v -28.8309 -268.148 0
v -28.5954 -267.176 0
v -28.364 -266.203 0
v -28.137 -265.23 0
v -27.9147 -264.255 0
v -27.6969 -263.28 0
v -27.4825 -262.303 0
v -27.2709 -261.327 0
v -27.0609 -260.349 0
v -26.8518 -259.371 0
v -26.6425 -258.393 0
v -26.4323 -257.414 0
v -26.2202 -256.435 0
v -26.0047 -255.456 0
v -25.7752 -254.481 0
v -25.5125 -253.517 0
v -25.1973 -252.572 0
v -24.8191 -251.649 0
v -24.3986 -250.742 0
v -23.9589 -249.843 0
v -23.5194 -248.945 0
v -23.107 -248.036 0
v -22.7414 -247.108 0
v -22.4189 -246.162 0
v -22.1143 -245.21 0
v -21.7949 -244.262 0
v -21.4777 -243.317 0
v -21.186 -242.371 0
v -20.956 -241.416 0
v -20.8059 -240.443 0
v -20.7532 -239.454 0
v -20.7611 -238.457 0
v -20.8028 -237.459 0
v -20.8503 -236.462 0
v -20.8517 -235.467 0
v -20.797 -234.473 0
v -20.6994 -233.48 0
v -20.5676 -232.49 0
v -20.3887 -231.508 0
v -20.132 -230.546 0
v -19.8062 -229.603 0
v -19.4437 -228.671 0
v -19.0644 -227.745 0
v -18.6878 -226.818 0
v -18.3258 -225.886 0
v -17.9883 -224.946 0
v -17.677 -223.997 0
v -17.382 -223.041 0
v -17.136 -222.074 0
v -17.0043 -221.093 0
v -17.0246 -220.103 0
v -17.177 -219.119 0
v -17.4122 -218.145 0
v -17.6643 -217.174 0
v -17.8706 -216.196 0
v -17.9985 -215.207 0
v -18.0585 -214.21 0
v -18.0748 -213.21 0
v -18.0493 -212.212 0
v -17.9687 -211.22 0
v -17.8474 -210.232 0
v -17.6828 -209.247 0
v -17.493 -208.266 0
v -17.273 -207.29 0
v -17.0129 -206.325 0
v -16.7114 -205.372 0
v -16.3749 -204.431 0
v -16.0159 -203.497 0
v -15.6534 -202.565 0
v -15.3049 -201.627 0
v -14.9778 -200.682 0
v -14.6739 -199.729 0
v -14.3933 -198.769 0
v -14.1375 -197.802 0
v -13.9111 -196.829 0
v -13.7196 -195.848 0
v -13.5639 -194.861 0
v -13.4377 -193.871 0
v -13.3239 -192.88 0
v -13.2208 -191.888 0
v -13.1462 -190.892 0
v -13.0877 -189.894 0
v -13.0231 -188.896 0
v -12.9427 -187.899 0
v -12.8324 -186.907 0
v -12.6706 -185.923 0
v -12.4723 -184.943 0
v -12.2714 -183.963 0
v -12.0782 -182.982 0
v -11.8944 -182 0
v -11.7696 -181.014 0
v -11.7602 -180.018 0
v -11.8491 -179.022 0
v -12.0354 -178.041 0
v -12.3535 -177.101 0
v -12.8093 -176.222 0
v -13.3845 -175.41 0
v -14.0307 -174.646 0
v -14.7015 -173.903 0
v -15.3694 -173.158 0
v -16.0358 -172.414 0
v -16.6898 -171.663 0
v -17.2922 -170.87 0
v -17.8417 -170.039 0
v -18.3535 -169.182 0
v -18.8378 -168.309 0
v -19.3416 -167.447 0
v -19.919 -166.637 0
v -20.5882 -165.901 0
v -21.3337 -165.239 0
v -22.1149 -164.615 0
v -22.8714 -163.963 0
v -23.5722 -163.255 0
v -24.2016 -162.483 0
v -24.7455 -161.65 0
v -25.2064 -160.764 0
v -25.6153 -159.85 0
v -25.9892 -158.921 0
v -26.3311 -157.981 0
v -26.6464 -157.032 0
v -26.937 -156.075 0
v -27.2015 -155.108 0
v -27.4385 -154.132 0
v -27.6455 -153.144 0
v -27.8058 -152.148 0
v -27.8914 -151.146 0
v -27.8736 -150.143 0
v -27.7204 -149.161 0
v -27.3965 -148.236 0
v -26.8892 -147.396 0
v -26.2405 -146.644 0
v -25.5128 -145.952 0
v -24.7698 -145.275 0
v -24.0025 -144.638 0
v -23.183 -144.075 0
v -22.3164 -143.584 0
v -21.4153 -143.151 0
v -20.4968 -142.751 0
v -19.5826 -142.346 0
v -18.6968 -141.889 0
v -17.8487 -141.367 0
v -17.0276 -140.798 0
v -16.2158 -140.213 0
v -15.4058 -139.622 0
v -14.5917 -139.035 0
v -13.7792 -138.446 0
v -12.9932 -137.83 0
v -12.2597 -137.161 0
v -11.5944 -136.423 0
v -10.9776 -135.637 0
v -10.3694 -134.842 0
v -9.7492 -134.056 0
v -9.10892 -133.287 0
v -8.44448 -132.538 0
v -7.76001 -131.807 0
v -7.07564 -131.076 0
v -6.42654 -130.322 0
v -5.86896 -129.505 0
v -5.40943 -128.624 0
v -5.02534 -127.705 0
v -4.73921 -126.752 0
v -4.54644 -125.773 0
v -4.39904 -124.783 0
v -4.25073 -123.792 0
v -4.06027 -122.811 0
v -3.82135 -121.841 0
v -3.54759 -120.879 0
v -3.24965 -119.924 0
v -2.9265 -118.978 0
v -2.57517 -118.042 0
v -2.19988 -117.116 0
v -1.80854 -116.195 0
v -1.40908 -115.278 0
v -1.00943 -114.36 0
v -0.612837 -113.441 0
v -0.209294 -112.525 0
v 0.213523 -111.618 0
v 0.667476 -110.727 0
v 1.14216 -109.846 0
v 1.59546 -108.961 0
v 1.97817 -108.051 0
v 2.25243 -107.103 0
v 2.42101 -106.125 0
v 2.50639 -105.132 0
v 2.5619 -104.135 0
v 2.63964 -103.139 0
v 2.75743 -102.147 0
v 2.91863 -101.161 0
v 3.12783 -100.184 0
v 3.3789 -99.2163 0
v 3.66046 -98.2564 0
v 3.96462 -97.3027 0
v 4.28539 -96.3534 0
v 4.61654 -95.4064 0
v 4.93404 -94.4562 0
v 5.18022 -93.4914 0
v 5.28224 -92.5071 0
v 5.20805 -91.5192 0
v 4.99926 -90.544 0
v 4.75747 -89.5731 0
v 4.5554 -88.5945 0
v 4.43759 -87.6053 0
v 4.42838 -86.6108 0
v 4.5284 -85.6201 0
v 4.73721 -84.645 0
v 5.03375 -83.6902 0
v 5.39038 -82.7552 0
v 5.79899 -81.8417 0
v 6.2466 -80.9467 0
v 6.73032 -80.0721 0
v 7.26222 -79.2273 0
v 7.84536 -78.4165 0
v 8.4626 -77.6292 0
v 9.08535 -76.8457 0
v 9.67885 -76.0415 0
v 10.2174 -75.201 0
v 10.6922 -74.3227 0
v 11.1037 -73.4126 0
v 11.4552 -72.476 0
v 11.7652 -71.5228 0
v 12.0315 -70.556 0
v 12.2235 -69.5758 0
v 12.2894 -68.5868 0
v 12.1875 -67.6042 0
v 11.9342 -66.6417 0
v 11.5873 -65.7 0
v 11.2049 -64.7712 0
v 10.8278 -63.8427 0
v 10.4683 -62.9094 0
v 10.1255 -61.9705 0
v 9.79895 -61.0255 0
v 9.47793 -60.078 0
v 9.1464 -59.1336 0
v 8.80232 -58.1939 0
v 8.48408 -57.249 0
v 8.25251 -56.2828 0
v 8.12038 -55.2958 0
v 8.07459 -54.2983 0
v 8.10184 -53.3031 0
v 8.22506 -52.3243 0
v 8.47505 -51.3765 0
v 8.86434 -50.4755 0
v 9.37547 -49.6233 0
v 9.93495 -48.7927 0
v 10.4922 -47.9614 0
v 11.018 -47.1128 0
v 11.5103 -46.2441 0
v 11.9999 -45.3726 0
v 12.4922 -44.5018 0
v 12.9767 -43.6269 0
v 13.4401 -42.7416 0
v 13.8604 -41.8362 0
v 14.2353 -40.9101 0
v 14.5926 -39.9775 0
v 14.9219 -39.0398 0
v 15.1839 -38.0869 0
v 15.3736 -37.1143 0
v 15.5269 -36.1293 0
v 15.6326 -35.136 0
v 15.6821 -34.1377 0
v 15.6784 -33.1376 0
v 15.6343 -32.138 0
v 15.5578 -31.1406 0
v 15.4443 -30.1471 0
v 15.2905 -29.1594 0
v 15.0963 -28.1788 0
v 14.8659 -27.2056 0
v 14.6067 -26.2397 0
v 14.3198 -25.2817 0
v 14.0053 -24.3325 0
v 13.6661 -23.3917 0
v 13.3071 -22.4581 0
v 12.9306 -21.5314 0
v 12.5366 -20.6121 0
v 12.1249 -19.7006 0
v 11.695 -18.7977 0
v 11.2465 -17.9039 0
v 10.779 -17.0201 0
v 10.2957 -16.1446 0
v 9.80399 -15.2737 0
v 9.31007 -14.404 0
v 8.81359 -13.5359 0
v 8.31275 -12.6703 0
v 7.80584 -11.8083 0
v 7.29246 -10.9502 0
v 6.77282 -10.0958 0
v 6.24655 -9.24543 0
v 5.71309 -8.39959 0
v 5.17189 -7.55869 0
v 4.62261 -6.72306 0
v 4.06498 -5.89299 0
v 3.49968 -5.06808 0
v 2.92956 -4.24647 0
v 2.35775 -3.42608 0
v 1.78741 -2.60481 0
v 1.22076 -1.78119 0
v 0.657157 -0.955649 0
v -0.0110346 0.0276503 0
g vroa_path7
usemtl RED
l 1 2
f 1 2
l 2 3
f 2 3
l 3 4
f 3 4
l 4 5
f 4 5
l 5 6
f 5 6
l 6 7
f 6 7
l 7 8
f 7 8
l 8 9
f 8 9
l 9 10
f 9 10
l 10 11
f 10 11
l 11 12
f 11 12
l 12 13
f 12 13
l 13 14
f 13 14
l 14 15
f 14 15
l 15 16
f 15 16
l 16 17
f 16 17
l 17 18
f 17 18
l 18 19
f 18 19
l 19 20
f 19 20
l 20 21
f 20 21
l 21 22
f 21 22
l 22 23
f 22 23
l 23 24
f 23 24
l 24 25
f 24 25
l 25 26
f 25 26
l 26 27
f 26 27
l 27 28
f 27 28
l 28 29
f 28 29
l 29 30
f 29 30
l 30 31
f 30 31
l 31 32
f 31 32
l 32 33
f 32 33
l 33 34
f 33 34
l 34 35
f 34 35
l 35 36
f 35 36
l 36 37
f 36 37
l 37 38
f 37 38
l 38 39
f 38 39
l 39 40
f 39 40
l 40 41
f 40 41
l 41 42
f 41 42
l 42 43
f 42 43
l 43 44
f 43 44
l 44 45
f 44 45
l 45 46
f 45 46
l 46 47
f 46 47
l 47 48
f 47 48
l 48 49
f 48 49
l 49 50
f 49 50
l 50 51
f 50 51
l 51 52
f 51 52
l 52 53
f 52 53
l 53 54
f 53 54
l 54 55
f 54 55
l 55 56
f 55 56
l 56 57
f 56 57
l 57 58
f 57 58
l 58 59
f 58 59
l 59 60
f 59 60
l 60 61
f 60 61
l 61 62
f 61 62
l 62 63
f 62 63
l 63 64
f 63 64
l 64 65
f 64 65
l 65 66
f 65 66
l 66 67
f 66 67
l 67 68
f 67 68
l 68 69
f 68 69
l 69 70
f 69 70
l 70 71
f 70 71
l 71 72
f 71 72
l 72 73
f 72 73
l 73 74
f 73 74
l 74 75
f 74 75
l 75 76
f 75 76
l 76 77
f 76 77
l 77 78
f 77 78
l 78 79
f 78 79
l 79 80
f 79 80
l 80 81
f 80 81
l 81 82
f 81 82
l 82 83
f 82 83
l 83 84
f 83 84
l 84 85
f 84 85
l 85 86
f 85 86
l 86 87
f 86 87
l 87 88
f 87 88
l 88 89
f 88 89
l 89 90
f 89 90
l 90 91
f 90 91
l 91 92
f 91 92
l 92 93
f 92 93
l 93 94
f 93 94
l 94 95
f 94 95
l 95 96
f 95 96
l 96 97
f 96 97
l 97 98
f 97 98
l 98 99
f 98 99
l 99 100
f 99 100
l 100 101
f 100 101
l 101 102
f 101 102
l 102 103
f 102 103
l 103 104
f 103 104
l 104 105
f 104 105
l 105 106
f 105 106
l 106 107
f 106 107
l 107 108
f 107 108
l 108 109
f 108 109
l 109 110
f 109 110
l 110 111
f 110 111
l 111 112
f 111 112
l 112 113
f 112 113
l 113 114
f 113 114
l 114 115
f 114 115
l 115 116
f 115 116
l 116 117
f 116 117
l 117 118
f 117 118
l 118 119
f 118 119
l 119 120
f 119 120
l 120 121
f 120 121
l 121 122
f 121 122
l 122 123
f 122 123
l 123 124
f 123 124
l 124 125
f 124 125
l 125 126
f 125 126
l 126 127
f 126 127
l 127 128
f 127 128
l 128 129
f 128 129
l 129 130
f 129 130
l 130 131
f 130 131
l 131 132
f 131 132
l 132 133
f 132 133
l 133 134
f 133 134
l 134 135
f 134 135
l 135 136
f 135 136
l 136 137
f 136 137
l 137 138
f 137 138
l 138 139
f 138 139
l 139 140
f 139 140
l 140 141
f 140 141
l 141 142
f 141 142
l 142 143
f 142 143
l 143 144
f 143 144
l 144 145
f 144 145
l 145 146
f 145 146
l 146 147
f 146 147
l 147 148
f 147 148
l 148 149
f 148 149
l 149 150
f 149 150
l 150 151
f 150 151
l 151 152
f 151 152
l 152 153
f 152 153
l 153 154
f 153 154
l 154 155
f 154 155
l 155 156
f 155 156
l 156 157
f 156 157
l 157 158
f 157 158
l 158 159
f 158 159
l 159 160
f 159 160
l 160 161
f 160 161
l 161 162
f 161 162
l 162 163
f 162 163
l 163 164
f 163 164
l 164 165
f 164 165
l 165 166
f 165 166
l 166 167
f 166 167
l 167 168
f 167 168
l 168 169
f 168 169
l 169 170
f 169 170
l 170 171
f 170 171
l 171 172
f 171 172
l 172 173
f 172 173
l 173 174
f 173 174
l 174 175
f 174 175
l 175 176
f 175 176
l 176 177
f 176 177
l 177 178
f 177 178
l 178 179
f 178 179
l 179 180
f 179 180
l 180 181
f 180 181
l 181 182
f 181 182
l 182 183
f 182 183
l 183 184
f 183 184
l 184 185
f 184 185
l 185 186
f 185 186
l 186 187
f 186 187
l 187 188
f 187 188
l 188 189
f 188 189
l 189 190
f 189 190
l 190 191
f 190 191
l 191 192
f 191 192
l 192 193
f 192 193
l 193 194
f 193 194
l 194 195
f 194 195
l 195 196
f 195 196
l 196 197
f 196 197
l 197 198
f 197 198
l 198 199
f 198 199
l 199 200
f 199 200
l 200 201
f 200 201
l 201 202
f 201 202
l 202 203
f 202 203
l 203 204
f 203 204
l 204 205
f 204 205
l 205 206
f 205 206
l 206 207
f 206 207
l 207 208
f 207 208
l 208 209
f 208 209
l 209 210
f 209 210
l 210 211
f 210 211
l 211 212
f 211 212
l 212 213
f 212 213
l 213 214
f 213 214
l 214 215
f 214 215
l 215 216
f 215 216
l 216 217
f 216 217
l 217 218
f 217 218
l 218 219
f 218 219
l 219 220
f 219 220
l 220 221
f 220 221
l 221 222
f 221 222
l 222 223
f 222 223
l 223 224
f 223 224
l 224 225
f 224 225
l 225 226
f 225 226
l 226 227
f 226 227
l 227 228
f 227 228
l 228 229
f 228 229
l 229 230
f 229 230
l 230 231
f 230 231
l 231 232
f 231 232
l 232 233
f 232 233
l 233 234
f 233 234
l 234 235
f 234 235
l 235 236
f 235 236
l 236 237
f 236 237
l 237 238
f 237 238
l 238 239
f 238 239
l 239 240
f 239 240
l 240 241
f 240 241
l 241 242
f 241 242
l 242 243
f 242 243
l 243 244
f 243 244
l 244 245
f 244 245
l 245 246
f 245 246
l 246 247
f 246 247
l 247 248
f 247 248
l 248 249
f 248 249
l 249 250
f 249 250
l 250 251
f 250 251
l 251 252
f 251 252
l 252 253
f 252 253
l 253 254
f 253 254
l 254 255
f 254 255
l 255 256
f 255 256
l 256 257
f 256 257
l 257 258
f 257 258
l 258 259
f 258 259
l 259 260
f 259 260
l 260 261
f 260 261
l 261 262
f 261 262
l 262 263
f 262 263
l 263 264
f 263 264
l 264 265
f 264 265
l 265 266
f 265 266
l 266 267
f 266 267
l 267 268
f 267 268
l 268 269
f 268 269
l 269 270
f 269 270
l 270 271
f 270 271
l 271 272
f 271 272
l 272 273
f 272 273
l 273 274
f 273 274
l 274 275
f 274 275
l 275 276
f 275 276
l 276 277
f 276 277
l 277 278
f 277 278
l 278 279
f 278 279
l 279 280
f 279 280
l 280 281
f 280 281
l 281 282
f 281 282
l 282 283
f 282 283
l 283 284
f 283 284
l 284 285
f 284 285
l 285 286
f 285 286
l 286 287
f 286 287
l 287 288
f 287 288
l 288 289
f 288 289
l 289 290
f 289 290
l 290 291
f 290 291
l 291 292
f 291 292
l 292 293
f 292 293
l 293 294
f 293 294
l 294 295
f 294 295
l 295 296
f 295 296
l 296 297
f 296 297
l 297 298
f 297 298
l 298 299
f 298 299
l 299 300
f 299 300
l 300 301
f 300 301
l 301 302
f 301 302
l 302 303
f 302 303
l 303 304
f 303 304
l 304 305
f 304 305
l 305 306
f 305 306
l 306 307
f 306 307
l 307 308
f 307 308
l 308 309
f 308 309
l 309 310
f 309 310
l 310 311
f 310 311
l 311 312
f 311 312
l 312 313
f 312 313
l 313 314
f 313 314
l 314 315
f 314 315
l 315 316
f 315 316
l 316 317
f 316 317
l 317 318
f 317 318
l 318 319
f 318 319
l 319 320
f 319 320
l 320 321
f 320 321
l 321 322
f 321 322
l 322 323
f 322 323
l 323 324
f 323 324
l 324 325
f 324 325
l 325 326
f 325 326
l 326 327
f 326 327
l 327 328
f 327 328
l 328 329
f 328 329
l 329 330
f 329 330
l 330 331
f 330 331
l 331 332
f 331 332
l 332 333
f 332 333
l 333 334
f 333 334
l 334 335
f 334 335
l 335 336
f 335 336
l 336 337
f 336 337
l 337 338
f 337 338
l 338 339
f 338 339
l 339 340
f 339 340
l 340 341
f 340 341
l 341 342
f 341 342
l 342 343
f 342 343
l 343 344
f 343 344
l 344 345
f 344 345
l 345 346
f 345 346
l 346 347
f 346 347
l 347 348
f 347 348
l 348 349
f 348 349
l 349 350
f 349 350
l 350 351
f 350 351
l 351 352
f 351 352
l 352 353
f 352 353
l 353 354
f 353 354
l 354 355
f 354 355
l 355 356
f 355 356
l 356 357
f 356 357
l 357 358
f 357 358
l 358 359
f 358 359
l 359 360
f 359 360
l 360 361
f 360 361
l 361 362
f 361 362
l 362 363
f 362 363
l 363 364
f 363 364
l 364 365
f 364 365
l 365 366
f 365 366
l 366 367
f 366 367
l 367 368
f 367 368
l 368 369
f 368 369
l 369 370
f 369 370
l 370 371
f 370 371
l 371 372
f 371 372
l 372 373
f 372 373
l 373 374
f 373 374
l 374 375
f 374 375
l 375 376
f 375 376
l 376 377
f 376 377
l 377 378
f 377 378
l 378 379
f 378 379
l 379 380
f 379 380
l 380 381
f 380 381
l 381 382
f 381 382
l 382 383
f 382 383
l 383 384
f 383 384
l 384 385
f 384 385
l 385 386
f 385 386
l 386 387
f 386 387
l 387 388
f 387 388
l 388 389
f 388 389
l 389 390
f 389 390
l 390 391
f 390 391
l 391 392
f 391 392
l 392 393
f 392 393
l 393 394
f 393 394
l 394 395
f 394 395
l 395 396
f 395 396
l 396 397
f 396 397
l 397 398
f 397 398
l 398 399
f 398 399
l 399 400
f 399 400
l 400 401
f 400 401
l 401 402
f 401 402
l 402 403
f 402 403
l 403 404
f 403 404
l 404 405
f 404 405
l 405 406
f 405 406
l 406 407
f 406 407
l 407 408
f 407 408
l 408 409
f 408 409
l 409 410
f 409 410
l 410 411
f 410 411
l 411 412
f 411 412
l 412 413
f 412 413
l 413 414
f 413 414
l 414 415
f 414 415
l 415 416
f 415 416
l 416 417
f 416 417
l 417 418
f 417 418
l 418 419
f 418 419
l 419 420
f 419 420
l 420 421
f 420 421
l 421 422
f 421 422
l 422 423
f 422 423
l 423 424
f 423 424
l 424 425
f 424 425
l 425 426
f 425 426
l 426 427
f 426 427
l 427 428
f 427 428
l 428 429
f 428 429
l 429 430
f 429 430
l 430 431
f 430 431
l 431 432
f 431 432
l 432 433
f 432 433
l 433 434
f 433 434
l 434 435
f 434 435
l 435 436
f 435 436
l 436 437
f 436 437
l 437 438
f 437 438
l 438 439
f 438 439
l 439 440
f 439 440
l 440 441
f 440 441
l 441 442
f 441 442
l 442 443
f 442 443
l 443 444
f 443 444
l 444 445
f 444 445
l 445 446
f 445 446
l 446 447
f 446 447
l 447 448
f 447 448
l 448 449
f 448 449
l 449 450
f 449 450
l 450 451
f 450 451
l 451 452
f 451 452
l 452 453
f 452 453
l 453 454
f 453 454
l 454 455
f 454 455
l 455 456
f 455 456
l 456 457
f 456 457
l 457 458
f 457 458
l 458 459
f 458 459
l 459 460
f 459 460
l 460 461
f 460 461
l 461 462
f 461 462
l 462 463
f 462 463
l 463 464
f 463 464
l 464 465
f 464 465
l 465 466
f 465 466
l 466 467
f 466 467
l 467 468
f 467 468
l 468 469
f 468 469
l 469 470
f 469 470
l 470 471
f 470 471
l 471 472
f 471 472
l 472 473
f 472 473
l 473 474
f 473 474
l 474 475
f 474 475
l 475 476
f 475 476
l 476 477
f 476 477
l 477 478
f 477 478
l 478 479
f 478 479
l 479 480
f 479 480
l 480 481
f 480 481
l 481 482
f 481 482
l 482 483
f 482 483
l 483 484
f 483 484
l 484 485
f 484 485
l 485 486
f 485 486
l 486 487
f 486 487
l 487 488
f 487 488
l 488 489
f 488 489
l 489 490
f 489 490
l 490 491
f 490 491
l 491 492
f 491 492
l 492 493
f 492 493
l 493 494
f 493 494
l 494 495
f 494 495
l 495 496
f 495 496
l 496 497
f 496 497
l 497 498
f 497 498
l 498 499
f 498 499
l 499 500
f 499 500
l 500 501
f 500 501
l 501 502
f 501 502
l 502 503
f 502 503
l 503 504
f 503 504
l 504 505
f 504 505
l 505 506
f 505 506
l 506 507
f 506 507
l 507 508
f 507 508
l 508 509
f 508 509
l 509 510
f 509 510
l 510 511
f 510 511
l 511 512
f 511 512
l 512 513
f 512 513
l 513 514
f 513 514
l 514 515
f 514 515
l 515 516
f 515 516
l 516 517
f 516 517
l 517 518
f 517 518
l 518 519
f 518 519
l 519 520
f 519 520
l 520 521
f 520 521
l 521 522
f 521 522
l 522 523
f 522 523
l 523 524
f 523 524
l 524 525
f 524 525
l 525 526
f 525 526
l 526 527
f 526 527
l 527 528
f 527 528
l 528 529
f 528 529
l 529 530
f 529 530
l 530 531
f 530 531
l 531 532
f 531 532
l 532 533
f 532 533
l 533 534
f 533 534
l 534 535
f 534 535
l 535 536
f 535 536
l 536 537
f 536 537
l 537 538
f 537 538
l 538 539
f 538 539
l 539 540
f 539 540
l 540 541
f 540 541
l 541 542
f 541 542
l 542 543
f 542 543
l 543 544
f 543 544
l 544 545
f 544 545
l 545 546
f 545 546
l 546 547
f 546 547
l 547 548
f 547 548
l 548 549
f 548 549
l 549 550
f 549 550
l 550 551
f 550 551
l 551 552
f 551 552
l 552 553
f 552 553
l 553 554
f 553 554
l 554 555
f 554 555
l 555 556
f 555 556
l 556 557
f 556 557
l 557 558
f 557 558
l 558 559
f 558 559
l 559 560
f 559 560
l 560 561
f 560 561
l 561 562
f 561 562
l 562 563
f 562 563
l 563 564
f 563 564
l 564 565
f 564 565
l 565 566
f 565 566
l 566 567
f 566 567
l 567 568
f 567 568
l 568 569
f 568 569
l 569 570
f 569 570
l 570 571
f 570 571
l 571 572
f 571 572
l 572 573
f 572 573
l 573 574
f 573 574
l 574 575
f 574 575
l 575 576
f 575 576
l 576 577
f 576 577
l 577 578
f 577 578
l 578 579
f 578 579
l 579 580
f 579 580
l 580 581
f 580 581
l 581 582
f 581 582
l 582 583
f 582 583
l 583 584
f 583 584
l 584 585
f 584 585
l 585 586
f 585 586
l 586 587
f 586 587
l 587 588
f 587 588
l 588 589
f 588 589
l 589 590
f 589 590
l 590 591
f 590 591
l 591 592
f 591 592
l 592 593
f 592 593
l 593 594
f 593 594
l 594 595
f 594 595
l 595 596
f 595 596
l 596 597
f 596 597
l 597 598
f 597 598
l 598 599
f 598 599
l 599 600
f 599 600
l 600 601
f 600 601
l 601 602
f 601 602
l 602 603
f 602 603
l 603 604
f 603 604
l 604 605
f 604 605
l 605 606
f 605 606
l 606 607
f 606 607
l 607 608
f 607 608
l 608 609
f 608 609
l 609 610
f 609 610
l 610 611
f 610 611
l 611 612
f 611 612
l 612 613
f 612 613
l 613 614
f 613 614
l 614 615
f 614 615
l 615 616
f 615 616
l 616 617
f 616 617
l 617 618
f 617 618
l 618 619
f 618 619
l 619 620
f 619 620
l 620 621
f 620 621
l 621 622
f 621 622
l 622 623
f 622 623
l 623 624
f 623 624
l 624 625
f 624 625
l 625 626
f 625 626
l 626 627
f 626 627
l 627 628
f 627 628
l 628 629
f 628 629
l 629 630
f 629 630
l 630 631
f 630 631
l 631 632
f 631 632
l 632 633
f 632 633
l 633 634
f 633 634
l 634 635
f 634 635
l 635 636
f 635 636
l 636 637
f 636 637
l 637 638
f 637 638
l 638 639
f 638 639
l 639 640
f 639 640
l 640 641
f 640 641
l 641 642
f 641 642
l 642 643
f 642 643
l 643 644
f 643 644
l 644 645
f 644 645
l 645 646
f 645 646
l 646 647
f 646 647
l 647 648
f 647 648
l 648 649
f 648 649
l 649 650
f 649 650
l 650 651
f 650 651
l 651 652
f 651 652
l 652 653
f 652 653
l 653 654
f 653 654
l 654 655
f 654 655
l 655 656
f 655 656
l 656 657
f 656 657
l 657 658
f 657 658
l 658 659
f 658 659
l 659 660
f 659 660
l 660 661
f 660 661
l 661 662
f 661 662
l 662 663
f 662 663
l 663 664
f 663 664
l 664 665
f 664 665
l 665 666
f 665 666
l 666 667
f 666 667
l 667 668
f 667 668
l 668 669
f 668 669
l 669 670
f 669 670
l 670 671
f 670 671
l 671 672
f 671 672
l 672 673
f 672 673
l 673 674
f 673 674
l 674 675
f 674 675
l 675 676
f 675 676
l 676 677
f 676 677
l 677 678
f 677 678
l 678 679
f 678 679
l 679 680
f 679 680
l 680 681
f 680 681
l 681 682
f 681 682
l 682 683
f 682 683
l 683 684
f 683 684
l 684 685
f 684 685
l 685 686
f 685 686
l 686 687
f 686 687
l 687 688
f 687 688
l 688 689
f 688 689
l 689 690
f 689 690
l 690 691
f 690 691
l 691 692
f 691 692
l 692 693
f 692 693
l 693 694
f 693 694
l 694 695
f 694 695
l 695 696
f 695 696
l 696 697
f 696 697
l 697 698
f 697 698
l 698 699
f 698 699
l 699 700
f 699 700
l 700 701
f 700 701
l 701 702
f 701 702
l 702 703
f 702 703
l 703 704
f 703 704
l 704 705
f 704 705
l 705 706
f 705 706
l 706 707
f 706 707
l 707 708
f 707 708
l 708 709
f 708 709
l 709 710
f 709 710
l 710 711
f 710 711
l 711 712
f 711 712
l 712 713
f 712 713
l 713 714
f 713 714
l 714 715
f 714 715
l 715 716
f 715 716
l 716 717
f 716 717
l 717 718
f 717 718
l 718 719
f 718 719
l 719 720
f 719 720
l 720 721
f 720 721
l 721 722
f 721 722
l 722 723
f 722 723
l 723 724
f 723 724
l 724 725
f 724 725
l 725 726
f 725 726
l 726 727
f 726 727
l 727 728
f 727 728
l 728 729
f 728 729
l 729 730
f 729 730
l 730 731
f 730 731
l 731 732
f 731 732
l 732 733
f 732 733
l 733 734
f 733 734
l 734 735
f 734 735
l 735 736
f 735 736
l 736 737
f 736 737
l 737 738
f 737 738
l 738 739
f 738 739
l 739 740
f 739 740
l 740 741
f 740 741
l 741 742
f 741 742
l 742 743
f 742 743
l 743 744
f 743 744
l 744 745
f 744 745
l 745 746
f 745 746
l 746 747
f 746 747
l 747 748
f 747 748
l 748 749
f 748 749
l 749 750
f 749 750
l 750 751
f 750 751
l 751 752
f 751 752
l 752 753
f 752 753
l 753 754
f 753 754
l 754 755
f 754 755
l 755 756
f 755 756
l 756 757
f 756 757
l 757 758
f 757 758
l 758 759
f 758 759
l 759 760
f 759 760
l 760 761
f 760 761
l 761 762
f 761 762
l 762 763
f 762 763
l 763 764
f 763 764
l 764 765
f 764 765
l 765 766
f 765 766
l 766 767
f 766 767
l 767 768
f 767 768
l 768 769
f 768 769
l 769 770
f 769 770
l 770 771
f 770 771
l 771 772
f 771 772
l 772 773
f 772 773
l 773 774
f 773 774
l 774 775
f 774 775
l 775 776
f 775 776
l 776 777
f 776 777
l 777 778
f 777 778
l 778 779
f 778 779
l 779 780
f 779 780
l 780 781
f 780 781
l 781 782
f 781 782
l 782 783
f 782 783
l 783 784
f 783 784
l 784 785
f 784 785
l 785 786
f 785 786
l 786 787
f 786 787
l 787 788
f 787 788
l 788 789
f 788 789
l 789 790
f 789 790
l 790 791
f 790 791
l 791 792
f 791 792
l 792 793
f 792 793
l 793 794
f 793 794
l 794 795
f 794 795
l 795 796
f 795 796
l 796 797
f 796 797
l 797 798
f 797 798
l 798 799
f 798 799
l 799 800
f 799 800
l 800 801
f 800 801
l 801 802
f 801 802
l 802 803
f 802 803
l 803 804
f 803 804
l 804 805
f 804 805
l 805 806
f 805 806
l 806 807
f 806 807
l 807 808
f 807 808
l 808 809
f 808 809
l 809 810
f 809 810
l 810 811
f 810 811
l 811 812
f 811 812
l 812 813
f 812 813
l 813 814
f 813 814
l 814 815
f 814 815
l 815 816
f 815 816
l 816 817
f 816 817
l 817 818
f 817 818
l 818 819
f 818 819
l 819 820
f 819 820
l 820 821
f 820 821
l 821 822
f 821 822
l 822 823
f 822 823
l 823 824
f 823 824
l 824 825
f 824 825
l 825 826
f 825 826
l 826 827
f 826 827
l 827 828
f 827 828
l 828 829
f 828 829
l 829 830
f 829 830
l 830 831
f 830 831
l 831 832
f 831 832
l 832 833
f 832 833
l 833 834
f 833 834
l 834 835
f 834 835
l 835 836
f 835 836
l 836 837
f 836 837
l 837 838
f 837 838
l 838 839
f 838 839
l 839 840
f 839 840
l 840 841
f 840 841
l 841 842
f 841 842
l 842 843
f 842 843
l 843 844
f 843 844
l 844 845
f 844 845
l 845 846
f 845 846
l 846 847
f 846 847
l 847 848
f 847 848
l 848 849
f 848 849
l 849 850
f 849 850
l 850 851
f 850 851
l 851 852
f 851 852
l 852 853
f 852 853
l 853 854
f 853 854
l 854 855
f 854 855
l 855 856
f 855 856
l 856 857
f 856 857
l 857 858
f 857 858
l 858 859
f 858 859
l 859 860
f 859 860
l 860 861
f 860 861
l 861 862
f 861 862
l 862 863
f 862 863
l 863 864
f 863 864
l 864 865
f 864 865
l 865 866
f 865 866
l 866 867
f 866 867
l 867 868
f 867 868
l 868 869
f 868 869
l 869 870
f 869 870
l 870 871
f 870 871
l 871 872
f 871 872
l 872 873
f 872 873
l 873 874
f 873 874
l 874 875
f 874 875
l 875 876
f 875 876
l 876 877
f 876 877
l 877 878
f 877 878
l 878 879
f 878 879
l 879 880
f 879 880
l 880 881
f 880 881
l 881 882
f 881 882
l 882 883
f 882 883
l 883 884
f 883 884
l 884 885
f 884 885
l 885 886
f 885 886
l 886 887
f 886 887
l 887 888
f 887 888
l 888 889
f 888 889
l 889 890
f 889 890
l 890 891
f 890 891
l 891 892
f 891 892
l 892 893
f 892 893
l 893 894
f 893 894
l 894 895
f 894 895
l 895 896
f 895 896
l 896 897
f 896 897
l 897 898
f 897 898
l 898 899
f 898 899
l 899 900
f 899 900
l 900 901
f 900 901
l 901 902
f 901 902
l 902 903
f 902 903
l 903 904
f 903 904
l 904 905
f 904 905
l 905 906
f 905 906
l 906 907
f 906 907
l 907 908
f 907 908
l 908 909
f 908 909
l 909 910
f 909 910
l 910 911
f 910 911
l 911 912
f 911 912
l 912 913
f 912 913
l 913 914
f 913 914
l 914 915
f 914 915
l 915 916
f 915 916
l 916 917
f 916 917
l 917 918
f 917 918
l 918 919
f 918 919
l 919 920
f 919 920
l 920 921
f 920 921
l 921 922
f 921 922
l 922 923
f 922 923
l 923 924
f 923 924
l 924 925
f 924 925
l 925 926
f 925 926
l 926 927
f 926 927
l 927 928
f 927 928
l 928 929
f 928 929
l 929 930
f 929 930
l 930 931
f 930 931
l 931 932
f 931 932
l 932 933
f 932 933
l 933 934
f 933 934
l 934 935
f 934 935
l 935 936
f 935 936
l 936 937
f 936 937
l 937 938
f 937 938
l 938 939
f 938 939
l 939 940
f 939 940
l 940 941
f 940 941
l 941 942
f 941 942
l 942 943
f 942 943
l 943 944
f 943 944
l 944 945
f 944 945
l 945 946
f 945 946
l 946 947
f 946 947
l 947 948
f 947 948
l 948 949
f 948 949
l 949 950
f 949 950
l 950 951
f 950 951
l 951 952
f 951 952
l 952 953
f 952 953
l 953 954
f 953 954
l 954 955
f 954 955
l 955 956
f 955 956
l 956 957
f 956 957
l 957 958
f 957 958
l 958 959
f 958 959
l 959 960
f 959 960
l 960 961
f 960 961
l 961 962
f 961 962
l 962 963
f 962 963
l 963 964
f 963 964
l 964 965
f 964 965
l 965 966
f 965 966
l 966 967
f 966 967
l 967 968
f 967 968
l 968 969
f 968 969
l 969 970
f 969 970
l 970 971
f 970 971
l 971 972
f 971 972
l 972 973
f 972 973
l 973 974
f 973 974
l 974 975
f 974 975
l 975 976
f 975 976
l 976 977
f 976 977
l 977 978
f 977 978
l 978 979
f 978 979
l 979 980
f 979 980
l 980 981
f 980 981
l 981 982
f 981 982
l 982 983
f 982 983
l 983 984
f 983 984
l 984 985
f 984 985
l 985 986
f 985 986
l 986 987
f 986 987
l 987 988
f 987 988
l 988 989
f 988 989
l 989 990
f 989 990
l 990 991
f 990 991
l 991 992
f 991 992
l 992 993
f 992 993
l 993 994
f 993 994
l 994 995
f 994 995
l 995 996
f 995 996
l 996 997
f 996 997
l 997 998
f 997 998
l 998 999
f 998 999
l 999 1000
f 999 1000
l 1000 1001
f 1000 1001
l 1001 1002
f 1001 1002
l 1002 1003
f 1002 1003
l 1003 1004
f 1003 1004
l 1004 1005
f 1004 1005
l 1005 1006
f 1005 1006
l 1006 1007
f 1006 1007
l 1007 1008
f 1007 1008
l 1008 1009
f 1008 1009
l 1009 1010
f 1009 1010
l 1010 1011
f 1010 1011
l 1011 1012
f 1011 1012
l 1012 1013
f 1012 1013
l 1013 1014
f 1013 1014
l 1014 1015
f 1014 1015
l 1015 1016
f 1015 1016
l 1016 1017
f 1016 1017
l 1017 1018
f 1017 1018
l 1018 1019
f 1018 1019
l 1019 1020
f 1019 1020
l 1020 1021
f 1020 1021
l 1021 1022
f 1021 1022
l 1022 1023
f 1022 1023
l 1023 1024
f 1023 1024
l 1024 1025
f 1024 1025
l 1025 1026
f 1025 1026
l 1026 1027
f 1026 1027
l 1027 1028
f 1027 1028
