mtllib viroad.mtl
v 0.0121661 -0.603715 0
v -1 -0.50913 0
v -2 -0.415959 0
v -3 -0.323331 0
v -4 -0.23152 0
v -5 -0.140797 0
v -6 -0.0514365 0
v -7 0.0362847 0
v -8 0.122089 0
v -9 0.205697 0
v -10 0.286825 0
v -11 0.365186 0
v -12 0.440491 0
v -13 0.512446 0
v -14 0.580753 0
v -15 0.645109 0
v -16 0.705205 0
v -17 0.760723 0
v -18 0.81134 0
v -19 0.856725 0
v -20 0.896537 0
v -21.0001 0.930431 0
v -22.0001 0.95805 0
v -23.0002 0.979029 0
v -24.0001 0.992992 0
v -24.9997 0.999557 0
v -25.9989 0.998336 0
v -26.9977 0.982155 0
v -27.9967 0.94378 0
v -28.9971 0.875697 0
v -30.001 0.769751 0
v -31.0087 0.616951 0
v -32.0166 0.408049 0
v -33.0148 0.135167 0
v -33.9885 -0.205979 0
v -34.92 -0.614206 0
v -35.7927 -1.08227 0
v -36.5945 -1.59839 0
v -37.3208 -2.15013 0
v -37.976 -2.72981 0
v -38.5719 -3.33946 0
v -39.1219 -3.99124 0
v -39.6367 -4.69975 0
v -40.1168 -5.47673 0
v -40.554 -6.3256 0
v -40.9361 -7.24042 0
v -41.2526 -8.20785 0
v -41.498 -9.21048 0
v -41.6729 -10.2307 0
v -41.7831 -11.254 0
v -41.8374 -12.2716 0
v -41.8454 -13.2809 0
v -41.816 -14.2831 0
v -41.7571 -15.281 0
v -41.676 -16.2766 0
v -41.5798 -17.2708 0
v -41.469 -18.2638 0
v -41.3388 -19.2548 0
v -41.1842 -20.2438 0
v -41.0002 -21.2312 0
v -40.781 -22.2179 0
v -40.5204 -23.203 0
v -40.2129 -24.1823 0
v -39.8548 -25.1473 0
v -39.4451 -26.086 0
v -38.9869 -26.9854 0
v -38.4864 -27.8339 0
v -37.9516 -28.6236 0
v -37.3902 -29.3521 0
v -36.8056 -30.0232 0
v -36.194 -30.6463 0
v -35.545 -31.2322 0
v -34.8468 -31.7904 0
v -34.0903 -32.3229 0
v -33.2723 -32.8252 0
v -32.3965 -33.289 0
v -31.4717 -33.7059 0
v -30.5106 -34.07 0
v -29.5265 -34.3791 0
v -28.5317 -34.6346 0
v -27.5341 -34.841 0
v -26.5375 -35.0041 0
v -25.5419 -35.1301 0
v -24.5461 -35.2245 0
v -23.5492 -35.2922 0
v -22.5509 -35.3381 0
v -21.5514 -35.3655 0
v -20.5509 -35.3762 0
v -19.5496 -35.3715 0
v -18.5476 -35.3531 0
v -17.5451 -35.3225 0
v -16.5421 -35.2812 0
v -15.5386 -35.2308 0
v -14.5349 -35.1727 0
v -13.5308 -35.1085 0
v -12.5266 -35.0398 0
v -11.5222 -34.968 0
v -10.5177 -34.8947 0
v -9.5132 -34.8213 0
v -8.50879 -34.7495 0
v -7.50452 -34.6807 0
v -6.50046 -34.6165 0
v -5.49668 -34.5584 0
v -4.49325 -34.5079 0
v -3.49028 -34.4666 0
v -2.48786 -34.4359 0
v -1.48615 -34.4173 0
v -0.485221 -34.4125 0
v 0.514998 -34.4228 0
v 1.5149 -34.45 0
v 2.5153 -34.4958 0
v 3.51719 -34.5623 0
v 4.52115 -34.6531 0
v 5.52685 -34.7717 0
v 6.53286 -34.9218 0
v 7.53683 -35.107 0
v 8.53564 -35.3304 0
v 9.52553 -35.5952 0
v 10.5023 -35.9037 0
v 11.4613 -36.2577 0
v 12.3975 -36.6583 0
v 13.3061 -37.1057 0
v 14.1819 -37.5993 0
v 15.0203 -38.1374 0
v 15.817 -38.7177 0
v 16.5683 -39.3372 0
v 17.2717 -39.9925 0
v 17.9255 -40.6809 0
v 18.5299 -41.4008 0
v 19.0862 -42.1537 0
v 19.5959 -42.9437 0
v 20.0581 -43.7749 0
v 20.4681 -44.6471 0
v 20.8184 -45.5534 0
v 21.1026 -46.4805 0
v 21.3174 -47.41 0
v 21.4646 -48.3228 0
v 21.5512 -49.2092 0
v 21.585 -50.0792 0
v 21.575 -50.9604 0
v 21.5233 -51.8815 0
v 21.4299 -52.854 0
v 21.2993 -53.8679 0
v 21.144 -54.8998 0
v 20.9819 -55.9224 0
v 20.8307 -56.9113 0
v 20.703 -57.8511 0
v 20.6042 -58.7425 0
v 20.5354 -59.6069 0
v 20.4993 -60.4798 0
v 20.4919 -61.3938 0
v 20.5122 -62.3638 0
v 20.5568 -63.3822 0
v 20.6169 -64.4255 0
v 20.6796 -65.4636 0
v 20.7319 -66.4679 0
v 20.7651 -67.42 0
v 20.7753 -68.3193 0
v 20.7606 -69.1877 0
v 20.716 -70.0616 0
v 20.638 -70.9726 0
v 20.5208 -71.931 0
v 20.3611 -72.9241 0
v 20.1602 -73.9294 0
v 19.9225 -74.9283 0
v 19.653 -75.9123 0
v 19.3554 -76.8805 0
v 19.0322 -77.835 0
v 18.6856 -78.778 0
v 18.3175 -79.7109 0
v 17.9302 -80.6347 0
v 17.5257 -81.5503 0
v 17.106 -82.4584 0
v 16.673 -83.36 0
v 16.2287 -84.2559 0
v 15.7748 -85.1471 0
v 15.3132 -86.0344 0
v 14.8456 -86.9188 0
v 14.3739 -87.8012 0
v 13.8998 -88.6824 0
v 13.4251 -89.5635 0
v 12.9516 -90.4451 0
v 12.4812 -91.328 0
v 12.0159 -92.2128 0
v 11.5575 -93.1 0
v 11.1081 -93.9902 0
v 10.6695 -94.8839 0
v 10.2436 -95.7818 0
v 9.83214 -96.6843 0
v 9.43706 -97.5921 0
v 9.06022 -98.5054 0
v 8.70353 -99.4246 0
v 8.36893 -100.35 0
v 8.05836 -101.281 0
v 7.77379 -102.217 0
v 7.51712 -103.159 0
v 7.29027 -104.106 0
v 7.09508 -105.056 0
v 6.93335 -106.01 0
v 6.80678 -106.966 0
v 6.717 -107.922 0
v 6.66552 -108.879 0
v 6.65377 -109.833 0
v 6.68313 -110.785 0
v 6.75502 -111.733 0
v 6.87084 -112.676 0
v 7.032 -113.612 0
v 7.23966 -114.538 0
v 7.49349 -115.454 0
v 7.79294 -116.355 0
v 8.13731 -117.241 0
v 8.52567 -118.107 0
v 8.95696 -118.954 0
v 9.42995 -119.778 0
v 9.9433 -120.577 0
v 10.4952 -121.35 0
v 11.0835 -122.096 0
v 11.7062 -122.814 0
v 12.3611 -123.503 0
v 13.0465 -124.163 0
v 13.7603 -124.793 0
v 14.5012 -125.394 0
v 15.2678 -125.966 0
v 16.0591 -126.508 0
v 16.8742 -127.023 0
v 17.7124 -127.509 0
v 18.5726 -127.967 0
v 19.4535 -128.396 0
v 20.3534 -128.798 0
v 21.2707 -129.172 0
v 22.2038 -129.519 0
v 23.1508 -129.838 0
v 24.11 -130.131 0
v 25.0797 -130.399 0
v 26.0583 -130.641 0
v 27.0441 -130.86 0
v 28.0356 -131.056 0
v 29.0314 -131.231 0
v 30.0301 -131.386 0
v 31.0307 -131.523 0
v 32.0319 -131.642 0
v 33.033 -131.747 0
v 34.0335 -131.837 0
v 35.0331 -131.915 0
v 36.0321 -131.982 0
v 37.0309 -132.039 0
v 38.0297 -132.089 0
v 39.0287 -132.132 0
v 40.0279 -132.169 0
v 41.0273 -132.203 0
v 42.0268 -132.234 0
v 43.0263 -132.264 0
v 44.0259 -132.293 0
v 45.0255 -132.323 0
v 46.0251 -132.352 0
v 47.0247 -132.382 0
v 48.0243 -132.412 0
v 49.0238 -132.441 0
v 50.0231 -132.471 0
v 51.0221 -132.501 0
v 52.021 -132.53 0
v 53.0201 -132.55 0
v 54.0208 -132.556 0
v 55.0246 -132.541 0
v 56.0333 -132.499 0
v 57.0471 -132.421 0
v 58.0637 -132.3 0
v 59.0779 -132.128 0
v 60.0824 -131.899 0
v 61.0681 -131.608 0
v 62.0248 -131.253 0
v 62.942 -130.833 0
v 63.8104 -130.351 0
v 64.6231 -129.812 0
v 65.3759 -129.221 0
v 66.0666 -128.58 0
v 66.694 -127.895 0
v 67.257 -127.169 0
v 67.7541 -126.406 0
v 68.1839 -125.609 0
v 68.5452 -124.783 0
v 68.8371 -123.933 0
v 69.0588 -123.06 0
v 69.2135 -122.168 0
v 69.3043 -121.257 0
v 69.3336 -120.329 0
v 69.3039 -119.385 0
v 69.2187 -118.43 0
v 69.0829 -117.466 0
v 68.9026 -116.497 0
v 68.6855 -115.527 0
v 68.4402 -114.556 0
v 68.1759 -113.586 0
v 67.9023 -112.616 0
v 67.6293 -111.647 0
v 67.3666 -110.679 0
v 67.1237 -109.712 0
v 66.9096 -108.747 0
v 66.7324 -107.785 0
v 66.599 -106.829 0
v 66.5155 -105.882 0
v 66.4861 -104.947 0
v 66.5143 -104.027 0
v 66.6028 -103.122 0
v 66.7548 -102.232 0
v 66.9741 -101.359 0
v 67.2612 -100.504 0
v 67.617 -99.6688 0
v 68.0423 -98.8586 0
v 68.5374 -98.0777 0
v 69.1026 -97.3313 0
v 69.7375 -96.6247 0
v 70.4418 -95.9636 0
v 71.214 -95.3541 0
v 72.0506 -94.803 0
v 72.9451 -94.317 0
v 73.888 -93.9016 0
v 74.8677 -93.5596 0
v 75.8722 -93.2907 0
v 76.8905 -93.0912 0
v 77.9133 -92.9555 0
v 78.9338 -92.8761 0
v 79.948 -92.8452 0
v 80.9551 -92.8551 0
v 81.9566 -92.899 0
v 82.9548 -92.9721 0
v 83.9515 -93.0701 0
v 84.9477 -93.189 0
v 85.9438 -93.3246 0
v 86.9397 -93.4728 0
v 87.9355 -93.6291 0
v 88.9312 -93.7893 0
v 89.9269 -93.9491 0
v 90.9227 -94.1042 0
v 91.9188 -94.2501 0
v 92.9154 -94.3827 0
v 93.9124 -94.4977 0
v 94.91 -94.5909 0
v 95.9082 -94.6581 0
v 96.907 -94.6953 0
v 97.9067 -94.698 0
v 98.908 -94.6618 0
v 99.9117 -94.5818 0
v 100.917 -94.4524 0
v 101.916 -94.2693 0
v 102.895 -94.0314 0
v 103.833 -93.7437 0
v 104.713 -93.416 0
v 105.532 -93.0573 0
v 106.304 -92.668 0
v 107.054 -92.2371 0
v 107.806 -91.7546 0
v 108.575 -91.2135 0
v 109.36 -90.6164 0
v 110.154 -89.9764 0
v 110.95 -89.3141 0
v 111.741 -88.6538 0
v 112.52 -88.0188 0
v 113.281 -87.4271 0
v 114.023 -86.8876 0
v 114.752 -86.3988 0
v 115.488 -85.951 0
v 116.259 -85.5283 0
v 117.091 -85.1246 0
v 117.993 -84.7477 0
v 118.953 -84.4152 0
v 119.949 -84.1437 0
v 120.957 -83.9423 0
v 121.964 -83.8123 0
v 122.966 -83.7513 0
v 123.964 -83.7572 0
v 124.96 -83.8296 0
v 125.957 -83.9697 0
v 126.954 -84.1801 0
v 127.946 -84.4624 0
v 128.915 -84.8124 0
v 129.837 -85.2171 0
v 130.692 -85.6573 0
v 131.477 -86.1168 0
v 132.206 -86.5925 0
v 132.906 -87.096 0
v 133.605 -87.6415 0
v 134.319 -88.2385 0
v 135.052 -88.8863 0
v 135.801 -89.5731 0
v 136.559 -90.279 0
v 137.32 -90.9797 0
v 138.077 -91.6515 0
v 138.821 -92.2757 0
v 139.549 -92.8428 0
v 140.265 -93.3547 0
v 140.986 -93.8223 0
v 141.741 -94.2608 0
v 142.551 -94.6807 0
v 143.428 -95.0797 0
v 144.363 -95.4471 0
v 145.337 -95.7723 0
v 146.329 -96.0502 0
v 147.325 -96.2821 0
v 148.321 -96.4727 0
v 149.316 -96.6276 0
v 150.311 -96.7521 0
v 151.308 -96.8506 0
v 152.305 -96.9275 0
v 153.304 -96.9869 0
v 154.303 -97.0328 0
v 155.302 -97.0692 0
v 156.302 -97.1003 0
v 157.302 -97.13 0
v 158.301 -97.1596 0
v 159.301 -97.1892 0
v 160.3 -97.2187 0
v 161.3 -97.2481 0
v 162.299 -97.2776 0
v 163.299 -97.3071 0
v 164.299 -97.3365 0
v 165.298 -97.366 0
v 166.298 -97.3956 0
v 167.297 -97.4252 0
v 168.297 -97.455 0
v 169.296 -97.4848 0
v 170.296 -97.5147 0
v 171.295 -97.5448 0
v 172.295 -97.5751 0
v 173.294 -97.6055 0
v 174.293 -97.6361 0
v 175.293 -97.6669 0
v 176.294 -97.6971 0
v 177.298 -97.724 0
v 178.306 -97.7437 0
v 179.318 -97.7521 0
v 180.335 -97.7449 0
v 181.357 -97.7175 0
v 182.382 -97.6654 0
v 183.41 -97.5837 0
v 184.439 -97.4675 0
v 185.468 -97.3117 0
v 186.494 -97.1113 0
v 187.514 -96.8611 0
v 188.523 -96.5561 0
v 189.518 -96.1917 0
v 190.493 -95.7634 0
v 191.441 -95.2675 0
v 192.353 -94.7013 0
v 193.223 -94.0627 0
v 194.041 -93.3514 0
v 194.798 -92.5683 0
v 195.482 -91.7157 0
v 196.084 -90.7974 0
v 196.588 -89.8164 0
v 196.973 -88.7796 0
v 197.223 -87.7003 0
v 197.323 -86.5975 0
v 197.266 -85.4949 0
v 197.054 -84.4185 0
v 196.694 -83.3924 0
v 196.204 -82.4366 0
v 195.604 -81.5639 0
v 194.912 -80.7798 0
v 194.146 -80.0828 0
v 193.313 -79.4675 0
v 192.419 -78.9283 0
v 191.474 -78.4632 0
v 190.5 -78.0716 0
v 189.519 -77.7475 0
v 188.54 -77.4789 0
v 187.564 -77.2521 0
v 186.587 -77.0548 0
v 185.607 -76.8766 0
v 184.624 -76.7079 0
v 183.639 -76.5416 0
v 182.652 -76.3776 0
v 181.665 -76.2159 0
v 180.678 -76.0565 0
v 179.69 -75.8992 0
v 178.702 -75.744 0
v 177.714 -75.5908 0
v 176.725 -75.4394 0
v 175.736 -75.2898 0
v 174.747 -75.1419 0
v 173.757 -74.9955 0
v 172.768 -74.8507 0
v 171.777 -74.7072 0
v 170.787 -74.5651 0
v 169.797 -74.4243 0
v 168.806 -74.2846 0
v 167.815 -74.1461 0
v 166.824 -74.0086 0
v 165.833 -73.872 0
v 164.841 -73.7363 0
v 163.85 -73.6014 0
v 162.858 -73.4673 0
v 161.867 -73.3339 0
v 160.875 -73.2011 0
v 159.883 -73.0689 0
v 158.891 -72.9372 0
v 157.898 -72.806 0
v 156.906 -72.6752 0
v 155.914 -72.5447 0
v 154.922 -72.4146 0
v 153.929 -72.2847 0
v 152.937 -72.1549 0
v 151.944 -72.0254 0
v 150.952 -71.8959 0
v 149.959 -71.7665 0
v 148.967 -71.637 0
v 147.975 -71.5075 0
v 146.982 -71.3779 0
v 145.99 -71.248 0
v 144.997 -71.118 0
v 144.005 -70.9877 0
v 143.013 -70.8571 0
v 142.021 -70.726 0
v 141.029 -70.5946 0
v 140.036 -70.4626 0
v 139.045 -70.3301 0
v 138.053 -70.197 0
v 137.061 -70.0632 0
v 136.069 -69.9286 0
v 135.078 -69.7933 0
v 134.087 -69.6569 0
v 133.096 -69.5196 0
v 132.105 -69.381 0
v 131.114 -69.2412 0
v 130.124 -69.1 0
v 129.133 -68.9574 0
v 128.144 -68.8131 0
v 127.154 -68.6672 0
v 126.165 -68.5194 0
v 125.176 -68.3696 0
v 124.187 -68.2178 0
v 123.199 -68.0638 0
v 122.211 -67.9074 0
v 121.224 -67.7485 0
v 120.236 -67.5871 0
v 119.25 -67.4229 0
v 118.264 -67.2559 0
v 117.28 -67.0861 0
v 116.299 -66.9122 0
v 115.32 -66.7248 0
v 114.345 -66.5141 0
v 113.368 -66.2689 0
v 112.389 -65.9761 0
v 111.409 -65.6224 0
v 110.446 -65.198 0
v 109.524 -64.7003 0
v 108.658 -64.1289 0
v 107.855 -63.4799 0
v 107.121 -62.7471 0
v 106.467 -61.9261 0
v 105.912 -61.018 0
v 105.476 -60.0312 0
v 105.178 -58.9818 0
v 105.031 -57.8917 0
v 105.042 -56.7864 0
v 105.207 -55.6912 0
v 105.517 -54.6283 0
v 105.956 -53.6146 0
v 106.504 -52.6604 0
v 107.144 -51.7704 0
v 107.861 -50.9479 0
v 108.646 -50.196 0
v 109.487 -49.516 0
v 110.376 -48.908 0
v 111.305 -48.3707 0
v 112.264 -47.902 0
v 113.248 -47.499 0
v 114.249 -47.1579 0
v 115.264 -46.8747 0
v 116.287 -46.6448 0
v 117.315 -46.4634 0
v 118.345 -46.3259 0
v 119.375 -46.2275 0
v 120.403 -46.1643 0
v 121.427 -46.1326 0
v 122.447 -46.1286 0
v 123.462 -46.1487 0
v 124.471 -46.1894 0
v 125.476 -46.2476 0
v 126.477 -46.3201 0
v 127.475 -46.4041 0
v 128.473 -46.4968 0
v 129.47 -46.5957 0
v 130.467 -46.6978 0
v 131.465 -46.8005 0
v 132.462 -46.9009 0
v 133.46 -46.9963 0
v 134.458 -47.084 0
v 135.456 -47.1611 0
v 136.455 -47.2249 0
v 137.453 -47.2726 0
v 138.453 -47.3014 0
v 139.451 -47.3086 0
v 140.449 -47.2912 0
v 141.445 -47.2467 0
v 142.436 -47.1724 0
v 143.421 -47.066 0
v 144.397 -46.9255 0
v 145.361 -46.7493 0
v 146.311 -46.5362 0
v 147.243 -46.2855 0
v 148.155 -45.9969 0
v 149.043 -45.6705 0
v 149.907 -45.3064 0
v 150.745 -44.9045 0
v 151.557 -44.464 0
v 152.347 -43.9854 0
v 153.12 -43.4676 0
v 153.877 -42.9089 0
v 154.619 -42.3083 0
v 155.346 -41.6661 0
v 156.056 -40.9839 0
v 156.744 -40.2642 0
v 157.41 -39.5107 0
v 158.052 -38.7274 0
v 158.668 -37.919 0
v 159.257 -37.0901 0
v 159.821 -36.2453 0
v 160.359 -35.3884 0
v 160.874 -34.5222 0
v 161.369 -33.6481 0
v 161.846 -32.767 0
v 162.308 -31.8793 0
v 162.757 -30.9858 0
v 163.196 -30.0874 0
v 163.627 -29.1851 0
v 164.052 -28.28 0
v 164.474 -27.3733 0
v 164.895 -26.4658 0
v 165.315 -25.5585 0
v 165.735 -24.6514 0
v 166.156 -23.7446 0
v 166.577 -22.8383 0
v 166.998 -21.9321 0
v 167.421 -21.0252 0
v 167.843 -20.1151 0
v 168.262 -19.1981 0
v 168.673 -18.2695 0
v 169.067 -17.3253 0
v 169.438 -16.3624 0
v 169.778 -15.3783 0
v 170.075 -14.3717 0
v 170.321 -13.3421 0
v 170.503 -12.2906 0
v 170.61 -11.2199 0
v 170.63 -10.1352 0
v 170.551 -9.04419 0
v 170.363 -7.95776 0
v 170.055 -6.8897 0
v 169.621 -5.85652 0
v 169.057 -4.87803 0
v 168.361 -3.97717 0
v 167.537 -3.17958 0
v 166.596 -2.51201 0
v 165.559 -1.99875 0
v 164.454 -1.65648 0
v 163.314 -1.4908 0
v 162.169 -1.49713 0
v 161.045 -1.66425 0
v 159.961 -1.97952 0
v 158.936 -2.43016 0
v 157.983 -2.99998 0
v 157.11 -3.6709 0
v 156.322 -4.42469 0
v 155.618 -5.24416 0
v 154.994 -6.11413 0
v 154.445 -7.02173 0
v 153.963 -7.95652 0
v 153.54 -8.91025 0
v 153.167 -9.87654 0
v 152.835 -10.8506 0
v 152.537 -11.8286 0
v 152.263 -12.8079 0
v 152.006 -13.7862 0
v 151.759 -14.7615 0
v 151.513 -15.7323 0
v 151.262 -16.6968 0
v 150.998 -17.6531 0
v 150.717 -18.599 0
v 150.41 -19.5317 0
v 150.074 -20.448 0
v 149.704 -21.3441 0
v 149.295 -22.2158 0
v 148.844 -23.0581 0
v 148.349 -23.866 0
v 147.81 -24.6341 0
v 147.226 -25.3572 0
v 146.598 -26.0303 0
v 145.929 -26.6486 0
v 145.22 -27.2083 0
v 144.476 -27.7087 0
v 143.699 -28.1524 0
v 142.884 -28.5424 0
v 142.027 -28.8807 0
v 141.12 -29.1659 0
v 140.164 -29.3932 0
v 139.167 -29.5563 0
v 138.143 -29.6522 0
v 137.111 -29.6826 0
v 136.083 -29.6537 0
v 135.068 -29.5738 0
v 134.066 -29.4516 0
v 133.075 -29.2945 0
v 132.093 -29.1089 0
v 131.116 -28.9009 0
v 130.142 -28.6763 0
v 129.17 -28.4411 0
v 128.2 -28.1974 0
v 127.232 -27.9472 0
v 126.264 -27.6924 0
v 125.298 -27.435 0
v 124.331 -27.1772 0
v 123.364 -26.9208 0
v 122.397 -26.668 0
v 121.43 -26.4209 0
v 120.462 -26.1814 0
v 119.494 -25.9515 0
v 118.525 -25.7333 0
v 117.555 -25.5286 0
v 116.584 -25.3394 0
v 115.612 -25.1675 0
v 114.638 -25.015 0
v 113.664 -24.8838 0
v 112.689 -24.7757 0
v 111.713 -24.6927 0
v 110.738 -24.6367 0
v 109.764 -24.6094 0
v 108.792 -24.6127 0
v 107.824 -24.6482 0
v 106.86 -24.7175 0
v 105.902 -24.8222 0
v 104.952 -24.9635 0
v 104.011 -25.1427 0
v 103.081 -25.361 0
v 102.165 -25.6192 0
v 101.264 -25.918 0
v 100.38 -26.258 0
v 99.5157 -26.6375 0
v 98.6687 -27.0525 0
v 97.8367 -27.5003 0
v 97.0156 -27.9792 0
v 96.2013 -28.4883 0
v 95.3906 -29.0264 0
v 94.5817 -29.5908 0
v 93.7744 -30.1776 0
v 92.9688 -30.7819 0
v 92.1651 -31.3977 0
v 91.3634 -32.0188 0
v 90.5637 -32.639 0
v 89.7658 -33.2519 0
v 88.9697 -33.8519 0
v 88.1751 -34.4337 0
v 87.3813 -34.9934 0
v 86.5863 -35.5285 0
v 85.7866 -36.0377 0
v 84.9774 -36.5205 0
v 84.1535 -36.976 0
v 83.3123 -37.4046 0
v 82.4527 -37.8068 0
v 81.5742 -38.1826 0
v 80.6771 -38.5315 0
v 79.762 -38.8528 0
v 78.8297 -39.1458 0
v 77.8813 -39.4098 0
v 76.918 -39.644 0
v 75.9414 -39.8478 0
v 74.9532 -40.0207 0
v 73.9552 -40.1622 0
v 72.9493 -40.2722 0
v 71.9376 -40.3506 0
v 70.9221 -40.3976 0
v 69.9047 -40.4134 0
v 68.8872 -40.3986 0
v 67.8713 -40.3536 0
v 66.8588 -40.2794 0
v 65.8512 -40.1767 0
v 64.8495 -40.0464 0
v 63.8547 -39.8893 0
v 62.8669 -39.7063 0
v 61.885 -39.4977 0
v 60.9082 -39.2576 0
v 59.9357 -38.9796 0
v 58.9689 -38.6571 0
v 58.0122 -38.2839 0
v 57.0732 -37.8552 0
v 56.1615 -37.3681 0
v 55.2881 -36.8224 0
v 54.4639 -36.2207 0
v 53.6987 -35.5689 0
v 53.0003 -34.875 0
v 52.3733 -34.1489 0
v 51.8194 -33.4002 0
v 51.3368 -32.6371 0
v 50.9214 -31.8643 0
v 50.5671 -31.0805 0
v 50.2678 -30.2761 0
v 50.0166 -29.4319 0
v 49.8138 -28.5247 0
v 49.6693 -27.5466 0
v 49.5961 -26.5179 0
v 49.5984 -25.4746 0
v 49.6691 -24.4438 0
v 49.7969 -23.4341 0
v 49.972 -22.4431 0
v 50.1866 -21.4656 0
v 50.4339 -20.4977 0
v 50.7074 -19.537 0
v 51.0003 -18.5817 0
v 51.3112 -17.6316 0
v 51.643 -16.6877 0
v 51.9992 -15.7502 0
v 52.3834 -14.8192 0
v 52.7996 -13.8955 0
v 53.251 -12.9817 0
v 53.74 -12.0828 0
v 54.2674 -11.2049 0
v 54.8326 -10.3554 0
v 55.4335 -9.54128 0
v 56.0665 -8.76891 0
v 56.7271 -8.04342 0
v 57.4104 -7.36824 0
v 58.1119 -6.7447 0
v 58.8293 -6.1716 0
v 59.5642 -5.64536 0
v 60.3226 -5.16109 0
v 61.1137 -4.71532 0
v 61.9424 -4.30184 0
v 62.8098 -3.91738 0
v 63.7124 -3.56003 0
v 64.6433 -3.2274 0
v 65.5941 -2.91563 0
v 66.5563 -2.61917 0
v 67.5229 -2.33105 0
v 68.4884 -2.0435 0
v 69.4486 -1.74846 0
v 70.3995 -1.438 0
v 71.3371 -1.10467 0
v 72.2569 -0.741694 0
v 73.1538 -0.343207 0
v 74.0224 0.0955399 0
v 74.8566 0.577994 0
v 75.6501 1.10615 0
v 76.3966 1.6805 0
v 77.0901 2.30006 0
v 77.7252 2.96256 0
v 78.2971 3.66476 0
v 78.8024 4.40292 0
v 79.2382 5.17344 0
v 79.603 5.97378 0
v 79.8991 6.80313 0
v 80.1277 7.6658 0
v 80.2872 8.56951 0
v 80.3714 9.51939 0
v 80.3716 10.511 0
v 80.2816 11.5287 0
v 80.1027 12.5511 0
v 79.844 13.5581 0
v 79.5192 14.5367 0
v 79.1421 15.4828 0
v 78.7238 16.3994 0
v 78.2726 17.293 0
v 77.7954 18.1701 0
v 77.2989 19.0362 0
v 76.7877 19.8943 0
v 76.259 20.7428 0
v 75.7101 21.5805 0
v 75.138 22.4062 0
v 74.5389 23.219 0
v 73.9099 24.0167 0
v 73.2489 24.7953 0
v 72.5558 25.5489 0
v 71.8328 26.2706 0
v 71.0835 26.9534 0
v 70.3129 27.5912 0
v 69.5266 28.1797 0
v 68.7306 28.7163 0
v 67.9294 29.2006 0
v 67.1254 29.6341 0
v 66.3169 30.0203 0
v 65.4964 30.3636 0
v 64.6515 30.6711 0
v 63.768 30.9463 0
v 62.838 31.1883 0
v 61.8646 31.3922 0
v 60.8601 31.5532 0
v 59.8406 31.6696 0
v 58.8193 31.743 0
v 57.8032 31.7776 0
v 56.7936 31.7782 0
v 55.7892 31.749 0
v 54.7884 31.6943 0
v 53.7903 31.6175 0
v 52.7943 31.5223 0
v 51.8001 31.4123 0
v 50.8074 31.2907 0
v 49.8157 31.1612 0
v 48.8247 31.027 0
v 47.8339 30.8917 0
v 46.8431 30.7563 0
v 45.8523 30.6209 0
v 44.8615 30.4855 0
v 43.8707 30.35 0
v 42.88 30.2146 0
v 41.8892 30.0791 0
v 40.8984 29.9437 0
v 39.9076 29.8083 0
v 38.9168 29.6729 0
v 37.9259 29.5375 0
v 36.935 29.4021 0
v 35.9442 29.2668 0
v 34.9536 29.1316 0
v 33.9633 28.9965 0
v 32.9746 28.8536 0
v 31.9884 28.6949 0
v 31.005 28.5118 0
v 30.0237 28.2954 0
v 29.044 28.0359 0
v 28.0683 27.723 0
v 27.1048 27.3473 0
v 26.168 26.9033 0
v 25.2772 26.3915 0
v 24.4516 25.8199 0
v 23.7059 25.203 0
v 23.0458 24.5563 0
v 22.4669 23.8895 0
v 21.9572 23.2005 0
v 21.5045 22.4766 0
v 21.1042 21.7032 0
v 20.7548 20.8741 0
v 20.4592 19.9906 0
v 20.2208 19.0605 0
v 20.0391 18.0956 0
v 19.9097 17.1082 0
v 19.824 16.1089 0
v 19.7709 15.1051 0
v 19.7379 14.1006 0
v 19.7126 13.0969 0
v 19.6823 12.0947 0
v 19.6346 11.0962 0
v 19.5578 10.1052 0
v 19.4414 9.12787 0
v 19.2769 8.17163 0
v 19.0585 7.24496 0
v 18.7835 6.3562 0
v 18.4519 5.51243 0
v 18.0649 4.71799 0
v 17.623 3.97321 0
v 17.1221 3.27433 0
v 16.556 2.61183 0
v 15.9126 1.97969 0
v 15.1817 1.38207 0
v 14.3622 0.833201 0
v 13.4646 0.350695 0
v 12.5078 -0.0521862 0
v 11.5142 -0.370631 0
v 10.504 -0.608249 0
v 9.49143 -0.774472 0
v 8.48363 -0.881248 0
v 7.4812 -0.940433 0
v 6.48185 -0.962656 0
v 5.48331 -0.957485 0
v 4.48441 -0.928682 0
v 3.4849 -0.879889 0
v 2.48493 -0.81475 0
v 1.48473 -0.736942 0
v 0.110375 -0.612789 0
g vroa_Path Racetrack
usemtl RED
l 1 2
f 1 2
l 2 3
f 2 3
l 3 4
f 3 4
l 4 5
f 4 5
l 5 6
f 5 6
l 6 7
f 6 7
l 7 8
f 7 8
l 8 9
f 8 9
l 9 10
f 9 10
l 10 11
f 10 11
l 11 12
f 11 12
l 12 13
f 12 13
l 13 14
f 13 14
l 14 15
f 14 15
l 15 16
f 15 16
l 16 17
f 16 17
l 17 18
f 17 18
l 18 19
f 18 19
l 19 20
f 19 20
l 20 21
f 20 21
l 21 22
f 21 22
l 22 23
f 22 23
l 23 24
f 23 24
l 24 25
f 24 25
l 25 26
f 25 26
l 26 27
f 26 27
l 27 28
f 27 28
l 28 29
f 28 29
l 29 30
f 29 30
l 30 31
f 30 31
l 31 32
f 31 32
l 32 33
f 32 33
l 33 34
f 33 34
l 34 35
f 34 35
l 35 36
f 35 36
l 36 37
f 36 37
l 37 38
f 37 38
l 38 39
f 38 39
l 39 40
f 39 40
l 40 41
f 40 41
l 41 42
f 41 42
l 42 43
f 42 43
l 43 44
f 43 44
l 44 45
f 44 45
l 45 46
f 45 46
l 46 47
f 46 47
l 47 48
f 47 48
l 48 49
f 48 49
l 49 50
f 49 50
l 50 51
f 50 51
l 51 52
f 51 52
l 52 53
f 52 53
l 53 54
f 53 54
l 54 55
f 54 55
l 55 56
f 55 56
l 56 57
f 56 57
l 57 58
f 57 58
l 58 59
f 58 59
l 59 60
f 59 60
l 60 61
f 60 61
l 61 62
f 61 62
l 62 63
f 62 63
l 63 64
f 63 64
l 64 65
f 64 65
l 65 66
f 65 66
l 66 67
f 66 67
l 67 68
f 67 68
l 68 69
f 68 69
l 69 70
f 69 70
l 70 71
f 70 71
l 71 72
f 71 72
l 72 73
f 72 73
l 73 74
f 73 74
l 74 75
f 74 75
l 75 76
f 75 76
l 76 77
f 76 77
l 77 78
f 77 78
l 78 79
f 78 79
l 79 80
f 79 80
l 80 81
f 80 81
l 81 82
f 81 82
l 82 83
f 82 83
l 83 84
f 83 84
l 84 85
f 84 85
l 85 86
f 85 86
l 86 87
f 86 87
l 87 88
f 87 88
l 88 89
f 88 89
l 89 90
f 89 90
l 90 91
f 90 91
l 91 92
f 91 92
l 92 93
f 92 93
l 93 94
f 93 94
l 94 95
f 94 95
l 95 96
f 95 96
l 96 97
f 96 97
l 97 98
f 97 98
l 98 99
f 98 99
l 99 100
f 99 100
l 100 101
f 100 101
l 101 102
f 101 102
l 102 103
f 102 103
l 103 104
f 103 104
l 104 105
f 104 105
l 105 106
f 105 106
l 106 107
f 106 107
l 107 108
f 107 108
l 108 109
f 108 109
l 109 110
f 109 110
l 110 111
f 110 111
l 111 112
f 111 112
l 112 113
f 112 113
l 113 114
f 113 114
l 114 115
f 114 115
l 115 116
f 115 116
l 116 117
f 116 117
l 117 118
f 117 118
l 118 119
f 118 119
l 119 120
f 119 120
l 120 121
f 120 121
l 121 122
f 121 122
l 122 123
f 122 123
l 123 124
f 123 124
l 124 125
f 124 125
l 125 126
f 125 126
l 126 127
f 126 127
l 127 128
f 127 128
l 128 129
f 128 129
l 129 130
f 129 130
l 130 131
f 130 131
l 131 132
f 131 132
l 132 133
f 132 133
l 133 134
f 133 134
l 134 135
f 134 135
l 135 136
f 135 136
l 136 137
f 136 137
l 137 138
f 137 138
l 138 139
f 138 139
l 139 140
f 139 140
l 140 141
f 140 141
l 141 142
f 141 142
l 142 143
f 142 143
l 143 144
f 143 144
l 144 145
f 144 145
l 145 146
f 145 146
l 146 147
f 146 147
l 147 148
f 147 148
l 148 149
f 148 149
l 149 150
f 149 150
l 150 151
f 150 151
l 151 152
f 151 152
l 152 153
f 152 153
l 153 154
f 153 154
l 154 155
f 154 155
l 155 156
f 155 156
l 156 157
f 156 157
l 157 158
f 157 158
l 158 159
f 158 159
l 159 160
f 159 160
l 160 161
f 160 161
l 161 162
f 161 162
l 162 163
f 162 163
l 163 164
f 163 164
l 164 165
f 164 165
l 165 166
f 165 166
l 166 167
f 166 167
l 167 168
f 167 168
l 168 169
f 168 169
l 169 170
f 169 170
l 170 171
f 170 171
l 171 172
f 171 172
l 172 173
f 172 173
l 173 174
f 173 174
l 174 175
f 174 175
l 175 176
f 175 176
l 176 177
f 176 177
l 177 178
f 177 178
l 178 179
f 178 179
l 179 180
f 179 180
l 180 181
f 180 181
l 181 182
f 181 182
l 182 183
f 182 183
l 183 184
f 183 184
l 184 185
f 184 185
l 185 186
f 185 186
l 186 187
f 186 187
l 187 188
f 187 188
l 188 189
f 188 189
l 189 190
f 189 190
l 190 191
f 190 191
l 191 192
f 191 192
l 192 193
f 192 193
l 193 194
f 193 194
l 194 195
f 194 195
l 195 196
f 195 196
l 196 197
f 196 197
l 197 198
f 197 198
l 198 199
f 198 199
l 199 200
f 199 200
l 200 201
f 200 201
l 201 202
f 201 202
l 202 203
f 202 203
l 203 204
f 203 204
l 204 205
f 204 205
l 205 206
f 205 206
l 206 207
f 206 207
l 207 208
f 207 208
l 208 209
f 208 209
l 209 210
f 209 210
l 210 211
f 210 211
l 211 212
f 211 212
l 212 213
f 212 213
l 213 214
f 213 214
l 214 215
f 214 215
l 215 216
f 215 216
l 216 217
f 216 217
l 217 218
f 217 218
l 218 219
f 218 219
l 219 220
f 219 220
l 220 221
f 220 221
l 221 222
f 221 222
l 222 223
f 222 223
l 223 224
f 223 224
l 224 225
f 224 225
l 225 226
f 225 226
l 226 227
f 226 227
l 227 228
f 227 228
l 228 229
f 228 229
l 229 230
f 229 230
l 230 231
f 230 231
l 231 232
f 231 232
l 232 233
f 232 233
l 233 234
f 233 234
l 234 235
f 234 235
l 235 236
f 235 236
l 236 237
f 236 237
l 237 238
f 237 238
l 238 239
f 238 239
l 239 240
f 239 240
l 240 241
f 240 241
l 241 242
f 241 242
l 242 243
f 242 243
l 243 244
f 243 244
l 244 245
f 244 245
l 245 246
f 245 246
l 246 247
f 246 247
l 247 248
f 247 248
l 248 249
f 248 249
l 249 250
f 249 250
l 250 251
f 250 251
l 251 252
f 251 252
l 252 253
f 252 253
l 253 254
f 253 254
l 254 255
f 254 255
l 255 256
f 255 256
l 256 257
f 256 257
l 257 258
f 257 258
l 258 259
f 258 259
l 259 260
f 259 260
l 260 261
f 260 261
l 261 262
f 261 262
l 262 263
f 262 263
l 263 264
f 263 264
l 264 265
f 264 265
l 265 266
f 265 266
l 266 267
f 266 267
l 267 268
f 267 268
l 268 269
f 268 269
l 269 270
f 269 270
l 270 271
f 270 271
l 271 272
f 271 272
l 272 273
f 272 273
l 273 274
f 273 274
l 274 275
f 274 275
l 275 276
f 275 276
l 276 277
f 276 277
l 277 278
f 277 278
l 278 279
f 278 279
l 279 280
f 279 280
l 280 281
f 280 281
l 281 282
f 281 282
l 282 283
f 282 283
l 283 284
f 283 284
l 284 285
f 284 285
l 285 286
f 285 286
l 286 287
f 286 287
l 287 288
f 287 288
l 288 289
f 288 289
l 289 290
f 289 290
l 290 291
f 290 291
l 291 292
f 291 292
l 292 293
f 292 293
l 293 294
f 293 294
l 294 295
f 294 295
l 295 296
f 295 296
l 296 297
f 296 297
l 297 298
f 297 298
l 298 299
f 298 299
l 299 300
f 299 300
l 300 301
f 300 301
l 301 302
f 301 302
l 302 303
f 302 303
l 303 304
f 303 304
l 304 305
f 304 305
l 305 306
f 305 306
l 306 307
f 306 307
l 307 308
f 307 308
l 308 309
f 308 309
l 309 310
f 309 310
l 310 311
f 310 311
l 311 312
f 311 312
l 312 313
f 312 313
l 313 314
f 313 314
l 314 315
f 314 315
l 315 316
f 315 316
l 316 317
f 316 317
l 317 318
f 317 318
l 318 319
f 318 319
l 319 320
f 319 320
l 320 321
f 320 321
l 321 322
f 321 322
l 322 323
f 322 323
l 323 324
f 323 324
l 324 325
f 324 325
l 325 326
f 325 326
l 326 327
f 326 327
l 327 328
f 327 328
l 328 329
f 328 329
l 329 330
f 329 330
l 330 331
f 330 331
l 331 332
f 331 332
l 332 333
f 332 333
l 333 334
f 333 334
l 334 335
f 334 335
l 335 336
f 335 336
l 336 337
f 336 337
l 337 338
f 337 338
l 338 339
f 338 339
l 339 340
f 339 340
l 340 341
f 340 341
l 341 342
f 341 342
l 342 343
f 342 343
l 343 344
f 343 344
l 344 345
f 344 345
l 345 346
f 345 346
l 346 347
f 346 347
l 347 348
f 347 348
l 348 349
f 348 349
l 349 350
f 349 350
l 350 351
f 350 351
l 351 352
f 351 352
l 352 353
f 352 353
l 353 354
f 353 354
l 354 355
f 354 355
l 355 356
f 355 356
l 356 357
f 356 357
l 357 358
f 357 358
l 358 359
f 358 359
l 359 360
f 359 360
l 360 361
f 360 361
l 361 362
f 361 362
l 362 363
f 362 363
l 363 364
f 363 364
l 364 365
f 364 365
l 365 366
f 365 366
l 366 367
f 366 367
l 367 368
f 367 368
l 368 369
f 368 369
l 369 370
f 369 370
l 370 371
f 370 371
l 371 372
f 371 372
l 372 373
f 372 373
l 373 374
f 373 374
l 374 375
f 374 375
l 375 376
f 375 376
l 376 377
f 376 377
l 377 378
f 377 378
l 378 379
f 378 379
l 379 380
f 379 380
l 380 381
f 380 381
l 381 382
f 381 382
l 382 383
f 382 383
l 383 384
f 383 384
l 384 385
f 384 385
l 385 386
f 385 386
l 386 387
f 386 387
l 387 388
f 387 388
l 388 389
f 388 389
l 389 390
f 389 390
l 390 391
f 390 391
l 391 392
f 391 392
l 392 393
f 392 393
l 393 394
f 393 394
l 394 395
f 394 395
l 395 396
f 395 396
l 396 397
f 396 397
l 397 398
f 397 398
l 398 399
f 398 399
l 399 400
f 399 400
l 400 401
f 400 401
l 401 402
f 401 402
l 402 403
f 402 403
l 403 404
f 403 404
l 404 405
f 404 405
l 405 406
f 405 406
l 406 407
f 406 407
l 407 408
f 407 408
l 408 409
f 408 409
l 409 410
f 409 410
l 410 411
f 410 411
l 411 412
f 411 412
l 412 413
f 412 413
l 413 414
f 413 414
l 414 415
f 414 415
l 415 416
f 415 416
l 416 417
f 416 417
l 417 418
f 417 418
l 418 419
f 418 419
l 419 420
f 419 420
l 420 421
f 420 421
l 421 422
f 421 422
l 422 423
f 422 423
l 423 424
f 423 424
l 424 425
f 424 425
l 425 426
f 425 426
l 426 427
f 426 427
l 427 428
f 427 428
l 428 429
f 428 429
l 429 430
f 429 430
l 430 431
f 430 431
l 431 432
f 431 432
l 432 433
f 432 433
l 433 434
f 433 434
l 434 435
f 434 435
l 435 436
f 435 436
l 436 437
f 436 437
l 437 438
f 437 438
l 438 439
f 438 439
l 439 440
f 439 440
l 440 441
f 440 441
l 441 442
f 441 442
l 442 443
f 442 443
l 443 444
f 443 444
l 444 445
f 444 445
l 445 446
f 445 446
l 446 447
f 446 447
l 447 448
f 447 448
l 448 449
f 448 449
l 449 450
f 449 450
l 450 451
f 450 451
l 451 452
f 451 452
l 452 453
f 452 453
l 453 454
f 453 454
l 454 455
f 454 455
l 455 456
f 455 456
l 456 457
f 456 457
l 457 458
f 457 458
l 458 459
f 458 459
l 459 460
f 459 460
l 460 461
f 460 461
l 461 462
f 461 462
l 462 463
f 462 463
l 463 464
f 463 464
l 464 465
f 464 465
l 465 466
f 465 466
l 466 467
f 466 467
l 467 468
f 467 468
l 468 469
f 468 469
l 469 470
f 469 470
l 470 471
f 470 471
l 471 472
f 471 472
l 472 473
f 472 473
l 473 474
f 473 474
l 474 475
f 474 475
l 475 476
f 475 476
l 476 477
f 476 477
l 477 478
f 477 478
l 478 479
f 478 479
l 479 480
f 479 480
l 480 481
f 480 481
l 481 482
f 481 482
l 482 483
f 482 483
l 483 484
f 483 484
l 484 485
f 484 485
l 485 486
f 485 486
l 486 487
f 486 487
l 487 488
f 487 488
l 488 489
f 488 489
l 489 490
f 489 490
l 490 491
f 490 491
l 491 492
f 491 492
l 492 493
f 492 493
l 493 494
f 493 494
l 494 495
f 494 495
l 495 496
f 495 496
l 496 497
f 496 497
l 497 498
f 497 498
l 498 499
f 498 499
l 499 500
f 499 500
l 500 501
f 500 501
l 501 502
f 501 502
l 502 503
f 502 503
l 503 504
f 503 504
l 504 505
f 504 505
l 505 506
f 505 506
l 506 507
f 506 507
l 507 508
f 507 508
l 508 509
f 508 509
l 509 510
f 509 510
l 510 511
f 510 511
l 511 512
f 511 512
l 512 513
f 512 513
l 513 514
f 513 514
l 514 515
f 514 515
l 515 516
f 515 516
l 516 517
f 516 517
l 517 518
f 517 518
l 518 519
f 518 519
l 519 520
f 519 520
l 520 521
f 520 521
l 521 522
f 521 522
l 522 523
f 522 523
l 523 524
f 523 524
l 524 525
f 524 525
l 525 526
f 525 526
l 526 527
f 526 527
l 527 528
f 527 528
l 528 529
f 528 529
l 529 530
f 529 530
l 530 531
f 530 531
l 531 532
f 531 532
l 532 533
f 532 533
l 533 534
f 533 534
l 534 535
f 534 535
l 535 536
f 535 536
l 536 537
f 536 537
l 537 538
f 537 538
l 538 539
f 538 539
l 539 540
f 539 540
l 540 541
f 540 541
l 541 542
f 541 542
l 542 543
f 542 543
l 543 544
f 543 544
l 544 545
f 544 545
l 545 546
f 545 546
l 546 547
f 546 547
l 547 548
f 547 548
l 548 549
f 548 549
l 549 550
f 549 550
l 550 551
f 550 551
l 551 552
f 551 552
l 552 553
f 552 553
l 553 554
f 553 554
l 554 555
f 554 555
l 555 556
f 555 556
l 556 557
f 556 557
l 557 558
f 557 558
l 558 559
f 558 559
l 559 560
f 559 560
l 560 561
f 560 561
l 561 562
f 561 562
l 562 563
f 562 563
l 563 564
f 563 564
l 564 565
f 564 565
l 565 566
f 565 566
l 566 567
f 566 567
l 567 568
f 567 568
l 568 569
f 568 569
l 569 570
f 569 570
l 570 571
f 570 571
l 571 572
f 571 572
l 572 573
f 572 573
l 573 574
f 573 574
l 574 575
f 574 575
l 575 576
f 575 576
l 576 577
f 576 577
l 577 578
f 577 578
l 578 579
f 578 579
l 579 580
f 579 580
l 580 581
f 580 581
l 581 582
f 581 582
l 582 583
f 582 583
l 583 584
f 583 584
l 584 585
f 584 585
l 585 586
f 585 586
l 586 587
f 586 587
l 587 588
f 587 588
l 588 589
f 588 589
l 589 590
f 589 590
l 590 591
f 590 591
l 591 592
f 591 592
l 592 593
f 592 593
l 593 594
f 593 594
l 594 595
f 594 595
l 595 596
f 595 596
l 596 597
f 596 597
l 597 598
f 597 598
l 598 599
f 598 599
l 599 600
f 599 600
l 600 601
f 600 601
l 601 602
f 601 602
l 602 603
f 602 603
l 603 604
f 603 604
l 604 605
f 604 605
l 605 606
f 605 606
l 606 607
f 606 607
l 607 608
f 607 608
l 608 609
f 608 609
l 609 610
f 609 610
l 610 611
f 610 611
l 611 612
f 611 612
l 612 613
f 612 613
l 613 614
f 613 614
l 614 615
f 614 615
l 615 616
f 615 616
l 616 617
f 616 617
l 617 618
f 617 618
l 618 619
f 618 619
l 619 620
f 619 620
l 620 621
f 620 621
l 621 622
f 621 622
l 622 623
f 622 623
l 623 624
f 623 624
l 624 625
f 624 625
l 625 626
f 625 626
l 626 627
f 626 627
l 627 628
f 627 628
l 628 629
f 628 629
l 629 630
f 629 630
l 630 631
f 630 631
l 631 632
f 631 632
l 632 633
f 632 633
l 633 634
f 633 634
l 634 635
f 634 635
l 635 636
f 635 636
l 636 637
f 636 637
l 637 638
f 637 638
l 638 639
f 638 639
l 639 640
f 639 640
l 640 641
f 640 641
l 641 642
f 641 642
l 642 643
f 642 643
l 643 644
f 643 644
l 644 645
f 644 645
l 645 646
f 645 646
l 646 647
f 646 647
l 647 648
f 647 648
l 648 649
f 648 649
l 649 650
f 649 650
l 650 651
f 650 651
l 651 652
f 651 652
l 652 653
f 652 653
l 653 654
f 653 654
l 654 655
f 654 655
l 655 656
f 655 656
l 656 657
f 656 657
l 657 658
f 657 658
l 658 659
f 658 659
l 659 660
f 659 660
l 660 661
f 660 661
l 661 662
f 661 662
l 662 663
f 662 663
l 663 664
f 663 664
l 664 665
f 664 665
l 665 666
f 665 666
l 666 667
f 666 667
l 667 668
f 667 668
l 668 669
f 668 669
l 669 670
f 669 670
l 670 671
f 670 671
l 671 672
f 671 672
l 672 673
f 672 673
l 673 674
f 673 674
l 674 675
f 674 675
l 675 676
f 675 676
l 676 677
f 676 677
l 677 678
f 677 678
l 678 679
f 678 679
l 679 680
f 679 680
l 680 681
f 680 681
l 681 682
f 681 682
l 682 683
f 682 683
l 683 684
f 683 684
l 684 685
f 684 685
l 685 686
f 685 686
l 686 687
f 686 687
l 687 688
f 687 688
l 688 689
f 688 689
l 689 690
f 689 690
l 690 691
f 690 691
l 691 692
f 691 692
l 692 693
f 692 693
l 693 694
f 693 694
l 694 695
f 694 695
l 695 696
f 695 696
l 696 697
f 696 697
l 697 698
f 697 698
l 698 699
f 698 699
l 699 700
f 699 700
l 700 701
f 700 701
l 701 702
f 701 702
l 702 703
f 702 703
l 703 704
f 703 704
l 704 705
f 704 705
l 705 706
f 705 706
l 706 707
f 706 707
l 707 708
f 707 708
l 708 709
f 708 709
l 709 710
f 709 710
l 710 711
f 710 711
l 711 712
f 711 712
l 712 713
f 712 713
l 713 714
f 713 714
l 714 715
f 714 715
l 715 716
f 715 716
l 716 717
f 716 717
l 717 718
f 717 718
l 718 719
f 718 719
l 719 720
f 719 720
l 720 721
f 720 721
l 721 722
f 721 722
l 722 723
f 722 723
l 723 724
f 723 724
l 724 725
f 724 725
l 725 726
f 725 726
l 726 727
f 726 727
l 727 728
f 727 728
l 728 729
f 728 729
l 729 730
f 729 730
l 730 731
f 730 731
l 731 732
f 731 732
l 732 733
f 732 733
l 733 734
f 733 734
l 734 735
f 734 735
l 735 736
f 735 736
l 736 737
f 736 737
l 737 738
f 737 738
l 738 739
f 738 739
l 739 740
f 739 740
l 740 741
f 740 741
l 741 742
f 741 742
l 742 743
f 742 743
l 743 744
f 743 744
l 744 745
f 744 745
l 745 746
f 745 746
l 746 747
f 746 747
l 747 748
f 747 748
l 748 749
f 748 749
l 749 750
f 749 750
l 750 751
f 750 751
l 751 752
f 751 752
l 752 753
f 752 753
l 753 754
f 753 754
l 754 755
f 754 755
l 755 756
f 755 756
l 756 757
f 756 757
l 757 758
f 757 758
l 758 759
f 758 759
l 759 760
f 759 760
l 760 761
f 760 761
l 761 762
f 761 762
l 762 763
f 762 763
l 763 764
f 763 764
l 764 765
f 764 765
l 765 766
f 765 766
l 766 767
f 766 767
l 767 768
f 767 768
l 768 769
f 768 769
l 769 770
f 769 770
l 770 771
f 770 771
l 771 772
f 771 772
l 772 773
f 772 773
l 773 774
f 773 774
l 774 775
f 774 775
l 775 776
f 775 776
l 776 777
f 776 777
l 777 778
f 777 778
l 778 779
f 778 779
l 779 780
f 779 780
l 780 781
f 780 781
l 781 782
f 781 782
l 782 783
f 782 783
l 783 784
f 783 784
l 784 785
f 784 785
l 785 786
f 785 786
l 786 787
f 786 787
l 787 788
f 787 788
l 788 789
f 788 789
l 789 790
f 789 790
l 790 791
f 790 791
l 791 792
f 791 792
l 792 793
f 792 793
l 793 794
f 793 794
l 794 795
f 794 795
l 795 796
f 795 796
l 796 797
f 796 797
l 797 798
f 797 798
l 798 799
f 798 799
l 799 800
f 799 800
l 800 801
f 800 801
l 801 802
f 801 802
l 802 803
f 802 803
l 803 804
f 803 804
l 804 805
f 804 805
l 805 806
f 805 806
l 806 807
f 806 807
l 807 808
f 807 808
l 808 809
f 808 809
l 809 810
f 809 810
l 810 811
f 810 811
l 811 812
f 811 812
l 812 813
f 812 813
l 813 814
f 813 814
l 814 815
f 814 815
l 815 816
f 815 816
l 816 817
f 816 817
l 817 818
f 817 818
l 818 819
f 818 819
l 819 820
f 819 820
l 820 821
f 820 821
l 821 822
f 821 822
l 822 823
f 822 823
l 823 824
f 823 824
l 824 825
f 824 825
l 825 826
f 825 826
l 826 827
f 826 827
l 827 828
f 827 828
l 828 829
f 828 829
l 829 830
f 829 830
l 830 831
f 830 831
l 831 832
f 831 832
l 832 833
f 832 833
l 833 834
f 833 834
l 834 835
f 834 835
l 835 836
f 835 836
l 836 837
f 836 837
l 837 838
f 837 838
l 838 839
f 838 839
l 839 840
f 839 840
l 840 841
f 840 841
l 841 842
f 841 842
l 842 843
f 842 843
l 843 844
f 843 844
l 844 845
f 844 845
l 845 846
f 845 846
l 846 847
f 846 847
l 847 848
f 847 848
l 848 849
f 848 849
l 849 850
f 849 850
l 850 851
f 850 851
l 851 852
f 851 852
l 852 853
f 852 853
l 853 854
f 853 854
l 854 855
f 854 855
l 855 856
f 855 856
l 856 857
f 856 857
l 857 858
f 857 858
l 858 859
f 858 859
l 859 860
f 859 860
l 860 861
f 860 861
l 861 862
f 861 862
l 862 863
f 862 863
l 863 864
f 863 864
l 864 865
f 864 865
l 865 866
f 865 866
l 866 867
f 866 867
l 867 868
f 867 868
l 868 869
f 868 869
l 869 870
f 869 870
l 870 871
f 870 871
l 871 872
f 871 872
l 872 873
f 872 873
l 873 874
f 873 874
l 874 875
f 874 875
l 875 876
f 875 876
l 876 877
f 876 877
l 877 878
f 877 878
l 878 879
f 878 879
l 879 880
f 879 880
l 880 881
f 880 881
l 881 882
f 881 882
l 882 883
f 882 883
l 883 884
f 883 884
l 884 885
f 884 885
l 885 886
f 885 886
l 886 887
f 886 887
l 887 888
f 887 888
l 888 889
f 888 889
l 889 890
f 889 890
l 890 891
f 890 891
l 891 892
f 891 892
l 892 893
f 892 893
l 893 894
f 893 894
l 894 895
f 894 895
l 895 896
f 895 896
l 896 897
f 896 897
l 897 898
f 897 898
l 898 899
f 898 899
l 899 900
f 899 900
l 900 901
f 900 901
l 901 902
f 901 902
l 902 903
f 902 903
l 903 904
f 903 904
l 904 905
f 904 905
l 905 906
f 905 906
l 906 907
f 906 907
l 907 908
f 907 908
l 908 909
f 908 909
l 909 910
f 909 910
l 910 911
f 910 911
l 911 912
f 911 912
l 912 913
f 912 913
l 913 914
f 913 914
l 914 915
f 914 915
l 915 916
f 915 916
l 916 917
f 916 917
l 917 918
f 917 918
l 918 919
f 918 919
l 919 920
f 919 920
l 920 921
f 920 921
l 921 922
f 921 922
l 922 923
f 922 923
l 923 924
f 923 924
l 924 925
f 924 925
l 925 926
f 925 926
l 926 927
f 926 927
l 927 928
f 927 928
l 928 929
f 928 929
l 929 930
f 929 930
l 930 931
f 930 931
l 931 932
f 931 932
l 932 933
f 932 933
l 933 934
f 933 934
l 934 935
f 934 935
l 935 936
f 935 936
l 936 937
f 936 937
l 937 938
f 937 938
l 938 939
f 938 939
l 939 940
f 939 940
l 940 941
f 940 941
l 941 942
f 941 942
l 942 943
f 942 943
l 943 944
f 943 944
l 944 945
f 944 945
l 945 946
f 945 946
l 946 947
f 946 947
l 947 948
f 947 948
l 948 949
f 948 949
l 949 950
f 949 950
l 950 951
f 950 951
l 951 952
f 951 952
l 952 953
f 952 953
l 953 954
f 953 954
l 954 955
f 954 955
l 955 956
f 955 956
l 956 957
f 956 957
l 957 958
f 957 958
l 958 959
f 958 959
l 959 960
f 959 960
l 960 961
f 960 961
l 961 962
f 961 962
l 962 963
f 962 963
l 963 964
f 963 964
l 964 965
f 964 965
l 965 966
f 965 966
