mtllib viroad.mtl
v 0.000165673 -0.038143 0
v -0.999812 -0.0315208 0
v -1.99979 -0.0249068 0
v -2.99977 -0.0183095 0
v -3.99975 -0.011737 0
v -4.99973 -0.00519776 0
v -5.9997 0.00129789 0
v -6.99968 0.00773118 0
v -7.99966 0.0140812 0
v -8.99964 0.0203271 0
v -9.99963 0.0264481 0
v -10.9996 0.0324311 0
v -11.9996 0.0382954 0
v -12.9996 0.0440679 0
v -13.9996 0.0497758 0
v -14.9995 0.0554461 0
v -15.9995 0.0610752 0
v -16.9995 0.0665371 0
v -17.9995 0.0716747 0
v -18.9995 0.0763311 0
v -19.9995 0.0803495 0
v -20.9995 0.0836861 0
v -21.9995 0.0867512 0
v -22.9995 0.0900684 0
v -23.9995 0.0941615 0
v -24.9994 0.0995544 0
v -25.9994 0.106347 0
v -26.9993 0.11294 0
v -27.9993 0.117312 0
v -28.9993 0.117438 0
v -29.9994 0.111295 0
v -30.9994 0.0945653 0
v -31.9983 0.0536356 0
v -32.9949 -0.027458 0
v -33.9878 -0.16468 0
v -34.9758 -0.373993 0
v -35.9539 -0.669491 0
v -36.9017 -1.0579 0
v -37.7952 -1.54413 0
v -38.6102 -2.13309 0
v -39.3227 -2.82968 0
v -39.9161 -3.6321 0
v -40.3943 -4.52003 0
v -40.7645 -5.47003 0
v -41.0341 -6.45867 0
v -41.2105 -7.46256 0
v -41.3036 -8.46575 0
v -41.3285 -9.46685 0
v -41.3011 -10.4661 0
v -41.237 -11.4639 0
v -41.152 -12.4604 0
v -41.0578 -13.456 0
v -40.9584 -14.4511 0
v -40.857 -15.4459 0
v -40.7565 -16.4408 0
v -40.6602 -17.4362 0
v -40.569 -18.4321 0
v -40.4798 -19.4283 0
v -40.389 -20.4242 0
v -40.293 -21.4195 0
v -40.1883 -22.4137 0
v -40.0685 -23.4059 0
v -39.9225 -24.3945 0
v -39.7386 -25.3775 0
v -39.505 -26.3531 0
v -39.21 -27.3196 0
v -38.8436 -28.2694 0
v -38.4 -29.185 0
v -37.8735 -30.0474 0
v -37.2585 -30.8378 0
v -36.5494 -31.5374 0
v -35.7503 -32.1374 0
v -34.8785 -32.6432 0
v -33.9527 -33.0614 0
v -32.9914 -33.3985 0
v -32.013 -33.6613 0
v -31.0279 -33.8589 0
v -30.0378 -34.0035 0
v -29.044 -34.1076 0
v -28.0476 -34.1835 0
v -27.0498 -34.2434 0
v -26.0513 -34.2947 0
v -25.0523 -34.3397 0
v -24.053 -34.3804 0
v -23.0535 -34.4186 0
v -22.0541 -34.4563 0
v -21.0547 -34.4943 0
v -20.0555 -34.5325 0
v -19.0562 -34.5703 0
v -18.057 -34.6076 0
v -17.0577 -34.6439 0
v -16.0583 -34.6793 0
v -15.0589 -34.7138 0
v -14.0595 -34.7479 0
v -13.06 -34.7818 0
v -12.0606 -34.8157 0
v -11.0612 -34.8498 0
v -10.0618 -34.8843 0
v -9.06238 -34.9192 0
v -8.06301 -34.9547 0
v -7.06365 -34.9908 0
v -6.0643 -35.0277 0
v -5.065 -35.0655 0
v -4.06574 -35.1043 0
v -3.06657 -35.1442 0
v -2.06748 -35.1854 0
v -1.06848 -35.2281 0
v -0.0695359 -35.2725 0
v 0.929383 -35.3188 0
v 1.92831 -35.3673 0
v 2.92726 -35.4183 0
v 3.92602 -35.4744 0
v 4.92405 -35.5405 0
v 5.92084 -35.6217 0
v 6.91585 -35.7231 0
v 7.90853 -35.8497 0
v 8.89759 -36.006 0
v 9.88091 -36.1955 0
v 10.8563 -36.4218 0
v 11.8217 -36.6885 0
v 12.7747 -36.9991 0
v 13.7121 -37.3568 0
v 14.6289 -37.7644 0
v 15.5202 -38.2244 0
v 16.3812 -38.7398 0
v 17.2069 -39.313 0
v 17.9916 -39.944 0
v 18.7286 -40.6302 0
v 19.4112 -41.3689 0
v 20.0328 -42.1573 0
v 20.5868 -42.9926 0
v 21.0698 -43.8708 0
v 21.4811 -44.7866 0
v 21.8199 -45.7348 0
v 22.0857 -46.7101 0
v 22.2775 -47.707 0
v 22.3914 -48.7173 0
v 22.4205 -49.73 0
v 22.3575 -50.7341 0
v 22.1957 -51.7185 0
v 21.9298 -52.6733 0
v 21.5799 -53.6026 0
v 21.1838 -54.5202 0
v 20.7795 -55.4403 0
v 20.4051 -56.3767 0
v 20.097 -57.3424 0
v 19.8745 -58.3345 0
v 19.7457 -59.3405 0
v 19.7185 -60.3477 0
v 19.801 -61.3434 0
v 19.9968 -62.3168 0
v 20.2781 -63.272 0
v 20.6028 -64.2197 0
v 20.9285 -65.1707 0
v 21.2129 -66.1357 0
v 21.4177 -67.1234 0
v 21.5307 -68.1283 0
v 21.5509 -69.1391 0
v 21.4771 -70.1444 0
v 21.3081 -71.1329 0
v 21.0459 -72.0957 0
v 20.7067 -73.0351 0
v 20.3111 -73.9564 0
v 19.8793 -74.8651 0
v 19.4319 -75.7668 0
v 18.9857 -76.6659 0
v 18.5426 -77.5635 0
v 18.1001 -78.4593 0
v 17.6559 -79.3532 0
v 17.2077 -80.2451 0
v 16.7537 -81.1349 0
v 16.2947 -82.023 0
v 15.8322 -82.9099 0
v 15.3675 -83.796 0
v 14.9023 -84.6818 0
v 14.4378 -85.5677 0
v 13.9748 -86.4542 0
v 13.5138 -87.3415 0
v 13.0554 -88.2301 0
v 12.6001 -89.1203 0
v 12.1486 -90.0124 0
v 11.7012 -90.9067 0
v 11.2583 -91.8033 0
v 10.8203 -92.7024 0
v 10.3877 -93.6041 0
v 9.9612 -94.5089 0
v 9.54271 -95.4173 0
v 9.13457 -96.3304 0
v 8.73911 -97.2489 0
v 8.35865 -98.1739 0
v 7.99548 -99.1061 0
v 7.65178 -100.046 0
v 7.32967 -100.993 0
v 7.03128 -101.948 0
v 6.75876 -102.911 0
v 6.51429 -103.882 0
v 6.30035 -104.86 0
v 6.11947 -105.845 0
v 5.9742 -106.835 0
v 5.86709 -107.831 0
v 5.8006 -108.831 0
v 5.77691 -109.833 0
v 5.79812 -110.835 0
v 5.86634 -111.834 0
v 5.98365 -112.829 0
v 6.15165 -113.817 0
v 6.36998 -114.796 0
v 6.63785 -115.762 0
v 6.95445 -116.713 0
v 7.31898 -117.648 0
v 7.73058 -118.562 0
v 8.18805 -119.454 0
v 8.69019 -120.322 0
v 9.23577 -121.163 0
v 9.82355 -121.975 0
v 10.4522 -122.756 0
v 11.1198 -123.504 0
v 11.8246 -124.217 0
v 12.5646 -124.893 0
v 13.3379 -125.531 0
v 14.1424 -126.128 0
v 14.9755 -126.686 0
v 15.8341 -127.203 0
v 16.7156 -127.68 0
v 17.6171 -128.117 0
v 18.536 -128.515 0
v 19.47 -128.876 0
v 20.4171 -129.201 0
v 21.3752 -129.492 0
v 22.3422 -129.752 0
v 23.3163 -129.982 0
v 24.2963 -130.184 0
v 25.2813 -130.359 0
v 26.2703 -130.512 0
v 27.2623 -130.642 0
v 28.2565 -130.753 0
v 29.2524 -130.845 0
v 30.2496 -130.922 0
v 31.2479 -130.985 0
v 32.2468 -131.036 0
v 33.246 -131.077 0
v 34.2454 -131.111 0
v 35.245 -131.14 0
v 36.2447 -131.166 0
v 37.2443 -131.192 0
v 38.244 -131.219 0
v 39.2435 -131.248 0
v 40.2431 -131.278 0
v 41.2426 -131.309 0
v 42.2421 -131.34 0
v 43.2416 -131.371 0
v 44.2412 -131.402 0
v 45.2407 -131.432 0
v 46.2403 -131.46 0
v 47.24 -131.488 0
v 48.2396 -131.514 0
v 49.2393 -131.541 0
v 50.2389 -131.57 0
v 51.2384 -131.602 0
v 52.2376 -131.64 0
v 53.2367 -131.682 0
v 54.2359 -131.723 0
v 55.2353 -131.755 0
v 56.2353 -131.771 0
v 57.2362 -131.764 0
v 58.2374 -131.727 0
v 59.2365 -131.652 0
v 60.231 -131.532 0
v 61.2182 -131.359 0
v 62.1956 -131.126 0
v 63.1583 -130.826 0
v 64.0963 -130.455 0
v 64.999 -130.009 0
v 65.8559 -129.483 0
v 66.6562 -128.873 0
v 67.3904 -128.181 0
v 68.0502 -127.415 0
v 68.628 -126.584 0
v 69.1158 -125.698 0
v 69.5059 -124.768 0
v 69.7954 -123.802 0
v 69.9879 -122.812 0
v 70.0878 -121.808 0
v 70.0992 -120.799 0
v 70.0266 -119.797 0
v 69.8777 -118.806 0
v 69.6642 -117.827 0
v 69.3976 -116.86 0
v 69.0899 -115.904 0
v 68.7526 -114.96 0
v 68.3957 -114.026 0
v 68.0273 -113.097 0
v 67.6557 -112.169 0
v 67.289 -111.239 0
v 66.9353 -110.302 0
v 66.6042 -109.356 0
v 66.3067 -108.399 0
v 66.0537 -107.43 0
v 65.8563 -106.448 0
v 65.7252 -105.451 0
v 65.6694 -104.444 0
v 65.6957 -103.435 0
v 65.8112 -102.435 0
v 66.0227 -101.451 0
v 66.3366 -100.493 0
v 66.7516 -99.5713 0
v 67.2612 -98.6967 0
v 67.8584 -97.88 0
v 68.5365 -97.132 0
v 69.2884 -96.4627 0
v 70.1045 -95.8742 0
v 70.9737 -95.3642 0
v 71.885 -94.9306 0
v 72.8274 -94.5709 0
v 73.7904 -94.2825 0
v 74.7683 -94.0598 0
v 75.7575 -93.8961 0
v 76.754 -93.7846 0
v 77.7543 -93.7185 0
v 78.755 -93.6908 0
v 79.7551 -93.6941 0
v 80.7548 -93.7203 0
v 81.7542 -93.7615 0
v 82.7535 -93.8097 0
v 83.7526 -93.8579 0
v 84.7516 -93.9048 0
v 85.7505 -93.9515 0
v 86.7493 -93.9991 0
v 87.7478 -94.0489 0
v 88.7462 -94.1016 0
v 89.7445 -94.156 0
v 90.7429 -94.2097 0
v 91.7417 -94.2606 0
v 92.7411 -94.3064 0
v 93.7411 -94.3452 0
v 94.7416 -94.3782 0
v 95.7418 -94.4076 0
v 96.7412 -94.4355 0
v 97.7391 -94.4642 0
v 98.7353 -94.4947 0
v 99.7311 -94.5183 0
v 100.729 -94.5227 0
v 101.73 -94.4952 0
v 102.736 -94.4234 0
v 103.749 -94.2949 0
v 104.753 -94.0973 0
v 105.73 -93.8183 0
v 106.659 -93.4456 0
v 107.522 -92.9669 0
v 108.304 -92.375 0
v 109.015 -91.687 0
v 109.674 -90.9271 0
v 110.298 -90.1195 0
v 110.905 -89.2883 0
v 111.512 -88.4577 0
v 112.138 -87.6517 0
v 112.799 -86.8942 0
v 113.513 -86.209 0
v 114.298 -85.6203 0
v 115.164 -85.1449 0
v 116.097 -84.777 0
v 117.076 -84.5056 0
v 118.083 -84.32 0
v 119.098 -84.2093 0
v 120.106 -84.1615 0
v 121.109 -84.1609 0
v 122.106 -84.1916 0
v 123.101 -84.2376 0
v 124.095 -84.2827 0
v 125.089 -84.3189 0
v 126.084 -84.3589 0
v 127.082 -84.4184 0
v 128.081 -84.5133 0
v 129.083 -84.6595 0
v 130.084 -84.8713 0
v 131.064 -85.1586 0
v 132.005 -85.531 0
v 132.886 -85.9978 0
v 133.688 -86.5683 0
v 134.404 -87.2414 0
v 135.05 -87.9969 0
v 135.646 -88.8124 0
v 136.212 -89.6656 0
v 136.766 -90.5342 0
v 137.328 -91.3951 0
v 137.917 -92.2246 0
v 138.551 -92.9987 0
v 139.25 -93.6935 0
v 140.031 -94.2852 0
v 140.898 -94.7648 0
v 141.831 -95.143 0
v 142.809 -95.432 0
v 143.812 -95.6437 0
v 144.819 -95.7904 0
v 145.822 -95.8847 0
v 146.82 -95.94 0
v 147.816 -95.9696 0
v 148.811 -95.9868 0
v 149.808 -96.0046 0
v 150.806 -96.029 0
v 151.806 -96.0583 0
v 152.806 -96.0906 0
v 153.807 -96.124 0
v 154.807 -96.1563 0
v 155.807 -96.187 0
v 156.807 -96.2164 0
v 157.806 -96.2451 0
v 158.805 -96.2735 0
v 159.805 -96.3023 0
v 160.804 -96.3315 0
v 161.804 -96.3612 0
v 162.803 -96.3911 0
v 163.803 -96.4212 0
v 164.802 -96.4514 0
v 165.802 -96.4816 0
v 166.801 -96.5117 0
v 167.801 -96.5416 0
v 168.801 -96.5711 0
v 169.8 -96.6004 0
v 170.8 -96.6294 0
v 171.799 -96.6587 0
v 172.799 -96.6886 0
v 173.798 -96.7197 0
v 174.798 -96.7523 0
v 175.797 -96.7851 0
v 176.797 -96.8151 0
v 177.796 -96.8393 0
v 178.796 -96.8546 0
v 179.797 -96.8577 0
v 180.798 -96.8448 0
v 181.798 -96.8106 0
v 182.797 -96.7502 0
v 183.793 -96.6583 0
v 184.786 -96.5301 0
v 185.774 -96.3606 0
v 186.753 -96.146 0
v 187.72 -95.8819 0
v 188.671 -95.5643 0
v 189.604 -95.1891 0
v 190.511 -94.7535 0
v 191.386 -94.2563 0
v 192.221 -93.6964 0
v 193.009 -93.0726 0
v 193.74 -92.3838 0
v 194.408 -91.6314 0
v 195.004 -90.8194 0
v 195.52 -89.9522 0
v 195.947 -89.0339 0
v 196.278 -88.069 0
v 196.502 -87.0686 0
v 196.606 -86.0512 0
v 196.58 -85.0359 0
v 196.411 -84.0416 0
v 196.087 -83.0874 0
v 195.612 -82.1904 0
v 195.007 -81.3663 0
v 194.293 -80.6304 0
v 193.493 -79.9982 0
v 192.627 -79.4837 0
v 191.711 -79.0812 0
v 190.759 -78.7682 0
v 189.781 -78.5218 0
v 188.791 -78.319 0
v 187.8 -78.1378 0
v 186.812 -77.967 0
v 185.826 -77.8033 0
v 184.841 -77.6436 0
v 183.857 -77.4846 0
v 182.872 -77.3236 0
v 181.886 -77.1595 0
v 180.9 -76.9934 0
v 179.914 -76.826 0
v 178.927 -76.6582 0
v 177.941 -76.4908 0
v 176.954 -76.324 0
v 175.968 -76.1575 0
v 174.982 -75.9913 0
v 173.997 -75.825 0
v 173.011 -75.6585 0
v 172.025 -75.4917 0
v 171.039 -75.3246 0
v 170.053 -75.1574 0
v 169.067 -74.99 0
v 168.081 -74.8226 0
v 167.095 -74.6552 0
v 166.109 -74.4878 0
v 165.123 -74.3203 0
v 164.137 -74.1527 0
v 163.152 -73.9851 0
v 162.166 -73.8174 0
v 161.18 -73.6496 0
v 160.194 -73.4818 0
v 159.208 -73.3139 0
v 158.222 -73.146 0
v 157.237 -72.9781 0
v 156.251 -72.8101 0
v 155.265 -72.6422 0
v 154.279 -72.4741 0
v 153.294 -72.3061 0
v 152.308 -72.1381 0
v 151.322 -71.97 0
v 150.336 -71.8019 0
v 149.35 -71.6338 0
v 148.365 -71.4657 0
v 147.379 -71.2976 0
v 146.393 -71.1295 0
v 145.407 -70.9614 0
v 144.422 -70.7934 0
v 143.436 -70.6253 0
v 142.45 -70.4573 0
v 141.464 -70.2892 0
v 140.478 -70.1212 0
v 139.493 -69.9532 0
v 138.507 -69.7853 0
v 137.521 -69.6174 0
v 136.535 -69.4495 0
v 135.549 -69.2816 0
v 134.564 -69.1138 0
v 133.578 -68.946 0
v 132.592 -68.7782 0
v 131.606 -68.6105 0
v 130.62 -68.4428 0
v 129.634 -68.2753 0
v 128.649 -68.1078 0
v 127.663 -67.9403 0
v 126.677 -67.7729 0
v 125.691 -67.6056 0
v 124.705 -67.4382 0
v 123.719 -67.2709 0
v 122.732 -67.1036 0
v 121.746 -66.9364 0
v 120.76 -66.7694 0
v 119.775 -66.6028 0
v 118.791 -66.4365 0
v 117.807 -66.2705 0
v 116.823 -66.1045 0
v 115.837 -65.938 0
v 114.847 -65.7707 0
v 113.854 -65.6014 0
v 112.863 -65.4157 0
v 111.884 -65.1895 0
v 110.926 -64.8986 0
v 110.001 -64.5188 0
v 109.118 -64.0274 0
v 108.296 -63.4226 0
v 107.556 -62.7159 0
v 106.921 -61.9189 0
v 106.413 -61.0434 0
v 106.051 -60.102 0
v 105.836 -59.1129 0
v 105.76 -58.0968 0
v 105.815 -57.0747 0
v 105.992 -56.0674 0
v 106.284 -55.0942 0
v 106.681 -54.1643 0
v 107.173 -53.2828 0
v 107.751 -52.4549 0
v 108.403 -51.6858 0
v 109.12 -50.98 0
v 109.894 -50.3384 0
v 110.717 -49.7604 0
v 111.582 -49.2452 0
v 112.48 -48.7924 0
v 113.405 -48.401 0
v 114.351 -48.068 0
v 115.314 -47.7894 0
v 116.291 -47.5616 0
v 117.277 -47.3805 0
v 118.269 -47.2423 0
v 119.264 -47.1418 0
v 120.262 -47.0736 0
v 121.262 -47.0321 0
v 122.263 -47.0119 0
v 123.264 -47.0078 0
v 124.264 -47.017 0
v 125.264 -47.0377 0
v 126.263 -47.0681 0
v 127.262 -47.1063 0
v 128.261 -47.1508 0
v 129.26 -47.1999 0
v 130.259 -47.2521 0
v 131.257 -47.3061 0
v 132.256 -47.3603 0
v 133.254 -47.4136 0
v 134.253 -47.4652 0
v 135.252 -47.515 0
v 136.25 -47.5627 0
v 137.25 -47.6081 0
v 138.249 -47.6505 0
v 139.249 -47.6859 0
v 140.249 -47.709 0
v 141.249 -47.7142 0
v 142.249 -47.6961 0
v 143.248 -47.6494 0
v 144.246 -47.5701 0
v 145.24 -47.4545 0
v 146.229 -47.2992 0
v 147.213 -47.1007 0
v 148.188 -46.8552 0
v 149.15 -46.5585 0
v 150.092 -46.2061 0
v 151.006 -45.7934 0
v 151.885 -45.3158 0
v 152.723 -44.7701 0
v 153.519 -44.1613 0
v 154.273 -43.4976 0
v 154.986 -42.7871 0
v 155.658 -42.0383 0
v 156.291 -41.2587 0
v 156.886 -40.4525 0
v 157.446 -39.6229 0
v 157.975 -38.7732 0
v 158.474 -37.9065 0
v 158.948 -37.0259 0
v 159.401 -36.1342 0
v 159.838 -35.2344 0
v 160.264 -34.3292 0
v 160.684 -33.4213 0
v 161.104 -32.5133 0
v 161.523 -31.6055 0
v 161.943 -30.698 0
v 162.363 -29.7906 0
v 162.783 -28.8831 0
v 163.203 -27.9755 0
v 163.623 -27.0679 0
v 164.043 -26.1604 0
v 164.463 -25.2531 0
v 164.884 -24.3462 0
v 165.306 -23.4397 0
v 165.728 -22.5334 0
v 166.15 -21.6269 0
v 166.572 -20.7199 0
v 166.992 -19.812 0
v 167.409 -18.9024 0
v 167.817 -17.9887 0
v 168.207 -17.0678 0
v 168.572 -16.1365 0
v 168.903 -15.1917 0
v 169.192 -14.231 0
v 169.429 -13.2555 0
v 169.605 -12.2673 0
v 169.711 -11.2686 0
v 169.736 -10.2617 0
v 169.672 -9.25047 0
v 169.509 -8.24792 0
v 169.242 -7.27024 0
v 168.861 -6.3336 0
v 168.36 -5.45417 0
v 167.734 -4.64853 0
v 166.996 -3.93534 0
v 166.164 -3.33396 0
v 165.258 -2.86377 0
v 164.297 -2.54412 0
v 163.298 -2.38959 0
v 162.284 -2.3931 0
v 161.273 -2.54147 0
v 160.286 -2.82152 0
v 159.345 -3.22007 0
v 158.465 -3.72399 0
v 157.651 -4.3204 0
v 156.902 -4.99649 0
v 156.219 -5.73944 0
v 155.603 -6.53644 0
v 155.051 -7.37574 0
v 154.56 -8.24994 0
v 154.123 -9.15278 0
v 153.735 -10.078 0
v 153.388 -11.0192 0
v 153.077 -11.9709 0
v 152.796 -12.9305 0
v 152.535 -13.896 0
v 152.29 -14.8656 0
v 152.051 -15.8373 0
v 151.813 -16.8092 0
v 151.568 -17.7792 0
v 151.308 -18.7451 0
v 151.027 -19.7048 0
v 150.717 -20.656 0
v 150.372 -21.5961 0
v 149.986 -22.5203 0
v 149.551 -23.4234 0
v 149.063 -24.3 0
v 148.515 -25.1448 0
v 147.903 -25.951 0
v 147.226 -26.7056 0
v 146.487 -27.3943 0
v 145.687 -28.0027 0
v 144.827 -28.5165 0
v 143.911 -28.9256 0
v 142.952 -29.2333 0
v 141.962 -29.4454 0
v 140.956 -29.5677 0
v 139.948 -29.6059 0
v 138.945 -29.5681 0
v 137.949 -29.4673 0
v 136.959 -29.3173 0
v 135.974 -29.1316 0
v 134.994 -28.924 0
v 134.017 -28.7046 0
v 133.044 -28.4756 0
v 132.073 -28.2384 0
v 131.103 -27.9944 0
v 130.136 -27.745 0
v 129.168 -27.4916 0
v 128.202 -27.2354 0
v 127.235 -26.9779 0
v 126.269 -26.7204 0
v 125.302 -26.4641 0
v 124.335 -26.2103 0
v 123.367 -25.9603 0
v 122.397 -25.7151 0
v 121.426 -25.4758 0
v 120.454 -25.2437 0
v 119.479 -25.0201 0
v 118.501 -24.8071 0
v 117.522 -24.6067 0
v 116.539 -24.4212 0
v 115.553 -24.2525 0
v 114.564 -24.1027 0
v 113.571 -23.9741 0
v 112.576 -23.8685 0
v 111.579 -23.7881 0
v 110.58 -23.7349 0
v 109.579 -23.711 0
v 108.577 -23.7186 0
v 107.577 -23.7597 0
v 106.579 -23.8365 0
v 105.584 -23.9509 0
v 104.595 -24.1051 0
v 103.612 -24.3009 0
v 102.639 -24.5401 0
v 101.678 -24.8244 0
v 100.732 -25.1557 0
v 99.802 -25.5351 0
v 98.8935 -25.9626 0
v 98.0101 -26.4381 0
v 97.1556 -26.9613 0
v 96.3342 -27.5321 0
v 95.5464 -28.1475 0
v 94.7873 -28.7993 0
v 94.0515 -29.4793 0
v 93.3333 -30.1788 0
v 92.6272 -30.8895 0
v 91.9278 -31.6045 0
v 91.2301 -32.3199 0
v 90.529 -33.0318 0
v 89.8193 -33.7364 0
v 89.096 -34.43 0
v 88.3546 -35.1068 0
v 87.5911 -35.7584 0
v 86.802 -36.3757 0
v 85.9835 -36.9501 0
v 85.1319 -37.4726 0
v 84.2471 -37.9392 0
v 83.3338 -38.3523 0
v 82.3973 -38.715 0
v 81.443 -39.0304 0
v 80.4759 -39.3016 0
v 79.4998 -39.531 0
v 78.5162 -39.7199 0
v 77.5266 -39.8699 0
v 76.5323 -39.9822 0
v 75.5347 -40.0584 0
v 74.5351 -40.1002 0
v 73.5345 -40.1101 0
v 72.5336 -40.0905 0
v 71.5335 -40.0437 0
v 70.535 -39.9723 0
v 69.5387 -39.8782 0
v 68.5449 -39.7634 0
v 67.5535 -39.6296 0
v 66.5649 -39.4786 0
v 65.5792 -39.3122 0
v 64.5959 -39.1327 0
v 63.6145 -38.943 0
v 62.6341 -38.7461 0
v 61.6539 -38.545 0
v 60.6731 -38.3424 0
v 59.693 -38.1349 0
v 58.7169 -37.9116 0
v 57.7485 -37.6607 0
v 56.7916 -37.3707 0
v 55.8498 -37.03 0
v 54.9291 -36.6297 0
v 54.0386 -36.1643 0
v 53.1875 -35.6284 0
v 52.3852 -35.0166 0
v 51.6408 -34.3239 0
v 50.9678 -33.5523 0
v 50.3841 -32.7132 0
v 49.9082 -31.8182 0
v 49.5583 -30.8789 0
v 49.3517 -29.9071 0
v 49.284 -28.9134 0
v 49.3321 -27.9079 0
v 49.4723 -26.9005 0
v 49.6809 -25.9012 0
v 49.9349 -24.9192 0
v 50.219 -23.9551 0
v 50.5235 -23.0036 0
v 50.8387 -22.0589 0
v 51.1553 -21.1156 0
v 51.4639 -20.1681 0
v 51.7626 -19.2153 0
v 52.0543 -18.2585 0
v 52.3419 -17.2995 0
v 52.6284 -16.3398 0
v 52.9171 -15.3811 0
v 53.2134 -14.4254 0
v 53.5243 -13.475 0
v 53.857 -12.5321 0
v 54.2186 -11.5991 0
v 54.6161 -10.6784 0
v 55.0555 -9.7753 0
v 55.5421 -8.89712 0
v 56.0811 -8.05121 0
v 56.6779 -7.24491 0
v 57.3371 -6.48555 0
v 58.0571 -5.77993 0
v 58.8322 -5.13454 0
v 59.6565 -4.55585 0
v 60.5239 -4.05035 0
v 61.4284 -3.62326 0
v 62.3634 -3.26854 0
v 63.3217 -2.97403 0
v 64.2962 -2.72755 0
v 65.2798 -2.51691 0
v 66.2658 -2.33003 0
v 67.2515 -2.15604 0
v 68.2359 -1.98461 0
v 69.2183 -1.80545 0
v 70.1977 -1.60823 0
v 71.1731 -1.38291 0
v 72.1408 -1.12158 0
v 73.096 -0.817383 0
v 74.0338 -0.46347 0
v 74.9494 -0.052987 0
v 75.8373 0.420511 0
v 76.6883 0.96045 0
v 77.4912 1.5689 0
v 78.2348 2.24792 0
v 78.9081 2.99957 0
v 79.4998 3.82417 0
v 79.9987 4.71169 0
v 80.3937 5.64825 0
v 80.6736 6.61997 0
v 80.8271 7.61296 0
v 80.8477 8.61422 0
v 80.7472 9.61431 0
v 80.5421 10.6047 0
v 80.2488 11.5768 0
v 79.8839 12.5222 0
v 79.463 13.4355 0
v 78.9996 14.3227 0
v 78.5065 15.1918 0
v 77.9966 16.0507 0
v 77.4828 16.9074 0
v 76.9751 17.7681 0
v 76.4743 18.6335 0
v 75.9795 19.5026 0
v 75.4894 20.3748 0
v 75.0031 21.2493 0
v 74.518 22.1246 0
v 74.0278 22.9968 0
v 73.5249 23.8613 0
v 73.002 24.7136 0
v 72.4517 25.5493 0
v 71.8673 26.3633 0
v 71.2443 27.1489 0
v 70.579 27.899 0
v 69.8674 28.6066 0
v 69.1057 29.2647 0
v 68.2921 29.8655 0
v 67.4319 30.399 0
v 66.5312 30.855 0
v 65.5967 31.2232 0
v 64.6347 31.4931 0
v 63.6515 31.6617 0
v 62.6534 31.7423 0
v 61.6467 31.7508 0
v 60.6377 31.703 0
v 59.6325 31.6148 0
v 58.635 31.4994 0
v 57.6435 31.3647 0
v 56.6559 31.2178 0
v 55.67 31.0659 0
v 54.6833 30.9161 0
v 53.6947 30.773 0
v 52.7044 30.6352 0
v 51.713 30.501 0
v 50.7211 30.3683 0
v 49.7294 30.2353 0
v 48.7382 30.1008 0
v 47.7475 29.965 0
v 46.7569 29.8286 0
v 45.7665 29.692 0
v 44.7759 29.5558 0
v 43.7852 29.4203 0
v 42.7944 29.2854 0
v 41.8034 29.1508 0
v 40.8125 29.0162 0
v 39.8216 28.8814 0
v 38.8308 28.7465 0
v 37.84 28.6117 0
v 36.8491 28.4774 0
v 35.8579 28.3441 0
v 34.8666 28.2122 0
v 33.8749 28.0816 0
v 32.8833 27.951 0
v 31.8919 27.819 0
v 30.9012 27.6841 0
v 29.9115 27.545 0
v 28.9235 27.3963 0
v 27.9398 27.2239 0
v 26.9627 27.0128 0
v 25.9948 26.7477 0
v 25.0385 26.4136 0
v 24.1027 25.9988 0
v 23.21 25.4988 0
v 22.3845 24.9102 0
v 21.6504 24.2293 0
v 21.0316 23.453 0
v 20.5383 22.5874 0
v 20.1599 21.6528 0
v 19.8842 20.6707 0
v 19.6991 19.6628 0
v 19.5923 18.6503 0
v 19.5513 17.644 0
v 19.5628 16.6432 0
v 19.6139 15.6466 0
v 19.6914 14.6525 0
v 19.7823 13.6596 0
v 19.8736 12.6664 0
v 19.9528 11.6712 0
v 20.0075 10.6726 0
v 20.025 9.66876 0
v 19.993 8.65849 0
v 19.8979 7.64736 0
v 19.7252 6.64898 0
v 19.4607 5.67741 0
v 19.0896 4.74669 0
v 18.5984 3.87084 0
v 17.9887 3.0628 0
v 17.2772 2.33452 0
v 16.4811 1.69789 0
v 15.6175 1.16481 0
v 14.7034 0.745653 0
v 13.7513 0.434003 0
v 12.7711 0.21302 0
v 11.7729 0.0657151 0
v 10.7664 -0.0249044 0
v 9.76089 -0.0752662 0
v 8.75896 -0.0964955 0
v 7.75956 -0.096807 0
v 6.76159 -0.0843854 0
v 5.76395 -0.0674152 0
v 4.76564 -0.0535079 0
v 3.76642 -0.0447163 0
v 2.76647 -0.039971 0
v 1.766 -0.0381682 0
v 0.7652 -0.0382036 0
v 0.0994275 -0.0387021 0
g vroa_Race Track Extra Wide Big Boi
usemtl RED
l 1 2
f 1 2
l 2 3
f 2 3
l 3 4
f 3 4
l 4 5
f 4 5
l 5 6
f 5 6
l 6 7
f 6 7
l 7 8
f 7 8
l 8 9
f 8 9
l 9 10
f 9 10
l 10 11
f 10 11
l 11 12
f 11 12
l 12 13
f 12 13
l 13 14
f 13 14
l 14 15
f 14 15
l 15 16
f 15 16
l 16 17
f 16 17
l 17 18
f 17 18
l 18 19
f 18 19
l 19 20
f 19 20
l 20 21
f 20 21
l 21 22
f 21 22
l 22 23
f 22 23
l 23 24
f 23 24
l 24 25
f 24 25
l 25 26
f 25 26
l 26 27
f 26 27
l 27 28
f 27 28
l 28 29
f 28 29
l 29 30
f 29 30
l 30 31
f 30 31
l 31 32
f 31 32
l 32 33
f 32 33
l 33 34
f 33 34
l 34 35
f 34 35
l 35 36
f 35 36
l 36 37
f 36 37
l 37 38
f 37 38
l 38 39
f 38 39
l 39 40
f 39 40
l 40 41
f 40 41
l 41 42
f 41 42
l 42 43
f 42 43
l 43 44
f 43 44
l 44 45
f 44 45
l 45 46
f 45 46
l 46 47
f 46 47
l 47 48
f 47 48
l 48 49
f 48 49
l 49 50
f 49 50
l 50 51
f 50 51
l 51 52
f 51 52
l 52 53
f 52 53
l 53 54
f 53 54
l 54 55
f 54 55
l 55 56
f 55 56
l 56 57
f 56 57
l 57 58
f 57 58
l 58 59
f 58 59
l 59 60
f 59 60
l 60 61
f 60 61
l 61 62
f 61 62
l 62 63
f 62 63
l 63 64
f 63 64
l 64 65
f 64 65
l 65 66
f 65 66
l 66 67
f 66 67
l 67 68
f 67 68
l 68 69
f 68 69
l 69 70
f 69 70
l 70 71
f 70 71
l 71 72
f 71 72
l 72 73
f 72 73
l 73 74
f 73 74
l 74 75
f 74 75
l 75 76
f 75 76
l 76 77
f 76 77
l 77 78
f 77 78
l 78 79
f 78 79
l 79 80
f 79 80
l 80 81
f 80 81
l 81 82
f 81 82
l 82 83
f 82 83
l 83 84
f 83 84
l 84 85
f 84 85
l 85 86
f 85 86
l 86 87
f 86 87
l 87 88
f 87 88
l 88 89
f 88 89
l 89 90
f 89 90
l 90 91
f 90 91
l 91 92
f 91 92
l 92 93
f 92 93
l 93 94
f 93 94
l 94 95
f 94 95
l 95 96
f 95 96
l 96 97
f 96 97
l 97 98
f 97 98
l 98 99
f 98 99
l 99 100
f 99 100
l 100 101
f 100 101
l 101 102
f 101 102
l 102 103
f 102 103
l 103 104
f 103 104
l 104 105
f 104 105
l 105 106
f 105 106
l 106 107
f 106 107
l 107 108
f 107 108
l 108 109
f 108 109
l 109 110
f 109 110
l 110 111
f 110 111
l 111 112
f 111 112
l 112 113
f 112 113
l 113 114
f 113 114
l 114 115
f 114 115
l 115 116
f 115 116
l 116 117
f 116 117
l 117 118
f 117 118
l 118 119
f 118 119
l 119 120
f 119 120
l 120 121
f 120 121
l 121 122
f 121 122
l 122 123
f 122 123
l 123 124
f 123 124
l 124 125
f 124 125
l 125 126
f 125 126
l 126 127
f 126 127
l 127 128
f 127 128
l 128 129
f 128 129
l 129 130
f 129 130
l 130 131
f 130 131
l 131 132
f 131 132
l 132 133
f 132 133
l 133 134
f 133 134
l 134 135
f 134 135
l 135 136
f 135 136
l 136 137
f 136 137
l 137 138
f 137 138
l 138 139
f 138 139
l 139 140
f 139 140
l 140 141
f 140 141
l 141 142
f 141 142
l 142 143
f 142 143
l 143 144
f 143 144
l 144 145
f 144 145
l 145 146
f 145 146
l 146 147
f 146 147
l 147 148
f 147 148
l 148 149
f 148 149
l 149 150
f 149 150
l 150 151
f 150 151
l 151 152
f 151 152
l 152 153
f 152 153
l 153 154
f 153 154
l 154 155
f 154 155
l 155 156
f 155 156
l 156 157
f 156 157
l 157 158
f 157 158
l 158 159
f 158 159
l 159 160
f 159 160
l 160 161
f 160 161
l 161 162
f 161 162
l 162 163
f 162 163
l 163 164
f 163 164
l 164 165
f 164 165
l 165 166
f 165 166
l 166 167
f 166 167
l 167 168
f 167 168
l 168 169
f 168 169
l 169 170
f 169 170
l 170 171
f 170 171
l 171 172
f 171 172
l 172 173
f 172 173
l 173 174
f 173 174
l 174 175
f 174 175
l 175 176
f 175 176
l 176 177
f 176 177
l 177 178
f 177 178
l 178 179
f 178 179
l 179 180
f 179 180
l 180 181
f 180 181
l 181 182
f 181 182
l 182 183
f 182 183
l 183 184
f 183 184
l 184 185
f 184 185
l 185 186
f 185 186
l 186 187
f 186 187
l 187 188
f 187 188
l 188 189
f 188 189
l 189 190
f 189 190
l 190 191
f 190 191
l 191 192
f 191 192
l 192 193
f 192 193
l 193 194
f 193 194
l 194 195
f 194 195
l 195 196
f 195 196
l 196 197
f 196 197
l 197 198
f 197 198
l 198 199
f 198 199
l 199 200
f 199 200
l 200 201
f 200 201
l 201 202
f 201 202
l 202 203
f 202 203
l 203 204
f 203 204
l 204 205
f 204 205
l 205 206
f 205 206
l 206 207
f 206 207
l 207 208
f 207 208
l 208 209
f 208 209
l 209 210
f 209 210
l 210 211
f 210 211
l 211 212
f 211 212
l 212 213
f 212 213
l 213 214
f 213 214
l 214 215
f 214 215
l 215 216
f 215 216
l 216 217
f 216 217
l 217 218
f 217 218
l 218 219
f 218 219
l 219 220
f 219 220
l 220 221
f 220 221
l 221 222
f 221 222
l 222 223
f 222 223
l 223 224
f 223 224
l 224 225
f 224 225
l 225 226
f 225 226
l 226 227
f 226 227
l 227 228
f 227 228
l 228 229
f 228 229
l 229 230
f 229 230
l 230 231
f 230 231
l 231 232
f 231 232
l 232 233
f 232 233
l 233 234
f 233 234
l 234 235
f 234 235
l 235 236
f 235 236
l 236 237
f 236 237
l 237 238
f 237 238
l 238 239
f 238 239
l 239 240
f 239 240
l 240 241
f 240 241
l 241 242
f 241 242
l 242 243
f 242 243
l 243 244
f 243 244
l 244 245
f 244 245
l 245 246
f 245 246
l 246 247
f 246 247
l 247 248
f 247 248
l 248 249
f 248 249
l 249 250
f 249 250
l 250 251
f 250 251
l 251 252
f 251 252
l 252 253
f 252 253
l 253 254
f 253 254
l 254 255
f 254 255
l 255 256
f 255 256
l 256 257
f 256 257
l 257 258
f 257 258
l 258 259
f 258 259
l 259 260
f 259 260
l 260 261
f 260 261
l 261 262
f 261 262
l 262 263
f 262 263
l 263 264
f 263 264
l 264 265
f 264 265
l 265 266
f 265 266
l 266 267
f 266 267
l 267 268
f 267 268
l 268 269
f 268 269
l 269 270
f 269 270
l 270 271
f 270 271
l 271 272
f 271 272
l 272 273
f 272 273
l 273 274
f 273 274
l 274 275
f 274 275
l 275 276
f 275 276
l 276 277
f 276 277
l 277 278
f 277 278
l 278 279
f 278 279
l 279 280
f 279 280
l 280 281
f 280 281
l 281 282
f 281 282
l 282 283
f 282 283
l 283 284
f 283 284
l 284 285
f 284 285
l 285 286
f 285 286
l 286 287
f 286 287
l 287 288
f 287 288
l 288 289
f 288 289
l 289 290
f 289 290
l 290 291
f 290 291
l 291 292
f 291 292
l 292 293
f 292 293
l 293 294
f 293 294
l 294 295
f 294 295
l 295 296
f 295 296
l 296 297
f 296 297
l 297 298
f 297 298
l 298 299
f 298 299
l 299 300
f 299 300
l 300 301
f 300 301
l 301 302
f 301 302
l 302 303
f 302 303
l 303 304
f 303 304
l 304 305
f 304 305
l 305 306
f 305 306
l 306 307
f 306 307
l 307 308
f 307 308
l 308 309
f 308 309
l 309 310
f 309 310
l 310 311
f 310 311
l 311 312
f 311 312
l 312 313
f 312 313
l 313 314
f 313 314
l 314 315
f 314 315
l 315 316
f 315 316
l 316 317
f 316 317
l 317 318
f 317 318
l 318 319
f 318 319
l 319 320
f 319 320
l 320 321
f 320 321
l 321 322
f 321 322
l 322 323
f 322 323
l 323 324
f 323 324
l 324 325
f 324 325
l 325 326
f 325 326
l 326 327
f 326 327
l 327 328
f 327 328
l 328 329
f 328 329
l 329 330
f 329 330
l 330 331
f 330 331
l 331 332
f 331 332
l 332 333
f 332 333
l 333 334
f 333 334
l 334 335
f 334 335
l 335 336
f 335 336
l 336 337
f 336 337
l 337 338
f 337 338
l 338 339
f 338 339
l 339 340
f 339 340
l 340 341
f 340 341
l 341 342
f 341 342
l 342 343
f 342 343
l 343 344
f 343 344
l 344 345
f 344 345
l 345 346
f 345 346
l 346 347
f 346 347
l 347 348
f 347 348
l 348 349
f 348 349
l 349 350
f 349 350
l 350 351
f 350 351
l 351 352
f 351 352
l 352 353
f 352 353
l 353 354
f 353 354
l 354 355
f 354 355
l 355 356
f 355 356
l 356 357
f 356 357
l 357 358
f 357 358
l 358 359
f 358 359
l 359 360
f 359 360
l 360 361
f 360 361
l 361 362
f 361 362
l 362 363
f 362 363
l 363 364
f 363 364
l 364 365
f 364 365
l 365 366
f 365 366
l 366 367
f 366 367
l 367 368
f 367 368
l 368 369
f 368 369
l 369 370
f 369 370
l 370 371
f 370 371
l 371 372
f 371 372
l 372 373
f 372 373
l 373 374
f 373 374
l 374 375
f 374 375
l 375 376
f 375 376
l 376 377
f 376 377
l 377 378
f 377 378
l 378 379
f 378 379
l 379 380
f 379 380
l 380 381
f 380 381
l 381 382
f 381 382
l 382 383
f 382 383
l 383 384
f 383 384
l 384 385
f 384 385
l 385 386
f 385 386
l 386 387
f 386 387
l 387 388
f 387 388
l 388 389
f 388 389
l 389 390
f 389 390
l 390 391
f 390 391
l 391 392
f 391 392
l 392 393
f 392 393
l 393 394
f 393 394
l 394 395
f 394 395
l 395 396
f 395 396
l 396 397
f 396 397
l 397 398
f 397 398
l 398 399
f 398 399
l 399 400
f 399 400
l 400 401
f 400 401
l 401 402
f 401 402
l 402 403
f 402 403
l 403 404
f 403 404
l 404 405
f 404 405
l 405 406
f 405 406
l 406 407
f 406 407
l 407 408
f 407 408
l 408 409
f 408 409
l 409 410
f 409 410
l 410 411
f 410 411
l 411 412
f 411 412
l 412 413
f 412 413
l 413 414
f 413 414
l 414 415
f 414 415
l 415 416
f 415 416
l 416 417
f 416 417
l 417 418
f 417 418
l 418 419
f 418 419
l 419 420
f 419 420
l 420 421
f 420 421
l 421 422
f 421 422
l 422 423
f 422 423
l 423 424
f 423 424
l 424 425
f 424 425
l 425 426
f 425 426
l 426 427
f 426 427
l 427 428
f 427 428
l 428 429
f 428 429
l 429 430
f 429 430
l 430 431
f 430 431
l 431 432
f 431 432
l 432 433
f 432 433
l 433 434
f 433 434
l 434 435
f 434 435
l 435 436
f 435 436
l 436 437
f 436 437
l 437 438
f 437 438
l 438 439
f 438 439
l 439 440
f 439 440
l 440 441
f 440 441
l 441 442
f 441 442
l 442 443
f 442 443
l 443 444
f 443 444
l 444 445
f 444 445
l 445 446
f 445 446
l 446 447
f 446 447
l 447 448
f 447 448
l 448 449
f 448 449
l 449 450
f 449 450
l 450 451
f 450 451
l 451 452
f 451 452
l 452 453
f 452 453
l 453 454
f 453 454
l 454 455
f 454 455
l 455 456
f 455 456
l 456 457
f 456 457
l 457 458
f 457 458
l 458 459
f 458 459
l 459 460
f 459 460
l 460 461
f 460 461
l 461 462
f 461 462
l 462 463
f 462 463
l 463 464
f 463 464
l 464 465
f 464 465
l 465 466
f 465 466
l 466 467
f 466 467
l 467 468
f 467 468
l 468 469
f 468 469
l 469 470
f 469 470
l 470 471
f 470 471
l 471 472
f 471 472
l 472 473
f 472 473
l 473 474
f 473 474
l 474 475
f 474 475
l 475 476
f 475 476
l 476 477
f 476 477
l 477 478
f 477 478
l 478 479
f 478 479
l 479 480
f 479 480
l 480 481
f 480 481
l 481 482
f 481 482
l 482 483
f 482 483
l 483 484
f 483 484
l 484 485
f 484 485
l 485 486
f 485 486
l 486 487
f 486 487
l 487 488
f 487 488
l 488 489
f 488 489
l 489 490
f 489 490
l 490 491
f 490 491
l 491 492
f 491 492
l 492 493
f 492 493
l 493 494
f 493 494
l 494 495
f 494 495
l 495 496
f 495 496
l 496 497
f 496 497
l 497 498
f 497 498
l 498 499
f 498 499
l 499 500
f 499 500
l 500 501
f 500 501
l 501 502
f 501 502
l 502 503
f 502 503
l 503 504
f 503 504
l 504 505
f 504 505
l 505 506
f 505 506
l 506 507
f 506 507
l 507 508
f 507 508
l 508 509
f 508 509
l 509 510
f 509 510
l 510 511
f 510 511
l 511 512
f 511 512
l 512 513
f 512 513
l 513 514
f 513 514
l 514 515
f 514 515
l 515 516
f 515 516
l 516 517
f 516 517
l 517 518
f 517 518
l 518 519
f 518 519
l 519 520
f 519 520
l 520 521
f 520 521
l 521 522
f 521 522
l 522 523
f 522 523
l 523 524
f 523 524
l 524 525
f 524 525
l 525 526
f 525 526
l 526 527
f 526 527
l 527 528
f 527 528
l 528 529
f 528 529
l 529 530
f 529 530
l 530 531
f 530 531
l 531 532
f 531 532
l 532 533
f 532 533
l 533 534
f 533 534
l 534 535
f 534 535
l 535 536
f 535 536
l 536 537
f 536 537
l 537 538
f 537 538
l 538 539
f 538 539
l 539 540
f 539 540
l 540 541
f 540 541
l 541 542
f 541 542
l 542 543
f 542 543
l 543 544
f 543 544
l 544 545
f 544 545
l 545 546
f 545 546
l 546 547
f 546 547
l 547 548
f 547 548
l 548 549
f 548 549
l 549 550
f 549 550
l 550 551
f 550 551
l 551 552
f 551 552
l 552 553
f 552 553
l 553 554
f 553 554
l 554 555
f 554 555
l 555 556
f 555 556
l 556 557
f 556 557
l 557 558
f 557 558
l 558 559
f 558 559
l 559 560
f 559 560
l 560 561
f 560 561
l 561 562
f 561 562
l 562 563
f 562 563
l 563 564
f 563 564
l 564 565
f 564 565
l 565 566
f 565 566
l 566 567
f 566 567
l 567 568
f 567 568
l 568 569
f 568 569
l 569 570
f 569 570
l 570 571
f 570 571
l 571 572
f 571 572
l 572 573
f 572 573
l 573 574
f 573 574
l 574 575
f 574 575
l 575 576
f 575 576
l 576 577
f 576 577
l 577 578
f 577 578
l 578 579
f 578 579
l 579 580
f 579 580
l 580 581
f 580 581
l 581 582
f 581 582
l 582 583
f 582 583
l 583 584
f 583 584
l 584 585
f 584 585
l 585 586
f 585 586
l 586 587
f 586 587
l 587 588
f 587 588
l 588 589
f 588 589
l 589 590
f 589 590
l 590 591
f 590 591
l 591 592
f 591 592
l 592 593
f 592 593
l 593 594
f 593 594
l 594 595
f 594 595
l 595 596
f 595 596
l 596 597
f 596 597
l 597 598
f 597 598
l 598 599
f 598 599
l 599 600
f 599 600
l 600 601
f 600 601
l 601 602
f 601 602
l 602 603
f 602 603
l 603 604
f 603 604
l 604 605
f 604 605
l 605 606
f 605 606
l 606 607
f 606 607
l 607 608
f 607 608
l 608 609
f 608 609
l 609 610
f 609 610
l 610 611
f 610 611
l 611 612
f 611 612
l 612 613
f 612 613
l 613 614
f 613 614
l 614 615
f 614 615
l 615 616
f 615 616
l 616 617
f 616 617
l 617 618
f 617 618
l 618 619
f 618 619
l 619 620
f 619 620
l 620 621
f 620 621
l 621 622
f 621 622
l 622 623
f 622 623
l 623 624
f 623 624
l 624 625
f 624 625
l 625 626
f 625 626
l 626 627
f 626 627
l 627 628
f 627 628
l 628 629
f 628 629
l 629 630
f 629 630
l 630 631
f 630 631
l 631 632
f 631 632
l 632 633
f 632 633
l 633 634
f 633 634
l 634 635
f 634 635
l 635 636
f 635 636
l 636 637
f 636 637
l 637 638
f 637 638
l 638 639
f 638 639
l 639 640
f 639 640
l 640 641
f 640 641
l 641 642
f 641 642
l 642 643
f 642 643
l 643 644
f 643 644
l 644 645
f 644 645
l 645 646
f 645 646
l 646 647
f 646 647
l 647 648
f 647 648
l 648 649
f 648 649
l 649 650
f 649 650
l 650 651
f 650 651
l 651 652
f 651 652
l 652 653
f 652 653
l 653 654
f 653 654
l 654 655
f 654 655
l 655 656
f 655 656
l 656 657
f 656 657
l 657 658
f 657 658
l 658 659
f 658 659
l 659 660
f 659 660
l 660 661
f 660 661
l 661 662
f 661 662
l 662 663
f 662 663
l 663 664
f 663 664
l 664 665
f 664 665
l 665 666
f 665 666
l 666 667
f 666 667
l 667 668
f 667 668
l 668 669
f 668 669
l 669 670
f 669 670
l 670 671
f 670 671
l 671 672
f 671 672
l 672 673
f 672 673
l 673 674
f 673 674
l 674 675
f 674 675
l 675 676
f 675 676
l 676 677
f 676 677
l 677 678
f 677 678
l 678 679
f 678 679
l 679 680
f 679 680
l 680 681
f 680 681
l 681 682
f 681 682
l 682 683
f 682 683
l 683 684
f 683 684
l 684 685
f 684 685
l 685 686
f 685 686
l 686 687
f 686 687
l 687 688
f 687 688
l 688 689
f 688 689
l 689 690
f 689 690
l 690 691
f 690 691
l 691 692
f 691 692
l 692 693
f 692 693
l 693 694
f 693 694
l 694 695
f 694 695
l 695 696
f 695 696
l 696 697
f 696 697
l 697 698
f 697 698
l 698 699
f 698 699
l 699 700
f 699 700
l 700 701
f 700 701
l 701 702
f 701 702
l 702 703
f 702 703
l 703 704
f 703 704
l 704 705
f 704 705
l 705 706
f 705 706
l 706 707
f 706 707
l 707 708
f 707 708
l 708 709
f 708 709
l 709 710
f 709 710
l 710 711
f 710 711
l 711 712
f 711 712
l 712 713
f 712 713
l 713 714
f 713 714
l 714 715
f 714 715
l 715 716
f 715 716
l 716 717
f 716 717
l 717 718
f 717 718
l 718 719
f 718 719
l 719 720
f 719 720
l 720 721
f 720 721
l 721 722
f 721 722
l 722 723
f 722 723
l 723 724
f 723 724
l 724 725
f 724 725
l 725 726
f 725 726
l 726 727
f 726 727
l 727 728
f 727 728
l 728 729
f 728 729
l 729 730
f 729 730
l 730 731
f 730 731
l 731 732
f 731 732
l 732 733
f 732 733
l 733 734
f 733 734
l 734 735
f 734 735
l 735 736
f 735 736
l 736 737
f 736 737
l 737 738
f 737 738
l 738 739
f 738 739
l 739 740
f 739 740
l 740 741
f 740 741
l 741 742
f 741 742
l 742 743
f 742 743
l 743 744
f 743 744
l 744 745
f 744 745
l 745 746
f 745 746
l 746 747
f 746 747
l 747 748
f 747 748
l 748 749
f 748 749
l 749 750
f 749 750
l 750 751
f 750 751
l 751 752
f 751 752
l 752 753
f 752 753
l 753 754
f 753 754
l 754 755
f 754 755
l 755 756
f 755 756
l 756 757
f 756 757
l 757 758
f 757 758
l 758 759
f 758 759
l 759 760
f 759 760
l 760 761
f 760 761
l 761 762
f 761 762
l 762 763
f 762 763
l 763 764
f 763 764
l 764 765
f 764 765
l 765 766
f 765 766
l 766 767
f 766 767
l 767 768
f 767 768
l 768 769
f 768 769
l 769 770
f 769 770
l 770 771
f 770 771
l 771 772
f 771 772
l 772 773
f 772 773
l 773 774
f 773 774
l 774 775
f 774 775
l 775 776
f 775 776
l 776 777
f 776 777
l 777 778
f 777 778
l 778 779
f 778 779
l 779 780
f 779 780
l 780 781
f 780 781
l 781 782
f 781 782
l 782 783
f 782 783
l 783 784
f 783 784
l 784 785
f 784 785
l 785 786
f 785 786
l 786 787
f 786 787
l 787 788
f 787 788
l 788 789
f 788 789
l 789 790
f 789 790
l 790 791
f 790 791
l 791 792
f 791 792
l 792 793
f 792 793
l 793 794
f 793 794
l 794 795
f 794 795
l 795 796
f 795 796
l 796 797
f 796 797
l 797 798
f 797 798
l 798 799
f 798 799
l 799 800
f 799 800
l 800 801
f 800 801
l 801 802
f 801 802
l 802 803
f 802 803
l 803 804
f 803 804
l 804 805
f 804 805
l 805 806
f 805 806
l 806 807
f 806 807
l 807 808
f 807 808
l 808 809
f 808 809
l 809 810
f 809 810
l 810 811
f 810 811
l 811 812
f 811 812
l 812 813
f 812 813
l 813 814
f 813 814
l 814 815
f 814 815
l 815 816
f 815 816
l 816 817
f 816 817
l 817 818
f 817 818
l 818 819
f 818 819
l 819 820
f 819 820
l 820 821
f 820 821
l 821 822
f 821 822
l 822 823
f 822 823
l 823 824
f 823 824
l 824 825
f 824 825
l 825 826
f 825 826
l 826 827
f 826 827
l 827 828
f 827 828
l 828 829
f 828 829
l 829 830
f 829 830
l 830 831
f 830 831
l 831 832
f 831 832
l 832 833
f 832 833
l 833 834
f 833 834
l 834 835
f 834 835
l 835 836
f 835 836
l 836 837
f 836 837
l 837 838
f 837 838
l 838 839
f 838 839
l 839 840
f 839 840
l 840 841
f 840 841
l 841 842
f 841 842
l 842 843
f 842 843
l 843 844
f 843 844
l 844 845
f 844 845
l 845 846
f 845 846
l 846 847
f 846 847
l 847 848
f 847 848
l 848 849
f 848 849
l 849 850
f 849 850
l 850 851
f 850 851
l 851 852
f 851 852
l 852 853
f 852 853
l 853 854
f 853 854
l 854 855
f 854 855
l 855 856
f 855 856
l 856 857
f 856 857
l 857 858
f 857 858
l 858 859
f 858 859
l 859 860
f 859 860
l 860 861
f 860 861
l 861 862
f 861 862
l 862 863
f 862 863
l 863 864
f 863 864
l 864 865
f 864 865
l 865 866
f 865 866
l 866 867
f 866 867
l 867 868
f 867 868
l 868 869
f 868 869
l 869 870
f 869 870
l 870 871
f 870 871
l 871 872
f 871 872
l 872 873
f 872 873
l 873 874
f 873 874
l 874 875
f 874 875
l 875 876
f 875 876
l 876 877
f 876 877
l 877 878
f 877 878
l 878 879
f 878 879
l 879 880
f 879 880
l 880 881
f 880 881
l 881 882
f 881 882
l 882 883
f 882 883
l 883 884
f 883 884
l 884 885
f 884 885
l 885 886
f 885 886
l 886 887
f 886 887
l 887 888
f 887 888
l 888 889
f 888 889
l 889 890
f 889 890
l 890 891
f 890 891
l 891 892
f 891 892
l 892 893
f 892 893
l 893 894
f 893 894
l 894 895
f 894 895
l 895 896
f 895 896
l 896 897
f 896 897
l 897 898
f 897 898
l 898 899
f 898 899
l 899 900
f 899 900
l 900 901
f 900 901
l 901 902
f 901 902
l 902 903
f 902 903
l 903 904
f 903 904
l 904 905
f 904 905
l 905 906
f 905 906
l 906 907
f 906 907
l 907 908
f 907 908
l 908 909
f 908 909
l 909 910
f 909 910
l 910 911
f 910 911
l 911 912
f 911 912
l 912 913
f 912 913
l 913 914
f 913 914
l 914 915
f 914 915
l 915 916
f 915 916
l 916 917
f 916 917
l 917 918
f 917 918
l 918 919
f 918 919
l 919 920
f 919 920
l 920 921
f 920 921
l 921 922
f 921 922
l 922 923
f 922 923
l 923 924
f 923 924
l 924 925
f 924 925
l 925 926
f 925 926
l 926 927
f 926 927
l 927 928
f 927 928
l 928 929
f 928 929
l 929 930
f 929 930
l 930 931
f 930 931
l 931 932
f 931 932
l 932 933
f 932 933
l 933 934
f 933 934
l 934 935
f 934 935
l 935 936
f 935 936
l 936 937
f 936 937
l 937 938
f 937 938
l 938 939
f 938 939
l 939 940
f 939 940
l 940 941
f 940 941
l 941 942
f 941 942
l 942 943
f 942 943
l 943 944
f 943 944
l 944 945
f 944 945
l 945 946
f 945 946
l 946 947
f 946 947
l 947 948
f 947 948
l 948 949
f 948 949
l 949 950
f 949 950
l 950 951
f 950 951
l 951 952
f 951 952
l 952 953
f 952 953
l 953 954
f 953 954
l 954 955
f 954 955
l 955 956
f 955 956
l 956 957
f 956 957
l 957 958
f 957 958
l 958 959
f 958 959
l 959 960
f 959 960
l 960 961
f 960 961
l 961 962
f 961 962
