mtllib viroad.mtl
v 0.000572887 -0.131896 0
v -0.999231 -0.11208 0
v -1.99904 -0.0923013 0
v -2.99884 -0.0725982 0
v -3.99865 -0.0530081 0
v -4.99846 -0.0335687 0
v -5.99827 -0.0143223 0
v -6.99809 0.00466991 0
v -7.99792 0.0233421 0
v -8.99775 0.0416284 0
v -9.99759 0.059463 0
v -10.9974 0.0767971 0
v -11.9973 0.0936505 0
v -12.9972 0.11006 0
v -13.997 0.126064 0
v -14.9969 0.141698 0
v -15.9968 0.156934 0
v -16.9967 0.171472 0
v -17.9966 0.184947 0
v -18.9965 0.196992 0
v -19.9965 0.207242 0
v -20.9965 0.215573 0
v -21.9965 0.222852 0
v -22.9966 0.230192 0
v -23.9965 0.238708 0
v -24.9963 0.249515 0
v -25.996 0.262811 0
v -26.9957 0.275093 0
v -27.9956 0.281925 0
v -28.9957 0.278869 0
v -29.9963 0.261488 0
v -30.997 0.223907 0
v -31.9958 0.15428 0
v -32.9901 0.0392123 0
v -33.9773 -0.134692 0
v -34.9548 -0.380827 0
v -35.9171 -0.710963 0
v -36.8467 -1.13012 0
v -37.7229 -1.64155 0
v -38.5251 -2.24854 0
v -39.2325 -2.95431 0
v -39.8312 -3.75611 0
v -40.324 -4.63607 0
v -40.7164 -5.57399 0
v -41.0138 -6.54966 0
v -41.2217 -7.54298 0
v -41.3484 -8.54081 0
v -41.4065 -9.54085 0
v -41.409 -10.5418 0
v -41.369 -11.5423 0
v -41.2994 -12.5411 0
v -41.211 -13.5377 0
v -41.1106 -14.5327 0
v -41.0049 -15.5269 0
v -40.9004 -16.5211 0
v -40.8036 -17.5162 0
v -40.7163 -18.5123 0
v -40.6318 -19.5088 0
v -40.5432 -20.5049 0
v -40.4433 -21.5 0
v -40.3251 -22.4933 0
v -40.1806 -23.4833 0
v -40.0014 -24.4675 0
v -39.7785 -25.4434 0
v -39.5031 -26.4083 0
v -39.1666 -27.3594 0
v -38.7618 -28.2895 0
v -38.2843 -29.1835 0
v -37.7299 -30.0257 0
v -37.0944 -30.8002 0
v -36.3742 -31.4917 0
v -35.574 -32.0938 0
v -34.709 -32.6109 0
v -33.7947 -33.0477 0
v -32.8467 -33.409 0
v -31.8802 -33.6998 0
v -30.903 -33.9278 0
v -29.9175 -34.1028 0
v -28.9258 -34.2347 0
v -27.9302 -34.3334 0
v -26.9326 -34.4086 0
v -25.9343 -34.4666 0
v -24.9352 -34.5115 0
v -23.9358 -34.547 0
v -22.9361 -34.577 0
v -21.9364 -34.6052 0
v -20.9368 -34.6329 0
v -19.9371 -34.6596 0
v -18.9375 -34.6849 0
v -17.9378 -34.7081 0
v -16.938 -34.7289 0
v -15.9382 -34.7472 0
v -14.9383 -34.7638 0
v -13.9384 -34.7792 0
v -12.9385 -34.794 0
v -11.9386 -34.8089 0
v -10.9388 -34.8243 0
v -9.93891 -34.8404 0
v -8.93906 -34.8576 0
v -7.93922 -34.8762 0
v -6.9394 -34.8964 0
v -5.9396 -34.9187 0
v -4.93987 -34.9434 0
v -3.94025 -34.9711 0
v -2.94077 -35.0023 0
v -1.94146 -35.0373 0
v -0.942339 -35.0766 0
v 0.0566403 -35.1202 0
v 1.0555 -35.1682 0
v 2.05428 -35.221 0
v 3.05299 -35.2787 0
v 4.05128 -35.3441 0
v 5.04851 -35.4223 0
v 6.04403 -35.5182 0
v 7.0372 -35.6368 0
v 8.0273 -35.7832 0
v 9.01278 -35.9614 0
v 9.9913 -36.1748 0
v 10.9605 -36.4269 0
v 11.9181 -36.7211 0
v 12.8616 -37.0607 0
v 13.7872 -37.4485 0
v 14.6899 -37.8867 0
v 15.5648 -38.3775 0
v 16.4068 -38.9232 0
v 17.2108 -39.5257 0
v 17.9715 -40.1842 0
v 18.6829 -40.8955 0
v 19.3394 -41.6567 0
v 19.9352 -42.4648 0
v 20.4647 -43.3164 0
v 20.9257 -44.2073 0
v 21.3172 -45.1323 0
v 21.6383 -46.0864 0
v 21.8881 -47.0646 0
v 22.0653 -48.0613 0
v 22.1661 -49.0685 0
v 22.1853 -50.0771 0
v 22.118 -51.0781 0
v 21.9592 -52.0622 0
v 21.7106 -53.0238 0
v 21.3991 -53.9701 0
v 21.0574 -54.9113 0
v 20.7182 -55.8574 0
v 20.4143 -56.8188 0
v 20.1729 -57.8013 0
v 20.0049 -58.7988 0
v 19.9179 -59.8028 0
v 19.9197 -60.8046 0
v 20.0177 -61.7956 0
v 20.2054 -62.7726 0
v 20.4499 -63.7413 0
v 20.7154 -64.7085 0
v 20.9664 -65.6812 0
v 21.1673 -66.666 0
v 21.2959 -67.6645 0
v 21.3494 -68.6702 0
v 21.3266 -69.6759 0
v 21.2265 -70.6746 0
v 21.0482 -71.6591 0
v 20.7979 -72.6269 0
v 20.4878 -73.5792 0
v 20.1306 -74.5175 0
v 19.739 -75.4433 0
v 19.3253 -76.3579 0
v 18.8964 -77.2629 0
v 18.4547 -78.16 0
v 18.0021 -79.0507 0
v 17.5407 -79.9367 0
v 17.0727 -80.8195 0
v 16.5993 -81.7 0
v 16.1218 -82.5786 0
v 15.6408 -83.4557 0
v 15.1575 -84.3315 0
v 14.6728 -85.2065 0
v 14.1878 -86.0811 0
v 13.7037 -86.9561 0
v 13.2217 -87.8322 0
v 12.743 -88.7101 0
v 12.269 -89.5906 0
v 11.8007 -90.4742 0
v 11.3393 -91.3615 0
v 10.886 -92.2529 0
v 10.442 -93.1491 0
v 10.0084 -94.0505 0
v 9.58671 -94.9575 0
v 9.17856 -95.8707 0
v 8.78568 -96.7906 0
v 8.40979 -97.7175 0
v 8.0526 -98.6521 0
v 7.71592 -99.5944 0
v 7.40164 -100.544 0
v 7.11165 -101.502 0
v 6.84785 -102.467 0
v 6.61214 -103.44 0
v 6.40642 -104.42 0
v 6.23262 -105.406 0
v 6.09265 -106.397 0
v 5.98843 -107.393 0
v 5.92189 -108.392 0
v 5.89505 -109.394 0
v 5.91004 -110.396 0
v 5.96899 -111.396 0
v 6.07404 -112.392 0
v 6.22721 -113.382 0
v 6.42923 -114.364 0
v 6.67977 -115.335 0
v 6.97852 -116.292 0
v 7.32512 -117.232 0
v 7.7192 -118.154 0
v 8.15981 -119.054 0
v 8.64564 -119.931 0
v 9.17541 -120.782 0
v 9.74779 -121.606 0
v 10.3615 -122.399 0
v 11.0148 -123.16 0
v 11.7062 -123.886 0
v 12.4338 -124.576 0
v 13.1959 -125.226 0
v 13.9907 -125.836 0
v 14.8152 -126.405 0
v 15.6663 -126.934 0
v 16.5406 -127.424 0
v 17.4349 -127.877 0
v 18.346 -128.293 0
v 19.272 -128.674 0
v 20.211 -129.021 0
v 21.1614 -129.336 0
v 22.1213 -129.62 0
v 23.0892 -129.874 0
v 24.0639 -130.1 0
v 25.0444 -130.3 0
v 26.0295 -130.476 0
v 27.0183 -130.629 0
v 28.0098 -130.762 0
v 29.0035 -130.877 0
v 29.999 -130.974 0
v 30.9958 -131.056 0
v 31.9937 -131.125 0
v 32.9921 -131.182 0
v 33.991 -131.229 0
v 34.9902 -131.269 0
v 35.9897 -131.303 0
v 36.9893 -131.335 0
v 37.9888 -131.365 0
v 38.9884 -131.394 0
v 39.988 -131.423 0
v 40.9875 -131.453 0
v 41.9871 -131.482 0
v 42.9866 -131.513 0
v 43.9861 -131.543 0
v 44.9857 -131.574 0
v 45.9853 -131.603 0
v 46.9849 -131.631 0
v 47.9845 -131.657 0
v 48.9842 -131.683 0
v 49.9838 -131.71 0
v 50.9833 -131.742 0
v 51.9827 -131.78 0
v 52.9818 -131.824 0
v 53.9809 -131.868 0
v 54.9803 -131.903 0
v 55.9802 -131.92 0
v 56.9809 -131.91 0
v 57.9822 -131.865 0
v 58.9813 -131.777 0
v 59.9748 -131.642 0
v 60.959 -131.452 0
v 61.9306 -131.202 0
v 62.8854 -130.887 0
v 63.8157 -130.502 0
v 64.7129 -130.047 0
v 65.5684 -129.517 0
v 66.3735 -128.912 0
v 67.1193 -128.23 0
v 67.7959 -127.477 0
v 68.393 -126.661 0
v 68.9007 -125.79 0
v 69.3086 -124.871 0
v 69.6116 -123.912 0
v 69.8148 -122.926 0
v 69.9247 -121.922 0
v 69.9481 -120.911 0
v 69.8913 -119.906 0
v 69.7627 -118.911 0
v 69.5723 -117.927 0
v 69.3306 -116.955 0
v 69.0479 -115.993 0
v 68.7347 -115.041 0
v 68.4004 -114.098 0
v 68.0537 -113.161 0
v 67.7029 -112.225 0
v 67.3566 -111.287 0
v 67.0234 -110.343 0
v 66.7121 -109.392 0
v 66.4326 -108.431 0
v 66.1946 -107.458 0
v 66.0076 -106.473 0
v 65.8814 -105.474 0
v 65.8256 -104.465 0
v 65.8492 -103.456 0
v 65.9615 -102.456 0
v 66.1716 -101.474 0
v 66.4881 -100.521 0
v 66.9088 -99.6053 0
v 67.4248 -98.736 0
v 68.027 -97.9221 0
v 68.7063 -97.1724 0
v 69.4535 -96.4948 0
v 70.2597 -95.8915 0
v 71.1161 -95.3618 0
v 72.0136 -94.9052 0
v 72.9435 -94.521 0
v 73.8973 -94.2079 0
v 74.8696 -93.9614 0
v 75.8557 -93.7758 0
v 76.8511 -93.6456 0
v 77.8512 -93.5651 0
v 78.8518 -93.5283 0
v 79.8521 -93.5278 0
v 80.8519 -93.5554 0
v 81.8513 -93.6032 0
v 82.8502 -93.6631 0
v 83.8485 -93.7282 0
v 84.8463 -93.7967 0
v 85.8437 -93.8686 0
v 86.8406 -93.9441 0
v 87.8373 -94.023 0
v 88.8337 -94.1051 0
v 89.8301 -94.1882 0
v 90.8268 -94.2695 0
v 91.8239 -94.3462 0
v 92.8218 -94.4156 0
v 93.8206 -94.4754 0
v 94.82 -94.5251 0
v 95.8196 -94.5651 0
v 96.819 -94.596 0
v 97.8179 -94.6179 0
v 98.8159 -94.6301 0
v 99.8135 -94.625 0
v 100.812 -94.5927 0
v 101.811 -94.5234 0
v 102.812 -94.4074 0
v 103.814 -94.2347 0
v 104.804 -93.9954 0
v 105.765 -93.6796 0
v 106.681 -93.277 0
v 107.536 -92.7777 0
v 108.318 -92.1782 0
v 109.041 -91.4957 0
v 109.718 -90.752 0
v 110.367 -89.9688 0
v 111.003 -89.168 0
v 111.641 -88.371 0
v 112.299 -87.5993 0
v 112.99 -86.8739 0
v 113.731 -86.2161 0
v 114.537 -85.647 0
v 115.413 -85.1785 0
v 116.347 -84.8047 0
v 117.32 -84.5176 0
v 118.317 -84.309 0
v 119.322 -84.171 0
v 120.324 -84.0936 0
v 121.325 -84.0646 0
v 122.323 -84.0713 0
v 123.321 -84.1014 0
v 124.318 -84.1424 0
v 125.315 -84.1918 0
v 126.311 -84.2607 0
v 127.306 -84.3614 0
v 128.3 -84.5062 0
v 129.291 -84.7072 0
v 130.273 -84.9746 0
v 131.23 -85.3154 0
v 132.146 -85.7366 0
v 133.003 -86.2449 0
v 133.785 -86.8467 0
v 134.495 -87.5352 0
v 135.147 -88.2911 0
v 135.76 -89.0944 0
v 136.352 -89.9255 0
v 136.938 -90.7644 0
v 137.537 -91.5902 0
v 138.165 -92.3813 0
v 138.838 -93.116 0
v 139.574 -93.7726 0
v 140.388 -94.3312 0
v 141.272 -94.7908 0
v 142.212 -95.1617 0
v 143.187 -95.4541 0
v 144.181 -95.6782 0
v 145.179 -95.8444 0
v 146.175 -95.963 0
v 147.17 -96.0447 0
v 148.166 -96.1 0
v 149.162 -96.1395 0
v 150.16 -96.1727 0
v 151.159 -96.203 0
v 152.159 -96.2315 0
v 153.159 -96.259 0
v 154.16 -96.2864 0
v 155.16 -96.3147 0
v 156.159 -96.3438 0
v 157.159 -96.3735 0
v 158.158 -96.4034 0
v 159.158 -96.4335 0
v 160.157 -96.4633 0
v 161.157 -96.493 0
v 162.156 -96.5226 0
v 163.156 -96.5523 0
v 164.155 -96.582 0
v 165.155 -96.612 0
v 166.155 -96.6421 0
v 167.154 -96.6721 0
v 168.154 -96.702 0
v 169.153 -96.7316 0
v 170.153 -96.7607 0
v 171.152 -96.7898 0
v 172.152 -96.8192 0
v 173.152 -96.8495 0
v 174.151 -96.8811 0
v 175.15 -96.9141 0
v 176.15 -96.9464 0
v 177.149 -96.9748 0
v 178.149 -96.9962 0
v 179.149 -97.0073 0
v 180.15 -97.0049 0
v 181.15 -96.9846 0
v 182.15 -96.9413 0
v 183.148 -96.8703 0
v 184.144 -96.7666 0
v 185.136 -96.6253 0
v 186.122 -96.442 0
v 187.099 -96.2126 0
v 188.061 -95.9329 0
v 189.006 -95.5986 0
v 189.929 -95.2057 0
v 190.825 -94.7525 0
v 191.688 -94.238 0
v 192.512 -93.6614 0
v 193.29 -93.0219 0
v 194.016 -92.3189 0
v 194.68 -91.5542 0
v 195.267 -90.7313 0
v 195.766 -89.8536 0
v 196.162 -88.9247 0
v 196.443 -87.9485 0
v 196.601 -86.939 0
v 196.629 -85.9173 0
v 196.524 -84.9045 0
v 196.28 -83.922 0
v 195.893 -82.9904 0
v 195.372 -82.1235 0
v 194.738 -81.3298 0
v 194.008 -80.6174 0
v 193.205 -79.9948 0
v 192.345 -79.4683 0
v 191.442 -79.0311 0
v 190.505 -78.6707 0
v 189.543 -78.3742 0
v 188.567 -78.1291 0
v 187.585 -77.9232 0
v 186.6 -77.7462 0
v 185.613 -77.5888 0
v 184.625 -77.4417 0
v 183.637 -77.2954 0
v 182.649 -77.142 0
v 181.662 -76.9811 0
v 180.676 -76.8151 0
v 179.69 -76.6467 0
v 178.704 -76.4783 0
v 177.718 -76.312 0
v 176.731 -76.148 0
v 175.745 -75.9855 0
v 174.758 -75.8239 0
v 173.771 -75.6625 0
v 172.784 -75.5006 0
v 171.798 -75.3384 0
v 170.811 -75.1758 0
v 169.824 -75.0132 0
v 168.837 -74.8507 0
v 167.851 -74.6884 0
v 166.864 -74.5263 0
v 165.877 -74.3644 0
v 164.89 -74.2026 0
v 163.903 -74.0409 0
v 162.917 -73.8791 0
v 161.93 -73.7174 0
v 160.943 -73.5557 0
v 159.956 -73.3939 0
v 158.969 -73.2322 0
v 157.982 -73.0706 0
v 156.996 -72.9089 0
v 156.009 -72.7472 0
v 155.022 -72.5856 0
v 154.035 -72.4239 0
v 153.048 -72.2622 0
v 152.061 -72.1004 0
v 151.074 -71.9386 0
v 150.088 -71.7768 0
v 149.101 -71.6149 0
v 148.114 -71.453 0
v 147.127 -71.2911 0
v 146.14 -71.129 0
v 145.154 -70.9669 0
v 144.167 -70.8047 0
v 143.18 -70.6423 0
v 142.193 -70.4799 0
v 141.207 -70.3174 0
v 140.22 -70.1548 0
v 139.233 -69.9921 0
v 138.247 -69.8294 0
v 137.26 -69.6665 0
v 136.273 -69.5035 0
v 135.287 -69.3403 0
v 134.3 -69.1769 0
v 133.314 -69.0133 0
v 132.327 -68.8495 0
v 131.341 -68.6857 0
v 130.354 -68.5219 0
v 129.368 -68.3584 0
v 128.381 -68.1951 0
v 127.395 -68.0318 0
v 126.408 -67.8679 0
v 125.422 -67.7029 0
v 124.436 -67.5365 0
v 123.45 -67.3683 0
v 122.464 -67.1996 0
v 121.478 -67.0321 0
v 120.491 -66.8677 0
v 119.505 -66.708 0
v 118.518 -66.5538 0
v 117.531 -66.4007 0
v 116.544 -66.242 0
v 115.559 -66.0712 0
v 114.574 -65.8815 0
v 113.592 -65.6656 0
v 112.619 -65.4112 0
v 111.664 -65.1041 0
v 110.734 -64.73 0
v 109.839 -64.2748 0
v 108.988 -63.7268 0
v 108.198 -63.0873 0
v 107.487 -62.3615 0
v 106.876 -61.5548 0
v 106.384 -60.6724 0
v 106.023 -59.7238 0
v 105.798 -58.7296 0
v 105.707 -57.7118 0
v 105.75 -56.6927 0
v 105.928 -55.6943 0
v 106.236 -54.7342 0
v 106.661 -53.8188 0
v 107.186 -52.953 0
v 107.797 -52.1415 0
v 108.479 -51.3894 0
v 109.217 -50.7002 0
v 110.005 -50.0741 0
v 110.837 -49.5106 0
v 111.706 -49.0093 0
v 112.608 -48.5697 0
v 113.536 -48.1908 0
v 114.485 -47.8689 0
v 115.451 -47.6002 0
v 116.431 -47.3807 0
v 117.419 -47.2064 0
v 118.412 -47.0732 0
v 119.408 -46.9766 0
v 120.406 -46.912 0
v 121.406 -46.8748 0
v 122.407 -46.8603 0
v 123.407 -46.8643 0
v 124.407 -46.8847 0
v 125.407 -46.9197 0
v 126.406 -46.9678 0
v 127.404 -47.0272 0
v 128.402 -47.0962 0
v 129.399 -47.1725 0
v 130.396 -47.2536 0
v 131.392 -47.337 0
v 132.389 -47.4202 0
v 133.385 -47.501 0
v 134.382 -47.5774 0
v 135.38 -47.6477 0
v 136.378 -47.7103 0
v 137.377 -47.7635 0
v 138.377 -47.8053 0
v 139.377 -47.832 0
v 140.378 -47.8395 0
v 141.378 -47.8236 0
v 142.377 -47.7802 0
v 143.375 -47.7052 0
v 144.369 -47.5955 0
v 145.36 -47.4482 0
v 146.344 -47.2604 0
v 147.32 -47.0293 0
v 148.286 -46.7518 0
v 149.237 -46.4245 0
v 150.166 -46.0441 0
v 151.068 -45.6069 0
v 151.936 -45.1095 0
v 152.766 -44.5503 0
v 153.557 -43.9346 0
v 154.309 -43.2697 0
v 155.024 -42.5628 0
v 155.702 -41.8213 0
v 156.345 -41.0514 0
v 156.954 -40.2564 0
v 157.532 -39.4389 0
v 158.08 -38.6017 0
v 158.601 -37.7475 0
v 159.096 -36.879 0
v 159.571 -35.9984 0
v 160.027 -35.1083 0
v 160.47 -34.211 0
v 160.903 -33.3088 0
v 161.328 -32.4036 0
v 161.749 -31.4965 0
v 162.167 -30.5881 0
v 162.583 -29.679 0
v 163 -28.77 0
v 163.418 -27.8617 0
v 163.838 -26.9539 0
v 164.259 -26.0467 0
v 164.68 -25.1399 0
v 165.102 -24.2335 0
v 165.525 -23.3273 0
v 165.947 -22.421 0
v 166.369 -21.5144 0
v 166.79 -20.6071 0
v 167.209 -19.6988 0
v 167.625 -18.7886 0
v 168.03 -17.8738 0
v 168.416 -16.9511 0
v 168.776 -16.0176 0
v 169.1 -15.0702 0
v 169.38 -14.1068 0
v 169.608 -13.129 0
v 169.774 -12.139 0
v 169.869 -11.139 0
v 169.883 -10.1313 0
v 169.807 -9.12033 0
v 169.634 -8.11966 0
v 169.357 -7.14489 0
v 168.969 -6.21162 0
v 168.461 -5.33546 0
v 167.831 -4.53242 0
v 167.092 -3.82038 0
v 166.261 -3.21779 0
v 165.357 -2.7431 0
v 164.398 -2.41473 0
v 163.402 -2.24748 0
v 162.388 -2.23587 0
v 161.375 -2.36744 0
v 160.384 -2.6297 0
v 159.434 -3.01019 0
v 158.543 -3.49644 0
v 157.716 -4.07607 0
v 156.954 -4.7367 0
v 156.256 -5.46596 0
v 155.624 -6.2515 0
v 155.058 -7.08139 0
v 154.552 -7.94749 0
v 154.102 -8.8436 0
v 153.701 -9.76353 0
v 153.343 -10.7011 0
v 153.024 -11.6503 0
v 152.734 -12.6078 0
v 152.469 -13.5717 0
v 152.219 -14.5401 0
v 151.978 -15.5111 0
v 151.739 -16.4828 0
v 151.493 -17.4531 0
v 151.236 -18.4198 0
v 150.958 -19.3804 0
v 150.653 -20.3329 0
v 150.315 -21.2748 0
v 149.936 -22.202 0
v 149.512 -23.1094 0
v 149.035 -23.9919 0
v 148.502 -24.8446 0
v 147.905 -25.6615 0
v 147.246 -26.431 0
v 146.523 -27.1383 0
v 145.74 -27.769 0
v 144.897 -28.3084 0
v 143.997 -28.7449 0
v 143.05 -29.0815 0
v 142.07 -29.3255 0
v 141.069 -29.4842 0
v 140.061 -29.565 0
v 139.055 -29.5756 0
v 138.054 -29.5251 0
v 137.058 -29.4226 0
v 136.068 -29.2776 0
v 135.083 -29.0992 0
v 134.103 -28.8957 0
v 133.129 -28.6718 0
v 132.158 -28.432 0
v 131.19 -28.1806 0
v 130.223 -27.9218 0
v 129.258 -27.6592 0
v 128.294 -27.3942 0
v 127.33 -27.1278 0
v 126.367 -26.8609 0
v 125.403 -26.5945 0
v 124.438 -26.3298 0
v 123.473 -26.0684 0
v 122.507 -25.8122 0
v 121.538 -25.5632 0
v 120.567 -25.3232 0
v 119.594 -25.094 0
v 118.617 -24.8774 0
v 117.637 -24.6752 0
v 116.655 -24.4891 0
v 115.669 -24.3209 0
v 114.679 -24.1725 0
v 113.686 -24.0458 0
v 112.691 -23.9429 0
v 111.694 -23.8657 0
v 110.694 -23.8164 0
v 109.693 -23.797 0
v 108.692 -23.8092 0
v 107.692 -23.855 0
v 106.694 -23.9362 0
v 105.7 -24.0547 0
v 104.71 -24.2123 0
v 103.728 -24.4109 0
v 102.756 -24.6525 0
v 101.796 -24.939 0
v 100.851 -25.2722 0
v 99.923 -25.6533 0
v 99.0156 -26.0812 0
v 98.1315 -26.5547 0
v 97.2734 -27.0724 0
v 96.4442 -27.633 0
v 95.6443 -28.2334 0
v 94.8697 -28.8665 0
v 94.1155 -29.5252 0
v 93.3771 -30.2022 0
v 92.6498 -30.8902 0
v 91.9292 -31.5833 0
v 91.2109 -32.2779 0
v 90.4907 -32.9708 0
v 89.7644 -33.6586 0
v 89.0278 -34.338 0
v 88.2767 -35.0036 0
v 87.5068 -35.6468 0
v 86.7138 -36.2585 0
v 85.8936 -36.8299 0
v 85.0419 -37.3519 0
v 84.1583 -37.8204 0
v 83.2473 -38.238 0
v 82.3139 -38.6078 0
v 81.3631 -38.9326 0
v 80.3998 -39.2157 0
v 79.4273 -39.459 0
v 78.447 -39.6637 0
v 77.4602 -39.8307 0
v 76.4682 -39.9611 0
v 75.4723 -40.0558 0
v 74.4736 -40.1164 0
v 73.4732 -40.145 0
v 72.4721 -40.1435 0
v 71.4712 -40.114 0
v 70.4717 -40.0586 0
v 69.4741 -39.9791 0
v 68.4788 -39.8774 0
v 67.4859 -39.7552 0
v 66.4958 -39.6142 0
v 65.5086 -39.4562 0
v 64.5243 -39.2829 0
v 63.5423 -39.0963 0
v 62.5621 -38.8981 0
v 61.583 -38.6901 0
v 60.6047 -38.4742 0
v 59.6285 -38.2463 0
v 58.6585 -37.9965 0
v 57.6986 -37.7142 0
v 56.7528 -37.3892 0
v 55.8253 -37.011 0
v 54.922 -36.5725 0
v 54.0513 -36.0704 0
v 53.2217 -35.5017 0
v 52.4418 -34.8632 0
v 51.7201 -34.1522 0
v 51.0681 -33.3714 0
v 50.5003 -32.5293 0
v 50.031 -31.6349 0
v 49.6748 -30.6969 0
v 49.4445 -29.7243 0
v 49.3356 -28.7276 0
v 49.3336 -27.7182 0
v 49.4239 -26.7073 0
v 49.5917 -25.7063 0
v 49.8225 -24.725 0
v 50.1006 -23.7624 0
v 50.41 -22.8122 0
v 50.735 -21.8683 0
v 51.0594 -20.9245 0
v 51.3692 -19.9753 0
v 51.6642 -19.0205 0
v 51.9512 -18.0624 0
v 52.2367 -17.1034 0
v 52.5276 -16.1456 0
v 52.8304 -15.1916 0
v 53.1504 -14.2434 0
v 53.4925 -13.3033 0
v 53.8615 -12.3735 0
v 54.2622 -11.4561 0
v 54.6995 -10.5536 0
v 55.1775 -9.67112 0
v 55.7004 -8.81493 0
v 56.2724 -7.99139 0
v 56.8973 -7.20683 0
v 57.5787 -6.46754 0
v 58.314 -5.77942 0
v 59.0986 -5.14824 0
v 59.9277 -4.57974 0
v 60.7965 -4.07968 0
v 61.7 -3.65132 0
v 62.6318 -3.28686 0
v 63.585 -2.9754 0
v 64.5531 -2.70608 0
v 65.5293 -2.46799 0
v 66.5077 -2.25061 0
v 67.4865 -2.04471 0
v 68.4647 -1.84137 0
v 69.4413 -1.63168 0
v 70.4153 -1.40673 0
v 71.385 -1.15773 0
v 72.3464 -0.876379 0
v 73.2949 -0.554468 0
v 74.2259 -0.183793 0
v 75.1348 0.243847 0
v 76.0154 0.735406 0
v 76.8557 1.29415 0
v 77.6433 1.92268 0
v 78.3653 2.62356 0
v 79.0091 3.39937 0
v 79.5633 4.2474 0
v 80.0192 5.15463 0
v 80.3684 6.1068 0
v 80.6024 7.08967 0
v 80.7131 8.08907 0
v 80.7025 9.09351 0
v 80.5838 10.0945 0
v 80.3708 11.0835 0
v 80.0772 12.0523 0
v 79.7168 12.9929 0
v 79.3028 13.9053 0
v 78.8483 14.7962 0
v 78.366 15.6722 0
v 77.8689 16.5402 0
v 77.3696 17.4068 0
v 76.8732 18.2748 0
v 76.3783 19.1435 0
v 75.8834 20.0124 0
v 75.3869 20.8806 0
v 74.8872 21.7474 0
v 74.3804 22.6102 0
v 73.8604 23.4649 0
v 73.3213 24.3074 0
v 72.757 25.1334 0
v 72.1615 25.9389 0
v 71.5308 26.7184 0
v 70.8619 27.4655 0
v 70.1523 28.174 0
v 69.3993 28.8375 0
v 68.6004 29.4494 0
v 67.7574 30.0029 0
v 66.8752 30.4903 0
v 65.9587 30.9043 0
v 65.0129 31.2373 0
v 64.043 31.4829 0
v 63.0546 31.6456 0
v 62.054 31.7349 0
v 61.0473 31.7606 0
v 60.0406 31.7322 0
v 59.0395 31.6595 0
v 58.0443 31.5526 0
v 57.0532 31.4213 0
v 56.0646 31.276 0
v 55.0766 31.1264 0
v 54.0876 30.9819 0
v 53.0973 30.8437 0
v 52.1063 30.7099 0
v 51.1147 30.5782 0
v 50.1232 30.4467 0
v 49.132 30.3135 0
v 48.1411 30.1784 0
v 47.1504 30.0421 0
v 46.1599 29.9053 0
v 45.1694 29.7685 0
v 44.1787 29.6324 0
v 43.1879 29.4969 0
v 42.1971 29.3617 0
v 41.2063 29.2263 0
v 40.2156 29.0904 0
v 39.2249 28.9537 0
v 38.2343 28.8169 0
v 37.2436 28.6809 0
v 36.2526 28.5467 0
v 35.2613 28.4154 0
v 34.2696 28.2875 0
v 33.2777 28.1609 0
v 32.286 28.0323 0
v 31.295 27.898 0
v 30.3052 27.7547 0
v 29.3172 27.5981 0
v 28.3336 27.4175 0
v 27.3577 27.1992 0
v 26.3931 26.9295 0
v 25.4431 26.5947 0
v 24.5127 26.182 0
v 23.6188 25.6862 0
v 22.7838 25.1055 0
v 22.0301 24.438 0
v 21.3802 23.6821 0
v 20.8516 22.839 0
v 20.4388 21.9246 0
v 20.1295 20.9586 0
v 19.9115 19.961 0
v 19.7726 18.9515 0
v 19.7005 17.9452 0
v 19.6826 16.9432 0
v 19.7062 15.9446 0
v 19.7585 14.9484 0
v 19.8269 13.9536 0
v 19.8988 12.959 0
v 19.9614 11.9631 0
v 20.0023 10.9646 0
v 20.0086 9.96194 0
v 19.9679 8.95366 0
v 19.8673 7.94257 0
v 19.6933 6.94211 0
v 19.4322 5.96737 0
v 19.0706 5.03345 0
v 18.595 4.15539 0
v 18.002 3.34535 0
v 17.3074 2.61012 0
v 16.5285 1.95596 0
v 15.6829 1.3891 0
v 14.7878 0.915439 0
v 13.8558 0.533862 0
v 12.8952 0.236698 0
v 11.914 0.016029 0
v 10.9203 -0.136064 0
v 9.92185 -0.227666 0
v 8.92244 -0.269533 0
v 7.92238 -0.274573 0
v 6.92195 -0.255757 0
v 5.92141 -0.226054 0
v 4.92103 -0.198009 0
v 3.9209 -0.176716 0
v 2.92097 -0.160935 0
v 1.92119 -0.149224 0
v 0.9215 -0.140141 0
v 0.100069 -0.133628 0
g vroa_race track wide 
usemtl RED
l 1 2
f 1 2
l 2 3
f 2 3
l 3 4
f 3 4
l 4 5
f 4 5
l 5 6
f 5 6
l 6 7
f 6 7
l 7 8
f 7 8
l 8 9
f 8 9
l 9 10
f 9 10
l 10 11
f 10 11
l 11 12
f 11 12
l 12 13
f 12 13
l 13 14
f 13 14
l 14 15
f 14 15
l 15 16
f 15 16
l 16 17
f 16 17
l 17 18
f 17 18
l 18 19
f 18 19
l 19 20
f 19 20
l 20 21
f 20 21
l 21 22
f 21 22
l 22 23
f 22 23
l 23 24
f 23 24
l 24 25
f 24 25
l 25 26
f 25 26
l 26 27
f 26 27
l 27 28
f 27 28
l 28 29
f 28 29
l 29 30
f 29 30
l 30 31
f 30 31
l 31 32
f 31 32
l 32 33
f 32 33
l 33 34
f 33 34
l 34 35
f 34 35
l 35 36
f 35 36
l 36 37
f 36 37
l 37 38
f 37 38
l 38 39
f 38 39
l 39 40
f 39 40
l 40 41
f 40 41
l 41 42
f 41 42
l 42 43
f 42 43
l 43 44
f 43 44
l 44 45
f 44 45
l 45 46
f 45 46
l 46 47
f 46 47
l 47 48
f 47 48
l 48 49
f 48 49
l 49 50
f 49 50
l 50 51
f 50 51
l 51 52
f 51 52
l 52 53
f 52 53
l 53 54
f 53 54
l 54 55
f 54 55
l 55 56
f 55 56
l 56 57
f 56 57
l 57 58
f 57 58
l 58 59
f 58 59
l 59 60
f 59 60
l 60 61
f 60 61
l 61 62
f 61 62
l 62 63
f 62 63
l 63 64
f 63 64
l 64 65
f 64 65
l 65 66
f 65 66
l 66 67
f 66 67
l 67 68
f 67 68
l 68 69
f 68 69
l 69 70
f 69 70
l 70 71
f 70 71
l 71 72
f 71 72
l 72 73
f 72 73
l 73 74
f 73 74
l 74 75
f 74 75
l 75 76
f 75 76
l 76 77
f 76 77
l 77 78
f 77 78
l 78 79
f 78 79
l 79 80
f 79 80
l 80 81
f 80 81
l 81 82
f 81 82
l 82 83
f 82 83
l 83 84
f 83 84
l 84 85
f 84 85
l 85 86
f 85 86
l 86 87
f 86 87
l 87 88
f 87 88
l 88 89
f 88 89
l 89 90
f 89 90
l 90 91
f 90 91
l 91 92
f 91 92
l 92 93
f 92 93
l 93 94
f 93 94
l 94 95
f 94 95
l 95 96
f 95 96
l 96 97
f 96 97
l 97 98
f 97 98
l 98 99
f 98 99
l 99 100
f 99 100
l 100 101
f 100 101
l 101 102
f 101 102
l 102 103
f 102 103
l 103 104
f 103 104
l 104 105
f 104 105
l 105 106
f 105 106
l 106 107
f 106 107
l 107 108
f 107 108
l 108 109
f 108 109
l 109 110
f 109 110
l 110 111
f 110 111
l 111 112
f 111 112
l 112 113
f 112 113
l 113 114
f 113 114
l 114 115
f 114 115
l 115 116
f 115 116
l 116 117
f 116 117
l 117 118
f 117 118
l 118 119
f 118 119
l 119 120
f 119 120
l 120 121
f 120 121
l 121 122
f 121 122
l 122 123
f 122 123
l 123 124
f 123 124
l 124 125
f 124 125
l 125 126
f 125 126
l 126 127
f 126 127
l 127 128
f 127 128
l 128 129
f 128 129
l 129 130
f 129 130
l 130 131
f 130 131
l 131 132
f 131 132
l 132 133
f 132 133
l 133 134
f 133 134
l 134 135
f 134 135
l 135 136
f 135 136
l 136 137
f 136 137
l 137 138
f 137 138
l 138 139
f 138 139
l 139 140
f 139 140
l 140 141
f 140 141
l 141 142
f 141 142
l 142 143
f 142 143
l 143 144
f 143 144
l 144 145
f 144 145
l 145 146
f 145 146
l 146 147
f 146 147
l 147 148
f 147 148
l 148 149
f 148 149
l 149 150
f 149 150
l 150 151
f 150 151
l 151 152
f 151 152
l 152 153
f 152 153
l 153 154
f 153 154
l 154 155
f 154 155
l 155 156
f 155 156
l 156 157
f 156 157
l 157 158
f 157 158
l 158 159
f 158 159
l 159 160
f 159 160
l 160 161
f 160 161
l 161 162
f 161 162
l 162 163
f 162 163
l 163 164
f 163 164
l 164 165
f 164 165
l 165 166
f 165 166
l 166 167
f 166 167
l 167 168
f 167 168
l 168 169
f 168 169
l 169 170
f 169 170
l 170 171
f 170 171
l 171 172
f 171 172
l 172 173
f 172 173
l 173 174
f 173 174
l 174 175
f 174 175
l 175 176
f 175 176
l 176 177
f 176 177
l 177 178
f 177 178
l 178 179
f 178 179
l 179 180
f 179 180
l 180 181
f 180 181
l 181 182
f 181 182
l 182 183
f 182 183
l 183 184
f 183 184
l 184 185
f 184 185
l 185 186
f 185 186
l 186 187
f 186 187
l 187 188
f 187 188
l 188 189
f 188 189
l 189 190
f 189 190
l 190 191
f 190 191
l 191 192
f 191 192
l 192 193
f 192 193
l 193 194
f 193 194
l 194 195
f 194 195
l 195 196
f 195 196
l 196 197
f 196 197
l 197 198
f 197 198
l 198 199
f 198 199
l 199 200
f 199 200
l 200 201
f 200 201
l 201 202
f 201 202
l 202 203
f 202 203
l 203 204
f 203 204
l 204 205
f 204 205
l 205 206
f 205 206
l 206 207
f 206 207
l 207 208
f 207 208
l 208 209
f 208 209
l 209 210
f 209 210
l 210 211
f 210 211
l 211 212
f 211 212
l 212 213
f 212 213
l 213 214
f 213 214
l 214 215
f 214 215
l 215 216
f 215 216
l 216 217
f 216 217
l 217 218
f 217 218
l 218 219
f 218 219
l 219 220
f 219 220
l 220 221
f 220 221
l 221 222
f 221 222
l 222 223
f 222 223
l 223 224
f 223 224
l 224 225
f 224 225
l 225 226
f 225 226
l 226 227
f 226 227
l 227 228
f 227 228
l 228 229
f 228 229
l 229 230
f 229 230
l 230 231
f 230 231
l 231 232
f 231 232
l 232 233
f 232 233
l 233 234
f 233 234
l 234 235
f 234 235
l 235 236
f 235 236
l 236 237
f 236 237
l 237 238
f 237 238
l 238 239
f 238 239
l 239 240
f 239 240
l 240 241
f 240 241
l 241 242
f 241 242
l 242 243
f 242 243
l 243 244
f 243 244
l 244 245
f 244 245
l 245 246
f 245 246
l 246 247
f 246 247
l 247 248
f 247 248
l 248 249
f 248 249
l 249 250
f 249 250
l 250 251
f 250 251
l 251 252
f 251 252
l 252 253
f 252 253
l 253 254
f 253 254
l 254 255
f 254 255
l 255 256
f 255 256
l 256 257
f 256 257
l 257 258
f 257 258
l 258 259
f 258 259
l 259 260
f 259 260
l 260 261
f 260 261
l 261 262
f 261 262
l 262 263
f 262 263
l 263 264
f 263 264
l 264 265
f 264 265
l 265 266
f 265 266
l 266 267
f 266 267
l 267 268
f 267 268
l 268 269
f 268 269
l 269 270
f 269 270
l 270 271
f 270 271
l 271 272
f 271 272
l 272 273
f 272 273
l 273 274
f 273 274
l 274 275
f 274 275
l 275 276
f 275 276
l 276 277
f 276 277
l 277 278
f 277 278
l 278 279
f 278 279
l 279 280
f 279 280
l 280 281
f 280 281
l 281 282
f 281 282
l 282 283
f 282 283
l 283 284
f 283 284
l 284 285
f 284 285
l 285 286
f 285 286
l 286 287
f 286 287
l 287 288
f 287 288
l 288 289
f 288 289
l 289 290
f 289 290
l 290 291
f 290 291
l 291 292
f 291 292
l 292 293
f 292 293
l 293 294
f 293 294
l 294 295
f 294 295
l 295 296
f 295 296
l 296 297
f 296 297
l 297 298
f 297 298
l 298 299
f 298 299
l 299 300
f 299 300
l 300 301
f 300 301
l 301 302
f 301 302
l 302 303
f 302 303
l 303 304
f 303 304
l 304 305
f 304 305
l 305 306
f 305 306
l 306 307
f 306 307
l 307 308
f 307 308
l 308 309
f 308 309
l 309 310
f 309 310
l 310 311
f 310 311
l 311 312
f 311 312
l 312 313
f 312 313
l 313 314
f 313 314
l 314 315
f 314 315
l 315 316
f 315 316
l 316 317
f 316 317
l 317 318
f 317 318
l 318 319
f 318 319
l 319 320
f 319 320
l 320 321
f 320 321
l 321 322
f 321 322
l 322 323
f 322 323
l 323 324
f 323 324
l 324 325
f 324 325
l 325 326
f 325 326
l 326 327
f 326 327
l 327 328
f 327 328
l 328 329
f 328 329
l 329 330
f 329 330
l 330 331
f 330 331
l 331 332
f 331 332
l 332 333
f 332 333
l 333 334
f 333 334
l 334 335
f 334 335
l 335 336
f 335 336
l 336 337
f 336 337
l 337 338
f 337 338
l 338 339
f 338 339
l 339 340
f 339 340
l 340 341
f 340 341
l 341 342
f 341 342
l 342 343
f 342 343
l 343 344
f 343 344
l 344 345
f 344 345
l 345 346
f 345 346
l 346 347
f 346 347
l 347 348
f 347 348
l 348 349
f 348 349
l 349 350
f 349 350
l 350 351
f 350 351
l 351 352
f 351 352
l 352 353
f 352 353
l 353 354
f 353 354
l 354 355
f 354 355
l 355 356
f 355 356
l 356 357
f 356 357
l 357 358
f 357 358
l 358 359
f 358 359
l 359 360
f 359 360
l 360 361
f 360 361
l 361 362
f 361 362
l 362 363
f 362 363
l 363 364
f 363 364
l 364 365
f 364 365
l 365 366
f 365 366
l 366 367
f 366 367
l 367 368
f 367 368
l 368 369
f 368 369
l 369 370
f 369 370
l 370 371
f 370 371
l 371 372
f 371 372
l 372 373
f 372 373
l 373 374
f 373 374
l 374 375
f 374 375
l 375 376
f 375 376
l 376 377
f 376 377
l 377 378
f 377 378
l 378 379
f 378 379
l 379 380
f 379 380
l 380 381
f 380 381
l 381 382
f 381 382
l 382 383
f 382 383
l 383 384
f 383 384
l 384 385
f 384 385
l 385 386
f 385 386
l 386 387
f 386 387
l 387 388
f 387 388
l 388 389
f 388 389
l 389 390
f 389 390
l 390 391
f 390 391
l 391 392
f 391 392
l 392 393
f 392 393
l 393 394
f 393 394
l 394 395
f 394 395
l 395 396
f 395 396
l 396 397
f 396 397
l 397 398
f 397 398
l 398 399
f 398 399
l 399 400
f 399 400
l 400 401
f 400 401
l 401 402
f 401 402
l 402 403
f 402 403
l 403 404
f 403 404
l 404 405
f 404 405
l 405 406
f 405 406
l 406 407
f 406 407
l 407 408
f 407 408
l 408 409
f 408 409
l 409 410
f 409 410
l 410 411
f 410 411
l 411 412
f 411 412
l 412 413
f 412 413
l 413 414
f 413 414
l 414 415
f 414 415
l 415 416
f 415 416
l 416 417
f 416 417
l 417 418
f 417 418
l 418 419
f 418 419
l 419 420
f 419 420
l 420 421
f 420 421
l 421 422
f 421 422
l 422 423
f 422 423
l 423 424
f 423 424
l 424 425
f 424 425
l 425 426
f 425 426
l 426 427
f 426 427
l 427 428
f 427 428
l 428 429
f 428 429
l 429 430
f 429 430
l 430 431
f 430 431
l 431 432
f 431 432
l 432 433
f 432 433
l 433 434
f 433 434
l 434 435
f 434 435
l 435 436
f 435 436
l 436 437
f 436 437
l 437 438
f 437 438
l 438 439
f 438 439
l 439 440
f 439 440
l 440 441
f 440 441
l 441 442
f 441 442
l 442 443
f 442 443
l 443 444
f 443 444
l 444 445
f 444 445
l 445 446
f 445 446
l 446 447
f 446 447
l 447 448
f 447 448
l 448 449
f 448 449
l 449 450
f 449 450
l 450 451
f 450 451
l 451 452
f 451 452
l 452 453
f 452 453
l 453 454
f 453 454
l 454 455
f 454 455
l 455 456
f 455 456
l 456 457
f 456 457
l 457 458
f 457 458
l 458 459
f 458 459
l 459 460
f 459 460
l 460 461
f 460 461
l 461 462
f 461 462
l 462 463
f 462 463
l 463 464
f 463 464
l 464 465
f 464 465
l 465 466
f 465 466
l 466 467
f 466 467
l 467 468
f 467 468
l 468 469
f 468 469
l 469 470
f 469 470
l 470 471
f 470 471
l 471 472
f 471 472
l 472 473
f 472 473
l 473 474
f 473 474
l 474 475
f 474 475
l 475 476
f 475 476
l 476 477
f 476 477
l 477 478
f 477 478
l 478 479
f 478 479
l 479 480
f 479 480
l 480 481
f 480 481
l 481 482
f 481 482
l 482 483
f 482 483
l 483 484
f 483 484
l 484 485
f 484 485
l 485 486
f 485 486
l 486 487
f 486 487
l 487 488
f 487 488
l 488 489
f 488 489
l 489 490
f 489 490
l 490 491
f 490 491
l 491 492
f 491 492
l 492 493
f 492 493
l 493 494
f 493 494
l 494 495
f 494 495
l 495 496
f 495 496
l 496 497
f 496 497
l 497 498
f 497 498
l 498 499
f 498 499
l 499 500
f 499 500
l 500 501
f 500 501
l 501 502
f 501 502
l 502 503
f 502 503
l 503 504
f 503 504
l 504 505
f 504 505
l 505 506
f 505 506
l 506 507
f 506 507
l 507 508
f 507 508
l 508 509
f 508 509
l 509 510
f 509 510
l 510 511
f 510 511
l 511 512
f 511 512
l 512 513
f 512 513
l 513 514
f 513 514
l 514 515
f 514 515
l 515 516
f 515 516
l 516 517
f 516 517
l 517 518
f 517 518
l 518 519
f 518 519
l 519 520
f 519 520
l 520 521
f 520 521
l 521 522
f 521 522
l 522 523
f 522 523
l 523 524
f 523 524
l 524 525
f 524 525
l 525 526
f 525 526
l 526 527
f 526 527
l 527 528
f 527 528
l 528 529
f 528 529
l 529 530
f 529 530
l 530 531
f 530 531
l 531 532
f 531 532
l 532 533
f 532 533
l 533 534
f 533 534
l 534 535
f 534 535
l 535 536
f 535 536
l 536 537
f 536 537
l 537 538
f 537 538
l 538 539
f 538 539
l 539 540
f 539 540
l 540 541
f 540 541
l 541 542
f 541 542
l 542 543
f 542 543
l 543 544
f 543 544
l 544 545
f 544 545
l 545 546
f 545 546
l 546 547
f 546 547
l 547 548
f 547 548
l 548 549
f 548 549
l 549 550
f 549 550
l 550 551
f 550 551
l 551 552
f 551 552
l 552 553
f 552 553
l 553 554
f 553 554
l 554 555
f 554 555
l 555 556
f 555 556
l 556 557
f 556 557
l 557 558
f 557 558
l 558 559
f 558 559
l 559 560
f 559 560
l 560 561
f 560 561
l 561 562
f 561 562
l 562 563
f 562 563
l 563 564
f 563 564
l 564 565
f 564 565
l 565 566
f 565 566
l 566 567
f 566 567
l 567 568
f 567 568
l 568 569
f 568 569
l 569 570
f 569 570
l 570 571
f 570 571
l 571 572
f 571 572
l 572 573
f 572 573
l 573 574
f 573 574
l 574 575
f 574 575
l 575 576
f 575 576
l 576 577
f 576 577
l 577 578
f 577 578
l 578 579
f 578 579
l 579 580
f 579 580
l 580 581
f 580 581
l 581 582
f 581 582
l 582 583
f 582 583
l 583 584
f 583 584
l 584 585
f 584 585
l 585 586
f 585 586
l 586 587
f 586 587
l 587 588
f 587 588
l 588 589
f 588 589
l 589 590
f 589 590
l 590 591
f 590 591
l 591 592
f 591 592
l 592 593
f 592 593
l 593 594
f 593 594
l 594 595
f 594 595
l 595 596
f 595 596
l 596 597
f 596 597
l 597 598
f 597 598
l 598 599
f 598 599
l 599 600
f 599 600
l 600 601
f 600 601
l 601 602
f 601 602
l 602 603
f 602 603
l 603 604
f 603 604
l 604 605
f 604 605
l 605 606
f 605 606
l 606 607
f 606 607
l 607 608
f 607 608
l 608 609
f 608 609
l 609 610
f 609 610
l 610 611
f 610 611
l 611 612
f 611 612
l 612 613
f 612 613
l 613 614
f 613 614
l 614 615
f 614 615
l 615 616
f 615 616
l 616 617
f 616 617
l 617 618
f 617 618
l 618 619
f 618 619
l 619 620
f 619 620
l 620 621
f 620 621
l 621 622
f 621 622
l 622 623
f 622 623
l 623 624
f 623 624
l 624 625
f 624 625
l 625 626
f 625 626
l 626 627
f 626 627
l 627 628
f 627 628
l 628 629
f 628 629
l 629 630
f 629 630
l 630 631
f 630 631
l 631 632
f 631 632
l 632 633
f 632 633
l 633 634
f 633 634
l 634 635
f 634 635
l 635 636
f 635 636
l 636 637
f 636 637
l 637 638
f 637 638
l 638 639
f 638 639
l 639 640
f 639 640
l 640 641
f 640 641
l 641 642
f 641 642
l 642 643
f 642 643
l 643 644
f 643 644
l 644 645
f 644 645
l 645 646
f 645 646
l 646 647
f 646 647
l 647 648
f 647 648
l 648 649
f 648 649
l 649 650
f 649 650
l 650 651
f 650 651
l 651 652
f 651 652
l 652 653
f 652 653
l 653 654
f 653 654
l 654 655
f 654 655
l 655 656
f 655 656
l 656 657
f 656 657
l 657 658
f 657 658
l 658 659
f 658 659
l 659 660
f 659 660
l 660 661
f 660 661
l 661 662
f 661 662
l 662 663
f 662 663
l 663 664
f 663 664
l 664 665
f 664 665
l 665 666
f 665 666
l 666 667
f 666 667
l 667 668
f 667 668
l 668 669
f 668 669
l 669 670
f 669 670
l 670 671
f 670 671
l 671 672
f 671 672
l 672 673
f 672 673
l 673 674
f 673 674
l 674 675
f 674 675
l 675 676
f 675 676
l 676 677
f 676 677
l 677 678
f 677 678
l 678 679
f 678 679
l 679 680
f 679 680
l 680 681
f 680 681
l 681 682
f 681 682
l 682 683
f 682 683
l 683 684
f 683 684
l 684 685
f 684 685
l 685 686
f 685 686
l 686 687
f 686 687
l 687 688
f 687 688
l 688 689
f 688 689
l 689 690
f 689 690
l 690 691
f 690 691
l 691 692
f 691 692
l 692 693
f 692 693
l 693 694
f 693 694
l 694 695
f 694 695
l 695 696
f 695 696
l 696 697
f 696 697
l 697 698
f 697 698
l 698 699
f 698 699
l 699 700
f 699 700
l 700 701
f 700 701
l 701 702
f 701 702
l 702 703
f 702 703
l 703 704
f 703 704
l 704 705
f 704 705
l 705 706
f 705 706
l 706 707
f 706 707
l 707 708
f 707 708
l 708 709
f 708 709
l 709 710
f 709 710
l 710 711
f 710 711
l 711 712
f 711 712
l 712 713
f 712 713
l 713 714
f 713 714
l 714 715
f 714 715
l 715 716
f 715 716
l 716 717
f 716 717
l 717 718
f 717 718
l 718 719
f 718 719
l 719 720
f 719 720
l 720 721
f 720 721
l 721 722
f 721 722
l 722 723
f 722 723
l 723 724
f 723 724
l 724 725
f 724 725
l 725 726
f 725 726
l 726 727
f 726 727
l 727 728
f 727 728
l 728 729
f 728 729
l 729 730
f 729 730
l 730 731
f 730 731
l 731 732
f 731 732
l 732 733
f 732 733
l 733 734
f 733 734
l 734 735
f 734 735
l 735 736
f 735 736
l 736 737
f 736 737
l 737 738
f 737 738
l 738 739
f 738 739
l 739 740
f 739 740
l 740 741
f 740 741
l 741 742
f 741 742
l 742 743
f 742 743
l 743 744
f 743 744
l 744 745
f 744 745
l 745 746
f 745 746
l 746 747
f 746 747
l 747 748
f 747 748
l 748 749
f 748 749
l 749 750
f 749 750
l 750 751
f 750 751
l 751 752
f 751 752
l 752 753
f 752 753
l 753 754
f 753 754
l 754 755
f 754 755
l 755 756
f 755 756
l 756 757
f 756 757
l 757 758
f 757 758
l 758 759
f 758 759
l 759 760
f 759 760
l 760 761
f 760 761
l 761 762
f 761 762
l 762 763
f 762 763
l 763 764
f 763 764
l 764 765
f 764 765
l 765 766
f 765 766
l 766 767
f 766 767
l 767 768
f 767 768
l 768 769
f 768 769
l 769 770
f 769 770
l 770 771
f 770 771
l 771 772
f 771 772
l 772 773
f 772 773
l 773 774
f 773 774
l 774 775
f 774 775
l 775 776
f 775 776
l 776 777
f 776 777
l 777 778
f 777 778
l 778 779
f 778 779
l 779 780
f 779 780
l 780 781
f 780 781
l 781 782
f 781 782
l 782 783
f 782 783
l 783 784
f 783 784
l 784 785
f 784 785
l 785 786
f 785 786
l 786 787
f 786 787
l 787 788
f 787 788
l 788 789
f 788 789
l 789 790
f 789 790
l 790 791
f 790 791
l 791 792
f 791 792
l 792 793
f 792 793
l 793 794
f 793 794
l 794 795
f 794 795
l 795 796
f 795 796
l 796 797
f 796 797
l 797 798
f 797 798
l 798 799
f 798 799
l 799 800
f 799 800
l 800 801
f 800 801
l 801 802
f 801 802
l 802 803
f 802 803
l 803 804
f 803 804
l 804 805
f 804 805
l 805 806
f 805 806
l 806 807
f 806 807
l 807 808
f 807 808
l 808 809
f 808 809
l 809 810
f 809 810
l 810 811
f 810 811
l 811 812
f 811 812
l 812 813
f 812 813
l 813 814
f 813 814
l 814 815
f 814 815
l 815 816
f 815 816
l 816 817
f 816 817
l 817 818
f 817 818
l 818 819
f 818 819
l 819 820
f 819 820
l 820 821
f 820 821
l 821 822
f 821 822
l 822 823
f 822 823
l 823 824
f 823 824
l 824 825
f 824 825
l 825 826
f 825 826
l 826 827
f 826 827
l 827 828
f 827 828
l 828 829
f 828 829
l 829 830
f 829 830
l 830 831
f 830 831
l 831 832
f 831 832
l 832 833
f 832 833
l 833 834
f 833 834
l 834 835
f 834 835
l 835 836
f 835 836
l 836 837
f 836 837
l 837 838
f 837 838
l 838 839
f 838 839
l 839 840
f 839 840
l 840 841
f 840 841
l 841 842
f 841 842
l 842 843
f 842 843
l 843 844
f 843 844
l 844 845
f 844 845
l 845 846
f 845 846
l 846 847
f 846 847
l 847 848
f 847 848
l 848 849
f 848 849
l 849 850
f 849 850
l 850 851
f 850 851
l 851 852
f 851 852
l 852 853
f 852 853
l 853 854
f 853 854
l 854 855
f 854 855
l 855 856
f 855 856
l 856 857
f 856 857
l 857 858
f 857 858
l 858 859
f 858 859
l 859 860
f 859 860
l 860 861
f 860 861
l 861 862
f 861 862
l 862 863
f 862 863
l 863 864
f 863 864
l 864 865
f 864 865
l 865 866
f 865 866
l 866 867
f 866 867
l 867 868
f 867 868
l 868 869
f 868 869
l 869 870
f 869 870
l 870 871
f 870 871
l 871 872
f 871 872
l 872 873
f 872 873
l 873 874
f 873 874
l 874 875
f 874 875
l 875 876
f 875 876
l 876 877
f 876 877
l 877 878
f 877 878
l 878 879
f 878 879
l 879 880
f 879 880
l 880 881
f 880 881
l 881 882
f 881 882
l 882 883
f 882 883
l 883 884
f 883 884
l 884 885
f 884 885
l 885 886
f 885 886
l 886 887
f 886 887
l 887 888
f 887 888
l 888 889
f 888 889
l 889 890
f 889 890
l 890 891
f 890 891
l 891 892
f 891 892
l 892 893
f 892 893
l 893 894
f 893 894
l 894 895
f 894 895
l 895 896
f 895 896
l 896 897
f 896 897
l 897 898
f 897 898
l 898 899
f 898 899
l 899 900
f 899 900
l 900 901
f 900 901
l 901 902
f 901 902
l 902 903
f 902 903
l 903 904
f 903 904
l 904 905
f 904 905
l 905 906
f 905 906
l 906 907
f 906 907
l 907 908
f 907 908
l 908 909
f 908 909
l 909 910
f 909 910
l 910 911
f 910 911
l 911 912
f 911 912
l 912 913
f 912 913
l 913 914
f 913 914
l 914 915
f 914 915
l 915 916
f 915 916
l 916 917
f 916 917
l 917 918
f 917 918
l 918 919
f 918 919
l 919 920
f 919 920
l 920 921
f 920 921
l 921 922
f 921 922
l 922 923
f 922 923
l 923 924
f 923 924
l 924 925
f 924 925
l 925 926
f 925 926
l 926 927
f 926 927
l 927 928
f 927 928
l 928 929
f 928 929
l 929 930
f 929 930
l 930 931
f 930 931
l 931 932
f 931 932
l 932 933
f 932 933
l 933 934
f 933 934
l 934 935
f 934 935
l 935 936
f 935 936
l 936 937
f 936 937
l 937 938
f 937 938
l 938 939
f 938 939
l 939 940
f 939 940
l 940 941
f 940 941
l 941 942
f 941 942
l 942 943
f 942 943
l 943 944
f 943 944
l 944 945
f 944 945
l 945 946
f 945 946
l 946 947
f 946 947
l 947 948
f 947 948
l 948 949
f 948 949
l 949 950
f 949 950
l 950 951
f 950 951
l 951 952
f 951 952
l 952 953
f 952 953
l 953 954
f 953 954
l 954 955
f 954 955
l 955 956
f 955 956
l 956 957
f 956 957
l 957 958
f 957 958
l 958 959
f 958 959
l 959 960
f 959 960
