mtllib viroad.mtl
v -3.06162e-16 -5 0
v 3.06162e-16 5 0
v -5 -5 0
v -5 5 0
v -10 -5 0
v -10 5 0
v -15 -5 0
v -15 5 0
v -20 -5 0
v -20 5 0
v -25 -5 0
v -25 5 0
v -30 -5 0
v -30 5 0
v -35 -5 0
v -35 5 0
v -40 -5 0
v -40 5 0
v -45 -5 0
v -45 5 0
v -49.9375 -4.99961 0
v -50.0625 4.99961 0
v -54.7481 -5.11873 0
v -55.248 4.86877 0
v -59.4844 -5.47463 0
v -60.4828 4.47541 0
v -64.197 -6.06681 0
v -65.6914 3.8209 0
v -68.8741 -6.89378 0
v -70.8608 2.90688 0
v -73.504 -7.95348 0
v -75.9781 1.73563 0
v -78.0751 -9.24326 0
v -81.0304 0.310079 0
v -82.5761 -10.7599 0
v -86.0052 -1.3662 0
v -86.9956 -12.4996 0
v -90.8899 -3.28903 0
v -91.3227 -14.458 0
v -95.6725 -5.4536 0
v -95.5465 -16.6303 0
v -100.341 -7.8545 0
v -99.6564 -19.0109 0
v -104.883 -10.4857 0
v -103.642 -21.594 0
v -109.289 -13.3407 0
v -107.494 -24.373 0
v -113.546 -16.4123 0
v -111.202 -27.3411 0
v -117.644 -19.6928 0
v -114.757 -30.4908 0
v -121.574 -23.1741 0
v -118.15 -33.8143 0
v -125.324 -26.8474 0
v -121.373 -37.3032 0
v -128.886 -30.7035 0
v -124.417 -40.9488 0
v -132.251 -34.7329 0
v -127.276 -44.742 0
v -135.41 -38.9254 0
v -129.941 -48.6734 0
v -138.356 -43.2706 0
v -132.406 -52.733 0
v -141.081 -47.7575 0
v -134.666 -56.9108 0
v -143.578 -52.3751 0
v -136.714 -61.1963 0
v -145.841 -57.1117 0
v -138.545 -65.5788 0
v -147.865 -61.9555 0
v -140.154 -70.0473 0
v -149.644 -66.8944 0
v -141.539 -74.5907 0
v -151.175 -71.9161 0
v -142.694 -79.1976 0
v -152.452 -77.0079 0
v -143.618 -83.8565 0
v -153.473 -82.1572 0
v -144.308 -88.5558 0
v -154.235 -87.3512 0
v -144.762 -93.2837 0
v -154.737 -92.5767 0
v -144.98 -98.0497 0
v -154.977 -97.7994 0
v -145 -102.935 0
v -155 -102.914 0
v -145 -107.903 0
v -155 -107.946 0
v -144.96 -112.767 0
v -154.955 -113.081 0
v -144.702 -117.521 0
v -154.67 -118.312 0
v -144.208 -122.244 0
v -154.124 -123.533 0
v -143.478 -126.938 0
v -153.318 -128.721 0
v -142.514 -131.589 0
v -152.253 -133.861 0
v -141.32 -136.185 0
v -150.932 -138.942 0
v -139.897 -140.717 0
v -149.36 -143.95 0
v -138.249 -145.172 0
v -147.539 -148.874 0
v -136.381 -149.538 0
v -145.474 -153.7 0
v -134.297 -153.806 0
v -143.17 -158.418 0
v -132.002 -157.965 0
v -140.634 -163.014 0
v -129.502 -162.003 0
v -137.871 -167.477 0
v -126.804 -165.912 0
v -134.889 -171.797 0
v -123.913 -169.681 0
v -131.694 -175.963 0
v -120.838 -173.3 0
v -128.295 -179.964 0
v -117.586 -176.762 0
v -124.7 -183.789 0
v -114.165 -180.056 0
v -120.919 -187.431 0
v -110.583 -183.176 0
v -116.96 -190.878 0
v -106.85 -186.112 0
v -112.834 -194.124 0
v -102.975 -188.859 0
v -108.551 -197.159 0
v -98.9671 -191.408 0
v -104.122 -199.977 0
v -94.8371 -193.753 0
v -99.5568 -202.569 0
v -90.595 -195.89 0
v -94.8682 -204.931 0
v -86.2515 -197.811 0
v -90.0674 -207.055 0
v -81.8173 -199.513 0
v -85.1665 -208.936 0
v -77.3036 -200.992 0
v -80.1777 -210.57 0
v -72.7217 -202.243 0
v -75.1135 -211.952 0
v -68.083 -203.263 0
v -69.9865 -213.08 0
v -63.399 -204.05 0
v -64.8095 -213.95 0
v -58.6816 -204.602 0
v -59.5955 -214.561 0
v -53.9407 -204.918 0
v -54.3594 -214.909 0
v -49.108 -205 0
v -49.1942 -215 0
v -44.1511 -205 0
v -44.1511 -215 0
v -39.1511 -205 0
v -39.1511 -215 0
v -34.1511 -205 0
v -34.1511 -215 0
v -29.1511 -205 0
v -29.1511 -215 0
v -24.1511 -205 0
v -24.1511 -215 0
v -19.1511 -205 0
v -19.1511 -215 0
v -14.1511 -205 0
v -14.1511 -215 0
v -9.1511 -205 0
v -9.1511 -215 0
v -4.1511 -205 0
v -4.1511 -215 0
v 0.848903 -205 0
v 0.848903 -215 0
v 5.8489 -205 0
v 5.8489 -215 0
v 10.8489 -205 0
v 10.8489 -215 0
v 15.8489 -205 0
v 15.8489 -215 0
v 20.8489 -205 0
v 20.8489 -215 0
v 25.8489 -205 0
v 25.8489 -215 0
v 30.8489 -205 0
v 30.8489 -215 0
v 35.8489 -205 0
v 35.8489 -215 0
v 40.8489 -205 0
v 40.8489 -215 0
v 45.847 -205 0
v 45.8508 -215 0
v 50.7633 -204.997 0
v 50.9345 -214.996 0
v 55.5534 -204.837 0
v 56.138 -214.82 0
v 60.2865 -204.441 0
v 61.3693 -214.383 0
v 64.9939 -203.809 0
v 66.5722 -213.684 0
v 69.6637 -202.943 0
v 71.7336 -212.726 0
v 74.2845 -201.844 0
v 76.8408 -211.511 0
v 78.8445 -200.515 0
v 81.8808 -210.043 0
v 83.3325 -198.96 0
v 86.8411 -208.324 0
v 87.7371 -197.183 0
v 91.7094 -206.36 0
v 92.0474 -195.188 0
v 96.4734 -204.155 0
v 96.2525 -192.98 0
v 101.121 -201.715 0
v 100.342 -190.565 0
v 105.641 -199.045 0
v 104.306 -187.948 0
v 110.022 -196.153 0
v 108.134 -185.136 0
v 114.253 -193.045 0
v 111.817 -182.137 0
v 118.324 -189.73 0
v 115.345 -178.957 0
v 122.223 -186.215 0
v 118.71 -175.605 0
v 125.942 -182.51 0
v 121.903 -172.089 0
v 129.471 -178.624 0
v 124.916 -168.417 0
v 132.802 -174.566 0
v 127.742 -164.6 0
v 135.925 -170.347 0
v 130.374 -160.646 0
v 138.834 -165.977 0
v 132.805 -156.566 0
v 141.521 -161.467 0
v 135.029 -152.369 0
v 143.979 -156.829 0
v 137.04 -148.066 0
v 146.202 -152.073 0
v 138.834 -143.668 0
v 148.185 -147.212 0
v 140.405 -139.186 0
v 149.922 -142.258 0
v 141.751 -134.631 0
v 151.409 -137.224 0
v 142.868 -130.015 0
v 152.643 -132.122 0
v 143.752 -125.348 0
v 153.62 -126.964 0
v 144.402 -120.643 0
v 154.339 -121.764 0
v 144.816 -115.912 0
v 154.796 -116.534 0
v 144.993 -111.13 0
v 154.991 -111.324 0
v 145 -106.223 0
v 155 -106.23 0
v 145 -101.262 0
v 155 -101.191 0
v 144.932 -96.4199 0
v 154.925 -96.035 0
v 144.634 -91.6758 0
v 154.596 -90.7996 0
v 144.1 -86.9564 0
v 154.005 -85.5833 0
v 143.331 -82.2695 0
v 153.155 -80.4031 0
v 142.328 -77.6269 0
v 152.046 -75.2719 0
v 141.094 -73.0403 0
v 150.683 -70.2025 0
v 139.633 -68.5211 0
v 149.068 -65.2075 0
v 137.947 -64.0805 0
v 147.205 -60.2995 0
v 136.042 -59.7298 0
v 145.099 -55.4908 0
v 133.922 -55.4797 0
v 142.756 -50.7933 0
v 131.592 -51.3409 0
v 140.181 -46.2188 0
v 129.058 -47.3237 0
v 137.38 -41.7788 0
v 126.326 -43.4381 0
v 134.361 -37.4842 0
v 123.404 -39.694 0
v 131.131 -33.346 0
v 120.298 -36.1006 0
v 127.698 -29.3743 0
v 117.017 -32.6669 0
v 124.071 -25.5792 0
v 113.568 -29.4016 0
v 120.259 -21.9701 0
v 109.96 -26.3127 0
v 116.271 -18.5561 0
v 106.202 -23.408 0
v 112.118 -15.3456 0
v 102.303 -20.6947 0
v 107.809 -12.3468 0
v 98.2742 -18.1797 0
v 103.356 -9.56699 0
v 94.1245 -15.8692 0
v 98.7691 -7.01327 0
v 89.8644 -13.769 0
v 94.0607 -4.69199 0
v 85.5047 -11.8843 0
v 89.2421 -2.60893 0
v 81.0563 -10.2199 0
v 84.3254 -0.769315 0
v 76.5302 -8.77988 0
v 79.3229 0.822262 0
v 71.9378 -7.56789 0
v 74.2471 2.16182 0
v 67.2906 -6.58695 0
v 69.1107 3.24602 0
v 62.6002 -5.83951 0
v 63.9265 4.07214 0
v 57.8782 -5.32743 0
v 58.7075 4.63812 0
v 53.1293 -5.05175 0
v 53.4741 4.9423 0
v 48.2749 -4.99993 0
v 48.3296 4.99993 0
v 43.3022 -5 0
v 43.3022 5 0
v 38.3022 -5 0
v 38.3022 5 0
v 33.3022 -5 0
v 33.3022 5 0
v 28.3022 -5 0
v 28.3022 5 0
v 23.3022 -5 0
v 23.3022 5 0
v 18.3022 -5 0
v 18.3022 5 0
v 13.3022 -5 0
v 13.3022 5 0
v 8.30223 -5 0
v 8.30223 5 0
v 3.30223 -5 0
v 3.30223 5 0
v 0.818531 -5 0
v 0.818531 5 0
vt 0.5 -6.12323e-17 0
vt -0.5 6.12323e-17 0
vt 0.5 -0.5 0
vt -0.5 -0.5 0
vt 0.5 -1 0
vt -0.5 -1 0
vt 0.5 -1.5 0
vt -0.5 -1.5 0
vt 0.5 -2 0
vt -0.5 -2 0
vt 0.5 -2.5 0
vt -0.5 -2.5 0
vt 0.5 -3 0
vt -0.5 -3 0
vt 0.5 -3.5 0
vt -0.5 -3.5 0
vt 0.5 -4 0
vt -0.5 -4 0
vt 0.5 -4.5 0
vt -0.5 -4.5 0
vt 0.5 -5 0
vt -0.5 -5 0
vt 0.5 -5.5 0
vt -0.5 -5.5 0
vt 0.5 -6 0
vt -0.5 -6 0
vt 0.5 -6.5 0
vt -0.5 -6.5 0
vt 0.5 -7 0
vt -0.5 -7 0
vt 0.5 -7.5 0
vt -0.5 -7.5 0
vt 0.5 -8 0
vt -0.5 -8 0
vt 0.5 -8.5 0
vt -0.5 -8.5 0
vt 0.5 -9 0
vt -0.5 -9 0
vt 0.5 -9.5 0
vt -0.5 -9.5 0
vt 0.5 -10 0
vt -0.5 -10 0
vt 0.5 -10.5 0
vt -0.5 -10.5 0
vt 0.5 -11 0
vt -0.5 -11 0
vt 0.5 -11.5 0
vt -0.5 -11.5 0
vt 0.5 -12 0
vt -0.5 -12 0
vt 0.5 -12.5 0
vt -0.5 -12.5 0
vt 0.5 -13 0
vt -0.5 -13 0
vt 0.5 -13.5 0
vt -0.5 -13.5 0
vt 0.5 -14 0
vt -0.5 -14 0
vt 0.5 -14.5 0
vt -0.5 -14.5 0
vt 0.5 -15 0
vt -0.5 -15 0
vt 0.5 -15.5 0
vt -0.5 -15.5 0
vt 0.5 -16 0
vt -0.5 -16 0
vt 0.5 -16.5 0
vt -0.5 -16.5 0
vt 0.5 -17 0
vt -0.5 -17 0
vt 0.5 -17.5 0
vt -0.5 -17.5 0
vt 0.5 -18 0
vt -0.5 -18 0
vt 0.5 -18.5 0
vt -0.5 -18.5 0
vt 0.5 -19 0
vt -0.5 -19 0
vt 0.5 -19.5 0
vt -0.5 -19.5 0
vt 0.5 -20 0
vt -0.5 -20 0
vt 0.5 -20.5 0
vt -0.5 -20.5 0
vt 0.5 -21 0
vt -0.5 -21 0
vt 0.5 -21.5 0
vt -0.5 -21.5 0
vt 0.5 -22 0
vt -0.5 -22 0
vt 0.5 -22.5 0
vt -0.5 -22.5 0
vt 0.5 -23 0
vt -0.5 -23 0
vt 0.5 -23.5 0
vt -0.5 -23.5 0
vt 0.5 -24 0
vt -0.5 -24 0
vt 0.5 -24.5 0
vt -0.5 -24.5 0
vt 0.5 -25 0
vt -0.5 -25 0
vt 0.5 -25.5 0
vt -0.5 -25.5 0
vt 0.5 -26 0
vt -0.5 -26 0
vt 0.5 -26.5 0
vt -0.5 -26.5 0
vt 0.5 -27 0
vt -0.5 -27 0
vt 0.5 -27.5 0
vt -0.5 -27.5 0
vt 0.5 -28 0
vt -0.5 -28 0
vt 0.5 -28.5 0
vt -0.5 -28.5 0
vt 0.5 -29 0
vt -0.5 -29 0
vt 0.5 -29.5 0
vt -0.5 -29.5 0
vt 0.5 -30 0
vt -0.5 -30 0
vt 0.5 -30.5 0
vt -0.5 -30.5 0
vt 0.5 -31 0
vt -0.5 -31 0
vt 0.5 -31.5 0
vt -0.5 -31.5 0
vt 0.5 -32 0
vt -0.5 -32 0
vt 0.5 -32.5 0
vt -0.5 -32.5 0
vt 0.5 -33 0
vt -0.5 -33 0
vt 0.5 -33.5 0
vt -0.5 -33.5 0
vt 0.5 -34 0
vt -0.5 -34 0
vt 0.5 -34.5 0
vt -0.5 -34.5 0
vt 0.5 -35 0
vt -0.5 -35 0
vt 0.5 -35.5 0
vt -0.5 -35.5 0
vt 0.5 -36 0
vt -0.5 -36 0
vt 0.5 -36.5 0
vt -0.5 -36.5 0
vt 0.5 -37 0
vt -0.5 -37 0
vt 0.5 -37.5 0
vt -0.5 -37.5 0
vt 0.5 -38 0
vt -0.5 -38 0
vt 0.5 -38.5 0
vt -0.5 -38.5 0
vt 0.5 -39 0
vt -0.5 -39 0
vt 0.5 -39.5 0
vt -0.5 -39.5 0
vt 0.5 -40 0
vt -0.5 -40 0
vt 0.5 -40.5 0
vt -0.5 -40.5 0
vt 0.5 -41 0
vt -0.5 -41 0
vt 0.5 -41.5 0
vt -0.5 -41.5 0
vt 0.5 -42 0
vt -0.5 -42 0
vt 0.5 -42.5 0
vt -0.5 -42.5 0
vt 0.5 -43 0
vt -0.5 -43 0
vt 0.5 -43.5 0
vt -0.5 -43.5 0
vt 0.5 -44 0
vt -0.5 -44 0
vt 0.5 -44.5 0
vt -0.5 -44.5 0
vt 0.5 -45 0
vt -0.5 -45 0
vt 0.5 -45.5 0
vt -0.5 -45.5 0
vt 0.5 -46 0
vt -0.5 -46 0
vt 0.5 -46.5 0
vt -0.5 -46.5 0
vt 0.5 -47 0
vt -0.5 -47 0
vt 0.5 -47.5 0
vt -0.5 -47.5 0
vt 0.5 -48 0
vt -0.5 -48 0
vt 0.5 -48.5 0
vt -0.5 -48.5 0
vt 0.5 -49 0
vt -0.5 -49 0
vt 0.5 -49.5 0
vt -0.5 -49.5 0
vt 0.5 -50 0
vt -0.5 -50 0
vt 0.5 -50.5 0
vt -0.5 -50.5 0
vt 0.5 -51 0
vt -0.5 -51 0
vt 0.5 -51.5 0
vt -0.5 -51.5 0
vt 0.5 -52 0
vt -0.5 -52 0
vt 0.5 -52.5 0
vt -0.5 -52.5 0
vt 0.5 -53 0
vt -0.5 -53 0
vt 0.5 -53.5 0
vt -0.5 -53.5 0
vt 0.5 -54 0
vt -0.5 -54 0
vt 0.5 -54.5 0
vt -0.5 -54.5 0
vt 0.5 -55 0
vt -0.5 -55 0
vt 0.5 -55.5 0
vt -0.5 -55.5 0
vt 0.5 -56 0
vt -0.5 -56 0
vt 0.5 -56.5 0
vt -0.5 -56.5 0
vt 0.5 -57 0
vt -0.5 -57 0
vt 0.5 -57.5 0
vt -0.5 -57.5 0
vt 0.5 -58 0
vt -0.5 -58 0
vt 0.5 -58.5 0
vt -0.5 -58.5 0
vt 0.5 -59 0
vt -0.5 -59 0
vt 0.5 -59.5 0
vt -0.5 -59.5 0
vt 0.5 -60 0
vt -0.5 -60 0
vt 0.5 -60.5 0
vt -0.5 -60.5 0
vt 0.5 -61 0
vt -0.5 -61 0
vt 0.5 -61.5 0
vt -0.5 -61.5 0
vt 0.5 -62 0
vt -0.5 -62 0
vt 0.5 -62.5 0
vt -0.5 -62.5 0
vt 0.5 -63 0
vt -0.5 -63 0
vt 0.5 -63.5 0
vt -0.5 -63.5 0
vt 0.5 -64 0
vt -0.5 -64 0
vt 0.5 -64.5 0
vt -0.5 -64.5 0
vt 0.5 -65 0
vt -0.5 -65 0
vt 0.5 -65.5 0
vt -0.5 -65.5 0
vt 0.5 -66 0
vt -0.5 -66 0
vt 0.5 -66.5 0
vt -0.5 -66.5 0
vt 0.5 -67 0
vt -0.5 -67 0
vt 0.5 -67.5 0
vt -0.5 -67.5 0
vt 0.5 -68 0
vt -0.5 -68 0
vt 0.5 -68.5 0
vt -0.5 -68.5 0
vt 0.5 -69 0
vt -0.5 -69 0
vt 0.5 -69.5 0
vt -0.5 -69.5 0
vt 0.5 -70 0
vt -0.5 -70 0
vt 0.5 -70.5 0
vt -0.5 -70.5 0
vt 0.5 -71 0
vt -0.5 -71 0
vt 0.5 -71.5 0
vt -0.5 -71.5 0
vt 0.5 -72 0
vt -0.5 -72 0
vt 0.5 -72.5 0
vt -0.5 -72.5 0
vt 0.5 -73 0
vt -0.5 -73 0
vt 0.5 -73.5 0
vt -0.5 -73.5 0
vt 0.5 -74 0
vt -0.5 -74 0
vt 0.5 -74.5 0
vt -0.5 -74.5 0
vt 0.5 -75 0
vt -0.5 -75 0
vt 0.5 -75.5 0
vt -0.5 -75.5 0
vt 0.5 -76 0
vt -0.5 -76 0
vt 0.5 -76.5 0
vt -0.5 -76.5 0
vt 0.5 -77 0
vt -0.5 -77 0
vt 0.5 -77.5 0
vt -0.5 -77.5 0
vt 0.5 -78 0
vt -0.5 -78 0
vt 0.5 -78.5 0
vt -0.5 -78.5 0
vt 0.5 -79 0
vt -0.5 -79 0
vt 0.5 -79.5 0
vt -0.5 -79.5 0
vt 0.5 -80 0
vt -0.5 -80 0
vt 0.5 -80.5 0
vt -0.5 -80.5 0
vt 0.5 -81 0
vt -0.5 -81 0
vt 0.5 -81.5 0
vt -0.5 -81.5 0
vt 0.5 -82 0
vt -0.5 -82 0
vt 0.5 -82.5 0
vt -0.5 -82.5 0
vt 0.5 -83 0
vt -0.5 -83 0
vt 0.5 -83.5 0
vt -0.5 -83.5 0
vt 0.5 -84 0
vt -0.5 -84 0
vt 0.5 -84.5 0
vt -0.5 -84.5 0
vt 0.5 -84.7484 0
vt -0.5 -84.7484 0
g vroa_road
usemtl GRAY
f 4/4 1/1 2/2
f 4/4 3/3 1/1
f 6/6 3/3 4/4
f 6/6 5/5 3/3
f 8/8 5/5 6/6
f 8/8 7/7 5/5
f 10/10 7/7 8/8
f 10/10 9/9 7/7
f 12/12 9/9 10/10
f 12/12 11/11 9/9
f 14/14 11/11 12/12
f 14/14 13/13 11/11
f 16/16 13/13 14/14
f 16/16 15/15 13/13
f 18/18 15/15 16/16
f 18/18 17/17 15/15
f 20/20 17/17 18/18
f 20/20 19/19 17/17
f 22/22 19/19 20/20
f 22/22 21/21 19/19
f 24/24 21/21 22/22
f 24/24 23/23 21/21
f 26/26 23/23 24/24
f 26/26 25/25 23/23
f 28/28 25/25 26/26
f 28/28 27/27 25/25
f 30/30 27/27 28/28
f 30/30 29/29 27/27
f 32/32 29/29 30/30
f 32/32 31/31 29/29
f 34/34 31/31 32/32
f 34/34 33/33 31/31
f 36/36 33/33 34/34
f 36/36 35/35 33/33
f 38/38 35/35 36/36
f 38/38 37/37 35/35
f 40/40 37/37 38/38
f 40/40 39/39 37/37
f 42/42 39/39 40/40
f 42/42 41/41 39/39
f 44/44 41/41 42/42
f 44/44 43/43 41/41
f 46/46 43/43 44/44
f 46/46 45/45 43/43
f 48/48 45/45 46/46
f 48/48 47/47 45/45
f 50/50 47/47 48/48
f 50/50 49/49 47/47
f 52/52 49/49 50/50
f 52/52 51/51 49/49
f 54/54 51/51 52/52
f 54/54 53/53 51/51
f 56/56 53/53 54/54
f 56/56 55/55 53/53
f 58/58 55/55 56/56
f 58/58 57/57 55/55
f 60/60 57/57 58/58
f 60/60 59/59 57/57
f 62/62 59/59 60/60
f 62/62 61/61 59/59
f 64/64 61/61 62/62
f 64/64 63/63 61/61
f 66/66 63/63 64/64
f 66/66 65/65 63/63
f 68/68 65/65 66/66
f 68/68 67/67 65/65
f 70/70 67/67 68/68
f 70/70 69/69 67/67
f 72/72 69/69 70/70
f 72/72 71/71 69/69
f 74/74 71/71 72/72
f 74/74 73/73 71/71
f 76/76 73/73 74/74
f 76/76 75/75 73/73
f 78/78 75/75 76/76
f 78/78 77/77 75/75
f 80/80 77/77 78/78
f 80/80 79/79 77/77
f 82/82 79/79 80/80
f 82/82 81/81 79/79
f 84/84 81/81 82/82
f 84/84 83/83 81/81
f 86/86 83/83 84/84
f 86/86 85/85 83/83
f 88/88 85/85 86/86
f 88/88 87/87 85/85
f 90/90 87/87 88/88
f 90/90 89/89 87/87
f 92/92 89/89 90/90
f 92/92 91/91 89/89
f 94/94 91/91 92/92
f 94/94 93/93 91/91
f 96/96 93/93 94/94
f 96/96 95/95 93/93
f 98/98 95/95 96/96
f 98/98 97/97 95/95
f 100/100 97/97 98/98
f 100/100 99/99 97/97
f 102/102 99/99 100/100
f 102/102 101/101 99/99
f 104/104 101/101 102/102
f 104/104 103/103 101/101
f 106/106 103/103 104/104
f 106/106 105/105 103/103
f 108/108 105/105 106/106
f 108/108 107/107 105/105
f 110/110 107/107 108/108
f 110/110 109/109 107/107
f 112/112 109/109 110/110
f 112/112 111/111 109/109
f 114/114 111/111 112/112
f 114/114 113/113 111/111
f 116/116 113/113 114/114
f 116/116 115/115 113/113
f 118/118 115/115 116/116
f 118/118 117/117 115/115
f 120/120 117/117 118/118
f 120/120 119/119 117/117
f 122/122 119/119 120/120
f 122/122 121/121 119/119
f 124/124 121/121 122/122
f 124/124 123/123 121/121
f 126/126 123/123 124/124
f 126/126 125/125 123/123
f 128/128 125/125 126/126
f 128/128 127/127 125/125
f 130/130 127/127 128/128
f 130/130 129/129 127/127
f 132/132 129/129 130/130
f 132/132 131/131 129/129
f 134/134 131/131 132/132
f 134/134 133/133 131/131
f 136/136 133/133 134/134
f 136/136 135/135 133/133
f 138/138 135/135 136/136
f 138/138 137/137 135/135
f 140/140 137/137 138/138
f 140/140 139/139 137/137
f 142/142 139/139 140/140
f 142/142 141/141 139/139
f 144/144 141/141 142/142
f 144/144 143/143 141/141
f 146/146 143/143 144/144
f 146/146 145/145 143/143
f 148/148 145/145 146/146
f 148/148 147/147 145/145
f 150/150 147/147 148/148
f 150/150 149/149 147/147
f 152/152 149/149 150/150
f 152/152 151/151 149/149
f 154/154 151/151 152/152
f 154/154 153/153 151/151
f 156/156 153/153 154/154
f 156/156 155/155 153/153
f 158/158 155/155 156/156
f 158/158 157/157 155/155
f 160/160 157/157 158/158
f 160/160 159/159 157/157
f 162/162 159/159 160/160
f 162/162 161/161 159/159
f 164/164 161/161 162/162
f 164/164 163/163 161/161
f 166/166 163/163 164/164
f 166/166 165/165 163/163
f 168/168 165/165 166/166
f 168/168 167/167 165/165
f 170/170 167/167 168/168
f 170/170 169/169 167/167
f 172/172 169/169 170/170
f 172/172 171/171 169/169
f 174/174 171/171 172/172
f 174/174 173/173 171/171
f 176/176 173/173 174/174
f 176/176 175/175 173/173
f 178/178 175/175 176/176
f 178/178 177/177 175/175
f 180/180 177/177 178/178
f 180/180 179/179 177/177
f 182/182 179/179 180/180
f 182/182 181/181 179/179
f 184/184 181/181 182/182
f 184/184 183/183 181/181
f 186/186 183/183 184/184
f 186/186 185/185 183/183
f 188/188 185/185 186/186
f 188/188 187/187 185/185
f 190/190 187/187 188/188
f 190/190 189/189 187/187
f 192/192 189/189 190/190
f 192/192 191/191 189/189
f 194/194 191/191 192/192
f 194/194 193/193 191/191
f 196/196 193/193 194/194
f 196/196 195/195 193/193
f 198/198 195/195 196/196
f 198/198 197/197 195/195
f 200/200 197/197 198/198
f 200/200 199/199 197/197
f 202/202 199/199 200/200
f 202/202 201/201 199/199
f 204/204 201/201 202/202
f 204/204 203/203 201/201
f 206/206 203/203 204/204
f 206/206 205/205 203/203
f 208/208 205/205 206/206
f 208/208 207/207 205/205
f 210/210 207/207 208/208
f 210/210 209/209 207/207
f 212/212 209/209 210/210
f 212/212 211/211 209/209
f 214/214 211/211 212/212
f 214/214 213/213 211/211
f 216/216 213/213 214/214
f 216/216 215/215 213/213
f 218/218 215/215 216/216
f 218/218 217/217 215/215
f 220/220 217/217 218/218
f 220/220 219/219 217/217
f 222/222 219/219 220/220
f 222/222 221/221 219/219
f 224/224 221/221 222/222
f 224/224 223/223 221/221
f 226/226 223/223 224/224
f 226/226 225/225 223/223
f 228/228 225/225 226/226
f 228/228 227/227 225/225
f 230/230 227/227 228/228
f 230/230 229/229 227/227
f 232/232 229/229 230/230
f 232/232 231/231 229/229
f 234/234 231/231 232/232
f 234/234 233/233 231/231
f 236/236 233/233 234/234
f 236/236 235/235 233/233
f 238/238 235/235 236/236
f 238/238 237/237 235/235
f 240/240 237/237 238/238
f 240/240 239/239 237/237
f 242/242 239/239 240/240
f 242/242 241/241 239/239
f 244/244 241/241 242/242
f 244/244 243/243 241/241
f 246/246 243/243 244/244
f 246/246 245/245 243/243
f 248/248 245/245 246/246
f 248/248 247/247 245/245
f 250/250 247/247 248/248
f 250/250 249/249 247/247
f 252/252 249/249 250/250
f 252/252 251/251 249/249
f 254/254 251/251 252/252
f 254/254 253/253 251/251
f 256/256 253/253 254/254
f 256/256 255/255 253/253
f 258/258 255/255 256/256
f 258/258 257/257 255/255
f 260/260 257/257 258/258
f 260/260 259/259 257/257
f 262/262 259/259 260/260
f 262/262 261/261 259/259
f 264/264 261/261 262/262
f 264/264 263/263 261/261
f 266/266 263/263 264/264
f 266/266 265/265 263/263
f 268/268 265/265 266/266
f 268/268 267/267 265/265
f 270/270 267/267 268/268
f 270/270 269/269 267/267
f 272/272 269/269 270/270
f 272/272 271/271 269/269
f 274/274 271/271 272/272
f 274/274 273/273 271/271
f 276/276 273/273 274/274
f 276/276 275/275 273/273
f 278/278 275/275 276/276
f 278/278 277/277 275/275
f 280/280 277/277 278/278
f 280/280 279/279 277/277
f 282/282 279/279 280/280
f 282/282 281/281 279/279
f 284/284 281/281 282/282
f 284/284 283/283 281/281
f 286/286 283/283 284/284
f 286/286 285/285 283/283
f 288/288 285/285 286/286
f 288/288 287/287 285/285
f 290/290 287/287 288/288
f 290/290 289/289 287/287
f 292/292 289/289 290/290
f 292/292 291/291 289/289
f 294/294 291/291 292/292
f 294/294 293/293 291/291
f 296/296 293/293 294/294
f 296/296 295/295 293/293
f 298/298 295/295 296/296
f 298/298 297/297 295/295
f 300/300 297/297 298/298
f 300/300 299/299 297/297
f 302/302 299/299 300/300
f 302/302 301/301 299/299
f 304/304 301/301 302/302
f 304/304 303/303 301/301
f 306/306 303/303 304/304
f 306/306 305/305 303/303
f 308/308 305/305 306/306
f 308/308 307/307 305/305
f 310/310 307/307 308/308
f 310/310 309/309 307/307
f 312/312 309/309 310/310
f 312/312 311/311 309/309
f 314/314 311/311 312/312
f 314/314 313/313 311/311
f 316/316 313/313 314/314
f 316/316 315/315 313/313
f 318/318 315/315 316/316
f 318/318 317/317 315/315
f 320/320 317/317 318/318
f 320/320 319/319 317/317
f 322/322 319/319 320/320
f 322/322 321/321 319/319
f 324/324 321/321 322/322
f 324/324 323/323 321/321
f 326/326 323/323 324/324
f 326/326 325/325 323/323
f 328/328 325/325 326/326
f 328/328 327/327 325/325
f 330/330 327/327 328/328
f 330/330 329/329 327/327
f 332/332 329/329 330/330
f 332/332 331/331 329/329
f 334/334 331/331 332/332
f 334/334 333/333 331/331
f 336/336 333/333 334/334
f 336/336 335/335 333/333
f 338/338 335/335 336/336
f 338/338 337/337 335/335
f 340/340 337/337 338/338
f 340/340 339/339 337/337
f 342/342 339/339 340/340
f 342/342 341/341 339/339
